G04 #@! TF.GenerationSoftware,KiCad,Pcbnew,(6.0.5)*
G04 #@! TF.CreationDate,2022-09-14T22:51:16+02:00*
G04 #@! TF.ProjectId,B3,42332e6b-6963-4616-945f-706362585858,rev?*
G04 #@! TF.SameCoordinates,Original*
G04 #@! TF.FileFunction,Soldermask,Bot*
G04 #@! TF.FilePolarity,Negative*
%FSLAX46Y46*%
G04 Gerber Fmt 4.6, Leading zero omitted, Abs format (unit mm)*
G04 Created by KiCad (PCBNEW (6.0.5)) date 2022-09-14 22:51:16*
%MOMM*%
%LPD*%
G01*
G04 APERTURE LIST*
%ADD10R,1.700000X1.700000*%
%ADD11O,1.700000X1.700000*%
%ADD12C,5.600000*%
G04 APERTURE END LIST*
D10*
X190000000Y-65000000D03*
D11*
X192540000Y-65000000D03*
X190000000Y-67540000D03*
X192540000Y-67540000D03*
X190000000Y-70080000D03*
X192540000Y-70080000D03*
X190000000Y-72620000D03*
X192540000Y-72620000D03*
X190000000Y-75160000D03*
X192540000Y-75160000D03*
X190000000Y-77700000D03*
X192540000Y-77700000D03*
X190000000Y-80240000D03*
X192540000Y-80240000D03*
X190000000Y-82780000D03*
X192540000Y-82780000D03*
X190000000Y-85320000D03*
X192540000Y-85320000D03*
X190000000Y-87860000D03*
X192540000Y-87860000D03*
D10*
X192500000Y-132660000D03*
D11*
X189960000Y-132660000D03*
X192500000Y-130120000D03*
X189960000Y-130120000D03*
X192500000Y-127580000D03*
X189960000Y-127580000D03*
X192500000Y-125040000D03*
X189960000Y-125040000D03*
X192500000Y-122500000D03*
X189960000Y-122500000D03*
X192500000Y-119960000D03*
X189960000Y-119960000D03*
X192500000Y-117420000D03*
X189960000Y-117420000D03*
X192500000Y-114880000D03*
X189960000Y-114880000D03*
X192500000Y-112340000D03*
X189960000Y-112340000D03*
X192500000Y-109800000D03*
X189960000Y-109800000D03*
D12*
X103406802Y-56930538D03*
D10*
X135200000Y-137500000D03*
D11*
X135200000Y-140040000D03*
X132660000Y-137500000D03*
X132660000Y-140040000D03*
X130120000Y-137500000D03*
X130120000Y-140040000D03*
X127580000Y-137500000D03*
X127580000Y-140040000D03*
X125040000Y-137500000D03*
X125040000Y-140040000D03*
X122500000Y-137500000D03*
X122500000Y-140040000D03*
X119960000Y-137500000D03*
X119960000Y-140040000D03*
X117420000Y-137500000D03*
X117420000Y-140040000D03*
X114880000Y-137500000D03*
X114880000Y-140040000D03*
X112340000Y-137500000D03*
X112340000Y-140040000D03*
D12*
X103406802Y-141055538D03*
X196406802Y-56930538D03*
X196406802Y-141055538D03*
M02*
