G04 #@! TF.GenerationSoftware,KiCad,Pcbnew,(6.0.5)*
G04 #@! TF.CreationDate,2022-09-14T22:51:16+02:00*
G04 #@! TF.ProjectId,B3,42332e6b-6963-4616-945f-706362585858,rev?*
G04 #@! TF.SameCoordinates,Original*
G04 #@! TF.FileFunction,Paste,Top*
G04 #@! TF.FilePolarity,Positive*
%FSLAX46Y46*%
G04 Gerber Fmt 4.6, Leading zero omitted, Abs format (unit mm)*
G04 Created by KiCad (PCBNEW (6.0.5)) date 2022-09-14 22:51:16*
%MOMM*%
%LPD*%
G01*
G04 APERTURE LIST*
G04 Aperture macros list*
%AMRoundRect*
0 Rectangle with rounded corners*
0 $1 Rounding radius*
0 $2 $3 $4 $5 $6 $7 $8 $9 X,Y pos of 4 corners*
0 Add a 4 corners polygon primitive as box body*
4,1,4,$2,$3,$4,$5,$6,$7,$8,$9,$2,$3,0*
0 Add four circle primitives for the rounded corners*
1,1,$1+$1,$2,$3*
1,1,$1+$1,$4,$5*
1,1,$1+$1,$6,$7*
1,1,$1+$1,$8,$9*
0 Add four rect primitives between the rounded corners*
20,1,$1+$1,$2,$3,$4,$5,0*
20,1,$1+$1,$4,$5,$6,$7,0*
20,1,$1+$1,$6,$7,$8,$9,0*
20,1,$1+$1,$8,$9,$2,$3,0*%
G04 Aperture macros list end*
%ADD10RoundRect,0.225000X-0.225000X-0.250000X0.225000X-0.250000X0.225000X0.250000X-0.225000X0.250000X0*%
%ADD11RoundRect,0.150000X-0.825000X-0.150000X0.825000X-0.150000X0.825000X0.150000X-0.825000X0.150000X0*%
%ADD12RoundRect,0.150000X-0.725000X-0.150000X0.725000X-0.150000X0.725000X0.150000X-0.725000X0.150000X0*%
%ADD13RoundRect,0.150000X-0.875000X-0.150000X0.875000X-0.150000X0.875000X0.150000X-0.875000X0.150000X0*%
G04 APERTURE END LIST*
D10*
X172896665Y-63570000D03*
X174446665Y-63570000D03*
X183945000Y-46740000D03*
X185495000Y-46740000D03*
D11*
X121059999Y-79490000D03*
X121059999Y-80760000D03*
X121059999Y-82030000D03*
X121059999Y-83300000D03*
X121059999Y-84570000D03*
X121059999Y-85840000D03*
X121059999Y-87110000D03*
X126009999Y-87110000D03*
X126009999Y-85840000D03*
X126009999Y-84570000D03*
X126009999Y-83300000D03*
X126009999Y-82030000D03*
X126009999Y-80760000D03*
X126009999Y-79490000D03*
D10*
X126625000Y-77700000D03*
X128175000Y-77700000D03*
D12*
X120938333Y-65465000D03*
X120938333Y-66735000D03*
X120938333Y-68005000D03*
X120938333Y-69275000D03*
X120938333Y-70545000D03*
X120938333Y-71815000D03*
X120938333Y-73085000D03*
X120938333Y-74355000D03*
X126088333Y-74355000D03*
X126088333Y-73085000D03*
X126088333Y-71815000D03*
X126088333Y-70545000D03*
X126088333Y-69275000D03*
X126088333Y-68005000D03*
X126088333Y-66735000D03*
X126088333Y-65465000D03*
D10*
X139612500Y-46740000D03*
X141162500Y-46740000D03*
D13*
X130125000Y-48765000D03*
X130125000Y-50035000D03*
X130125000Y-51305000D03*
X130125000Y-52575000D03*
X130125000Y-53845000D03*
X130125000Y-55115000D03*
X130125000Y-56385000D03*
X130125000Y-57655000D03*
X130125000Y-58925000D03*
X130125000Y-60195000D03*
X139425000Y-60195000D03*
X139425000Y-58925000D03*
X139425000Y-57655000D03*
X139425000Y-56385000D03*
X139425000Y-55115000D03*
X139425000Y-53845000D03*
X139425000Y-52575000D03*
X139425000Y-51305000D03*
X139425000Y-50035000D03*
X139425000Y-48765000D03*
D10*
X126663333Y-63570000D03*
X128213333Y-63570000D03*
D13*
X115350000Y-48765000D03*
X115350000Y-50035000D03*
X115350000Y-51305000D03*
X115350000Y-52575000D03*
X115350000Y-53845000D03*
X115350000Y-55115000D03*
X115350000Y-56385000D03*
X115350000Y-57655000D03*
X115350000Y-58925000D03*
X115350000Y-60195000D03*
X124650000Y-60195000D03*
X124650000Y-58925000D03*
X124650000Y-57655000D03*
X124650000Y-56385000D03*
X124650000Y-55115000D03*
X124650000Y-53845000D03*
X124650000Y-52575000D03*
X124650000Y-51305000D03*
X124650000Y-50035000D03*
X124650000Y-48765000D03*
D11*
X178891666Y-65420000D03*
X178891666Y-66690000D03*
X178891666Y-67960000D03*
X178891666Y-69230000D03*
X178891666Y-70500000D03*
X178891666Y-71770000D03*
X178891666Y-73040000D03*
X183841666Y-73040000D03*
X183841666Y-71770000D03*
X183841666Y-70500000D03*
X183841666Y-69230000D03*
X183841666Y-67960000D03*
X183841666Y-66690000D03*
X183841666Y-65420000D03*
D10*
X124835000Y-46740000D03*
X126385000Y-46740000D03*
X138221666Y-63570000D03*
X139771666Y-63570000D03*
D11*
X167328333Y-65420000D03*
X167328333Y-66690000D03*
X167328333Y-67960000D03*
X167328333Y-69230000D03*
X167328333Y-70500000D03*
X167328333Y-71770000D03*
X167328333Y-73040000D03*
X172278333Y-73040000D03*
X172278333Y-71770000D03*
X172278333Y-70500000D03*
X172278333Y-69230000D03*
X172278333Y-67960000D03*
X172278333Y-66690000D03*
X172278333Y-65420000D03*
D10*
X149745000Y-77700000D03*
X151295000Y-77700000D03*
D11*
X109475000Y-79490000D03*
X109475000Y-80760000D03*
X109475000Y-82030000D03*
X109475000Y-83300000D03*
X109475000Y-84570000D03*
X109475000Y-85840000D03*
X109475000Y-87110000D03*
X114425000Y-87110000D03*
X114425000Y-85840000D03*
X114425000Y-84570000D03*
X114425000Y-83300000D03*
X114425000Y-82030000D03*
X114425000Y-80760000D03*
X114425000Y-79490000D03*
D13*
X159675000Y-48765000D03*
X159675000Y-50035000D03*
X159675000Y-51305000D03*
X159675000Y-52575000D03*
X159675000Y-53845000D03*
X159675000Y-55115000D03*
X159675000Y-56385000D03*
X159675000Y-57655000D03*
X159675000Y-58925000D03*
X159675000Y-60195000D03*
X168975000Y-60195000D03*
X168975000Y-58925000D03*
X168975000Y-57655000D03*
X168975000Y-56385000D03*
X168975000Y-55115000D03*
X168975000Y-53845000D03*
X168975000Y-52575000D03*
X168975000Y-51305000D03*
X168975000Y-50035000D03*
X168975000Y-48765000D03*
D11*
X156021000Y-79490000D03*
X156021000Y-80760000D03*
X156021000Y-82030000D03*
X156021000Y-83300000D03*
X156021000Y-84570000D03*
X156021000Y-85840000D03*
X156021000Y-87110000D03*
X160971000Y-87110000D03*
X160971000Y-85840000D03*
X160971000Y-84570000D03*
X160971000Y-83300000D03*
X160971000Y-82030000D03*
X160971000Y-80760000D03*
X160971000Y-79490000D03*
X144083000Y-79490000D03*
X144083000Y-80760000D03*
X144083000Y-82030000D03*
X144083000Y-83300000D03*
X144083000Y-84570000D03*
X144083000Y-85840000D03*
X144083000Y-87110000D03*
X149033000Y-87110000D03*
X149033000Y-85840000D03*
X149033000Y-84570000D03*
X149033000Y-83300000D03*
X149033000Y-82030000D03*
X149033000Y-80760000D03*
X149033000Y-79490000D03*
D10*
X184425000Y-77700000D03*
X185975000Y-77700000D03*
D11*
X178984999Y-79490000D03*
X178984999Y-80760000D03*
X178984999Y-82030000D03*
X178984999Y-83300000D03*
X178984999Y-84570000D03*
X178984999Y-85840000D03*
X178984999Y-87110000D03*
X183934999Y-87110000D03*
X183934999Y-85840000D03*
X183934999Y-84570000D03*
X183934999Y-83300000D03*
X183934999Y-82030000D03*
X183934999Y-80760000D03*
X183934999Y-79490000D03*
X144130000Y-65470000D03*
X144130000Y-66740000D03*
X144130000Y-68010000D03*
X144130000Y-69280000D03*
X144130000Y-70550000D03*
X144130000Y-71820000D03*
X144130000Y-73090000D03*
X149080000Y-73090000D03*
X149080000Y-71820000D03*
X149080000Y-70550000D03*
X149080000Y-69280000D03*
X149080000Y-68010000D03*
X149080000Y-66740000D03*
X149080000Y-65470000D03*
D10*
X184455000Y-63570000D03*
X186005000Y-63570000D03*
D11*
X109475000Y-65480000D03*
X109475000Y-66750000D03*
X109475000Y-68020000D03*
X109475000Y-69290000D03*
X109475000Y-70560000D03*
X109475000Y-71830000D03*
X109475000Y-73100000D03*
X114425000Y-73100000D03*
X114425000Y-71830000D03*
X114425000Y-70560000D03*
X114425000Y-69290000D03*
X114425000Y-68020000D03*
X114425000Y-66750000D03*
X114425000Y-65480000D03*
D10*
X149779999Y-63570000D03*
X151329999Y-63570000D03*
X172865000Y-77700000D03*
X174415000Y-77700000D03*
D12*
X155645000Y-65465000D03*
X155645000Y-66735000D03*
X155645000Y-68005000D03*
X155645000Y-69275000D03*
X155645000Y-70545000D03*
X155645000Y-71815000D03*
X155645000Y-73085000D03*
X155645000Y-74355000D03*
X160795000Y-74355000D03*
X160795000Y-73085000D03*
X160795000Y-71815000D03*
X160795000Y-70545000D03*
X160795000Y-69275000D03*
X160795000Y-68005000D03*
X160795000Y-66735000D03*
X160795000Y-65465000D03*
D10*
X115105000Y-63570000D03*
X116655000Y-63570000D03*
X161305000Y-77700000D03*
X162855000Y-77700000D03*
D13*
X174450000Y-48765000D03*
X174450000Y-50035000D03*
X174450000Y-51305000D03*
X174450000Y-52575000D03*
X174450000Y-53845000D03*
X174450000Y-55115000D03*
X174450000Y-56385000D03*
X174450000Y-57655000D03*
X174450000Y-58925000D03*
X174450000Y-60195000D03*
X183750000Y-60195000D03*
X183750000Y-58925000D03*
X183750000Y-57655000D03*
X183750000Y-56385000D03*
X183750000Y-55115000D03*
X183750000Y-53845000D03*
X183750000Y-52575000D03*
X183750000Y-51305000D03*
X183750000Y-50035000D03*
X183750000Y-48765000D03*
D10*
X115065000Y-77700000D03*
X116615000Y-77700000D03*
X138185000Y-77700000D03*
X139735000Y-77700000D03*
D13*
X144900000Y-48765000D03*
X144900000Y-50035000D03*
X144900000Y-51305000D03*
X144900000Y-52575000D03*
X144900000Y-53845000D03*
X144900000Y-55115000D03*
X144900000Y-56385000D03*
X144900000Y-57655000D03*
X144900000Y-58925000D03*
X144900000Y-60195000D03*
X154200000Y-60195000D03*
X154200000Y-58925000D03*
X154200000Y-57655000D03*
X154200000Y-56385000D03*
X154200000Y-55115000D03*
X154200000Y-53845000D03*
X154200000Y-52575000D03*
X154200000Y-51305000D03*
X154200000Y-50035000D03*
X154200000Y-48765000D03*
D11*
X167399995Y-79490000D03*
X167399995Y-80760000D03*
X167399995Y-82030000D03*
X167399995Y-83300000D03*
X167399995Y-84570000D03*
X167399995Y-85840000D03*
X167399995Y-87110000D03*
X172349995Y-87110000D03*
X172349995Y-85840000D03*
X172349995Y-84570000D03*
X172349995Y-83300000D03*
X172349995Y-82030000D03*
X172349995Y-80760000D03*
X172349995Y-79490000D03*
D10*
X161338332Y-63570000D03*
X162888332Y-63570000D03*
X154390000Y-46740000D03*
X155940000Y-46740000D03*
D11*
X132644998Y-79490000D03*
X132644998Y-80760000D03*
X132644998Y-82030000D03*
X132644998Y-83300000D03*
X132644998Y-84570000D03*
X132644998Y-85840000D03*
X132644998Y-87110000D03*
X137594998Y-87110000D03*
X137594998Y-85840000D03*
X137594998Y-84570000D03*
X137594998Y-83300000D03*
X137594998Y-82030000D03*
X137594998Y-80760000D03*
X137594998Y-79490000D03*
X132601666Y-65480000D03*
X132601666Y-66750000D03*
X132601666Y-68020000D03*
X132601666Y-69290000D03*
X132601666Y-70560000D03*
X132601666Y-71830000D03*
X132601666Y-73100000D03*
X137551666Y-73100000D03*
X137551666Y-71830000D03*
X137551666Y-70560000D03*
X137551666Y-69290000D03*
X137551666Y-68020000D03*
X137551666Y-66750000D03*
X137551666Y-65480000D03*
D10*
X169167500Y-46740000D03*
X170717500Y-46740000D03*
M02*
