G04 #@! TF.GenerationSoftware,KiCad,Pcbnew,(6.0.5)*
G04 #@! TF.CreationDate,2022-09-14T22:51:16+02:00*
G04 #@! TF.ProjectId,B3,42332e6b-6963-4616-945f-706362585858,rev?*
G04 #@! TF.SameCoordinates,Original*
G04 #@! TF.FileFunction,Copper,L1,Top*
G04 #@! TF.FilePolarity,Positive*
%FSLAX46Y46*%
G04 Gerber Fmt 4.6, Leading zero omitted, Abs format (unit mm)*
G04 Created by KiCad (PCBNEW (6.0.5)) date 2022-09-14 22:51:16*
%MOMM*%
%LPD*%
G01*
G04 APERTURE LIST*
G04 Aperture macros list*
%AMRoundRect*
0 Rectangle with rounded corners*
0 $1 Rounding radius*
0 $2 $3 $4 $5 $6 $7 $8 $9 X,Y pos of 4 corners*
0 Add a 4 corners polygon primitive as box body*
4,1,4,$2,$3,$4,$5,$6,$7,$8,$9,$2,$3,0*
0 Add four circle primitives for the rounded corners*
1,1,$1+$1,$2,$3*
1,1,$1+$1,$4,$5*
1,1,$1+$1,$6,$7*
1,1,$1+$1,$8,$9*
0 Add four rect primitives between the rounded corners*
20,1,$1+$1,$2,$3,$4,$5,0*
20,1,$1+$1,$4,$5,$6,$7,0*
20,1,$1+$1,$6,$7,$8,$9,0*
20,1,$1+$1,$8,$9,$2,$3,0*%
G04 Aperture macros list end*
G04 #@! TA.AperFunction,SMDPad,CuDef*
%ADD10RoundRect,0.225000X-0.225000X-0.250000X0.225000X-0.250000X0.225000X0.250000X-0.225000X0.250000X0*%
G04 #@! TD*
G04 #@! TA.AperFunction,SMDPad,CuDef*
%ADD11RoundRect,0.150000X-0.825000X-0.150000X0.825000X-0.150000X0.825000X0.150000X-0.825000X0.150000X0*%
G04 #@! TD*
G04 #@! TA.AperFunction,SMDPad,CuDef*
%ADD12RoundRect,0.150000X-0.725000X-0.150000X0.725000X-0.150000X0.725000X0.150000X-0.725000X0.150000X0*%
G04 #@! TD*
G04 #@! TA.AperFunction,SMDPad,CuDef*
%ADD13RoundRect,0.150000X-0.875000X-0.150000X0.875000X-0.150000X0.875000X0.150000X-0.875000X0.150000X0*%
G04 #@! TD*
G04 #@! TA.AperFunction,ComponentPad*
%ADD14R,1.700000X1.700000*%
G04 #@! TD*
G04 #@! TA.AperFunction,ComponentPad*
%ADD15O,1.700000X1.700000*%
G04 #@! TD*
G04 #@! TA.AperFunction,ComponentPad*
%ADD16C,5.600000*%
G04 #@! TD*
G04 #@! TA.AperFunction,ViaPad*
%ADD17C,0.560000*%
G04 #@! TD*
G04 #@! TA.AperFunction,Conductor*
%ADD18C,0.127000*%
G04 #@! TD*
G04 #@! TA.AperFunction,Conductor*
%ADD19C,0.500000*%
G04 #@! TD*
G04 #@! TA.AperFunction,Conductor*
%ADD20C,0.254000*%
G04 #@! TD*
G04 APERTURE END LIST*
D10*
X172896665Y-63570000D03*
X174446665Y-63570000D03*
X183945000Y-46740000D03*
X185495000Y-46740000D03*
D11*
X121059999Y-79490000D03*
X121059999Y-80760000D03*
X121059999Y-82030000D03*
X121059999Y-83300000D03*
X121059999Y-84570000D03*
X121059999Y-85840000D03*
X121059999Y-87110000D03*
X126009999Y-87110000D03*
X126009999Y-85840000D03*
X126009999Y-84570000D03*
X126009999Y-83300000D03*
X126009999Y-82030000D03*
X126009999Y-80760000D03*
X126009999Y-79490000D03*
D10*
X126625000Y-77700000D03*
X128175000Y-77700000D03*
D12*
X120938333Y-65465000D03*
X120938333Y-66735000D03*
X120938333Y-68005000D03*
X120938333Y-69275000D03*
X120938333Y-70545000D03*
X120938333Y-71815000D03*
X120938333Y-73085000D03*
X120938333Y-74355000D03*
X126088333Y-74355000D03*
X126088333Y-73085000D03*
X126088333Y-71815000D03*
X126088333Y-70545000D03*
X126088333Y-69275000D03*
X126088333Y-68005000D03*
X126088333Y-66735000D03*
X126088333Y-65465000D03*
D10*
X139612500Y-46740000D03*
X141162500Y-46740000D03*
D13*
X130125000Y-48765000D03*
X130125000Y-50035000D03*
X130125000Y-51305000D03*
X130125000Y-52575000D03*
X130125000Y-53845000D03*
X130125000Y-55115000D03*
X130125000Y-56385000D03*
X130125000Y-57655000D03*
X130125000Y-58925000D03*
X130125000Y-60195000D03*
X139425000Y-60195000D03*
X139425000Y-58925000D03*
X139425000Y-57655000D03*
X139425000Y-56385000D03*
X139425000Y-55115000D03*
X139425000Y-53845000D03*
X139425000Y-52575000D03*
X139425000Y-51305000D03*
X139425000Y-50035000D03*
X139425000Y-48765000D03*
D10*
X126663333Y-63570000D03*
X128213333Y-63570000D03*
D13*
X115350000Y-48765000D03*
X115350000Y-50035000D03*
X115350000Y-51305000D03*
X115350000Y-52575000D03*
X115350000Y-53845000D03*
X115350000Y-55115000D03*
X115350000Y-56385000D03*
X115350000Y-57655000D03*
X115350000Y-58925000D03*
X115350000Y-60195000D03*
X124650000Y-60195000D03*
X124650000Y-58925000D03*
X124650000Y-57655000D03*
X124650000Y-56385000D03*
X124650000Y-55115000D03*
X124650000Y-53845000D03*
X124650000Y-52575000D03*
X124650000Y-51305000D03*
X124650000Y-50035000D03*
X124650000Y-48765000D03*
D11*
X178891666Y-65420000D03*
X178891666Y-66690000D03*
X178891666Y-67960000D03*
X178891666Y-69230000D03*
X178891666Y-70500000D03*
X178891666Y-71770000D03*
X178891666Y-73040000D03*
X183841666Y-73040000D03*
X183841666Y-71770000D03*
X183841666Y-70500000D03*
X183841666Y-69230000D03*
X183841666Y-67960000D03*
X183841666Y-66690000D03*
X183841666Y-65420000D03*
D10*
X124835000Y-46740000D03*
X126385000Y-46740000D03*
X138221666Y-63570000D03*
X139771666Y-63570000D03*
D11*
X167328333Y-65420000D03*
X167328333Y-66690000D03*
X167328333Y-67960000D03*
X167328333Y-69230000D03*
X167328333Y-70500000D03*
X167328333Y-71770000D03*
X167328333Y-73040000D03*
X172278333Y-73040000D03*
X172278333Y-71770000D03*
X172278333Y-70500000D03*
X172278333Y-69230000D03*
X172278333Y-67960000D03*
X172278333Y-66690000D03*
X172278333Y-65420000D03*
D10*
X149745000Y-77700000D03*
X151295000Y-77700000D03*
D11*
X109475000Y-79490000D03*
X109475000Y-80760000D03*
X109475000Y-82030000D03*
X109475000Y-83300000D03*
X109475000Y-84570000D03*
X109475000Y-85840000D03*
X109475000Y-87110000D03*
X114425000Y-87110000D03*
X114425000Y-85840000D03*
X114425000Y-84570000D03*
X114425000Y-83300000D03*
X114425000Y-82030000D03*
X114425000Y-80760000D03*
X114425000Y-79490000D03*
D13*
X159675000Y-48765000D03*
X159675000Y-50035000D03*
X159675000Y-51305000D03*
X159675000Y-52575000D03*
X159675000Y-53845000D03*
X159675000Y-55115000D03*
X159675000Y-56385000D03*
X159675000Y-57655000D03*
X159675000Y-58925000D03*
X159675000Y-60195000D03*
X168975000Y-60195000D03*
X168975000Y-58925000D03*
X168975000Y-57655000D03*
X168975000Y-56385000D03*
X168975000Y-55115000D03*
X168975000Y-53845000D03*
X168975000Y-52575000D03*
X168975000Y-51305000D03*
X168975000Y-50035000D03*
X168975000Y-48765000D03*
D11*
X156021000Y-79490000D03*
X156021000Y-80760000D03*
X156021000Y-82030000D03*
X156021000Y-83300000D03*
X156021000Y-84570000D03*
X156021000Y-85840000D03*
X156021000Y-87110000D03*
X160971000Y-87110000D03*
X160971000Y-85840000D03*
X160971000Y-84570000D03*
X160971000Y-83300000D03*
X160971000Y-82030000D03*
X160971000Y-80760000D03*
X160971000Y-79490000D03*
X144083000Y-79490000D03*
X144083000Y-80760000D03*
X144083000Y-82030000D03*
X144083000Y-83300000D03*
X144083000Y-84570000D03*
X144083000Y-85840000D03*
X144083000Y-87110000D03*
X149033000Y-87110000D03*
X149033000Y-85840000D03*
X149033000Y-84570000D03*
X149033000Y-83300000D03*
X149033000Y-82030000D03*
X149033000Y-80760000D03*
X149033000Y-79490000D03*
D10*
X184425000Y-77700000D03*
X185975000Y-77700000D03*
D11*
X178984999Y-79490000D03*
X178984999Y-80760000D03*
X178984999Y-82030000D03*
X178984999Y-83300000D03*
X178984999Y-84570000D03*
X178984999Y-85840000D03*
X178984999Y-87110000D03*
X183934999Y-87110000D03*
X183934999Y-85840000D03*
X183934999Y-84570000D03*
X183934999Y-83300000D03*
X183934999Y-82030000D03*
X183934999Y-80760000D03*
X183934999Y-79490000D03*
D14*
X190000000Y-65000000D03*
D15*
X192540000Y-65000000D03*
X190000000Y-67540000D03*
X192540000Y-67540000D03*
X190000000Y-70080000D03*
X192540000Y-70080000D03*
X190000000Y-72620000D03*
X192540000Y-72620000D03*
X190000000Y-75160000D03*
X192540000Y-75160000D03*
X190000000Y-77700000D03*
X192540000Y-77700000D03*
X190000000Y-80240000D03*
X192540000Y-80240000D03*
X190000000Y-82780000D03*
X192540000Y-82780000D03*
X190000000Y-85320000D03*
X192540000Y-85320000D03*
X190000000Y-87860000D03*
X192540000Y-87860000D03*
D11*
X144130000Y-65470000D03*
X144130000Y-66740000D03*
X144130000Y-68010000D03*
X144130000Y-69280000D03*
X144130000Y-70550000D03*
X144130000Y-71820000D03*
X144130000Y-73090000D03*
X149080000Y-73090000D03*
X149080000Y-71820000D03*
X149080000Y-70550000D03*
X149080000Y-69280000D03*
X149080000Y-68010000D03*
X149080000Y-66740000D03*
X149080000Y-65470000D03*
D10*
X184455000Y-63570000D03*
X186005000Y-63570000D03*
D11*
X109475000Y-65480000D03*
X109475000Y-66750000D03*
X109475000Y-68020000D03*
X109475000Y-69290000D03*
X109475000Y-70560000D03*
X109475000Y-71830000D03*
X109475000Y-73100000D03*
X114425000Y-73100000D03*
X114425000Y-71830000D03*
X114425000Y-70560000D03*
X114425000Y-69290000D03*
X114425000Y-68020000D03*
X114425000Y-66750000D03*
X114425000Y-65480000D03*
D10*
X149779999Y-63570000D03*
X151329999Y-63570000D03*
X172865000Y-77700000D03*
X174415000Y-77700000D03*
D12*
X155645000Y-65465000D03*
X155645000Y-66735000D03*
X155645000Y-68005000D03*
X155645000Y-69275000D03*
X155645000Y-70545000D03*
X155645000Y-71815000D03*
X155645000Y-73085000D03*
X155645000Y-74355000D03*
X160795000Y-74355000D03*
X160795000Y-73085000D03*
X160795000Y-71815000D03*
X160795000Y-70545000D03*
X160795000Y-69275000D03*
X160795000Y-68005000D03*
X160795000Y-66735000D03*
X160795000Y-65465000D03*
D10*
X115105000Y-63570000D03*
X116655000Y-63570000D03*
X161305000Y-77700000D03*
X162855000Y-77700000D03*
D13*
X174450000Y-48765000D03*
X174450000Y-50035000D03*
X174450000Y-51305000D03*
X174450000Y-52575000D03*
X174450000Y-53845000D03*
X174450000Y-55115000D03*
X174450000Y-56385000D03*
X174450000Y-57655000D03*
X174450000Y-58925000D03*
X174450000Y-60195000D03*
X183750000Y-60195000D03*
X183750000Y-58925000D03*
X183750000Y-57655000D03*
X183750000Y-56385000D03*
X183750000Y-55115000D03*
X183750000Y-53845000D03*
X183750000Y-52575000D03*
X183750000Y-51305000D03*
X183750000Y-50035000D03*
X183750000Y-48765000D03*
D14*
X192500000Y-132660000D03*
D15*
X189960000Y-132660000D03*
X192500000Y-130120000D03*
X189960000Y-130120000D03*
X192500000Y-127580000D03*
X189960000Y-127580000D03*
X192500000Y-125040000D03*
X189960000Y-125040000D03*
X192500000Y-122500000D03*
X189960000Y-122500000D03*
X192500000Y-119960000D03*
X189960000Y-119960000D03*
X192500000Y-117420000D03*
X189960000Y-117420000D03*
X192500000Y-114880000D03*
X189960000Y-114880000D03*
X192500000Y-112340000D03*
X189960000Y-112340000D03*
X192500000Y-109800000D03*
X189960000Y-109800000D03*
D10*
X115065000Y-77700000D03*
X116615000Y-77700000D03*
X138185000Y-77700000D03*
X139735000Y-77700000D03*
D13*
X144900000Y-48765000D03*
X144900000Y-50035000D03*
X144900000Y-51305000D03*
X144900000Y-52575000D03*
X144900000Y-53845000D03*
X144900000Y-55115000D03*
X144900000Y-56385000D03*
X144900000Y-57655000D03*
X144900000Y-58925000D03*
X144900000Y-60195000D03*
X154200000Y-60195000D03*
X154200000Y-58925000D03*
X154200000Y-57655000D03*
X154200000Y-56385000D03*
X154200000Y-55115000D03*
X154200000Y-53845000D03*
X154200000Y-52575000D03*
X154200000Y-51305000D03*
X154200000Y-50035000D03*
X154200000Y-48765000D03*
D11*
X167399995Y-79490000D03*
X167399995Y-80760000D03*
X167399995Y-82030000D03*
X167399995Y-83300000D03*
X167399995Y-84570000D03*
X167399995Y-85840000D03*
X167399995Y-87110000D03*
X172349995Y-87110000D03*
X172349995Y-85840000D03*
X172349995Y-84570000D03*
X172349995Y-83300000D03*
X172349995Y-82030000D03*
X172349995Y-80760000D03*
X172349995Y-79490000D03*
D10*
X161338332Y-63570000D03*
X162888332Y-63570000D03*
X154390000Y-46740000D03*
X155940000Y-46740000D03*
D16*
X103406802Y-56930538D03*
D11*
X132644998Y-79490000D03*
X132644998Y-80760000D03*
X132644998Y-82030000D03*
X132644998Y-83300000D03*
X132644998Y-84570000D03*
X132644998Y-85840000D03*
X132644998Y-87110000D03*
X137594998Y-87110000D03*
X137594998Y-85840000D03*
X137594998Y-84570000D03*
X137594998Y-83300000D03*
X137594998Y-82030000D03*
X137594998Y-80760000D03*
X137594998Y-79490000D03*
D14*
X135200000Y-137500000D03*
D15*
X135200000Y-140040000D03*
X132660000Y-137500000D03*
X132660000Y-140040000D03*
X130120000Y-137500000D03*
X130120000Y-140040000D03*
X127580000Y-137500000D03*
X127580000Y-140040000D03*
X125040000Y-137500000D03*
X125040000Y-140040000D03*
X122500000Y-137500000D03*
X122500000Y-140040000D03*
X119960000Y-137500000D03*
X119960000Y-140040000D03*
X117420000Y-137500000D03*
X117420000Y-140040000D03*
X114880000Y-137500000D03*
X114880000Y-140040000D03*
X112340000Y-137500000D03*
X112340000Y-140040000D03*
D16*
X103406802Y-141055538D03*
D11*
X132601666Y-65480000D03*
X132601666Y-66750000D03*
X132601666Y-68020000D03*
X132601666Y-69290000D03*
X132601666Y-70560000D03*
X132601666Y-71830000D03*
X132601666Y-73100000D03*
X137551666Y-73100000D03*
X137551666Y-71830000D03*
X137551666Y-70560000D03*
X137551666Y-69290000D03*
X137551666Y-68020000D03*
X137551666Y-66750000D03*
X137551666Y-65480000D03*
D10*
X169167500Y-46740000D03*
X170717500Y-46740000D03*
D16*
X196406802Y-56930538D03*
X196406802Y-141055538D03*
D17*
X162570000Y-75270000D03*
X160971000Y-80760000D03*
X109990000Y-143010000D03*
X109475000Y-84570000D03*
X178891666Y-71768334D03*
X178891666Y-82038334D03*
X179530000Y-66680000D03*
X138670000Y-126360000D03*
X138270000Y-80760000D03*
X148900000Y-122470000D03*
X149080000Y-68000000D03*
X132450000Y-114910000D03*
X132601666Y-70560000D03*
X167399995Y-83300000D03*
X115040000Y-77840000D03*
X115090000Y-63677500D03*
X161300000Y-63687500D03*
X184450000Y-77697500D03*
X126088333Y-74355000D03*
X130130000Y-58920000D03*
X139590000Y-46967500D03*
X183890000Y-46700000D03*
X149720000Y-63667500D03*
X169140000Y-46957500D03*
X144083000Y-83300000D03*
X149720000Y-77697500D03*
X154350000Y-46967500D03*
X184430000Y-63617500D03*
X138220000Y-63697500D03*
X172865000Y-77700000D03*
X172870000Y-63637500D03*
X161305000Y-77700000D03*
X124800000Y-46957500D03*
X126550000Y-77637500D03*
X138160000Y-77697500D03*
X159640000Y-58910000D03*
X126610000Y-63677500D03*
X155960000Y-46770000D03*
X186000000Y-63570000D03*
X159640000Y-60180000D03*
X128260000Y-63590000D03*
X185950000Y-77710000D03*
X144070000Y-87120000D03*
X130120000Y-60200000D03*
X170720000Y-46730000D03*
X109450000Y-73110000D03*
X156000000Y-87110000D03*
X155640000Y-74360000D03*
X144900000Y-60200000D03*
X178220000Y-73040000D03*
X139770000Y-63550000D03*
X174450000Y-63570000D03*
X167400000Y-87110000D03*
X185490000Y-46710000D03*
X174480000Y-77710000D03*
X120920000Y-74350000D03*
X172350000Y-82030000D03*
X133300000Y-87110000D03*
X141160000Y-46750000D03*
X128140000Y-77680000D03*
X167330000Y-73040000D03*
X116560000Y-77680000D03*
X174440000Y-60200000D03*
X178340000Y-87110000D03*
X151320000Y-77710000D03*
X121050000Y-87120000D03*
X162900000Y-63570000D03*
X126380000Y-46770000D03*
X144130000Y-73090000D03*
X151290000Y-63540000D03*
X162840000Y-77760000D03*
X139700000Y-77710000D03*
X115350000Y-60195000D03*
X116710000Y-63590000D03*
X133220000Y-73080000D03*
X109430000Y-87140000D03*
X125039989Y-61790011D03*
X154200000Y-60195000D03*
X154060000Y-69930000D03*
X154070000Y-83810000D03*
X137551666Y-71830000D03*
X137594998Y-84570000D03*
X122800000Y-61320000D03*
X122720000Y-90783520D03*
X122800000Y-70570000D03*
X176590000Y-78630000D03*
X158920000Y-85830000D03*
X161390000Y-50060000D03*
X114425000Y-80760000D03*
X148250000Y-85840000D03*
X148260000Y-90140000D03*
X114520000Y-90510000D03*
X164930000Y-52590000D03*
X142240000Y-48768000D03*
X142240000Y-73152000D03*
X114554000Y-45974000D03*
X114425000Y-69290000D03*
X135760000Y-50050000D03*
X135750000Y-84550000D03*
X135750000Y-70590000D03*
X151420000Y-85160000D03*
X151420000Y-80790000D03*
X158230000Y-67960000D03*
X156670000Y-85840000D03*
X126009999Y-82030000D03*
X129360000Y-86550000D03*
X146360000Y-79940000D03*
X146290000Y-88960000D03*
X116090000Y-48760000D03*
X116120000Y-73130000D03*
X153250000Y-70920000D03*
X153260000Y-82230000D03*
X151670000Y-70940000D03*
X152090000Y-88350000D03*
X152710000Y-80140000D03*
X152480000Y-70920000D03*
X159390000Y-70560000D03*
X160300000Y-84570000D03*
X148730000Y-61450000D03*
X149620000Y-73070000D03*
D18*
X171640000Y-69230000D02*
X172278333Y-69230000D01*
X168410000Y-72460000D02*
X171640000Y-69230000D01*
X162550000Y-76020000D02*
X166110000Y-72460000D01*
X143771468Y-76020000D02*
X162550000Y-76020000D01*
X166110000Y-72460000D02*
X168410000Y-72460000D01*
X140855734Y-78935734D02*
X143771468Y-76020000D01*
X139661469Y-80130000D02*
X140855734Y-78935734D01*
X135781468Y-80130000D02*
X139661469Y-80130000D01*
X128610000Y-80110000D02*
X129900000Y-81400000D01*
X124068532Y-80110000D02*
X128610000Y-80110000D01*
X122775000Y-78816468D02*
X124068532Y-80110000D01*
X122775000Y-73955000D02*
X122775000Y-78816468D01*
X129900000Y-81400000D02*
X134511468Y-81400000D01*
X121905000Y-73085000D02*
X122775000Y-73955000D01*
X134511468Y-81400000D02*
X135781468Y-80130000D01*
X120938333Y-73085000D02*
X121905000Y-73085000D01*
X159822406Y-75027594D02*
X161662406Y-75027594D01*
X161662406Y-75027594D02*
X164920000Y-71770000D01*
X164920000Y-71770000D02*
X167328333Y-71770000D01*
X157262406Y-72467594D02*
X159822406Y-75027594D01*
X195890000Y-103870000D02*
X189960000Y-109800000D01*
X195890000Y-74540000D02*
X195890000Y-103870000D01*
X189524988Y-73983520D02*
X195333520Y-73983520D01*
X187409440Y-71867972D02*
X189524988Y-73983520D01*
X186250011Y-61920011D02*
X187409440Y-63079440D01*
X143490011Y-61920011D02*
X186250011Y-61920011D01*
X187409440Y-63079440D02*
X187409440Y-71867972D01*
X195333520Y-73983520D02*
X195890000Y-74540000D01*
X143315000Y-61745000D02*
X143490011Y-61920011D01*
X164185531Y-58925000D02*
X168975000Y-58925000D01*
X162810520Y-57549989D02*
X164185531Y-58925000D01*
X162389072Y-57128540D02*
X162810520Y-57549989D01*
X158349992Y-57128540D02*
X162389072Y-57128540D01*
X155809992Y-59668540D02*
X158349992Y-57128540D01*
X150511460Y-59668540D02*
X155809992Y-59668540D01*
X148730000Y-61450000D02*
X150511460Y-59668540D01*
X158244980Y-56875020D02*
X158894980Y-56875020D01*
X151955020Y-59415020D02*
X155704980Y-59415020D01*
X151465000Y-58925000D02*
X151955020Y-59415020D01*
X144900000Y-58925000D02*
X151465000Y-58925000D01*
X158894980Y-56875020D02*
X164105020Y-56875020D01*
X158243512Y-56875020D02*
X158894980Y-56875020D01*
X155704980Y-59415020D02*
X158244980Y-56875020D01*
X164885000Y-57655000D02*
X165475000Y-57655000D01*
X164105020Y-56875020D02*
X164885000Y-57655000D01*
X165475000Y-57655000D02*
X168975000Y-57655000D01*
X177260000Y-67960000D02*
X178891666Y-67960000D01*
X175380000Y-66080000D02*
X177260000Y-67960000D01*
X170324532Y-66080000D02*
X175380000Y-66080000D01*
X166418063Y-62173531D02*
X170324532Y-66080000D01*
X142823531Y-62173531D02*
X166418063Y-62173531D01*
X140845000Y-60195000D02*
X142823531Y-62173531D01*
X139425000Y-60195000D02*
X140845000Y-60195000D01*
X142810000Y-61240000D02*
X143315000Y-61745000D01*
X136030000Y-61388532D02*
X136979266Y-60439266D01*
X137828532Y-59590000D02*
X139150000Y-59590000D01*
X141160000Y-59590000D02*
X142810000Y-61240000D01*
X136979266Y-60439266D02*
X137828532Y-59590000D01*
X136030000Y-66750000D02*
X136030000Y-61388532D01*
X136030000Y-66750000D02*
X137551666Y-66750000D01*
X139150000Y-59590000D02*
X141160000Y-59590000D01*
X132601666Y-66750000D02*
X136030000Y-66750000D01*
X172278333Y-67960000D02*
X173212960Y-67960000D01*
X173696480Y-68443520D02*
X173696480Y-70016480D01*
X173212960Y-67960000D02*
X173696480Y-68443520D01*
X173212960Y-70500000D02*
X173696480Y-70016480D01*
X172278333Y-70500000D02*
X173212960Y-70500000D01*
X162558886Y-75281114D02*
X162570000Y-75270000D01*
X159841114Y-75281114D02*
X162558886Y-75281114D01*
X159717395Y-75281114D02*
X159841114Y-75281114D01*
X152010000Y-79490000D02*
X156021000Y-79490000D01*
X151400000Y-80100000D02*
X152010000Y-79490000D01*
X147620000Y-80100000D02*
X151400000Y-80100000D01*
X146080000Y-78560000D02*
X147620000Y-80100000D01*
X141590000Y-78560000D02*
X146080000Y-78560000D01*
X140010000Y-80140000D02*
X141590000Y-78560000D01*
X118014992Y-81503540D02*
X122872072Y-81503540D01*
X122872072Y-81503540D02*
X123924992Y-82556460D01*
X123924992Y-82556460D02*
X138963540Y-82556460D01*
X116218532Y-83300000D02*
X118014992Y-81503540D01*
X138963540Y-82556460D02*
X140010000Y-81510000D01*
X114425000Y-83300000D02*
X116218532Y-83300000D01*
X140010000Y-81510000D02*
X140010000Y-80140000D01*
X132644998Y-79490000D02*
X133620000Y-79490000D01*
X139230000Y-75480000D02*
X151970000Y-75480000D01*
X133620000Y-79490000D02*
X137630000Y-75480000D01*
X137630000Y-75480000D02*
X139230000Y-75480000D01*
X144180000Y-65520000D02*
X144130000Y-65470000D01*
X110732000Y-143002000D02*
X182158000Y-143002000D01*
X110732000Y-143002000D02*
X109998000Y-143002000D01*
X182158000Y-143002000D02*
X192500000Y-132660000D01*
X109998000Y-143002000D02*
X109990000Y-143010000D01*
X178900000Y-82030000D02*
X178891666Y-82038334D01*
X178984999Y-82030000D02*
X178900000Y-82030000D01*
X179530000Y-66680000D02*
X181140000Y-66680000D01*
X185273540Y-66163540D02*
X185600000Y-66490000D01*
X181656460Y-66163540D02*
X185273540Y-66163540D01*
X181140000Y-66680000D02*
X181656460Y-66163540D01*
X185600000Y-66490000D02*
X185600000Y-68780000D01*
X185150000Y-69230000D02*
X183841666Y-69230000D01*
X185600000Y-68780000D02*
X185150000Y-69230000D01*
X137594998Y-80760000D02*
X137594998Y-82030000D01*
X192500000Y-125040000D02*
X191190000Y-126350000D01*
X189390000Y-126350000D02*
X138490000Y-126350000D01*
X191190000Y-126350000D02*
X189390000Y-126350000D01*
X140514000Y-68020000D02*
X141081385Y-67452615D01*
X136346000Y-68020000D02*
X137551666Y-68020000D01*
X147462615Y-67437385D02*
X148160000Y-66740000D01*
X111454000Y-66750000D02*
X112105493Y-67401493D01*
X148930000Y-122500000D02*
X148900000Y-122470000D01*
X149080000Y-66740000D02*
X149080000Y-68000000D01*
X131000000Y-64308532D02*
X131000000Y-66942986D01*
X189960000Y-122500000D02*
X148930000Y-122500000D01*
X112105493Y-67401493D02*
X115958507Y-67401493D01*
X128951490Y-62260022D02*
X131000000Y-64308532D01*
X109475000Y-66750000D02*
X111454000Y-66750000D01*
X115958507Y-67401493D02*
X121099978Y-62260022D01*
X147462615Y-67452615D02*
X147462615Y-67437385D01*
X135727493Y-67401493D02*
X136346000Y-68020000D01*
X141081385Y-67452615D02*
X147462615Y-67452615D01*
X121099978Y-62260022D02*
X128951490Y-62260022D01*
X137551666Y-68020000D02*
X140514000Y-68020000D01*
X131000000Y-66942986D02*
X131458507Y-67401493D01*
X148160000Y-66740000D02*
X149080000Y-66740000D01*
X131458507Y-67401493D02*
X135727493Y-67401493D01*
X195636480Y-102383520D02*
X188720000Y-109300000D01*
X188720000Y-110600000D02*
X189190000Y-111070000D01*
X195636480Y-81046480D02*
X195636480Y-102383520D01*
X189390000Y-78960000D02*
X193550000Y-78960000D01*
X189190000Y-111070000D02*
X193330000Y-111070000D01*
X188720000Y-109300000D02*
X188720000Y-110600000D01*
X193330000Y-111070000D02*
X193920000Y-111660000D01*
X193390000Y-117420000D02*
X192500000Y-117420000D01*
X193550000Y-78960000D02*
X195636480Y-81046480D01*
X193920000Y-111660000D02*
X193920000Y-116890000D01*
X183934999Y-83300000D02*
X185050000Y-83300000D01*
X185050000Y-83300000D02*
X189390000Y-78960000D01*
X193920000Y-116890000D02*
X193390000Y-117420000D01*
X115698532Y-68020000D02*
X121204990Y-62513542D01*
X130746480Y-64413544D02*
X130746480Y-69746480D01*
X130746480Y-69746480D02*
X131560000Y-70560000D01*
X132480000Y-114880000D02*
X132450000Y-114910000D01*
X189960000Y-114880000D02*
X132480000Y-114880000D01*
X121204990Y-62513542D02*
X128846478Y-62513542D01*
X128846478Y-62513542D02*
X130746480Y-64413544D01*
X131560000Y-70560000D02*
X132601666Y-70560000D01*
X114425000Y-68020000D02*
X115698532Y-68020000D01*
X144135000Y-66810000D02*
X144135000Y-65540000D01*
X137611666Y-66810000D02*
X137551666Y-66750000D01*
X144135000Y-66810000D02*
X137611666Y-66810000D01*
X190000000Y-56830000D02*
X190000000Y-65000000D01*
X174450000Y-51305000D02*
X178705000Y-51305000D01*
X179320000Y-51920000D02*
X185090000Y-51920000D01*
X178705000Y-51305000D02*
X179320000Y-51920000D01*
X185090000Y-51920000D02*
X190000000Y-56830000D01*
X192540000Y-59011468D02*
X192540000Y-65000000D01*
X183750000Y-51305000D02*
X184833532Y-51305000D01*
X184833532Y-51305000D02*
X192540000Y-59011468D01*
X188686480Y-59426480D02*
X188686480Y-66065011D01*
X177745000Y-53845000D02*
X179630000Y-55730000D01*
X189921468Y-67300000D02*
X189940000Y-67300000D01*
X188686480Y-66065011D02*
X189921468Y-67300000D01*
X174450000Y-53845000D02*
X177745000Y-53845000D01*
X179630000Y-55730000D02*
X184990000Y-55730000D01*
X189940000Y-67300000D02*
X189940000Y-67480000D01*
X189940000Y-67480000D02*
X190000000Y-67540000D01*
X184990000Y-55730000D02*
X188686480Y-59426480D01*
X189280000Y-66300000D02*
X191300000Y-66300000D01*
X183750000Y-53845000D02*
X184925000Y-53845000D01*
X184925000Y-53845000D02*
X188940000Y-57860000D01*
X191300000Y-66300000D02*
X192540000Y-67540000D01*
X188940000Y-65960000D02*
X189280000Y-66300000D01*
X188940000Y-57860000D02*
X188940000Y-65960000D01*
X183750000Y-56385000D02*
X184855000Y-56385000D01*
X184855000Y-56385000D02*
X188432960Y-59962960D01*
X188432960Y-68512960D02*
X190000000Y-70080000D01*
X188432960Y-59962960D02*
X188432960Y-68512960D01*
X188170000Y-69870000D02*
X189490000Y-71190000D01*
X179990000Y-58280000D02*
X184900000Y-58280000D01*
X178095000Y-56385000D02*
X179990000Y-58280000D01*
X184900000Y-58280000D02*
X188170000Y-61550000D01*
X188170000Y-61550000D02*
X188170000Y-69870000D01*
X174450000Y-56385000D02*
X178095000Y-56385000D01*
X189490000Y-71190000D02*
X191430000Y-71190000D01*
X191430000Y-71190000D02*
X192540000Y-70080000D01*
X187916480Y-62086480D02*
X187916480Y-70536480D01*
X187916480Y-70536480D02*
X190000000Y-72620000D01*
X184755000Y-58925000D02*
X187916480Y-62086480D01*
X183750000Y-58925000D02*
X184755000Y-58925000D01*
X192540000Y-72620000D02*
X191430000Y-73730000D01*
X187662960Y-71762960D02*
X187662960Y-62217040D01*
X174450000Y-58925000D02*
X178245000Y-58925000D01*
X178245000Y-58925000D02*
X180380000Y-61060000D01*
X180380000Y-61060000D02*
X186505920Y-61060000D01*
X189630000Y-73730000D02*
X187662960Y-71762960D01*
X191430000Y-73730000D02*
X189630000Y-73730000D01*
X186505920Y-61060000D02*
X187662960Y-62217040D01*
D19*
X149204995Y-79487500D02*
X149715000Y-79487500D01*
D18*
X167328333Y-69230000D02*
X169020000Y-69230000D01*
D19*
X124795000Y-48747500D02*
X124800000Y-48742500D01*
X139585000Y-48757500D02*
X139590000Y-48752500D01*
X184450000Y-79482500D02*
X184450000Y-77697500D01*
D18*
X160795000Y-73085000D02*
X160795000Y-74355000D01*
D19*
X137704995Y-65487500D02*
X138215000Y-65487500D01*
X172354995Y-65427500D02*
X172865000Y-65427500D01*
X160971000Y-79490000D02*
X161310000Y-79490000D01*
D18*
X160795000Y-71815000D02*
X163555000Y-71815000D01*
D19*
X154345000Y-48757500D02*
X154350000Y-48752500D01*
X172349995Y-79490000D02*
X172860000Y-79490000D01*
X149715000Y-65457500D02*
X149720000Y-65452500D01*
X160784995Y-65477500D02*
X161295000Y-65477500D01*
D20*
X170265000Y-48765000D02*
X170530000Y-49030000D01*
D18*
X157215000Y-65465000D02*
X160795000Y-65465000D01*
X120938333Y-69275000D02*
X121695000Y-69275000D01*
X178984999Y-80760000D02*
X179870000Y-80760000D01*
X180310000Y-81200000D02*
X180310000Y-82980000D01*
X147140000Y-84570000D02*
X149033000Y-84570000D01*
D19*
X114524995Y-79507500D02*
X115035000Y-79507500D01*
X115035000Y-79507500D02*
X115040000Y-79502500D01*
D20*
X170530000Y-49030000D02*
X170530000Y-51041666D01*
D18*
X120938333Y-65465000D02*
X126088333Y-65465000D01*
D20*
X159675000Y-50035000D02*
X159675000Y-51305000D01*
D19*
X161300000Y-65472500D02*
X161300000Y-63687500D01*
X115090000Y-65462500D02*
X115090000Y-63677500D01*
X138215000Y-65487500D02*
X138220000Y-65482500D01*
D18*
X169640000Y-67310000D02*
X170290000Y-67960000D01*
D20*
X137405000Y-48765000D02*
X139425000Y-48765000D01*
D19*
X183890000Y-48752500D02*
X183885000Y-48757500D01*
D18*
X170290000Y-67960000D02*
X172278333Y-67960000D01*
X160795000Y-71815000D02*
X160795000Y-73085000D01*
D19*
X169135000Y-48747500D02*
X169140000Y-48742500D01*
X115040000Y-79502500D02*
X115040000Y-77840000D01*
D18*
X155645000Y-69275000D02*
X156265000Y-69275000D01*
D19*
X115085000Y-65467500D02*
X115090000Y-65462500D01*
D20*
X126625000Y-77700000D02*
X126612500Y-77700000D01*
D19*
X126550000Y-77670000D02*
X126550000Y-77637500D01*
X126034995Y-79427500D02*
X126545000Y-79427500D01*
X161310000Y-79490000D02*
X161310000Y-77705000D01*
X161310000Y-77705000D02*
X161305000Y-77700000D01*
D18*
X162350000Y-67310000D02*
X169640000Y-67310000D01*
D19*
X161295000Y-65477500D02*
X161300000Y-65472500D01*
D18*
X155645000Y-65465000D02*
X157215000Y-65465000D01*
X126088333Y-73085000D02*
X126088333Y-74355000D01*
D20*
X138325000Y-51305000D02*
X137405000Y-50385000D01*
D18*
X160795000Y-66735000D02*
X160795000Y-65465000D01*
X169040000Y-70710000D02*
X169040000Y-69210000D01*
D19*
X183890000Y-46700000D02*
X183890000Y-48752500D01*
D18*
X169040000Y-69210000D02*
X170290000Y-67960000D01*
D19*
X172865000Y-79485000D02*
X172865000Y-77700000D01*
D18*
X121695000Y-69275000D02*
X124235000Y-66735000D01*
X164250000Y-71120000D02*
X168630000Y-71120000D01*
D19*
X169140000Y-48742500D02*
X169140000Y-46957500D01*
D18*
X156265000Y-69275000D02*
X157215000Y-68325000D01*
D19*
X183914995Y-65407500D02*
X184425000Y-65407500D01*
D20*
X159675000Y-48765000D02*
X168975000Y-48765000D01*
D19*
X138220000Y-65482500D02*
X138220000Y-63697500D01*
X138155000Y-79487500D02*
X138160000Y-79482500D01*
X126605000Y-65467500D02*
X126610000Y-65462500D01*
D18*
X124235000Y-66735000D02*
X126088333Y-66735000D01*
X159675000Y-58925000D02*
X159655000Y-58925000D01*
D19*
X115040000Y-77840000D02*
X115040000Y-77717500D01*
X172860000Y-79490000D02*
X172865000Y-79485000D01*
D18*
X168630000Y-71120000D02*
X169040000Y-70710000D01*
D19*
X149720000Y-79482500D02*
X149720000Y-77697500D01*
D18*
X126088333Y-65465000D02*
X126088333Y-66735000D01*
D19*
X184425000Y-65407500D02*
X184430000Y-65402500D01*
X138160000Y-79482500D02*
X138160000Y-77697500D01*
D18*
X169020000Y-69230000D02*
X169040000Y-69210000D01*
X167399995Y-79490000D02*
X172349995Y-79490000D01*
X178984999Y-83300000D02*
X179990000Y-83300000D01*
D19*
X149204995Y-65457500D02*
X149715000Y-65457500D01*
D18*
X161775000Y-66735000D02*
X162350000Y-67310000D01*
D19*
X139590000Y-48752500D02*
X139590000Y-46967500D01*
X172865000Y-65427500D02*
X172870000Y-65422500D01*
D20*
X139425000Y-51305000D02*
X138325000Y-51305000D01*
X170530000Y-51041666D02*
X170215833Y-51355833D01*
X168975000Y-48765000D02*
X170265000Y-48765000D01*
X159675000Y-48765000D02*
X159675000Y-50035000D01*
D19*
X126545000Y-79427500D02*
X126550000Y-79422500D01*
D18*
X130125000Y-58925000D02*
X130130000Y-58920000D01*
X145870000Y-83300000D02*
X147140000Y-84570000D01*
X172349995Y-80760000D02*
X178984999Y-80760000D01*
D19*
X184430000Y-65402500D02*
X184430000Y-63617500D01*
D18*
X144083000Y-83300000D02*
X145870000Y-83300000D01*
D19*
X172870000Y-65422500D02*
X172870000Y-63637500D01*
D20*
X170215833Y-51355833D02*
X169025833Y-51355833D01*
X126612500Y-77700000D02*
X126550000Y-77637500D01*
D18*
X179870000Y-80760000D02*
X180310000Y-81200000D01*
X163555000Y-71815000D02*
X164250000Y-71120000D01*
X172349995Y-79490000D02*
X172349995Y-80760000D01*
D19*
X149720000Y-65452500D02*
X149720000Y-63667500D01*
X154350000Y-48752500D02*
X154350000Y-46967500D01*
D20*
X137405000Y-50385000D02*
X137405000Y-48765000D01*
D18*
X179990000Y-83300000D02*
X180310000Y-82980000D01*
X160795000Y-66735000D02*
X161775000Y-66735000D01*
D19*
X126094995Y-65467500D02*
X126605000Y-65467500D01*
D20*
X130125000Y-48765000D02*
X137405000Y-48765000D01*
X169025833Y-51355833D02*
X168975000Y-51305000D01*
D19*
X183934995Y-79487500D02*
X184445000Y-79487500D01*
X184445000Y-79487500D02*
X184450000Y-79482500D01*
D18*
X159655000Y-58925000D02*
X159640000Y-58910000D01*
X157215000Y-68325000D02*
X157215000Y-65465000D01*
D19*
X149715000Y-79487500D02*
X149720000Y-79482500D01*
X124800000Y-48742500D02*
X124800000Y-46957500D01*
D18*
X126088333Y-71815000D02*
X126088333Y-73085000D01*
D19*
X126610000Y-65462500D02*
X126610000Y-63677500D01*
X126550000Y-79422500D02*
X126550000Y-77670000D01*
X114574995Y-65467500D02*
X115085000Y-65467500D01*
X137644995Y-79487500D02*
X138155000Y-79487500D01*
D18*
X159675000Y-60195000D02*
X159655000Y-60195000D01*
X178220000Y-73040000D02*
X178090000Y-73040000D01*
X133200000Y-73100000D02*
X133220000Y-73080000D01*
X178090000Y-73040000D02*
X177550000Y-72500000D01*
X178891666Y-73040000D02*
X178220000Y-73040000D01*
X177550000Y-70850000D02*
X177900000Y-70500000D01*
X177900000Y-70500000D02*
X178891666Y-70500000D01*
X141160000Y-49270000D02*
X141160000Y-46750000D01*
X172349995Y-82030000D02*
X172350000Y-82030000D01*
X180010000Y-70500000D02*
X182550000Y-67960000D01*
X159655000Y-60195000D02*
X159640000Y-60180000D01*
X178891666Y-70500000D02*
X180010000Y-70500000D01*
X178891666Y-65420000D02*
X175970000Y-65420000D01*
X130125000Y-60195000D02*
X130120000Y-60200000D01*
X139425000Y-50035000D02*
X140395000Y-50035000D01*
X132601666Y-73100000D02*
X133200000Y-73100000D01*
X167328333Y-66690000D02*
X166020000Y-66690000D01*
X174450000Y-63900000D02*
X174450000Y-63570000D01*
X166020000Y-66690000D02*
X162900000Y-63570000D01*
X182550000Y-67960000D02*
X183841666Y-67960000D01*
X177550000Y-72500000D02*
X177550000Y-70850000D01*
X140395000Y-50035000D02*
X141160000Y-49270000D01*
X175970000Y-65420000D02*
X174450000Y-63900000D01*
X117195000Y-60195000D02*
X116320000Y-61070000D01*
X188390000Y-81850000D02*
X190000000Y-80240000D01*
X107470000Y-65470000D02*
X107470000Y-87350000D01*
X107470000Y-87350000D02*
X111373531Y-91253531D01*
X124650000Y-60195000D02*
X117195000Y-60195000D01*
X183707937Y-91253531D02*
X188390000Y-86571468D01*
X111870000Y-61070000D02*
X107470000Y-65470000D01*
X188390000Y-86571468D02*
X188390000Y-81850000D01*
X116320000Y-61070000D02*
X111870000Y-61070000D01*
X111373531Y-91253531D02*
X183707937Y-91253531D01*
X191544273Y-91764273D02*
X194843511Y-88465035D01*
X105680000Y-88077064D02*
X110642936Y-93040000D01*
X110642936Y-93040000D02*
X190268545Y-93040000D01*
X190268545Y-93040000D02*
X191544273Y-91764273D01*
X194843511Y-81341430D02*
X193742081Y-80240000D01*
X194843511Y-88465035D02*
X194843511Y-87183511D01*
X113856480Y-52974989D02*
X105680000Y-61151469D01*
X193742081Y-80240000D02*
X192540000Y-80240000D01*
X115350000Y-52575000D02*
X114256468Y-52575000D01*
X105680000Y-61151469D02*
X105680000Y-88077064D01*
X194843511Y-87183511D02*
X194843511Y-81341430D01*
X114256468Y-52575000D02*
X113856480Y-52974989D01*
X106192960Y-87872960D02*
X110846534Y-92526534D01*
X114206489Y-53343511D02*
X106192960Y-61357040D01*
X116665007Y-53333511D02*
X116655007Y-53333511D01*
X106192960Y-61357040D02*
X106192960Y-87872960D01*
X190880741Y-91710741D02*
X194276489Y-88314993D01*
X110846534Y-92526534D02*
X190064948Y-92526534D01*
X191046489Y-81733511D02*
X190000000Y-82780000D01*
X193004993Y-81733511D02*
X191046489Y-81733511D01*
X117423518Y-52575000D02*
X116665007Y-53333511D01*
X194276489Y-88314993D02*
X194276489Y-83005007D01*
X116645007Y-53343511D02*
X114206489Y-53343511D01*
X194276489Y-83005007D02*
X193004993Y-81733511D01*
X116655007Y-53333511D02*
X116645007Y-53343511D01*
X124650000Y-52575000D02*
X117423518Y-52575000D01*
X190064948Y-92526534D02*
X190880741Y-91710741D01*
X106446480Y-87760608D02*
X110958888Y-92273014D01*
X189959950Y-92273014D02*
X194022978Y-88209986D01*
X115350000Y-55115000D02*
X114135000Y-55115000D01*
X114135000Y-55115000D02*
X106446480Y-62803520D01*
X110958888Y-92273014D02*
X189959950Y-92273014D01*
X106446480Y-62803520D02*
X106446480Y-87760608D01*
X194022978Y-88209986D02*
X194022978Y-84262978D01*
X194022978Y-84262978D02*
X192540000Y-82780000D01*
X109275734Y-89514266D02*
X111040734Y-91279266D01*
X107216480Y-64653520D02*
X107216480Y-87455012D01*
X111273922Y-91512454D02*
X111040734Y-91279266D01*
X115350000Y-57655000D02*
X114215000Y-57655000D01*
X111040734Y-91279266D02*
X111268520Y-91507051D01*
X107216480Y-87455012D02*
X109275734Y-89514266D01*
X183807546Y-91512454D02*
X111273922Y-91512454D01*
X190000000Y-85320000D02*
X183807546Y-91512454D01*
X114215000Y-57655000D02*
X107216480Y-64653520D01*
X124650000Y-55115000D02*
X120265000Y-55115000D01*
X114000000Y-55760000D02*
X106700000Y-63060000D01*
X193769467Y-88104979D02*
X193769468Y-86549468D01*
X119620000Y-55760000D02*
X114000000Y-55760000D01*
X193769468Y-86549468D02*
X192540000Y-85320000D01*
X106700000Y-87655596D02*
X111063899Y-92019494D01*
X106700000Y-63060000D02*
X106700000Y-87655596D01*
X189854952Y-92019494D02*
X193769467Y-88104979D01*
X120265000Y-55115000D02*
X119620000Y-55760000D01*
X111063899Y-92019494D02*
X189854952Y-92019494D01*
X110741523Y-92780054D02*
X190169960Y-92780054D01*
X116750000Y-52830000D02*
X116500000Y-53080000D01*
X114110000Y-53080000D02*
X105939440Y-61250560D01*
X105939440Y-61250560D02*
X105939440Y-87977972D01*
X116500000Y-53080000D02*
X114110000Y-53080000D01*
X113870000Y-51620000D02*
X114160000Y-51910000D01*
X114125000Y-50035000D02*
X113870000Y-50290000D01*
X105939440Y-87977972D02*
X110741523Y-92780054D01*
X191220000Y-86640000D02*
X191220000Y-84850000D01*
X189180000Y-84030000D02*
X188650000Y-83500000D01*
X190400000Y-84030000D02*
X189180000Y-84030000D01*
X115350000Y-50035000D02*
X114125000Y-50035000D01*
X194590000Y-82410000D02*
X194590000Y-88130000D01*
X193590000Y-81410000D02*
X194590000Y-82410000D01*
X191220000Y-84850000D02*
X190400000Y-84030000D01*
X188650000Y-83500000D02*
X188650000Y-82230000D01*
X194590000Y-88360014D02*
X194590000Y-88130000D01*
X188650000Y-82230000D02*
X189470000Y-81410000D01*
X113870000Y-50290000D02*
X113870000Y-51620000D01*
X189470000Y-81410000D02*
X193590000Y-81410000D01*
X190000000Y-87860000D02*
X191220000Y-86640000D01*
X114160000Y-51910000D02*
X116500000Y-51910000D01*
X116500000Y-51910000D02*
X116750000Y-52160000D01*
X190169960Y-92780054D02*
X194590000Y-88360014D01*
X116750000Y-52160000D02*
X116750000Y-52830000D01*
X106962960Y-64007040D02*
X106962960Y-87560024D01*
X124650000Y-57655000D02*
X120605000Y-57655000D01*
X106962960Y-87560024D02*
X111168910Y-91765974D01*
X188634026Y-91765974D02*
X192540000Y-87860000D01*
X113970000Y-57000000D02*
X106962960Y-64007040D01*
X120605000Y-57655000D02*
X119950000Y-57000000D01*
X111168910Y-91765974D02*
X188634026Y-91765974D01*
X119950000Y-57000000D02*
X113970000Y-57000000D01*
X121209989Y-61790011D02*
X125039989Y-61790011D01*
X116250000Y-66750000D02*
X121209989Y-61790011D01*
X114425000Y-66750000D02*
X116250000Y-66750000D01*
X125039989Y-61790011D02*
X128840011Y-61790011D01*
X132530000Y-65480000D02*
X132601666Y-65480000D01*
X128840011Y-61790011D02*
X132530000Y-65480000D01*
X169170000Y-82030000D02*
X167399995Y-82030000D01*
X154070000Y-83810000D02*
X162610000Y-83810000D01*
X165610000Y-68640000D02*
X158860000Y-68640000D01*
X166290000Y-67960000D02*
X165610000Y-68640000D01*
X172349995Y-83300000D02*
X170440000Y-83300000D01*
X145640000Y-82030000D02*
X144083000Y-82030000D01*
X157570000Y-69930000D02*
X154060000Y-69930000D01*
X149033000Y-83300000D02*
X152390000Y-83300000D01*
X140150000Y-83300000D02*
X141420000Y-82030000D01*
X164390000Y-82030000D02*
X167399995Y-82030000D01*
X152900000Y-83810000D02*
X154070000Y-83810000D01*
X141420000Y-82030000D02*
X144083000Y-82030000D01*
X162610000Y-83810000D02*
X164390000Y-82030000D01*
X158860000Y-68640000D02*
X157570000Y-69930000D01*
X167328333Y-67960000D02*
X166290000Y-67960000D01*
X137594998Y-83300000D02*
X140150000Y-83300000D01*
X152390000Y-83300000D02*
X152900000Y-83810000D01*
X146910000Y-83300000D02*
X145640000Y-82030000D01*
X149033000Y-83300000D02*
X146910000Y-83300000D01*
X170440000Y-83300000D02*
X169170000Y-82030000D01*
X135470000Y-53220000D02*
X140730000Y-53220000D01*
X149895000Y-51305000D02*
X154200000Y-51305000D01*
X134825000Y-52575000D02*
X135470000Y-53220000D01*
X130125000Y-52575000D02*
X134825000Y-52575000D01*
X128125000Y-52575000D02*
X130125000Y-52575000D01*
X140730000Y-53220000D02*
X143300000Y-50650000D01*
X149240000Y-50650000D02*
X149895000Y-51305000D01*
X124650000Y-51305000D02*
X126855000Y-51305000D01*
X126855000Y-51305000D02*
X128125000Y-52575000D01*
X143300000Y-50650000D02*
X149240000Y-50650000D01*
X140880000Y-54480000D02*
X143410000Y-51950000D01*
X135380000Y-54480000D02*
X140880000Y-54480000D01*
X149885000Y-52575000D02*
X154200000Y-52575000D01*
X143410000Y-51950000D02*
X149260000Y-51950000D01*
X149260000Y-51950000D02*
X149885000Y-52575000D01*
X130125000Y-53845000D02*
X124650000Y-53845000D01*
X134745000Y-53845000D02*
X135380000Y-54480000D01*
X130125000Y-53845000D02*
X134745000Y-53845000D01*
X127885000Y-55115000D02*
X127260000Y-55740000D01*
X120270000Y-55740000D02*
X119625000Y-56385000D01*
X130125000Y-55115000D02*
X127885000Y-55115000D01*
X135380000Y-55770000D02*
X149230000Y-55770000D01*
X130125000Y-55115000D02*
X134725000Y-55115000D01*
X134725000Y-55115000D02*
X135380000Y-55770000D01*
X119625000Y-56385000D02*
X115350000Y-56385000D01*
X149845000Y-56385000D02*
X154200000Y-56385000D01*
X149230000Y-55770000D02*
X149845000Y-56385000D01*
X127260000Y-55740000D02*
X120270000Y-55740000D01*
X149390000Y-57070000D02*
X149975000Y-57655000D01*
X130125000Y-56385000D02*
X134635000Y-56385000D01*
X128475000Y-56385000D02*
X130125000Y-56385000D01*
X149975000Y-57655000D02*
X154200000Y-57655000D01*
X115350000Y-58925000D02*
X119635000Y-58925000D01*
X134635000Y-56385000D02*
X135320000Y-57070000D01*
X120290000Y-58270000D02*
X126590000Y-58270000D01*
X126590000Y-58270000D02*
X128475000Y-56385000D01*
X119635000Y-58925000D02*
X120290000Y-58270000D01*
X135320000Y-57070000D02*
X149390000Y-57070000D01*
X139425000Y-57655000D02*
X144900000Y-57655000D01*
X134770000Y-58270000D02*
X135385000Y-57655000D01*
X135385000Y-57655000D02*
X139425000Y-57655000D01*
X124650000Y-58925000D02*
X126645000Y-58925000D01*
X127300000Y-58270000D02*
X134770000Y-58270000D01*
X126645000Y-58925000D02*
X127300000Y-58270000D01*
X135345000Y-56385000D02*
X139425000Y-56385000D01*
X127295000Y-56385000D02*
X127930000Y-55750000D01*
X127930000Y-55750000D02*
X134710000Y-55750000D01*
X124650000Y-56385000D02*
X127295000Y-56385000D01*
X139425000Y-56385000D02*
X144900000Y-56385000D01*
X134710000Y-55750000D02*
X135345000Y-56385000D01*
X140905000Y-55115000D02*
X143445000Y-52575000D01*
X134740000Y-54450000D02*
X135405000Y-55115000D01*
X115350000Y-53845000D02*
X119615000Y-53845000D01*
X119615000Y-53845000D02*
X120220000Y-54450000D01*
X143445000Y-52575000D02*
X144900000Y-52575000D01*
X120220000Y-54450000D02*
X134740000Y-54450000D01*
X135405000Y-55115000D02*
X139425000Y-55115000D01*
X139425000Y-55115000D02*
X140905000Y-55115000D01*
X139425000Y-53845000D02*
X140795000Y-53845000D01*
X120320000Y-51920000D02*
X126850000Y-51920000D01*
X135355000Y-53845000D02*
X139425000Y-53845000D01*
X140795000Y-53845000D02*
X143335000Y-51305000D01*
X134740000Y-53230000D02*
X135355000Y-53845000D01*
X126850000Y-51920000D02*
X128160000Y-53230000D01*
X128160000Y-53230000D02*
X134740000Y-53230000D01*
X143335000Y-51305000D02*
X144900000Y-51305000D01*
X115350000Y-51305000D02*
X119705000Y-51305000D01*
X119705000Y-51305000D02*
X120320000Y-51920000D01*
X132601666Y-69290000D02*
X132601666Y-68020000D01*
X154200000Y-58925000D02*
X155835000Y-58925000D01*
X177342500Y-57000000D02*
X164740000Y-57000000D01*
X164125000Y-56385000D02*
X159675000Y-56385000D01*
X183750000Y-60195000D02*
X180537500Y-60195000D01*
X155835000Y-58925000D02*
X158375000Y-56385000D01*
X158375000Y-56385000D02*
X159675000Y-56385000D01*
X180537500Y-60195000D02*
X177342500Y-57000000D01*
X164740000Y-57000000D02*
X164125000Y-56385000D01*
X168975000Y-57655000D02*
X174450000Y-57655000D01*
X164145000Y-55115000D02*
X159675000Y-55115000D01*
X183750000Y-57655000D02*
X180532500Y-57655000D01*
X164760000Y-55730000D02*
X164145000Y-55115000D01*
X180532500Y-57655000D02*
X177347500Y-54470000D01*
X177347500Y-54470000D02*
X172260000Y-54470000D01*
X171000000Y-55730000D02*
X164760000Y-55730000D01*
X154200000Y-55115000D02*
X159675000Y-55115000D01*
X172260000Y-54470000D02*
X171000000Y-55730000D01*
X172405000Y-55115000D02*
X174450000Y-55115000D01*
X171135000Y-56385000D02*
X172405000Y-55115000D01*
X149295000Y-55115000D02*
X149930000Y-55750000D01*
X144900000Y-55115000D02*
X149295000Y-55115000D01*
X164160000Y-55750000D02*
X164795000Y-56385000D01*
X168975000Y-56385000D02*
X171135000Y-56385000D01*
X164795000Y-56385000D02*
X168975000Y-56385000D01*
X149930000Y-55750000D02*
X164160000Y-55750000D01*
X172685000Y-52575000D02*
X174450000Y-52575000D01*
X159675000Y-53845000D02*
X164185000Y-53845000D01*
X164830000Y-54490000D02*
X170770000Y-54490000D01*
X164185000Y-53845000D02*
X164830000Y-54490000D01*
X154200000Y-53845000D02*
X159675000Y-53845000D01*
X170770000Y-54490000D02*
X172685000Y-52575000D01*
X179902500Y-55115000D02*
X177977500Y-53190000D01*
X149800000Y-54460000D02*
X164180000Y-54460000D01*
X144900000Y-53845000D02*
X149185000Y-53845000D01*
X164180000Y-54460000D02*
X164835000Y-55115000D01*
X164835000Y-55115000D02*
X168975000Y-55115000D01*
X183750000Y-55115000D02*
X179902500Y-55115000D01*
X172820000Y-53190000D02*
X177977500Y-53190000D01*
X170895000Y-55115000D02*
X172820000Y-53190000D01*
X149185000Y-53845000D02*
X149800000Y-54460000D01*
X168975000Y-55115000D02*
X170895000Y-55115000D01*
X155815000Y-50035000D02*
X158355000Y-52575000D01*
X174450000Y-50035000D02*
X171985000Y-50035000D01*
X170060000Y-51960000D02*
X164420000Y-51960000D01*
X164420000Y-51960000D02*
X163805000Y-52575000D01*
X158355000Y-52575000D02*
X159675000Y-52575000D01*
X154200000Y-50035000D02*
X155815000Y-50035000D01*
X171985000Y-50035000D02*
X170060000Y-51960000D01*
X163805000Y-52575000D02*
X159675000Y-52575000D01*
X164150000Y-53180000D02*
X164815000Y-53845000D01*
X179267500Y-52575000D02*
X178612500Y-51920000D01*
X144900000Y-50035000D02*
X149275000Y-50035000D01*
X155780000Y-50670000D02*
X158290000Y-53180000D01*
X149275000Y-50035000D02*
X149910000Y-50670000D01*
X158290000Y-53180000D02*
X164150000Y-53180000D01*
X170475000Y-53845000D02*
X172400000Y-51920000D01*
X183750000Y-52575000D02*
X179267500Y-52575000D01*
X164815000Y-53845000D02*
X168975000Y-53845000D01*
X178612500Y-51920000D02*
X172400000Y-51920000D01*
X149910000Y-50670000D02*
X155780000Y-50670000D01*
X168975000Y-53845000D02*
X170475000Y-53845000D01*
X137594998Y-85840000D02*
X137594998Y-84570000D01*
X127683520Y-75426480D02*
X131280000Y-71830000D01*
X131280000Y-71830000D02*
X132601666Y-71830000D01*
X125075012Y-75426480D02*
X127683520Y-75426480D01*
X117080000Y-71830000D02*
X117570000Y-72320000D01*
X121968532Y-72320000D02*
X125075012Y-75426480D01*
X117570000Y-72320000D02*
X121968532Y-72320000D01*
X132601666Y-71830000D02*
X137551666Y-71830000D01*
X114425000Y-71830000D02*
X117080000Y-71830000D01*
X138135000Y-58925000D02*
X139425000Y-58925000D01*
X167399995Y-84570000D02*
X166600000Y-84570000D01*
X122775000Y-70545000D02*
X122800000Y-70570000D01*
X160386480Y-90783520D02*
X122720000Y-90783520D01*
X166600000Y-84570000D02*
X165650000Y-85520000D01*
X120938333Y-70545000D02*
X122775000Y-70545000D01*
X165650000Y-85520000D02*
X160386480Y-90783520D01*
X122800000Y-61320000D02*
X135740000Y-61320000D01*
X135740000Y-61320000D02*
X136465000Y-60595000D01*
X136465000Y-60595000D02*
X138135000Y-58925000D01*
X109174989Y-76406480D02*
X115253520Y-76406480D01*
X157308140Y-72871860D02*
X157668140Y-73231860D01*
X182260000Y-80760000D02*
X183934999Y-80760000D01*
X146111468Y-71820000D02*
X146886448Y-72594980D01*
X176650000Y-78570000D02*
X180070000Y-78570000D01*
X107724576Y-77856893D02*
X108365734Y-77215734D01*
X124970000Y-75680000D02*
X131700000Y-75680000D01*
X119086480Y-72573520D02*
X121863520Y-72573520D01*
X140626480Y-72573520D02*
X141310000Y-71890000D01*
X144130000Y-71820000D02*
X146111468Y-71820000D01*
X141310000Y-71890000D02*
X145070000Y-71890000D01*
X107724576Y-82524576D02*
X107724576Y-77856893D01*
X157668140Y-73231860D02*
X159717395Y-75281114D01*
X131700000Y-75680000D02*
X134806480Y-72573520D01*
X121863520Y-72573520D02*
X124970000Y-75680000D01*
X108500000Y-83300000D02*
X107724576Y-82524576D01*
X157031260Y-72594980D02*
X157308140Y-72871860D01*
X180070000Y-78570000D02*
X182260000Y-80760000D01*
X108365734Y-77215734D02*
X109174989Y-76406480D01*
X115253520Y-76406480D02*
X119086480Y-72573520D01*
X134806480Y-72573520D02*
X140626480Y-72573520D01*
X109475000Y-83300000D02*
X108500000Y-83300000D01*
X146886448Y-72594980D02*
X157031260Y-72594980D01*
X176590000Y-78630000D02*
X176650000Y-78570000D01*
X169306000Y-65420000D02*
X170576000Y-66690000D01*
X167328333Y-65420000D02*
X169306000Y-65420000D01*
X173370000Y-73040000D02*
X172278333Y-73040000D01*
X173260000Y-66690000D02*
X173950000Y-67380000D01*
X173950000Y-67380000D02*
X173950000Y-72460000D01*
X173950000Y-72460000D02*
X173370000Y-73040000D01*
X170576000Y-66690000D02*
X172278333Y-66690000D01*
X172278333Y-66690000D02*
X173260000Y-66690000D01*
X158930000Y-85840000D02*
X160971000Y-85840000D01*
X120000000Y-89610000D02*
X144580000Y-89610000D01*
X117600000Y-87210000D02*
X120000000Y-89610000D01*
X117600000Y-84570000D02*
X117600000Y-87210000D01*
X149033000Y-87110000D02*
X150920000Y-87110000D01*
X156021000Y-84570000D02*
X154688532Y-84570000D01*
X147080000Y-87110000D02*
X149033000Y-87110000D01*
X161390000Y-50060000D02*
X161415000Y-50035000D01*
X154688532Y-84570000D02*
X152148532Y-87110000D01*
X156021000Y-84570000D02*
X157660000Y-84570000D01*
X152148532Y-87110000D02*
X150920000Y-87110000D01*
X161415000Y-50035000D02*
X168975000Y-50035000D01*
X144580000Y-89610000D02*
X147080000Y-87110000D01*
X157660000Y-84570000D02*
X158930000Y-85840000D01*
X114425000Y-84570000D02*
X117600000Y-84570000D01*
X117600000Y-84570000D02*
X121059999Y-84570000D01*
X168975000Y-60195000D02*
X165097000Y-60195000D01*
X162557000Y-57655000D02*
X159675000Y-57655000D01*
X165097000Y-60195000D02*
X162557000Y-57655000D01*
X171430000Y-86430000D02*
X170362928Y-85362928D01*
X170362928Y-84492928D02*
X168520000Y-82650000D01*
X153060000Y-85840000D02*
X149033000Y-85840000D01*
X162715012Y-84063520D02*
X154836480Y-84063520D01*
X109475000Y-79490000D02*
X111240000Y-79490000D01*
X112510000Y-80760000D02*
X114425000Y-80760000D01*
X170362928Y-85362928D02*
X170362928Y-84492928D01*
X183934999Y-84570000D02*
X182680000Y-84570000D01*
X148086480Y-90313520D02*
X114716480Y-90313520D01*
X182680000Y-84570000D02*
X180820000Y-86430000D01*
X149033000Y-85840000D02*
X148250000Y-85840000D01*
X168520000Y-82650000D02*
X164128532Y-82650000D01*
X114716480Y-90313520D02*
X114520000Y-90510000D01*
X164128532Y-82650000D02*
X162715012Y-84063520D01*
X180820000Y-86430000D02*
X171430000Y-86430000D01*
X111240000Y-79490000D02*
X112510000Y-80760000D01*
X148260000Y-90140000D02*
X148086480Y-90313520D01*
X154836480Y-84063520D02*
X153060000Y-85840000D01*
X132644998Y-80760000D02*
X132644998Y-79490000D01*
X154365000Y-73085000D02*
X155645000Y-73085000D01*
X151970000Y-75480000D02*
X154365000Y-73085000D01*
X164930000Y-52590000D02*
X164945000Y-52575000D01*
X164945000Y-52575000D02*
X168975000Y-52575000D01*
X137551666Y-73100000D02*
X142188000Y-73100000D01*
X142240000Y-48768000D02*
X144897000Y-48768000D01*
X142188000Y-73100000D02*
X142240000Y-73152000D01*
X144897000Y-48768000D02*
X144900000Y-48765000D01*
X172466000Y-46736000D02*
X172466000Y-46228000D01*
X172466000Y-46228000D02*
X171704000Y-45466000D01*
X174450000Y-48765000D02*
X178305000Y-48765000D01*
X115062000Y-45466000D02*
X114554000Y-45974000D01*
X179575000Y-50035000D02*
X183750000Y-50035000D01*
X171704000Y-45466000D02*
X115062000Y-45466000D01*
X172974000Y-48514000D02*
X172466000Y-48006000D01*
X174450000Y-48765000D02*
X173225000Y-48765000D01*
X172466000Y-48006000D02*
X172466000Y-46736000D01*
X173225000Y-48765000D02*
X172974000Y-48514000D01*
X178305000Y-48765000D02*
X179575000Y-50035000D01*
X118060980Y-71324980D02*
X133773551Y-71324980D01*
X133773551Y-71324980D02*
X136335012Y-68763520D01*
X151640020Y-68500020D02*
X154320000Y-71180000D01*
X140815012Y-68763520D02*
X140964266Y-68614266D01*
X136335012Y-68763520D02*
X140815012Y-68763520D01*
X164080000Y-70500000D02*
X167328333Y-70500000D01*
X154320000Y-71180000D02*
X163400000Y-71180000D01*
X141078512Y-68500020D02*
X151640020Y-68500020D01*
X114425000Y-70560000D02*
X117296000Y-70560000D01*
X109475000Y-70560000D02*
X114425000Y-70560000D01*
X140964266Y-68614266D02*
X141008512Y-68570020D01*
X117296000Y-70560000D02*
X118060980Y-71324980D01*
X163400000Y-71180000D02*
X164080000Y-70500000D01*
X140964266Y-68614266D02*
X141078512Y-68500020D01*
X132644998Y-84570000D02*
X135730000Y-84570000D01*
X135760000Y-50050000D02*
X130140000Y-50050000D01*
X150174980Y-72305020D02*
X157099832Y-72305020D01*
X146960020Y-72310020D02*
X150169980Y-72310020D01*
X145850000Y-71200000D02*
X146960020Y-72310020D01*
X141390000Y-71200000D02*
X145850000Y-71200000D01*
X137551666Y-70560000D02*
X135780000Y-70560000D01*
X135730000Y-84570000D02*
X135750000Y-84550000D01*
X157099832Y-72305020D02*
X157262406Y-72467594D01*
X157174832Y-72380020D02*
X157262406Y-72467594D01*
X137551666Y-70560000D02*
X140750000Y-70560000D01*
X135780000Y-70560000D02*
X135750000Y-70590000D01*
X150169980Y-72310020D02*
X150174980Y-72305020D01*
X140750000Y-70560000D02*
X141390000Y-71200000D01*
X130125000Y-50035000D02*
X130125000Y-51305000D01*
X130140000Y-50050000D02*
X130125000Y-50035000D01*
X154790000Y-82030000D02*
X156021000Y-82030000D01*
X146170000Y-80760000D02*
X146780000Y-81370000D01*
X154130000Y-81370000D02*
X154790000Y-82030000D01*
X144083000Y-80760000D02*
X146170000Y-80760000D01*
X146780000Y-81370000D02*
X154130000Y-81370000D01*
X137594998Y-87110000D02*
X140010000Y-87110000D01*
X155991000Y-80790000D02*
X156021000Y-80760000D01*
X140010000Y-87110000D02*
X141950000Y-85170000D01*
X151420000Y-80790000D02*
X155991000Y-80790000D01*
X121059999Y-83300000D02*
X122110000Y-83300000D01*
X135640000Y-87110000D02*
X137594998Y-87110000D01*
X122440000Y-84800000D02*
X122040000Y-85200000D01*
X120146480Y-89356480D02*
X133393520Y-89356480D01*
X122110000Y-83300000D02*
X122440000Y-83630000D01*
X119120000Y-88330000D02*
X120146480Y-89356480D01*
X151410000Y-85170000D02*
X151420000Y-85160000D01*
X122440000Y-83630000D02*
X122440000Y-84800000D01*
X119120000Y-85710000D02*
X119120000Y-88330000D01*
X141950000Y-85170000D02*
X151410000Y-85170000D01*
X122040000Y-85200000D02*
X119630000Y-85200000D01*
X133393520Y-89356480D02*
X135640000Y-87110000D01*
X119630000Y-85200000D02*
X119120000Y-85710000D01*
X160750000Y-67960000D02*
X160795000Y-68005000D01*
X158230000Y-67960000D02*
X160750000Y-67960000D01*
X156021000Y-85840000D02*
X156670000Y-85840000D01*
X141970000Y-84570000D02*
X141330000Y-85210000D01*
X123940000Y-82030000D02*
X126009999Y-82030000D01*
X114425000Y-82030000D02*
X115440000Y-82030000D01*
X112720000Y-85130000D02*
X112720000Y-82620000D01*
X129390000Y-86520000D02*
X129360000Y-86550000D01*
X140020000Y-86520000D02*
X138490000Y-86520000D01*
X117138768Y-82021232D02*
X117909980Y-81250020D01*
X113430000Y-85840000D02*
X112720000Y-85130000D01*
X138490000Y-86520000D02*
X129390000Y-86520000D01*
X141330000Y-85210000D02*
X140020000Y-86520000D01*
X144083000Y-84570000D02*
X141970000Y-84570000D01*
X123160020Y-81250020D02*
X123940000Y-82030000D01*
X115440000Y-82030000D02*
X115448768Y-82021232D01*
X117081232Y-82021232D02*
X117138768Y-82021232D01*
X114425000Y-85840000D02*
X113430000Y-85840000D01*
X113310000Y-82030000D02*
X114425000Y-82030000D01*
X112720000Y-82620000D02*
X113310000Y-82030000D01*
X117909980Y-81250020D02*
X123160020Y-81250020D01*
X115448768Y-82021232D02*
X117081232Y-82021232D01*
X146840000Y-82030000D02*
X149033000Y-82030000D01*
X142633540Y-81286460D02*
X146096460Y-81286460D01*
X141805008Y-81286460D02*
X142633540Y-81286460D01*
X140281488Y-82809980D02*
X141805008Y-81286460D01*
X123819980Y-82809980D02*
X140281488Y-82809980D01*
X146096460Y-81286460D02*
X146840000Y-82030000D01*
X121059999Y-82030000D02*
X123040000Y-82030000D01*
X123040000Y-82030000D02*
X123819980Y-82809980D01*
X126260000Y-90060000D02*
X145190000Y-90060000D01*
X146360000Y-79940000D02*
X147180000Y-80760000D01*
X109475000Y-85840000D02*
X110570000Y-85840000D01*
X110570000Y-85840000D02*
X112100000Y-87370000D01*
X112100000Y-87370000D02*
X114790000Y-90060000D01*
X145190000Y-90060000D02*
X146290000Y-88960000D01*
X145910000Y-79490000D02*
X146360000Y-79940000D01*
X147180000Y-80760000D02*
X149033000Y-80760000D01*
X114790000Y-90060000D02*
X126260000Y-90060000D01*
X144083000Y-79490000D02*
X145910000Y-79490000D01*
X126009999Y-87110000D02*
X127640000Y-87110000D01*
X127640000Y-87110000D02*
X131450000Y-83300000D01*
X131450000Y-83300000D02*
X132644998Y-83300000D01*
X128620000Y-80760000D02*
X129890000Y-82030000D01*
X120260000Y-76660000D02*
X124360000Y-80760000D01*
X124360000Y-80760000D02*
X126009999Y-80760000D01*
X126009999Y-80760000D02*
X128620000Y-80760000D01*
X109475000Y-80760000D02*
X108510000Y-80760000D01*
X107978087Y-80228087D02*
X107978087Y-77961913D01*
X107978087Y-77961913D02*
X109280000Y-76660000D01*
X109280000Y-76660000D02*
X120260000Y-76660000D01*
X129890000Y-82030000D02*
X132644998Y-82030000D01*
X108510000Y-80760000D02*
X107978087Y-80228087D01*
X171200000Y-85840000D02*
X172349995Y-85840000D01*
X170960000Y-82650000D02*
X173480000Y-82650000D01*
X170870000Y-84160000D02*
X170870000Y-85510000D01*
X173795000Y-82965000D02*
X173795000Y-83625000D01*
X169070000Y-80760000D02*
X170960000Y-82650000D01*
X170870000Y-85510000D02*
X171200000Y-85840000D01*
X171080000Y-83950000D02*
X170870000Y-84160000D01*
X173795000Y-83625000D02*
X173470000Y-83950000D01*
X173470000Y-83950000D02*
X171080000Y-83950000D01*
X173480000Y-82650000D02*
X173795000Y-82965000D01*
X167399995Y-80760000D02*
X169070000Y-80760000D01*
X128904980Y-70054980D02*
X129900020Y-71050020D01*
X141140000Y-68080000D02*
X144135000Y-68080000D01*
X118169980Y-68799980D02*
X119424980Y-70054980D01*
X119424980Y-70054980D02*
X128904980Y-70054980D01*
X140710000Y-68510000D02*
X141140000Y-68080000D01*
X133689980Y-71050020D02*
X136230000Y-68510000D01*
X136230000Y-68510000D02*
X140710000Y-68510000D01*
X112520020Y-68799980D02*
X118169980Y-68799980D01*
X109475000Y-69290000D02*
X112030000Y-69290000D01*
X129900020Y-71050020D02*
X133689980Y-71050020D01*
X112030000Y-69290000D02*
X112520020Y-68799980D01*
X108160000Y-71460000D02*
X108160000Y-65780000D01*
X108160000Y-65780000D02*
X108490000Y-65450000D01*
X109445000Y-65450000D02*
X109475000Y-65480000D01*
X108490000Y-65450000D02*
X109445000Y-65450000D01*
X108530000Y-71830000D02*
X108160000Y-71460000D01*
X109475000Y-71830000D02*
X108530000Y-71830000D01*
X111990000Y-68020000D02*
X112516460Y-68546460D01*
X124185000Y-68005000D02*
X126088333Y-68005000D01*
X118274992Y-68546460D02*
X119529992Y-69801460D01*
X112516460Y-68546460D02*
X118274992Y-68546460D01*
X119529992Y-69801460D02*
X122388540Y-69801460D01*
X109475000Y-68020000D02*
X111990000Y-68020000D01*
X122388540Y-69801460D02*
X124185000Y-68005000D01*
X115350000Y-48765000D02*
X119705000Y-48765000D01*
X116090000Y-73100000D02*
X116120000Y-73130000D01*
X114425000Y-73100000D02*
X116090000Y-73100000D01*
X120975000Y-50035000D02*
X124650000Y-50035000D01*
X119705000Y-48765000D02*
X120975000Y-50035000D01*
X175980000Y-85840000D02*
X178984999Y-85840000D01*
X180563520Y-80063520D02*
X179990000Y-79490000D01*
X178984999Y-85840000D02*
X179880000Y-85840000D01*
X179990000Y-79490000D02*
X178984999Y-79490000D01*
X179880000Y-85840000D02*
X180563520Y-85156480D01*
X180563520Y-85156480D02*
X180563520Y-80063520D01*
X172349995Y-84570000D02*
X174710000Y-84570000D01*
X174710000Y-84570000D02*
X175980000Y-85840000D01*
X117270000Y-81530000D02*
X113420000Y-81530000D01*
X112380000Y-82570000D02*
X112380000Y-85940000D01*
X113550000Y-87110000D02*
X114425000Y-87110000D01*
X121059999Y-80760000D02*
X118040000Y-80760000D01*
X113420000Y-81530000D02*
X112380000Y-82570000D01*
X112380000Y-85940000D02*
X113550000Y-87110000D01*
X118040000Y-80760000D02*
X117270000Y-81530000D01*
X144130000Y-69280000D02*
X145340000Y-69280000D01*
X144075000Y-69290000D02*
X144135000Y-69350000D01*
X145866460Y-68753540D02*
X151083540Y-68753540D01*
X154330000Y-83300000D02*
X156021000Y-83300000D01*
X145340000Y-69280000D02*
X145866460Y-68753540D01*
X137551666Y-69290000D02*
X144075000Y-69290000D01*
X153260000Y-82230000D02*
X154330000Y-83300000D01*
X144135000Y-69350000D02*
X144135000Y-70620000D01*
X151083540Y-68753540D02*
X153250000Y-70920000D01*
X159335000Y-88105000D02*
X159090000Y-88350000D01*
X151670000Y-70940000D02*
X151280000Y-70550000D01*
X149085000Y-70620000D02*
X149085000Y-71890000D01*
X151280000Y-70550000D02*
X149080000Y-70550000D01*
X159090000Y-88350000D02*
X152090000Y-88350000D01*
X160330000Y-87110000D02*
X159335000Y-88105000D01*
X160971000Y-87110000D02*
X160330000Y-87110000D01*
X150840000Y-69280000D02*
X149080000Y-69280000D01*
X159510000Y-81510000D02*
X158120000Y-80120000D01*
X152730000Y-80120000D02*
X152710000Y-80140000D01*
X158120000Y-80120000D02*
X156860000Y-80120000D01*
X152480000Y-70920000D02*
X150840000Y-69280000D01*
X160971000Y-82030000D02*
X160030000Y-82030000D01*
X160030000Y-82030000D02*
X159510000Y-81510000D01*
X156860000Y-80120000D02*
X152730000Y-80120000D01*
X181100000Y-88200000D02*
X182190000Y-87110000D01*
X184970000Y-82030000D02*
X185035000Y-81965000D01*
X177830000Y-69230000D02*
X177150000Y-69910000D01*
X182500000Y-82440000D02*
X182910000Y-82030000D01*
X162580000Y-84570000D02*
X163220000Y-83930000D01*
X159375000Y-70545000D02*
X159390000Y-70560000D01*
X182780000Y-80080000D02*
X184980000Y-80080000D01*
X185490000Y-84420000D02*
X185000000Y-83930000D01*
X183934999Y-87110000D02*
X184930000Y-87110000D01*
X178891666Y-69230000D02*
X177830000Y-69230000D01*
X185000000Y-83930000D02*
X182740000Y-83930000D01*
X185280000Y-80380000D02*
X185120000Y-80220000D01*
X185490000Y-84950000D02*
X185490000Y-84420000D01*
X182190000Y-87110000D02*
X183934999Y-87110000D01*
X163220000Y-83930000D02*
X169441468Y-83930000D01*
X177150000Y-69910000D02*
X177150000Y-74450000D01*
X177150000Y-74450000D02*
X182780000Y-80080000D01*
X182910000Y-82030000D02*
X183934999Y-82030000D01*
X183934999Y-82030000D02*
X184970000Y-82030000D01*
X160971000Y-84570000D02*
X160300000Y-84570000D01*
X185490000Y-84950000D02*
X185490000Y-85030000D01*
X185035000Y-81965000D02*
X185280000Y-81720000D01*
X169441468Y-83930000D02*
X170109408Y-84597940D01*
X170109408Y-86519408D02*
X171790000Y-88200000D01*
X160971000Y-84570000D02*
X162580000Y-84570000D01*
X184930000Y-87110000D02*
X185490000Y-86550000D01*
X185280000Y-81720000D02*
X185280000Y-80380000D01*
X182740000Y-83930000D02*
X182500000Y-83690000D01*
X170109408Y-84597940D02*
X170109408Y-86519408D01*
X155645000Y-70545000D02*
X159375000Y-70545000D01*
X171790000Y-88200000D02*
X181100000Y-88200000D01*
X184980000Y-80080000D02*
X185120000Y-80220000D01*
X182500000Y-83690000D02*
X182500000Y-82440000D01*
X185490000Y-86550000D02*
X185490000Y-85030000D01*
X182580000Y-66690000D02*
X183841666Y-66690000D01*
X168610000Y-76600000D02*
X170690000Y-76600000D01*
X160971000Y-83300000D02*
X161910000Y-83300000D01*
X175790000Y-71500000D02*
X175790000Y-70180000D01*
X170690000Y-76600000D02*
X175790000Y-71500000D01*
X175790000Y-70180000D02*
X177380000Y-68590000D01*
X161910000Y-83300000D02*
X168610000Y-76600000D01*
X180680000Y-68590000D02*
X182580000Y-66690000D01*
X177380000Y-68590000D02*
X180680000Y-68590000D01*
X126009999Y-85840000D02*
X121059999Y-85840000D01*
X112103520Y-81276480D02*
X116663520Y-81276480D01*
X109475000Y-82030000D02*
X111350000Y-82030000D01*
X116663520Y-81276480D02*
X118450000Y-79490000D01*
X118450000Y-79490000D02*
X121059999Y-79490000D01*
X111350000Y-82030000D02*
X112103520Y-81276480D01*
X126009999Y-84570000D02*
X126009999Y-83300000D01*
X149600000Y-73090000D02*
X149620000Y-73070000D01*
X149080000Y-73090000D02*
X149600000Y-73090000D01*
M02*
