G04 #@! TF.GenerationSoftware,KiCad,Pcbnew,(6.0.5)*
G04 #@! TF.CreationDate,2022-09-14T22:51:16+02:00*
G04 #@! TF.ProjectId,B3,42332e6b-6963-4616-945f-706362585858,rev?*
G04 #@! TF.SameCoordinates,Original*
G04 #@! TF.FileFunction,Legend,Top*
G04 #@! TF.FilePolarity,Positive*
%FSLAX46Y46*%
G04 Gerber Fmt 4.6, Leading zero omitted, Abs format (unit mm)*
G04 Created by KiCad (PCBNEW (6.0.5)) date 2022-09-14 22:51:16*
%MOMM*%
%LPD*%
G01*
G04 APERTURE LIST*
%ADD10C,0.150000*%
%ADD11C,0.120000*%
G04 APERTURE END LIST*
D10*
X121820713Y-77472380D02*
X121820713Y-78281904D01*
X121868332Y-78377142D01*
X121915951Y-78424761D01*
X122011189Y-78472380D01*
X122201665Y-78472380D01*
X122296903Y-78424761D01*
X122344522Y-78377142D01*
X122392141Y-78281904D01*
X122392141Y-77472380D01*
X122773094Y-77472380D02*
X123392141Y-77472380D01*
X123058808Y-77853333D01*
X123201665Y-77853333D01*
X123296903Y-77900952D01*
X123344522Y-77948571D01*
X123392141Y-78043809D01*
X123392141Y-78281904D01*
X123344522Y-78377142D01*
X123296903Y-78424761D01*
X123201665Y-78472380D01*
X122915951Y-78472380D01*
X122820713Y-78424761D01*
X122773094Y-78377142D01*
X124344522Y-78472380D02*
X123773094Y-78472380D01*
X124058808Y-78472380D02*
X124058808Y-77472380D01*
X123963570Y-77615238D01*
X123868332Y-77710476D01*
X123773094Y-77758095D01*
X124820713Y-78472380D02*
X125011189Y-78472380D01*
X125106427Y-78424761D01*
X125154046Y-78377142D01*
X125249284Y-78234285D01*
X125296903Y-78043809D01*
X125296903Y-77662857D01*
X125249284Y-77567619D01*
X125201665Y-77520000D01*
X125106427Y-77472380D01*
X124915951Y-77472380D01*
X124820713Y-77520000D01*
X124773094Y-77567619D01*
X124725475Y-77662857D01*
X124725475Y-77900952D01*
X124773094Y-77996190D01*
X124820713Y-78043809D01*
X124915951Y-78091428D01*
X125106427Y-78091428D01*
X125201665Y-78043809D01*
X125249284Y-77996190D01*
X125296903Y-77900952D01*
X120749284Y-88032380D02*
X121415951Y-88032380D01*
X120987379Y-89032380D01*
X122225475Y-88365714D02*
X122225475Y-89032380D01*
X121987379Y-87984761D02*
X121749284Y-88699047D01*
X122368332Y-88699047D01*
X122749284Y-89032380D02*
X122749284Y-88032380D01*
X122749284Y-88508571D02*
X123320713Y-88508571D01*
X123320713Y-89032380D02*
X123320713Y-88032380D01*
X124368332Y-88937142D02*
X124320713Y-88984761D01*
X124177856Y-89032380D01*
X124082618Y-89032380D01*
X123939760Y-88984761D01*
X123844522Y-88889523D01*
X123796903Y-88794285D01*
X123749284Y-88603809D01*
X123749284Y-88460952D01*
X123796903Y-88270476D01*
X123844522Y-88175238D01*
X123939760Y-88080000D01*
X124082618Y-88032380D01*
X124177856Y-88032380D01*
X124320713Y-88080000D01*
X124368332Y-88127619D01*
X124701665Y-88032380D02*
X125320713Y-88032380D01*
X124987379Y-88413333D01*
X125130237Y-88413333D01*
X125225475Y-88460952D01*
X125273094Y-88508571D01*
X125320713Y-88603809D01*
X125320713Y-88841904D01*
X125273094Y-88937142D01*
X125225475Y-88984761D01*
X125130237Y-89032380D01*
X124844522Y-89032380D01*
X124749284Y-88984761D01*
X124701665Y-88937142D01*
X125701665Y-88127619D02*
X125749284Y-88080000D01*
X125844522Y-88032380D01*
X126082618Y-88032380D01*
X126177856Y-88080000D01*
X126225475Y-88127619D01*
X126273094Y-88222857D01*
X126273094Y-88318095D01*
X126225475Y-88460952D01*
X125654046Y-89032380D01*
X126273094Y-89032380D01*
X121799047Y-63462380D02*
X121799047Y-64271904D01*
X121846666Y-64367142D01*
X121894285Y-64414761D01*
X121989523Y-64462380D01*
X122179999Y-64462380D01*
X122275237Y-64414761D01*
X122322856Y-64367142D01*
X122370475Y-64271904D01*
X122370475Y-63462380D01*
X122751428Y-63462380D02*
X123370475Y-63462380D01*
X123037142Y-63843333D01*
X123179999Y-63843333D01*
X123275237Y-63890952D01*
X123322856Y-63938571D01*
X123370475Y-64033809D01*
X123370475Y-64271904D01*
X123322856Y-64367142D01*
X123275237Y-64414761D01*
X123179999Y-64462380D01*
X122894285Y-64462380D01*
X122799047Y-64414761D01*
X122751428Y-64367142D01*
X123989523Y-63462380D02*
X124084761Y-63462380D01*
X124179999Y-63510000D01*
X124227618Y-63557619D01*
X124275237Y-63652857D01*
X124322856Y-63843333D01*
X124322856Y-64081428D01*
X124275237Y-64271904D01*
X124227618Y-64367142D01*
X124179999Y-64414761D01*
X124084761Y-64462380D01*
X123989523Y-64462380D01*
X123894285Y-64414761D01*
X123846666Y-64367142D01*
X123799047Y-64271904D01*
X123751428Y-64081428D01*
X123751428Y-63843333D01*
X123799047Y-63652857D01*
X123846666Y-63557619D01*
X123894285Y-63510000D01*
X123989523Y-63462380D01*
X124894285Y-63890952D02*
X124799047Y-63843333D01*
X124751428Y-63795714D01*
X124703809Y-63700476D01*
X124703809Y-63652857D01*
X124751428Y-63557619D01*
X124799047Y-63510000D01*
X124894285Y-63462380D01*
X125084761Y-63462380D01*
X125179999Y-63510000D01*
X125227618Y-63557619D01*
X125275237Y-63652857D01*
X125275237Y-63700476D01*
X125227618Y-63795714D01*
X125179999Y-63843333D01*
X125084761Y-63890952D01*
X124894285Y-63890952D01*
X124799047Y-63938571D01*
X124751428Y-63986190D01*
X124703809Y-64081428D01*
X124703809Y-64271904D01*
X124751428Y-64367142D01*
X124799047Y-64414761D01*
X124894285Y-64462380D01*
X125084761Y-64462380D01*
X125179999Y-64414761D01*
X125227618Y-64367142D01*
X125275237Y-64271904D01*
X125275237Y-64081428D01*
X125227618Y-63986190D01*
X125179999Y-63938571D01*
X125084761Y-63890952D01*
X120171428Y-75612380D02*
X120838094Y-75612380D01*
X120409523Y-76612380D01*
X121647618Y-75945714D02*
X121647618Y-76612380D01*
X121409523Y-75564761D02*
X121171428Y-76279047D01*
X121790475Y-76279047D01*
X122171428Y-76612380D02*
X122171428Y-75612380D01*
X122171428Y-76088571D02*
X122742856Y-76088571D01*
X122742856Y-76612380D02*
X122742856Y-75612380D01*
X123790475Y-76517142D02*
X123742856Y-76564761D01*
X123599999Y-76612380D01*
X123504761Y-76612380D01*
X123361904Y-76564761D01*
X123266666Y-76469523D01*
X123219047Y-76374285D01*
X123171428Y-76183809D01*
X123171428Y-76040952D01*
X123219047Y-75850476D01*
X123266666Y-75755238D01*
X123361904Y-75660000D01*
X123504761Y-75612380D01*
X123599999Y-75612380D01*
X123742856Y-75660000D01*
X123790475Y-75707619D01*
X124742856Y-76612380D02*
X124171428Y-76612380D01*
X124457142Y-76612380D02*
X124457142Y-75612380D01*
X124361904Y-75755238D01*
X124266666Y-75850476D01*
X124171428Y-75898095D01*
X125219047Y-76612380D02*
X125409523Y-76612380D01*
X125504761Y-76564761D01*
X125552380Y-76517142D01*
X125647618Y-76374285D01*
X125695237Y-76183809D01*
X125695237Y-75802857D01*
X125647618Y-75707619D01*
X125599999Y-75660000D01*
X125504761Y-75612380D01*
X125314285Y-75612380D01*
X125219047Y-75660000D01*
X125171428Y-75707619D01*
X125123809Y-75802857D01*
X125123809Y-76040952D01*
X125171428Y-76136190D01*
X125219047Y-76183809D01*
X125314285Y-76231428D01*
X125504761Y-76231428D01*
X125599999Y-76183809D01*
X125647618Y-76136190D01*
X125695237Y-76040952D01*
X126028571Y-75612380D02*
X126647618Y-75612380D01*
X126314285Y-75993333D01*
X126457142Y-75993333D01*
X126552380Y-76040952D01*
X126599999Y-76088571D01*
X126647618Y-76183809D01*
X126647618Y-76421904D01*
X126599999Y-76517142D01*
X126552380Y-76564761D01*
X126457142Y-76612380D01*
X126171428Y-76612380D01*
X126076190Y-76564761D01*
X126028571Y-76517142D01*
X133060714Y-46582380D02*
X133060714Y-47391904D01*
X133108333Y-47487142D01*
X133155952Y-47534761D01*
X133251190Y-47582380D01*
X133441666Y-47582380D01*
X133536904Y-47534761D01*
X133584523Y-47487142D01*
X133632142Y-47391904D01*
X133632142Y-46582380D01*
X134013095Y-46582380D02*
X134632142Y-46582380D01*
X134298809Y-46963333D01*
X134441666Y-46963333D01*
X134536904Y-47010952D01*
X134584523Y-47058571D01*
X134632142Y-47153809D01*
X134632142Y-47391904D01*
X134584523Y-47487142D01*
X134536904Y-47534761D01*
X134441666Y-47582380D01*
X134155952Y-47582380D01*
X134060714Y-47534761D01*
X134013095Y-47487142D01*
X135251190Y-46582380D02*
X135346428Y-46582380D01*
X135441666Y-46630000D01*
X135489285Y-46677619D01*
X135536904Y-46772857D01*
X135584523Y-46963333D01*
X135584523Y-47201428D01*
X135536904Y-47391904D01*
X135489285Y-47487142D01*
X135441666Y-47534761D01*
X135346428Y-47582380D01*
X135251190Y-47582380D01*
X135155952Y-47534761D01*
X135108333Y-47487142D01*
X135060714Y-47391904D01*
X135013095Y-47201428D01*
X135013095Y-46963333D01*
X135060714Y-46772857D01*
X135108333Y-46677619D01*
X135155952Y-46630000D01*
X135251190Y-46582380D01*
X135917857Y-46582380D02*
X136584523Y-46582380D01*
X136155952Y-47582380D01*
X131513095Y-61282380D02*
X132179761Y-61282380D01*
X131751190Y-62282380D01*
X132989285Y-61615714D02*
X132989285Y-62282380D01*
X132751190Y-61234761D02*
X132513095Y-61949047D01*
X133132142Y-61949047D01*
X133513095Y-62282380D02*
X133513095Y-61282380D01*
X133513095Y-61758571D02*
X134084523Y-61758571D01*
X134084523Y-62282380D02*
X134084523Y-61282380D01*
X135132142Y-62187142D02*
X135084523Y-62234761D01*
X134941666Y-62282380D01*
X134846428Y-62282380D01*
X134703571Y-62234761D01*
X134608333Y-62139523D01*
X134560714Y-62044285D01*
X134513095Y-61853809D01*
X134513095Y-61710952D01*
X134560714Y-61520476D01*
X134608333Y-61425238D01*
X134703571Y-61330000D01*
X134846428Y-61282380D01*
X134941666Y-61282380D01*
X135084523Y-61330000D01*
X135132142Y-61377619D01*
X135513095Y-61377619D02*
X135560714Y-61330000D01*
X135655952Y-61282380D01*
X135894047Y-61282380D01*
X135989285Y-61330000D01*
X136036904Y-61377619D01*
X136084523Y-61472857D01*
X136084523Y-61568095D01*
X136036904Y-61710952D01*
X135465476Y-62282380D01*
X136084523Y-62282380D01*
X136560714Y-62282380D02*
X136751190Y-62282380D01*
X136846428Y-62234761D01*
X136894047Y-62187142D01*
X136989285Y-62044285D01*
X137036904Y-61853809D01*
X137036904Y-61472857D01*
X136989285Y-61377619D01*
X136941666Y-61330000D01*
X136846428Y-61282380D01*
X136655952Y-61282380D01*
X136560714Y-61330000D01*
X136513095Y-61377619D01*
X136465476Y-61472857D01*
X136465476Y-61710952D01*
X136513095Y-61806190D01*
X136560714Y-61853809D01*
X136655952Y-61901428D01*
X136846428Y-61901428D01*
X136941666Y-61853809D01*
X136989285Y-61806190D01*
X137036904Y-61710952D01*
X137513095Y-62282380D02*
X137703571Y-62282380D01*
X137798809Y-62234761D01*
X137846428Y-62187142D01*
X137941666Y-62044285D01*
X137989285Y-61853809D01*
X137989285Y-61472857D01*
X137941666Y-61377619D01*
X137894047Y-61330000D01*
X137798809Y-61282380D01*
X137608333Y-61282380D01*
X137513095Y-61330000D01*
X137465476Y-61377619D01*
X137417857Y-61472857D01*
X137417857Y-61710952D01*
X137465476Y-61806190D01*
X137513095Y-61853809D01*
X137608333Y-61901428D01*
X137798809Y-61901428D01*
X137894047Y-61853809D01*
X137941666Y-61806190D01*
X137989285Y-61710952D01*
X118285714Y-46582380D02*
X118285714Y-47391904D01*
X118333333Y-47487142D01*
X118380952Y-47534761D01*
X118476190Y-47582380D01*
X118666666Y-47582380D01*
X118761904Y-47534761D01*
X118809523Y-47487142D01*
X118857142Y-47391904D01*
X118857142Y-46582380D01*
X119238095Y-46582380D02*
X119857142Y-46582380D01*
X119523809Y-46963333D01*
X119666666Y-46963333D01*
X119761904Y-47010952D01*
X119809523Y-47058571D01*
X119857142Y-47153809D01*
X119857142Y-47391904D01*
X119809523Y-47487142D01*
X119761904Y-47534761D01*
X119666666Y-47582380D01*
X119380952Y-47582380D01*
X119285714Y-47534761D01*
X119238095Y-47487142D01*
X120809523Y-47582380D02*
X120238095Y-47582380D01*
X120523809Y-47582380D02*
X120523809Y-46582380D01*
X120428571Y-46725238D01*
X120333333Y-46820476D01*
X120238095Y-46868095D01*
X121428571Y-46582380D02*
X121523809Y-46582380D01*
X121619047Y-46630000D01*
X121666666Y-46677619D01*
X121714285Y-46772857D01*
X121761904Y-46963333D01*
X121761904Y-47201428D01*
X121714285Y-47391904D01*
X121666666Y-47487142D01*
X121619047Y-47534761D01*
X121523809Y-47582380D01*
X121428571Y-47582380D01*
X121333333Y-47534761D01*
X121285714Y-47487142D01*
X121238095Y-47391904D01*
X121190476Y-47201428D01*
X121190476Y-46963333D01*
X121238095Y-46772857D01*
X121285714Y-46677619D01*
X121333333Y-46630000D01*
X121428571Y-46582380D01*
X116738095Y-61282380D02*
X117404761Y-61282380D01*
X116976190Y-62282380D01*
X118214285Y-61615714D02*
X118214285Y-62282380D01*
X117976190Y-61234761D02*
X117738095Y-61949047D01*
X118357142Y-61949047D01*
X118738095Y-62282380D02*
X118738095Y-61282380D01*
X118738095Y-61758571D02*
X119309523Y-61758571D01*
X119309523Y-62282380D02*
X119309523Y-61282380D01*
X120357142Y-62187142D02*
X120309523Y-62234761D01*
X120166666Y-62282380D01*
X120071428Y-62282380D01*
X119928571Y-62234761D01*
X119833333Y-62139523D01*
X119785714Y-62044285D01*
X119738095Y-61853809D01*
X119738095Y-61710952D01*
X119785714Y-61520476D01*
X119833333Y-61425238D01*
X119928571Y-61330000D01*
X120071428Y-61282380D01*
X120166666Y-61282380D01*
X120309523Y-61330000D01*
X120357142Y-61377619D01*
X120738095Y-61377619D02*
X120785714Y-61330000D01*
X120880952Y-61282380D01*
X121119047Y-61282380D01*
X121214285Y-61330000D01*
X121261904Y-61377619D01*
X121309523Y-61472857D01*
X121309523Y-61568095D01*
X121261904Y-61710952D01*
X120690476Y-62282380D01*
X121309523Y-62282380D01*
X122166666Y-61615714D02*
X122166666Y-62282380D01*
X121928571Y-61234761D02*
X121690476Y-61949047D01*
X122309523Y-61949047D01*
X123119047Y-61615714D02*
X123119047Y-62282380D01*
X122880952Y-61234761D02*
X122642857Y-61949047D01*
X123261904Y-61949047D01*
X179652380Y-63402380D02*
X179652380Y-64211904D01*
X179699999Y-64307142D01*
X179747618Y-64354761D01*
X179842856Y-64402380D01*
X180033332Y-64402380D01*
X180128570Y-64354761D01*
X180176189Y-64307142D01*
X180223808Y-64211904D01*
X180223808Y-63402380D01*
X180604761Y-63402380D02*
X181223808Y-63402380D01*
X180890475Y-63783333D01*
X181033332Y-63783333D01*
X181128570Y-63830952D01*
X181176189Y-63878571D01*
X181223808Y-63973809D01*
X181223808Y-64211904D01*
X181176189Y-64307142D01*
X181128570Y-64354761D01*
X181033332Y-64402380D01*
X180747618Y-64402380D01*
X180652380Y-64354761D01*
X180604761Y-64307142D01*
X181842856Y-63402380D02*
X181938094Y-63402380D01*
X182033332Y-63450000D01*
X182080951Y-63497619D01*
X182128570Y-63592857D01*
X182176189Y-63783333D01*
X182176189Y-64021428D01*
X182128570Y-64211904D01*
X182080951Y-64307142D01*
X182033332Y-64354761D01*
X181938094Y-64402380D01*
X181842856Y-64402380D01*
X181747618Y-64354761D01*
X181699999Y-64307142D01*
X181652380Y-64211904D01*
X181604761Y-64021428D01*
X181604761Y-63783333D01*
X181652380Y-63592857D01*
X181699999Y-63497619D01*
X181747618Y-63450000D01*
X181842856Y-63402380D01*
X182557142Y-63497619D02*
X182604761Y-63450000D01*
X182699999Y-63402380D01*
X182938094Y-63402380D01*
X183033332Y-63450000D01*
X183080951Y-63497619D01*
X183128570Y-63592857D01*
X183128570Y-63688095D01*
X183080951Y-63830952D01*
X182509523Y-64402380D01*
X183128570Y-64402380D01*
X178024761Y-75552380D02*
X178691427Y-75552380D01*
X178262856Y-76552380D01*
X179500951Y-75885714D02*
X179500951Y-76552380D01*
X179262856Y-75504761D02*
X179024761Y-76219047D01*
X179643808Y-76219047D01*
X180024761Y-76552380D02*
X180024761Y-75552380D01*
X180024761Y-76028571D02*
X180596189Y-76028571D01*
X180596189Y-76552380D02*
X180596189Y-75552380D01*
X181643808Y-76457142D02*
X181596189Y-76504761D01*
X181453332Y-76552380D01*
X181358094Y-76552380D01*
X181215237Y-76504761D01*
X181119999Y-76409523D01*
X181072380Y-76314285D01*
X181024761Y-76123809D01*
X181024761Y-75980952D01*
X181072380Y-75790476D01*
X181119999Y-75695238D01*
X181215237Y-75600000D01*
X181358094Y-75552380D01*
X181453332Y-75552380D01*
X181596189Y-75600000D01*
X181643808Y-75647619D01*
X182596189Y-76552380D02*
X182024761Y-76552380D01*
X182310475Y-76552380D02*
X182310475Y-75552380D01*
X182215237Y-75695238D01*
X182119999Y-75790476D01*
X182024761Y-75838095D01*
X182977142Y-75647619D02*
X183024761Y-75600000D01*
X183119999Y-75552380D01*
X183358094Y-75552380D01*
X183453332Y-75600000D01*
X183500951Y-75647619D01*
X183548570Y-75742857D01*
X183548570Y-75838095D01*
X183500951Y-75980952D01*
X182929523Y-76552380D01*
X183548570Y-76552380D01*
X184453332Y-75552380D02*
X183977142Y-75552380D01*
X183929523Y-76028571D01*
X183977142Y-75980952D01*
X184072380Y-75933333D01*
X184310475Y-75933333D01*
X184405713Y-75980952D01*
X184453332Y-76028571D01*
X184500951Y-76123809D01*
X184500951Y-76361904D01*
X184453332Y-76457142D01*
X184405713Y-76504761D01*
X184310475Y-76552380D01*
X184072380Y-76552380D01*
X183977142Y-76504761D01*
X183929523Y-76457142D01*
X168089047Y-63402380D02*
X168089047Y-64211904D01*
X168136666Y-64307142D01*
X168184285Y-64354761D01*
X168279523Y-64402380D01*
X168469999Y-64402380D01*
X168565237Y-64354761D01*
X168612856Y-64307142D01*
X168660475Y-64211904D01*
X168660475Y-63402380D01*
X169041428Y-63402380D02*
X169660475Y-63402380D01*
X169327142Y-63783333D01*
X169469999Y-63783333D01*
X169565237Y-63830952D01*
X169612856Y-63878571D01*
X169660475Y-63973809D01*
X169660475Y-64211904D01*
X169612856Y-64307142D01*
X169565237Y-64354761D01*
X169469999Y-64402380D01*
X169184285Y-64402380D01*
X169089047Y-64354761D01*
X169041428Y-64307142D01*
X170279523Y-63402380D02*
X170374761Y-63402380D01*
X170469999Y-63450000D01*
X170517618Y-63497619D01*
X170565237Y-63592857D01*
X170612856Y-63783333D01*
X170612856Y-64021428D01*
X170565237Y-64211904D01*
X170517618Y-64307142D01*
X170469999Y-64354761D01*
X170374761Y-64402380D01*
X170279523Y-64402380D01*
X170184285Y-64354761D01*
X170136666Y-64307142D01*
X170089047Y-64211904D01*
X170041428Y-64021428D01*
X170041428Y-63783333D01*
X170089047Y-63592857D01*
X170136666Y-63497619D01*
X170184285Y-63450000D01*
X170279523Y-63402380D01*
X171469999Y-63735714D02*
X171469999Y-64402380D01*
X171231904Y-63354761D02*
X170993809Y-64069047D01*
X171612856Y-64069047D01*
X166937618Y-75552380D02*
X167604285Y-75552380D01*
X167175713Y-76552380D01*
X168413809Y-75885714D02*
X168413809Y-76552380D01*
X168175713Y-75504761D02*
X167937618Y-76219047D01*
X168556666Y-76219047D01*
X168937618Y-76552380D02*
X168937618Y-75552380D01*
X168937618Y-76028571D02*
X169509047Y-76028571D01*
X169509047Y-76552380D02*
X169509047Y-75552380D01*
X170556666Y-76457142D02*
X170509047Y-76504761D01*
X170366190Y-76552380D01*
X170270952Y-76552380D01*
X170128094Y-76504761D01*
X170032856Y-76409523D01*
X169985237Y-76314285D01*
X169937618Y-76123809D01*
X169937618Y-75980952D01*
X169985237Y-75790476D01*
X170032856Y-75695238D01*
X170128094Y-75600000D01*
X170270952Y-75552380D01*
X170366190Y-75552380D01*
X170509047Y-75600000D01*
X170556666Y-75647619D01*
X170889999Y-75552380D02*
X171556666Y-75552380D01*
X171128094Y-76552380D01*
X172366190Y-75885714D02*
X172366190Y-76552380D01*
X172128094Y-75504761D02*
X171889999Y-76219047D01*
X172509047Y-76219047D01*
X110235714Y-77472380D02*
X110235714Y-78281904D01*
X110283333Y-78377142D01*
X110330952Y-78424761D01*
X110426190Y-78472380D01*
X110616666Y-78472380D01*
X110711904Y-78424761D01*
X110759523Y-78377142D01*
X110807142Y-78281904D01*
X110807142Y-77472380D01*
X111188095Y-77472380D02*
X111807142Y-77472380D01*
X111473809Y-77853333D01*
X111616666Y-77853333D01*
X111711904Y-77900952D01*
X111759523Y-77948571D01*
X111807142Y-78043809D01*
X111807142Y-78281904D01*
X111759523Y-78377142D01*
X111711904Y-78424761D01*
X111616666Y-78472380D01*
X111330952Y-78472380D01*
X111235714Y-78424761D01*
X111188095Y-78377142D01*
X112759523Y-78472380D02*
X112188095Y-78472380D01*
X112473809Y-78472380D02*
X112473809Y-77472380D01*
X112378571Y-77615238D01*
X112283333Y-77710476D01*
X112188095Y-77758095D01*
X113330952Y-77900952D02*
X113235714Y-77853333D01*
X113188095Y-77805714D01*
X113140476Y-77710476D01*
X113140476Y-77662857D01*
X113188095Y-77567619D01*
X113235714Y-77520000D01*
X113330952Y-77472380D01*
X113521428Y-77472380D01*
X113616666Y-77520000D01*
X113664285Y-77567619D01*
X113711904Y-77662857D01*
X113711904Y-77710476D01*
X113664285Y-77805714D01*
X113616666Y-77853333D01*
X113521428Y-77900952D01*
X113330952Y-77900952D01*
X113235714Y-77948571D01*
X113188095Y-77996190D01*
X113140476Y-78091428D01*
X113140476Y-78281904D01*
X113188095Y-78377142D01*
X113235714Y-78424761D01*
X113330952Y-78472380D01*
X113521428Y-78472380D01*
X113616666Y-78424761D01*
X113664285Y-78377142D01*
X113711904Y-78281904D01*
X113711904Y-78091428D01*
X113664285Y-77996190D01*
X113616666Y-77948571D01*
X113521428Y-77900952D01*
X109164285Y-88032380D02*
X109830952Y-88032380D01*
X109402380Y-89032380D01*
X110640476Y-88365714D02*
X110640476Y-89032380D01*
X110402380Y-87984761D02*
X110164285Y-88699047D01*
X110783333Y-88699047D01*
X111164285Y-89032380D02*
X111164285Y-88032380D01*
X111164285Y-88508571D02*
X111735714Y-88508571D01*
X111735714Y-89032380D02*
X111735714Y-88032380D01*
X112783333Y-88937142D02*
X112735714Y-88984761D01*
X112592857Y-89032380D01*
X112497619Y-89032380D01*
X112354761Y-88984761D01*
X112259523Y-88889523D01*
X112211904Y-88794285D01*
X112164285Y-88603809D01*
X112164285Y-88460952D01*
X112211904Y-88270476D01*
X112259523Y-88175238D01*
X112354761Y-88080000D01*
X112497619Y-88032380D01*
X112592857Y-88032380D01*
X112735714Y-88080000D01*
X112783333Y-88127619D01*
X113402380Y-88032380D02*
X113497619Y-88032380D01*
X113592857Y-88080000D01*
X113640476Y-88127619D01*
X113688095Y-88222857D01*
X113735714Y-88413333D01*
X113735714Y-88651428D01*
X113688095Y-88841904D01*
X113640476Y-88937142D01*
X113592857Y-88984761D01*
X113497619Y-89032380D01*
X113402380Y-89032380D01*
X113307142Y-88984761D01*
X113259523Y-88937142D01*
X113211904Y-88841904D01*
X113164285Y-88651428D01*
X113164285Y-88413333D01*
X113211904Y-88222857D01*
X113259523Y-88127619D01*
X113307142Y-88080000D01*
X113402380Y-88032380D01*
X114307142Y-88460952D02*
X114211904Y-88413333D01*
X114164285Y-88365714D01*
X114116666Y-88270476D01*
X114116666Y-88222857D01*
X114164285Y-88127619D01*
X114211904Y-88080000D01*
X114307142Y-88032380D01*
X114497619Y-88032380D01*
X114592857Y-88080000D01*
X114640476Y-88127619D01*
X114688095Y-88222857D01*
X114688095Y-88270476D01*
X114640476Y-88365714D01*
X114592857Y-88413333D01*
X114497619Y-88460952D01*
X114307142Y-88460952D01*
X114211904Y-88508571D01*
X114164285Y-88556190D01*
X114116666Y-88651428D01*
X114116666Y-88841904D01*
X114164285Y-88937142D01*
X114211904Y-88984761D01*
X114307142Y-89032380D01*
X114497619Y-89032380D01*
X114592857Y-88984761D01*
X114640476Y-88937142D01*
X114688095Y-88841904D01*
X114688095Y-88651428D01*
X114640476Y-88556190D01*
X114592857Y-88508571D01*
X114497619Y-88460952D01*
X162610714Y-46582380D02*
X162610714Y-47391904D01*
X162658333Y-47487142D01*
X162705952Y-47534761D01*
X162801190Y-47582380D01*
X162991666Y-47582380D01*
X163086904Y-47534761D01*
X163134523Y-47487142D01*
X163182142Y-47391904D01*
X163182142Y-46582380D01*
X163563095Y-46582380D02*
X164182142Y-46582380D01*
X163848809Y-46963333D01*
X163991666Y-46963333D01*
X164086904Y-47010952D01*
X164134523Y-47058571D01*
X164182142Y-47153809D01*
X164182142Y-47391904D01*
X164134523Y-47487142D01*
X164086904Y-47534761D01*
X163991666Y-47582380D01*
X163705952Y-47582380D01*
X163610714Y-47534761D01*
X163563095Y-47487142D01*
X165134523Y-47582380D02*
X164563095Y-47582380D01*
X164848809Y-47582380D02*
X164848809Y-46582380D01*
X164753571Y-46725238D01*
X164658333Y-46820476D01*
X164563095Y-46868095D01*
X165467857Y-46582380D02*
X166086904Y-46582380D01*
X165753571Y-46963333D01*
X165896428Y-46963333D01*
X165991666Y-47010952D01*
X166039285Y-47058571D01*
X166086904Y-47153809D01*
X166086904Y-47391904D01*
X166039285Y-47487142D01*
X165991666Y-47534761D01*
X165896428Y-47582380D01*
X165610714Y-47582380D01*
X165515476Y-47534761D01*
X165467857Y-47487142D01*
X161063095Y-61282380D02*
X161729761Y-61282380D01*
X161301190Y-62282380D01*
X162539285Y-61615714D02*
X162539285Y-62282380D01*
X162301190Y-61234761D02*
X162063095Y-61949047D01*
X162682142Y-61949047D01*
X163063095Y-62282380D02*
X163063095Y-61282380D01*
X163063095Y-61758571D02*
X163634523Y-61758571D01*
X163634523Y-62282380D02*
X163634523Y-61282380D01*
X164682142Y-62187142D02*
X164634523Y-62234761D01*
X164491666Y-62282380D01*
X164396428Y-62282380D01*
X164253571Y-62234761D01*
X164158333Y-62139523D01*
X164110714Y-62044285D01*
X164063095Y-61853809D01*
X164063095Y-61710952D01*
X164110714Y-61520476D01*
X164158333Y-61425238D01*
X164253571Y-61330000D01*
X164396428Y-61282380D01*
X164491666Y-61282380D01*
X164634523Y-61330000D01*
X164682142Y-61377619D01*
X165063095Y-61377619D02*
X165110714Y-61330000D01*
X165205952Y-61282380D01*
X165444047Y-61282380D01*
X165539285Y-61330000D01*
X165586904Y-61377619D01*
X165634523Y-61472857D01*
X165634523Y-61568095D01*
X165586904Y-61710952D01*
X165015476Y-62282380D01*
X165634523Y-62282380D01*
X166110714Y-62282380D02*
X166301190Y-62282380D01*
X166396428Y-62234761D01*
X166444047Y-62187142D01*
X166539285Y-62044285D01*
X166586904Y-61853809D01*
X166586904Y-61472857D01*
X166539285Y-61377619D01*
X166491666Y-61330000D01*
X166396428Y-61282380D01*
X166205952Y-61282380D01*
X166110714Y-61330000D01*
X166063095Y-61377619D01*
X166015476Y-61472857D01*
X166015476Y-61710952D01*
X166063095Y-61806190D01*
X166110714Y-61853809D01*
X166205952Y-61901428D01*
X166396428Y-61901428D01*
X166491666Y-61853809D01*
X166539285Y-61806190D01*
X166586904Y-61710952D01*
X167063095Y-62282380D02*
X167253571Y-62282380D01*
X167348809Y-62234761D01*
X167396428Y-62187142D01*
X167491666Y-62044285D01*
X167539285Y-61853809D01*
X167539285Y-61472857D01*
X167491666Y-61377619D01*
X167444047Y-61330000D01*
X167348809Y-61282380D01*
X167158333Y-61282380D01*
X167063095Y-61330000D01*
X167015476Y-61377619D01*
X166967857Y-61472857D01*
X166967857Y-61710952D01*
X167015476Y-61806190D01*
X167063095Y-61853809D01*
X167158333Y-61901428D01*
X167348809Y-61901428D01*
X167444047Y-61853809D01*
X167491666Y-61806190D01*
X167539285Y-61710952D01*
X156781714Y-77472380D02*
X156781714Y-78281904D01*
X156829333Y-78377142D01*
X156876952Y-78424761D01*
X156972190Y-78472380D01*
X157162666Y-78472380D01*
X157257904Y-78424761D01*
X157305523Y-78377142D01*
X157353142Y-78281904D01*
X157353142Y-77472380D01*
X157734095Y-77472380D02*
X158353142Y-77472380D01*
X158019809Y-77853333D01*
X158162666Y-77853333D01*
X158257904Y-77900952D01*
X158305523Y-77948571D01*
X158353142Y-78043809D01*
X158353142Y-78281904D01*
X158305523Y-78377142D01*
X158257904Y-78424761D01*
X158162666Y-78472380D01*
X157876952Y-78472380D01*
X157781714Y-78424761D01*
X157734095Y-78377142D01*
X159305523Y-78472380D02*
X158734095Y-78472380D01*
X159019809Y-78472380D02*
X159019809Y-77472380D01*
X158924571Y-77615238D01*
X158829333Y-77710476D01*
X158734095Y-77758095D01*
X160162666Y-77805714D02*
X160162666Y-78472380D01*
X159924571Y-77424761D02*
X159686476Y-78139047D01*
X160305523Y-78139047D01*
X155710285Y-88032380D02*
X156376952Y-88032380D01*
X155948380Y-89032380D01*
X157186476Y-88365714D02*
X157186476Y-89032380D01*
X156948380Y-87984761D02*
X156710285Y-88699047D01*
X157329333Y-88699047D01*
X157710285Y-89032380D02*
X157710285Y-88032380D01*
X157710285Y-88508571D02*
X158281714Y-88508571D01*
X158281714Y-89032380D02*
X158281714Y-88032380D01*
X159329333Y-88937142D02*
X159281714Y-88984761D01*
X159138857Y-89032380D01*
X159043619Y-89032380D01*
X158900761Y-88984761D01*
X158805523Y-88889523D01*
X158757904Y-88794285D01*
X158710285Y-88603809D01*
X158710285Y-88460952D01*
X158757904Y-88270476D01*
X158805523Y-88175238D01*
X158900761Y-88080000D01*
X159043619Y-88032380D01*
X159138857Y-88032380D01*
X159281714Y-88080000D01*
X159329333Y-88127619D01*
X159662666Y-88032380D02*
X160281714Y-88032380D01*
X159948380Y-88413333D01*
X160091238Y-88413333D01*
X160186476Y-88460952D01*
X160234095Y-88508571D01*
X160281714Y-88603809D01*
X160281714Y-88841904D01*
X160234095Y-88937142D01*
X160186476Y-88984761D01*
X160091238Y-89032380D01*
X159805523Y-89032380D01*
X159710285Y-88984761D01*
X159662666Y-88937142D01*
X160662666Y-88127619D02*
X160710285Y-88080000D01*
X160805523Y-88032380D01*
X161043619Y-88032380D01*
X161138857Y-88080000D01*
X161186476Y-88127619D01*
X161234095Y-88222857D01*
X161234095Y-88318095D01*
X161186476Y-88460952D01*
X160615047Y-89032380D01*
X161234095Y-89032380D01*
X144843714Y-77472380D02*
X144843714Y-78281904D01*
X144891333Y-78377142D01*
X144938952Y-78424761D01*
X145034190Y-78472380D01*
X145224666Y-78472380D01*
X145319904Y-78424761D01*
X145367523Y-78377142D01*
X145415142Y-78281904D01*
X145415142Y-77472380D01*
X145796095Y-77472380D02*
X146415142Y-77472380D01*
X146081809Y-77853333D01*
X146224666Y-77853333D01*
X146319904Y-77900952D01*
X146367523Y-77948571D01*
X146415142Y-78043809D01*
X146415142Y-78281904D01*
X146367523Y-78377142D01*
X146319904Y-78424761D01*
X146224666Y-78472380D01*
X145938952Y-78472380D01*
X145843714Y-78424761D01*
X145796095Y-78377142D01*
X147367523Y-78472380D02*
X146796095Y-78472380D01*
X147081809Y-78472380D02*
X147081809Y-77472380D01*
X146986571Y-77615238D01*
X146891333Y-77710476D01*
X146796095Y-77758095D01*
X147700857Y-77472380D02*
X148367523Y-77472380D01*
X147938952Y-78472380D01*
X143772285Y-88032380D02*
X144438952Y-88032380D01*
X144010380Y-89032380D01*
X145248476Y-88365714D02*
X145248476Y-89032380D01*
X145010380Y-87984761D02*
X144772285Y-88699047D01*
X145391333Y-88699047D01*
X145772285Y-89032380D02*
X145772285Y-88032380D01*
X145772285Y-88508571D02*
X146343714Y-88508571D01*
X146343714Y-89032380D02*
X146343714Y-88032380D01*
X147391333Y-88937142D02*
X147343714Y-88984761D01*
X147200857Y-89032380D01*
X147105619Y-89032380D01*
X146962761Y-88984761D01*
X146867523Y-88889523D01*
X146819904Y-88794285D01*
X146772285Y-88603809D01*
X146772285Y-88460952D01*
X146819904Y-88270476D01*
X146867523Y-88175238D01*
X146962761Y-88080000D01*
X147105619Y-88032380D01*
X147200857Y-88032380D01*
X147343714Y-88080000D01*
X147391333Y-88127619D01*
X147724666Y-88032380D02*
X148391333Y-88032380D01*
X147962761Y-89032380D01*
X149200857Y-88365714D02*
X149200857Y-89032380D01*
X148962761Y-87984761D02*
X148724666Y-88699047D01*
X149343714Y-88699047D01*
X179745713Y-77472380D02*
X179745713Y-78281904D01*
X179793332Y-78377142D01*
X179840951Y-78424761D01*
X179936189Y-78472380D01*
X180126665Y-78472380D01*
X180221903Y-78424761D01*
X180269522Y-78377142D01*
X180317141Y-78281904D01*
X180317141Y-77472380D01*
X180698094Y-77472380D02*
X181317141Y-77472380D01*
X180983808Y-77853333D01*
X181126665Y-77853333D01*
X181221903Y-77900952D01*
X181269522Y-77948571D01*
X181317141Y-78043809D01*
X181317141Y-78281904D01*
X181269522Y-78377142D01*
X181221903Y-78424761D01*
X181126665Y-78472380D01*
X180840951Y-78472380D01*
X180745713Y-78424761D01*
X180698094Y-78377142D01*
X181936189Y-77472380D02*
X182031427Y-77472380D01*
X182126665Y-77520000D01*
X182174284Y-77567619D01*
X182221903Y-77662857D01*
X182269522Y-77853333D01*
X182269522Y-78091428D01*
X182221903Y-78281904D01*
X182174284Y-78377142D01*
X182126665Y-78424761D01*
X182031427Y-78472380D01*
X181936189Y-78472380D01*
X181840951Y-78424761D01*
X181793332Y-78377142D01*
X181745713Y-78281904D01*
X181698094Y-78091428D01*
X181698094Y-77853333D01*
X181745713Y-77662857D01*
X181793332Y-77567619D01*
X181840951Y-77520000D01*
X181936189Y-77472380D01*
X183174284Y-77472380D02*
X182698094Y-77472380D01*
X182650475Y-77948571D01*
X182698094Y-77900952D01*
X182793332Y-77853333D01*
X183031427Y-77853333D01*
X183126665Y-77900952D01*
X183174284Y-77948571D01*
X183221903Y-78043809D01*
X183221903Y-78281904D01*
X183174284Y-78377142D01*
X183126665Y-78424761D01*
X183031427Y-78472380D01*
X182793332Y-78472380D01*
X182698094Y-78424761D01*
X182650475Y-78377142D01*
X178674284Y-88032380D02*
X179340951Y-88032380D01*
X178912379Y-89032380D01*
X180150475Y-88365714D02*
X180150475Y-89032380D01*
X179912379Y-87984761D02*
X179674284Y-88699047D01*
X180293332Y-88699047D01*
X180674284Y-89032380D02*
X180674284Y-88032380D01*
X180674284Y-88508571D02*
X181245713Y-88508571D01*
X181245713Y-89032380D02*
X181245713Y-88032380D01*
X182293332Y-88937142D02*
X182245713Y-88984761D01*
X182102856Y-89032380D01*
X182007618Y-89032380D01*
X181864760Y-88984761D01*
X181769522Y-88889523D01*
X181721903Y-88794285D01*
X181674284Y-88603809D01*
X181674284Y-88460952D01*
X181721903Y-88270476D01*
X181769522Y-88175238D01*
X181864760Y-88080000D01*
X182007618Y-88032380D01*
X182102856Y-88032380D01*
X182245713Y-88080000D01*
X182293332Y-88127619D01*
X182626665Y-88032380D02*
X183293332Y-88032380D01*
X182864760Y-89032380D01*
X184102856Y-88365714D02*
X184102856Y-89032380D01*
X183864760Y-87984761D02*
X183626665Y-88699047D01*
X184245713Y-88699047D01*
X196431785Y-79909713D02*
X195431785Y-79909713D01*
X195431785Y-79671618D01*
X195479405Y-79528761D01*
X195574643Y-79433523D01*
X195669881Y-79385903D01*
X195860357Y-79338284D01*
X196003214Y-79338284D01*
X196193690Y-79385903D01*
X196288928Y-79433523D01*
X196384166Y-79528761D01*
X196431785Y-79671618D01*
X196431785Y-79909713D01*
X196146071Y-78957332D02*
X196146071Y-78481142D01*
X196431785Y-79052570D02*
X195431785Y-78719237D01*
X196431785Y-78385903D01*
X195431785Y-78195427D02*
X195431785Y-77623999D01*
X196431785Y-77909713D02*
X195431785Y-77909713D01*
X196146071Y-77338284D02*
X196146071Y-76862094D01*
X196431785Y-77433523D02*
X195431785Y-77100189D01*
X196431785Y-76766856D01*
X195907976Y-76100189D02*
X195955595Y-75957332D01*
X196003214Y-75909713D01*
X196098452Y-75862094D01*
X196241309Y-75862094D01*
X196336547Y-75909713D01*
X196384166Y-75957332D01*
X196431785Y-76052570D01*
X196431785Y-76433523D01*
X195431785Y-76433523D01*
X195431785Y-76100189D01*
X195479405Y-76004951D01*
X195527024Y-75957332D01*
X195622262Y-75909713D01*
X195717500Y-75909713D01*
X195812738Y-75957332D01*
X195860357Y-76004951D01*
X195907976Y-76100189D01*
X195907976Y-76433523D01*
X195431785Y-75433523D02*
X196241309Y-75433523D01*
X196336547Y-75385903D01*
X196384166Y-75338284D01*
X196431785Y-75243046D01*
X196431785Y-75052570D01*
X196384166Y-74957332D01*
X196336547Y-74909713D01*
X196241309Y-74862094D01*
X195431785Y-74862094D01*
X196384166Y-74433523D02*
X196431785Y-74290665D01*
X196431785Y-74052570D01*
X196384166Y-73957332D01*
X196336547Y-73909713D01*
X196241309Y-73862094D01*
X196146071Y-73862094D01*
X196050833Y-73909713D01*
X196003214Y-73957332D01*
X195955595Y-74052570D01*
X195907976Y-74243046D01*
X195860357Y-74338284D01*
X195812738Y-74385903D01*
X195717500Y-74433523D01*
X195622262Y-74433523D01*
X195527024Y-74385903D01*
X195479405Y-74338284D01*
X195431785Y-74243046D01*
X195431785Y-74004951D01*
X195479405Y-73862094D01*
X195431785Y-73528761D02*
X195431785Y-72909713D01*
X195812738Y-73243046D01*
X195812738Y-73100189D01*
X195860357Y-73004951D01*
X195907976Y-72957332D01*
X196003214Y-72909713D01*
X196241309Y-72909713D01*
X196336547Y-72957332D01*
X196384166Y-73004951D01*
X196431785Y-73100189D01*
X196431785Y-73385903D01*
X196384166Y-73481142D01*
X196336547Y-73528761D01*
X144890714Y-63452380D02*
X144890714Y-64261904D01*
X144938333Y-64357142D01*
X144985952Y-64404761D01*
X145081190Y-64452380D01*
X145271666Y-64452380D01*
X145366904Y-64404761D01*
X145414523Y-64357142D01*
X145462142Y-64261904D01*
X145462142Y-63452380D01*
X145843095Y-63452380D02*
X146462142Y-63452380D01*
X146128809Y-63833333D01*
X146271666Y-63833333D01*
X146366904Y-63880952D01*
X146414523Y-63928571D01*
X146462142Y-64023809D01*
X146462142Y-64261904D01*
X146414523Y-64357142D01*
X146366904Y-64404761D01*
X146271666Y-64452380D01*
X145985952Y-64452380D01*
X145890714Y-64404761D01*
X145843095Y-64357142D01*
X147081190Y-63452380D02*
X147176428Y-63452380D01*
X147271666Y-63500000D01*
X147319285Y-63547619D01*
X147366904Y-63642857D01*
X147414523Y-63833333D01*
X147414523Y-64071428D01*
X147366904Y-64261904D01*
X147319285Y-64357142D01*
X147271666Y-64404761D01*
X147176428Y-64452380D01*
X147081190Y-64452380D01*
X146985952Y-64404761D01*
X146938333Y-64357142D01*
X146890714Y-64261904D01*
X146843095Y-64071428D01*
X146843095Y-63833333D01*
X146890714Y-63642857D01*
X146938333Y-63547619D01*
X146985952Y-63500000D01*
X147081190Y-63452380D01*
X148366904Y-64452380D02*
X147795476Y-64452380D01*
X148081190Y-64452380D02*
X148081190Y-63452380D01*
X147985952Y-63595238D01*
X147890714Y-63690476D01*
X147795476Y-63738095D01*
X143739285Y-75602380D02*
X144405952Y-75602380D01*
X143977380Y-76602380D01*
X145215476Y-75935714D02*
X145215476Y-76602380D01*
X144977380Y-75554761D02*
X144739285Y-76269047D01*
X145358333Y-76269047D01*
X145739285Y-76602380D02*
X145739285Y-75602380D01*
X145739285Y-76078571D02*
X146310714Y-76078571D01*
X146310714Y-76602380D02*
X146310714Y-75602380D01*
X147358333Y-76507142D02*
X147310714Y-76554761D01*
X147167857Y-76602380D01*
X147072619Y-76602380D01*
X146929761Y-76554761D01*
X146834523Y-76459523D01*
X146786904Y-76364285D01*
X146739285Y-76173809D01*
X146739285Y-76030952D01*
X146786904Y-75840476D01*
X146834523Y-75745238D01*
X146929761Y-75650000D01*
X147072619Y-75602380D01*
X147167857Y-75602380D01*
X147310714Y-75650000D01*
X147358333Y-75697619D01*
X147977380Y-75602380D02*
X148072619Y-75602380D01*
X148167857Y-75650000D01*
X148215476Y-75697619D01*
X148263095Y-75792857D01*
X148310714Y-75983333D01*
X148310714Y-76221428D01*
X148263095Y-76411904D01*
X148215476Y-76507142D01*
X148167857Y-76554761D01*
X148072619Y-76602380D01*
X147977380Y-76602380D01*
X147882142Y-76554761D01*
X147834523Y-76507142D01*
X147786904Y-76411904D01*
X147739285Y-76221428D01*
X147739285Y-75983333D01*
X147786904Y-75792857D01*
X147834523Y-75697619D01*
X147882142Y-75650000D01*
X147977380Y-75602380D01*
X148929761Y-75602380D02*
X149025000Y-75602380D01*
X149120238Y-75650000D01*
X149167857Y-75697619D01*
X149215476Y-75792857D01*
X149263095Y-75983333D01*
X149263095Y-76221428D01*
X149215476Y-76411904D01*
X149167857Y-76507142D01*
X149120238Y-76554761D01*
X149025000Y-76602380D01*
X148929761Y-76602380D01*
X148834523Y-76554761D01*
X148786904Y-76507142D01*
X148739285Y-76411904D01*
X148691666Y-76221428D01*
X148691666Y-75983333D01*
X148739285Y-75792857D01*
X148786904Y-75697619D01*
X148834523Y-75650000D01*
X148929761Y-75602380D01*
X110235714Y-63462380D02*
X110235714Y-64271904D01*
X110283333Y-64367142D01*
X110330952Y-64414761D01*
X110426190Y-64462380D01*
X110616666Y-64462380D01*
X110711904Y-64414761D01*
X110759523Y-64367142D01*
X110807142Y-64271904D01*
X110807142Y-63462380D01*
X111188095Y-63462380D02*
X111807142Y-63462380D01*
X111473809Y-63843333D01*
X111616666Y-63843333D01*
X111711904Y-63890952D01*
X111759523Y-63938571D01*
X111807142Y-64033809D01*
X111807142Y-64271904D01*
X111759523Y-64367142D01*
X111711904Y-64414761D01*
X111616666Y-64462380D01*
X111330952Y-64462380D01*
X111235714Y-64414761D01*
X111188095Y-64367142D01*
X112426190Y-63462380D02*
X112521428Y-63462380D01*
X112616666Y-63510000D01*
X112664285Y-63557619D01*
X112711904Y-63652857D01*
X112759523Y-63843333D01*
X112759523Y-64081428D01*
X112711904Y-64271904D01*
X112664285Y-64367142D01*
X112616666Y-64414761D01*
X112521428Y-64462380D01*
X112426190Y-64462380D01*
X112330952Y-64414761D01*
X112283333Y-64367142D01*
X112235714Y-64271904D01*
X112188095Y-64081428D01*
X112188095Y-63843333D01*
X112235714Y-63652857D01*
X112283333Y-63557619D01*
X112330952Y-63510000D01*
X112426190Y-63462380D01*
X113616666Y-63462380D02*
X113426190Y-63462380D01*
X113330952Y-63510000D01*
X113283333Y-63557619D01*
X113188095Y-63700476D01*
X113140476Y-63890952D01*
X113140476Y-64271904D01*
X113188095Y-64367142D01*
X113235714Y-64414761D01*
X113330952Y-64462380D01*
X113521428Y-64462380D01*
X113616666Y-64414761D01*
X113664285Y-64367142D01*
X113711904Y-64271904D01*
X113711904Y-64033809D01*
X113664285Y-63938571D01*
X113616666Y-63890952D01*
X113521428Y-63843333D01*
X113330952Y-63843333D01*
X113235714Y-63890952D01*
X113188095Y-63938571D01*
X113140476Y-64033809D01*
X109084285Y-75612380D02*
X109750952Y-75612380D01*
X109322380Y-76612380D01*
X110560476Y-75945714D02*
X110560476Y-76612380D01*
X110322380Y-75564761D02*
X110084285Y-76279047D01*
X110703333Y-76279047D01*
X111084285Y-76612380D02*
X111084285Y-75612380D01*
X111084285Y-76088571D02*
X111655714Y-76088571D01*
X111655714Y-76612380D02*
X111655714Y-75612380D01*
X112703333Y-76517142D02*
X112655714Y-76564761D01*
X112512857Y-76612380D01*
X112417619Y-76612380D01*
X112274761Y-76564761D01*
X112179523Y-76469523D01*
X112131904Y-76374285D01*
X112084285Y-76183809D01*
X112084285Y-76040952D01*
X112131904Y-75850476D01*
X112179523Y-75755238D01*
X112274761Y-75660000D01*
X112417619Y-75612380D01*
X112512857Y-75612380D01*
X112655714Y-75660000D01*
X112703333Y-75707619D01*
X113036666Y-75612380D02*
X113655714Y-75612380D01*
X113322380Y-75993333D01*
X113465238Y-75993333D01*
X113560476Y-76040952D01*
X113608095Y-76088571D01*
X113655714Y-76183809D01*
X113655714Y-76421904D01*
X113608095Y-76517142D01*
X113560476Y-76564761D01*
X113465238Y-76612380D01*
X113179523Y-76612380D01*
X113084285Y-76564761D01*
X113036666Y-76517142D01*
X114036666Y-75707619D02*
X114084285Y-75660000D01*
X114179523Y-75612380D01*
X114417619Y-75612380D01*
X114512857Y-75660000D01*
X114560476Y-75707619D01*
X114608095Y-75802857D01*
X114608095Y-75898095D01*
X114560476Y-76040952D01*
X113989047Y-76612380D01*
X114608095Y-76612380D01*
X156505714Y-63462380D02*
X156505714Y-64271904D01*
X156553333Y-64367142D01*
X156600952Y-64414761D01*
X156696190Y-64462380D01*
X156886666Y-64462380D01*
X156981904Y-64414761D01*
X157029523Y-64367142D01*
X157077142Y-64271904D01*
X157077142Y-63462380D01*
X157458095Y-63462380D02*
X158077142Y-63462380D01*
X157743809Y-63843333D01*
X157886666Y-63843333D01*
X157981904Y-63890952D01*
X158029523Y-63938571D01*
X158077142Y-64033809D01*
X158077142Y-64271904D01*
X158029523Y-64367142D01*
X157981904Y-64414761D01*
X157886666Y-64462380D01*
X157600952Y-64462380D01*
X157505714Y-64414761D01*
X157458095Y-64367142D01*
X159029523Y-64462380D02*
X158458095Y-64462380D01*
X158743809Y-64462380D02*
X158743809Y-63462380D01*
X158648571Y-63605238D01*
X158553333Y-63700476D01*
X158458095Y-63748095D01*
X159934285Y-63462380D02*
X159458095Y-63462380D01*
X159410476Y-63938571D01*
X159458095Y-63890952D01*
X159553333Y-63843333D01*
X159791428Y-63843333D01*
X159886666Y-63890952D01*
X159934285Y-63938571D01*
X159981904Y-64033809D01*
X159981904Y-64271904D01*
X159934285Y-64367142D01*
X159886666Y-64414761D01*
X159791428Y-64462380D01*
X159553333Y-64462380D01*
X159458095Y-64414761D01*
X159410476Y-64367142D01*
X154878095Y-75612380D02*
X155544761Y-75612380D01*
X155116190Y-76612380D01*
X156354285Y-75945714D02*
X156354285Y-76612380D01*
X156116190Y-75564761D02*
X155878095Y-76279047D01*
X156497142Y-76279047D01*
X156878095Y-76612380D02*
X156878095Y-75612380D01*
X156878095Y-76088571D02*
X157449523Y-76088571D01*
X157449523Y-76612380D02*
X157449523Y-75612380D01*
X158497142Y-76517142D02*
X158449523Y-76564761D01*
X158306666Y-76612380D01*
X158211428Y-76612380D01*
X158068571Y-76564761D01*
X157973333Y-76469523D01*
X157925714Y-76374285D01*
X157878095Y-76183809D01*
X157878095Y-76040952D01*
X157925714Y-75850476D01*
X157973333Y-75755238D01*
X158068571Y-75660000D01*
X158211428Y-75612380D01*
X158306666Y-75612380D01*
X158449523Y-75660000D01*
X158497142Y-75707619D01*
X159449523Y-76612380D02*
X158878095Y-76612380D01*
X159163809Y-76612380D02*
X159163809Y-75612380D01*
X159068571Y-75755238D01*
X158973333Y-75850476D01*
X158878095Y-75898095D01*
X159925714Y-76612380D02*
X160116190Y-76612380D01*
X160211428Y-76564761D01*
X160259047Y-76517142D01*
X160354285Y-76374285D01*
X160401904Y-76183809D01*
X160401904Y-75802857D01*
X160354285Y-75707619D01*
X160306666Y-75660000D01*
X160211428Y-75612380D01*
X160020952Y-75612380D01*
X159925714Y-75660000D01*
X159878095Y-75707619D01*
X159830476Y-75802857D01*
X159830476Y-76040952D01*
X159878095Y-76136190D01*
X159925714Y-76183809D01*
X160020952Y-76231428D01*
X160211428Y-76231428D01*
X160306666Y-76183809D01*
X160354285Y-76136190D01*
X160401904Y-76040952D01*
X160735238Y-75612380D02*
X161354285Y-75612380D01*
X161020952Y-75993333D01*
X161163809Y-75993333D01*
X161259047Y-76040952D01*
X161306666Y-76088571D01*
X161354285Y-76183809D01*
X161354285Y-76421904D01*
X161306666Y-76517142D01*
X161259047Y-76564761D01*
X161163809Y-76612380D01*
X160878095Y-76612380D01*
X160782857Y-76564761D01*
X160735238Y-76517142D01*
X177385714Y-46582380D02*
X177385714Y-47391904D01*
X177433333Y-47487142D01*
X177480952Y-47534761D01*
X177576190Y-47582380D01*
X177766666Y-47582380D01*
X177861904Y-47534761D01*
X177909523Y-47487142D01*
X177957142Y-47391904D01*
X177957142Y-46582380D01*
X178338095Y-46582380D02*
X178957142Y-46582380D01*
X178623809Y-46963333D01*
X178766666Y-46963333D01*
X178861904Y-47010952D01*
X178909523Y-47058571D01*
X178957142Y-47153809D01*
X178957142Y-47391904D01*
X178909523Y-47487142D01*
X178861904Y-47534761D01*
X178766666Y-47582380D01*
X178480952Y-47582380D01*
X178385714Y-47534761D01*
X178338095Y-47487142D01*
X179909523Y-47582380D02*
X179338095Y-47582380D01*
X179623809Y-47582380D02*
X179623809Y-46582380D01*
X179528571Y-46725238D01*
X179433333Y-46820476D01*
X179338095Y-46868095D01*
X180290476Y-46677619D02*
X180338095Y-46630000D01*
X180433333Y-46582380D01*
X180671428Y-46582380D01*
X180766666Y-46630000D01*
X180814285Y-46677619D01*
X180861904Y-46772857D01*
X180861904Y-46868095D01*
X180814285Y-47010952D01*
X180242857Y-47582380D01*
X180861904Y-47582380D01*
X175838095Y-61282380D02*
X176504761Y-61282380D01*
X176076190Y-62282380D01*
X177314285Y-61615714D02*
X177314285Y-62282380D01*
X177076190Y-61234761D02*
X176838095Y-61949047D01*
X177457142Y-61949047D01*
X177838095Y-62282380D02*
X177838095Y-61282380D01*
X177838095Y-61758571D02*
X178409523Y-61758571D01*
X178409523Y-62282380D02*
X178409523Y-61282380D01*
X179457142Y-62187142D02*
X179409523Y-62234761D01*
X179266666Y-62282380D01*
X179171428Y-62282380D01*
X179028571Y-62234761D01*
X178933333Y-62139523D01*
X178885714Y-62044285D01*
X178838095Y-61853809D01*
X178838095Y-61710952D01*
X178885714Y-61520476D01*
X178933333Y-61425238D01*
X179028571Y-61330000D01*
X179171428Y-61282380D01*
X179266666Y-61282380D01*
X179409523Y-61330000D01*
X179457142Y-61377619D01*
X179838095Y-61377619D02*
X179885714Y-61330000D01*
X179980952Y-61282380D01*
X180219047Y-61282380D01*
X180314285Y-61330000D01*
X180361904Y-61377619D01*
X180409523Y-61472857D01*
X180409523Y-61568095D01*
X180361904Y-61710952D01*
X179790476Y-62282380D01*
X180409523Y-62282380D01*
X181266666Y-61615714D02*
X181266666Y-62282380D01*
X181028571Y-61234761D02*
X180790476Y-61949047D01*
X181409523Y-61949047D01*
X182219047Y-61615714D02*
X182219047Y-62282380D01*
X181980952Y-61234761D02*
X181742857Y-61949047D01*
X182361904Y-61949047D01*
X195964009Y-125671782D02*
X196011628Y-125719401D01*
X196059247Y-125862258D01*
X196059247Y-125957496D01*
X196011628Y-126100353D01*
X195916390Y-126195592D01*
X195821152Y-126243211D01*
X195630676Y-126290830D01*
X195487819Y-126290830D01*
X195297343Y-126243211D01*
X195202105Y-126195592D01*
X195106867Y-126100353D01*
X195059247Y-125957496D01*
X195059247Y-125862258D01*
X195106867Y-125719401D01*
X195154486Y-125671782D01*
X195059247Y-125052734D02*
X195059247Y-124862258D01*
X195106867Y-124767020D01*
X195202105Y-124671782D01*
X195392581Y-124624163D01*
X195725914Y-124624163D01*
X195916390Y-124671782D01*
X196011628Y-124767020D01*
X196059247Y-124862258D01*
X196059247Y-125052734D01*
X196011628Y-125147973D01*
X195916390Y-125243211D01*
X195725914Y-125290830D01*
X195392581Y-125290830D01*
X195202105Y-125243211D01*
X195106867Y-125147973D01*
X195059247Y-125052734D01*
X196059247Y-124195592D02*
X195059247Y-124195592D01*
X196059247Y-123624163D01*
X195059247Y-123624163D01*
X195059247Y-123290830D02*
X195059247Y-122719401D01*
X196059247Y-123005115D02*
X195059247Y-123005115D01*
X196059247Y-121814639D02*
X195583057Y-122147973D01*
X196059247Y-122386068D02*
X195059247Y-122386068D01*
X195059247Y-122005115D01*
X195106867Y-121909877D01*
X195154486Y-121862258D01*
X195249724Y-121814639D01*
X195392581Y-121814639D01*
X195487819Y-121862258D01*
X195535438Y-121909877D01*
X195583057Y-122005115D01*
X195583057Y-122386068D01*
X195059247Y-121195592D02*
X195059247Y-121005115D01*
X195106867Y-120909877D01*
X195202105Y-120814639D01*
X195392581Y-120767020D01*
X195725914Y-120767020D01*
X195916390Y-120814639D01*
X196011628Y-120909877D01*
X196059247Y-121005115D01*
X196059247Y-121195592D01*
X196011628Y-121290830D01*
X195916390Y-121386068D01*
X195725914Y-121433687D01*
X195392581Y-121433687D01*
X195202105Y-121386068D01*
X195106867Y-121290830D01*
X195059247Y-121195592D01*
X196059247Y-119862258D02*
X196059247Y-120338449D01*
X195059247Y-120338449D01*
X195535438Y-119195592D02*
X195583057Y-119052734D01*
X195630676Y-119005115D01*
X195725914Y-118957496D01*
X195868771Y-118957496D01*
X195964009Y-119005115D01*
X196011628Y-119052734D01*
X196059247Y-119147973D01*
X196059247Y-119528925D01*
X195059247Y-119528925D01*
X195059247Y-119195592D01*
X195106867Y-119100353D01*
X195154486Y-119052734D01*
X195249724Y-119005115D01*
X195344962Y-119005115D01*
X195440200Y-119052734D01*
X195487819Y-119100353D01*
X195535438Y-119195592D01*
X195535438Y-119528925D01*
X195059247Y-118528925D02*
X195868771Y-118528925D01*
X195964009Y-118481306D01*
X196011628Y-118433687D01*
X196059247Y-118338449D01*
X196059247Y-118147973D01*
X196011628Y-118052734D01*
X195964009Y-118005115D01*
X195868771Y-117957496D01*
X195059247Y-117957496D01*
X196011628Y-117528925D02*
X196059247Y-117386068D01*
X196059247Y-117147973D01*
X196011628Y-117052734D01*
X195964009Y-117005115D01*
X195868771Y-116957496D01*
X195773533Y-116957496D01*
X195678295Y-117005115D01*
X195630676Y-117052734D01*
X195583057Y-117147973D01*
X195535438Y-117338449D01*
X195487819Y-117433687D01*
X195440200Y-117481306D01*
X195344962Y-117528925D01*
X195249724Y-117528925D01*
X195154486Y-117481306D01*
X195106867Y-117433687D01*
X195059247Y-117338449D01*
X195059247Y-117100353D01*
X195106867Y-116957496D01*
X195059247Y-116624163D02*
X195059247Y-116005115D01*
X195440200Y-116338449D01*
X195440200Y-116195592D01*
X195487819Y-116100353D01*
X195535438Y-116052734D01*
X195630676Y-116005115D01*
X195868771Y-116005115D01*
X195964009Y-116052734D01*
X196011628Y-116100353D01*
X196059247Y-116195592D01*
X196059247Y-116481306D01*
X196011628Y-116576544D01*
X195964009Y-116624163D01*
X147835714Y-46582380D02*
X147835714Y-47391904D01*
X147883333Y-47487142D01*
X147930952Y-47534761D01*
X148026190Y-47582380D01*
X148216666Y-47582380D01*
X148311904Y-47534761D01*
X148359523Y-47487142D01*
X148407142Y-47391904D01*
X148407142Y-46582380D01*
X148788095Y-46582380D02*
X149407142Y-46582380D01*
X149073809Y-46963333D01*
X149216666Y-46963333D01*
X149311904Y-47010952D01*
X149359523Y-47058571D01*
X149407142Y-47153809D01*
X149407142Y-47391904D01*
X149359523Y-47487142D01*
X149311904Y-47534761D01*
X149216666Y-47582380D01*
X148930952Y-47582380D01*
X148835714Y-47534761D01*
X148788095Y-47487142D01*
X150359523Y-47582380D02*
X149788095Y-47582380D01*
X150073809Y-47582380D02*
X150073809Y-46582380D01*
X149978571Y-46725238D01*
X149883333Y-46820476D01*
X149788095Y-46868095D01*
X151311904Y-47582380D02*
X150740476Y-47582380D01*
X151026190Y-47582380D02*
X151026190Y-46582380D01*
X150930952Y-46725238D01*
X150835714Y-46820476D01*
X150740476Y-46868095D01*
X146288095Y-61282380D02*
X146954761Y-61282380D01*
X146526190Y-62282380D01*
X147764285Y-61615714D02*
X147764285Y-62282380D01*
X147526190Y-61234761D02*
X147288095Y-61949047D01*
X147907142Y-61949047D01*
X148288095Y-62282380D02*
X148288095Y-61282380D01*
X148288095Y-61758571D02*
X148859523Y-61758571D01*
X148859523Y-62282380D02*
X148859523Y-61282380D01*
X149907142Y-62187142D02*
X149859523Y-62234761D01*
X149716666Y-62282380D01*
X149621428Y-62282380D01*
X149478571Y-62234761D01*
X149383333Y-62139523D01*
X149335714Y-62044285D01*
X149288095Y-61853809D01*
X149288095Y-61710952D01*
X149335714Y-61520476D01*
X149383333Y-61425238D01*
X149478571Y-61330000D01*
X149621428Y-61282380D01*
X149716666Y-61282380D01*
X149859523Y-61330000D01*
X149907142Y-61377619D01*
X150240476Y-61282380D02*
X150859523Y-61282380D01*
X150526190Y-61663333D01*
X150669047Y-61663333D01*
X150764285Y-61710952D01*
X150811904Y-61758571D01*
X150859523Y-61853809D01*
X150859523Y-62091904D01*
X150811904Y-62187142D01*
X150764285Y-62234761D01*
X150669047Y-62282380D01*
X150383333Y-62282380D01*
X150288095Y-62234761D01*
X150240476Y-62187142D01*
X151192857Y-61282380D02*
X151859523Y-61282380D01*
X151430952Y-62282380D01*
X152145238Y-61282380D02*
X152811904Y-61282380D01*
X152383333Y-62282380D01*
X168160709Y-77472380D02*
X168160709Y-78281904D01*
X168208328Y-78377142D01*
X168255947Y-78424761D01*
X168351185Y-78472380D01*
X168541661Y-78472380D01*
X168636899Y-78424761D01*
X168684518Y-78377142D01*
X168732137Y-78281904D01*
X168732137Y-77472380D01*
X169113090Y-77472380D02*
X169732137Y-77472380D01*
X169398804Y-77853333D01*
X169541661Y-77853333D01*
X169636899Y-77900952D01*
X169684518Y-77948571D01*
X169732137Y-78043809D01*
X169732137Y-78281904D01*
X169684518Y-78377142D01*
X169636899Y-78424761D01*
X169541661Y-78472380D01*
X169255947Y-78472380D01*
X169160709Y-78424761D01*
X169113090Y-78377142D01*
X170351185Y-77472380D02*
X170446423Y-77472380D01*
X170541661Y-77520000D01*
X170589280Y-77567619D01*
X170636899Y-77662857D01*
X170684518Y-77853333D01*
X170684518Y-78091428D01*
X170636899Y-78281904D01*
X170589280Y-78377142D01*
X170541661Y-78424761D01*
X170446423Y-78472380D01*
X170351185Y-78472380D01*
X170255947Y-78424761D01*
X170208328Y-78377142D01*
X170160709Y-78281904D01*
X170113090Y-78091428D01*
X170113090Y-77853333D01*
X170160709Y-77662857D01*
X170208328Y-77567619D01*
X170255947Y-77520000D01*
X170351185Y-77472380D01*
X171017852Y-77472380D02*
X171636899Y-77472380D01*
X171303566Y-77853333D01*
X171446423Y-77853333D01*
X171541661Y-77900952D01*
X171589280Y-77948571D01*
X171636899Y-78043809D01*
X171636899Y-78281904D01*
X171589280Y-78377142D01*
X171541661Y-78424761D01*
X171446423Y-78472380D01*
X171160709Y-78472380D01*
X171065471Y-78424761D01*
X171017852Y-78377142D01*
X167089280Y-88032380D02*
X167755947Y-88032380D01*
X167327375Y-89032380D01*
X168565471Y-88365714D02*
X168565471Y-89032380D01*
X168327375Y-87984761D02*
X168089280Y-88699047D01*
X168708328Y-88699047D01*
X169089280Y-89032380D02*
X169089280Y-88032380D01*
X169089280Y-88508571D02*
X169660709Y-88508571D01*
X169660709Y-89032380D02*
X169660709Y-88032380D01*
X170708328Y-88937142D02*
X170660709Y-88984761D01*
X170517852Y-89032380D01*
X170422614Y-89032380D01*
X170279756Y-88984761D01*
X170184518Y-88889523D01*
X170136899Y-88794285D01*
X170089280Y-88603809D01*
X170089280Y-88460952D01*
X170136899Y-88270476D01*
X170184518Y-88175238D01*
X170279756Y-88080000D01*
X170422614Y-88032380D01*
X170517852Y-88032380D01*
X170660709Y-88080000D01*
X170708328Y-88127619D01*
X171041661Y-88032380D02*
X171708328Y-88032380D01*
X171279756Y-89032380D01*
X172517852Y-88365714D02*
X172517852Y-89032380D01*
X172279756Y-87984761D02*
X172041661Y-88699047D01*
X172660709Y-88699047D01*
X102663095Y-52550000D02*
X102567857Y-52502380D01*
X102425000Y-52502380D01*
X102282142Y-52550000D01*
X102186904Y-52645238D01*
X102139285Y-52740476D01*
X102091666Y-52930952D01*
X102091666Y-53073809D01*
X102139285Y-53264285D01*
X102186904Y-53359523D01*
X102282142Y-53454761D01*
X102425000Y-53502380D01*
X102520238Y-53502380D01*
X102663095Y-53454761D01*
X102710714Y-53407142D01*
X102710714Y-53073809D01*
X102520238Y-53073809D01*
X103139285Y-53502380D02*
X103139285Y-52502380D01*
X103710714Y-53502380D01*
X103710714Y-52502380D01*
X104186904Y-53502380D02*
X104186904Y-52502380D01*
X104425000Y-52502380D01*
X104567857Y-52550000D01*
X104663095Y-52645238D01*
X104710714Y-52740476D01*
X104758333Y-52930952D01*
X104758333Y-53073809D01*
X104710714Y-53264285D01*
X104663095Y-53359523D01*
X104567857Y-53454761D01*
X104425000Y-53502380D01*
X104186904Y-53502380D01*
X133405712Y-77472380D02*
X133405712Y-78281904D01*
X133453331Y-78377142D01*
X133500950Y-78424761D01*
X133596188Y-78472380D01*
X133786664Y-78472380D01*
X133881902Y-78424761D01*
X133929521Y-78377142D01*
X133977140Y-78281904D01*
X133977140Y-77472380D01*
X134358093Y-77472380D02*
X134977140Y-77472380D01*
X134643807Y-77853333D01*
X134786664Y-77853333D01*
X134881902Y-77900952D01*
X134929521Y-77948571D01*
X134977140Y-78043809D01*
X134977140Y-78281904D01*
X134929521Y-78377142D01*
X134881902Y-78424761D01*
X134786664Y-78472380D01*
X134500950Y-78472380D01*
X134405712Y-78424761D01*
X134358093Y-78377142D01*
X135929521Y-78472380D02*
X135358093Y-78472380D01*
X135643807Y-78472380D02*
X135643807Y-77472380D01*
X135548569Y-77615238D01*
X135453331Y-77710476D01*
X135358093Y-77758095D01*
X136786664Y-77472380D02*
X136596188Y-77472380D01*
X136500950Y-77520000D01*
X136453331Y-77567619D01*
X136358093Y-77710476D01*
X136310474Y-77900952D01*
X136310474Y-78281904D01*
X136358093Y-78377142D01*
X136405712Y-78424761D01*
X136500950Y-78472380D01*
X136691426Y-78472380D01*
X136786664Y-78424761D01*
X136834283Y-78377142D01*
X136881902Y-78281904D01*
X136881902Y-78043809D01*
X136834283Y-77948571D01*
X136786664Y-77900952D01*
X136691426Y-77853333D01*
X136500950Y-77853333D01*
X136405712Y-77900952D01*
X136358093Y-77948571D01*
X136310474Y-78043809D01*
X132334283Y-88032380D02*
X133000950Y-88032380D01*
X132572378Y-89032380D01*
X133810474Y-88365714D02*
X133810474Y-89032380D01*
X133572378Y-87984761D02*
X133334283Y-88699047D01*
X133953331Y-88699047D01*
X134334283Y-89032380D02*
X134334283Y-88032380D01*
X134334283Y-88508571D02*
X134905712Y-88508571D01*
X134905712Y-89032380D02*
X134905712Y-88032380D01*
X135953331Y-88937142D02*
X135905712Y-88984761D01*
X135762855Y-89032380D01*
X135667617Y-89032380D01*
X135524759Y-88984761D01*
X135429521Y-88889523D01*
X135381902Y-88794285D01*
X135334283Y-88603809D01*
X135334283Y-88460952D01*
X135381902Y-88270476D01*
X135429521Y-88175238D01*
X135524759Y-88080000D01*
X135667617Y-88032380D01*
X135762855Y-88032380D01*
X135905712Y-88080000D01*
X135953331Y-88127619D01*
X136572378Y-88032380D02*
X136667617Y-88032380D01*
X136762855Y-88080000D01*
X136810474Y-88127619D01*
X136858093Y-88222857D01*
X136905712Y-88413333D01*
X136905712Y-88651428D01*
X136858093Y-88841904D01*
X136810474Y-88937142D01*
X136762855Y-88984761D01*
X136667617Y-89032380D01*
X136572378Y-89032380D01*
X136477140Y-88984761D01*
X136429521Y-88937142D01*
X136381902Y-88841904D01*
X136334283Y-88651428D01*
X136334283Y-88413333D01*
X136381902Y-88222857D01*
X136429521Y-88127619D01*
X136477140Y-88080000D01*
X136572378Y-88032380D01*
X137524759Y-88032380D02*
X137619998Y-88032380D01*
X137715236Y-88080000D01*
X137762855Y-88127619D01*
X137810474Y-88222857D01*
X137858093Y-88413333D01*
X137858093Y-88651428D01*
X137810474Y-88841904D01*
X137762855Y-88937142D01*
X137715236Y-88984761D01*
X137619998Y-89032380D01*
X137524759Y-89032380D01*
X137429521Y-88984761D01*
X137381902Y-88937142D01*
X137334283Y-88841904D01*
X137286664Y-88651428D01*
X137286664Y-88413333D01*
X137334283Y-88222857D01*
X137381902Y-88127619D01*
X137429521Y-88080000D01*
X137524759Y-88032380D01*
X119306102Y-142849606D02*
X119639435Y-142849606D01*
X119782292Y-143373415D02*
X119306102Y-143373415D01*
X119306102Y-142373415D01*
X119782292Y-142373415D01*
X120210863Y-143373415D02*
X120210863Y-142373415D01*
X120782292Y-143373415D01*
X120782292Y-142373415D01*
X121210863Y-143087701D02*
X121687054Y-143087701D01*
X121115625Y-143373415D02*
X121448959Y-142373415D01*
X121782292Y-143373415D01*
X122448959Y-142849606D02*
X122591816Y-142897225D01*
X122639435Y-142944844D01*
X122687054Y-143040082D01*
X122687054Y-143182939D01*
X122639435Y-143278177D01*
X122591816Y-143325796D01*
X122496578Y-143373415D01*
X122115625Y-143373415D01*
X122115625Y-142373415D01*
X122448959Y-142373415D01*
X122544197Y-142421035D01*
X122591816Y-142468654D01*
X122639435Y-142563892D01*
X122639435Y-142659130D01*
X122591816Y-142754368D01*
X122544197Y-142801987D01*
X122448959Y-142849606D01*
X122115625Y-142849606D01*
X123591816Y-143373415D02*
X123115625Y-143373415D01*
X123115625Y-142373415D01*
X123925149Y-142849606D02*
X124258482Y-142849606D01*
X124401340Y-143373415D02*
X123925149Y-143373415D01*
X123925149Y-142373415D01*
X124401340Y-142373415D01*
X125163244Y-142849606D02*
X125306102Y-142897225D01*
X125353721Y-142944844D01*
X125401340Y-143040082D01*
X125401340Y-143182939D01*
X125353721Y-143278177D01*
X125306102Y-143325796D01*
X125210863Y-143373415D01*
X124829911Y-143373415D01*
X124829911Y-142373415D01*
X125163244Y-142373415D01*
X125258482Y-142421035D01*
X125306102Y-142468654D01*
X125353721Y-142563892D01*
X125353721Y-142659130D01*
X125306102Y-142754368D01*
X125258482Y-142801987D01*
X125163244Y-142849606D01*
X124829911Y-142849606D01*
X125829911Y-142373415D02*
X125829911Y-143182939D01*
X125877530Y-143278177D01*
X125925149Y-143325796D01*
X126020387Y-143373415D01*
X126210863Y-143373415D01*
X126306102Y-143325796D01*
X126353721Y-143278177D01*
X126401340Y-143182939D01*
X126401340Y-142373415D01*
X126829911Y-143325796D02*
X126972768Y-143373415D01*
X127210863Y-143373415D01*
X127306102Y-143325796D01*
X127353721Y-143278177D01*
X127401340Y-143182939D01*
X127401340Y-143087701D01*
X127353721Y-142992463D01*
X127306102Y-142944844D01*
X127210863Y-142897225D01*
X127020387Y-142849606D01*
X126925149Y-142801987D01*
X126877530Y-142754368D01*
X126829911Y-142659130D01*
X126829911Y-142563892D01*
X126877530Y-142468654D01*
X126925149Y-142421035D01*
X127020387Y-142373415D01*
X127258482Y-142373415D01*
X127401340Y-142421035D01*
X127734673Y-142373415D02*
X128353721Y-142373415D01*
X128020387Y-142754368D01*
X128163244Y-142754368D01*
X128258482Y-142801987D01*
X128306102Y-142849606D01*
X128353721Y-142944844D01*
X128353721Y-143182939D01*
X128306102Y-143278177D01*
X128258482Y-143325796D01*
X128163244Y-143373415D01*
X127877530Y-143373415D01*
X127782292Y-143325796D01*
X127734673Y-143278177D01*
X102016666Y-136902380D02*
X102350000Y-137902380D01*
X102683333Y-136902380D01*
X103588095Y-137807142D02*
X103540476Y-137854761D01*
X103397619Y-137902380D01*
X103302380Y-137902380D01*
X103159523Y-137854761D01*
X103064285Y-137759523D01*
X103016666Y-137664285D01*
X102969047Y-137473809D01*
X102969047Y-137330952D01*
X103016666Y-137140476D01*
X103064285Y-137045238D01*
X103159523Y-136950000D01*
X103302380Y-136902380D01*
X103397619Y-136902380D01*
X103540476Y-136950000D01*
X103588095Y-136997619D01*
X104588095Y-137807142D02*
X104540476Y-137854761D01*
X104397619Y-137902380D01*
X104302380Y-137902380D01*
X104159523Y-137854761D01*
X104064285Y-137759523D01*
X104016666Y-137664285D01*
X103969047Y-137473809D01*
X103969047Y-137330952D01*
X104016666Y-137140476D01*
X104064285Y-137045238D01*
X104159523Y-136950000D01*
X104302380Y-136902380D01*
X104397619Y-136902380D01*
X104540476Y-136950000D01*
X104588095Y-136997619D01*
X133362380Y-63462380D02*
X133362380Y-64271904D01*
X133409999Y-64367142D01*
X133457618Y-64414761D01*
X133552856Y-64462380D01*
X133743332Y-64462380D01*
X133838570Y-64414761D01*
X133886189Y-64367142D01*
X133933808Y-64271904D01*
X133933808Y-63462380D01*
X134314761Y-63462380D02*
X134933808Y-63462380D01*
X134600475Y-63843333D01*
X134743332Y-63843333D01*
X134838570Y-63890952D01*
X134886189Y-63938571D01*
X134933808Y-64033809D01*
X134933808Y-64271904D01*
X134886189Y-64367142D01*
X134838570Y-64414761D01*
X134743332Y-64462380D01*
X134457618Y-64462380D01*
X134362380Y-64414761D01*
X134314761Y-64367142D01*
X135552856Y-63462380D02*
X135648094Y-63462380D01*
X135743332Y-63510000D01*
X135790951Y-63557619D01*
X135838570Y-63652857D01*
X135886189Y-63843333D01*
X135886189Y-64081428D01*
X135838570Y-64271904D01*
X135790951Y-64367142D01*
X135743332Y-64414761D01*
X135648094Y-64462380D01*
X135552856Y-64462380D01*
X135457618Y-64414761D01*
X135409999Y-64367142D01*
X135362380Y-64271904D01*
X135314761Y-64081428D01*
X135314761Y-63843333D01*
X135362380Y-63652857D01*
X135409999Y-63557619D01*
X135457618Y-63510000D01*
X135552856Y-63462380D01*
X136362380Y-64462380D02*
X136552856Y-64462380D01*
X136648094Y-64414761D01*
X136695713Y-64367142D01*
X136790951Y-64224285D01*
X136838570Y-64033809D01*
X136838570Y-63652857D01*
X136790951Y-63557619D01*
X136743332Y-63510000D01*
X136648094Y-63462380D01*
X136457618Y-63462380D01*
X136362380Y-63510000D01*
X136314761Y-63557619D01*
X136267142Y-63652857D01*
X136267142Y-63890952D01*
X136314761Y-63986190D01*
X136362380Y-64033809D01*
X136457618Y-64081428D01*
X136648094Y-64081428D01*
X136743332Y-64033809D01*
X136790951Y-63986190D01*
X136838570Y-63890952D01*
X132210951Y-75612380D02*
X132877618Y-75612380D01*
X132449046Y-76612380D01*
X133687142Y-75945714D02*
X133687142Y-76612380D01*
X133449046Y-75564761D02*
X133210951Y-76279047D01*
X133829999Y-76279047D01*
X134210951Y-76612380D02*
X134210951Y-75612380D01*
X134210951Y-76088571D02*
X134782380Y-76088571D01*
X134782380Y-76612380D02*
X134782380Y-75612380D01*
X135829999Y-76517142D02*
X135782380Y-76564761D01*
X135639523Y-76612380D01*
X135544285Y-76612380D01*
X135401427Y-76564761D01*
X135306189Y-76469523D01*
X135258570Y-76374285D01*
X135210951Y-76183809D01*
X135210951Y-76040952D01*
X135258570Y-75850476D01*
X135306189Y-75755238D01*
X135401427Y-75660000D01*
X135544285Y-75612380D01*
X135639523Y-75612380D01*
X135782380Y-75660000D01*
X135829999Y-75707619D01*
X136449046Y-75612380D02*
X136544285Y-75612380D01*
X136639523Y-75660000D01*
X136687142Y-75707619D01*
X136734761Y-75802857D01*
X136782380Y-75993333D01*
X136782380Y-76231428D01*
X136734761Y-76421904D01*
X136687142Y-76517142D01*
X136639523Y-76564761D01*
X136544285Y-76612380D01*
X136449046Y-76612380D01*
X136353808Y-76564761D01*
X136306189Y-76517142D01*
X136258570Y-76421904D01*
X136210951Y-76231428D01*
X136210951Y-75993333D01*
X136258570Y-75802857D01*
X136306189Y-75707619D01*
X136353808Y-75660000D01*
X136449046Y-75612380D01*
X137401427Y-75612380D02*
X137496666Y-75612380D01*
X137591904Y-75660000D01*
X137639523Y-75707619D01*
X137687142Y-75802857D01*
X137734761Y-75993333D01*
X137734761Y-76231428D01*
X137687142Y-76421904D01*
X137639523Y-76517142D01*
X137591904Y-76564761D01*
X137496666Y-76612380D01*
X137401427Y-76612380D01*
X137306189Y-76564761D01*
X137258570Y-76517142D01*
X137210951Y-76421904D01*
X137163332Y-76231428D01*
X137163332Y-75993333D01*
X137210951Y-75802857D01*
X137258570Y-75707619D01*
X137306189Y-75660000D01*
X137401427Y-75612380D01*
X195663095Y-52550000D02*
X195567857Y-52502380D01*
X195425000Y-52502380D01*
X195282142Y-52550000D01*
X195186904Y-52645238D01*
X195139285Y-52740476D01*
X195091666Y-52930952D01*
X195091666Y-53073809D01*
X195139285Y-53264285D01*
X195186904Y-53359523D01*
X195282142Y-53454761D01*
X195425000Y-53502380D01*
X195520238Y-53502380D01*
X195663095Y-53454761D01*
X195710714Y-53407142D01*
X195710714Y-53073809D01*
X195520238Y-53073809D01*
X196139285Y-53502380D02*
X196139285Y-52502380D01*
X196710714Y-53502380D01*
X196710714Y-52502380D01*
X197186904Y-53502380D02*
X197186904Y-52502380D01*
X197425000Y-52502380D01*
X197567857Y-52550000D01*
X197663095Y-52645238D01*
X197710714Y-52740476D01*
X197758333Y-52930952D01*
X197758333Y-53073809D01*
X197710714Y-53264285D01*
X197663095Y-53359523D01*
X197567857Y-53454761D01*
X197425000Y-53502380D01*
X197186904Y-53502380D01*
X195016666Y-136902380D02*
X195350000Y-137902380D01*
X195683333Y-136902380D01*
X196588095Y-137807142D02*
X196540476Y-137854761D01*
X196397619Y-137902380D01*
X196302380Y-137902380D01*
X196159523Y-137854761D01*
X196064285Y-137759523D01*
X196016666Y-137664285D01*
X195969047Y-137473809D01*
X195969047Y-137330952D01*
X196016666Y-137140476D01*
X196064285Y-137045238D01*
X196159523Y-136950000D01*
X196302380Y-136902380D01*
X196397619Y-136902380D01*
X196540476Y-136950000D01*
X196588095Y-136997619D01*
X197588095Y-137807142D02*
X197540476Y-137854761D01*
X197397619Y-137902380D01*
X197302380Y-137902380D01*
X197159523Y-137854761D01*
X197064285Y-137759523D01*
X197016666Y-137664285D01*
X196969047Y-137473809D01*
X196969047Y-137330952D01*
X197016666Y-137140476D01*
X197064285Y-137045238D01*
X197159523Y-136950000D01*
X197302380Y-136902380D01*
X197397619Y-136902380D01*
X197540476Y-136950000D01*
X197588095Y-136997619D01*
D11*
X173531085Y-64080000D02*
X173812245Y-64080000D01*
X173531085Y-63060000D02*
X173812245Y-63060000D01*
X184579420Y-46230000D02*
X184860580Y-46230000D01*
X184579420Y-47250000D02*
X184860580Y-47250000D01*
X123534999Y-87735000D02*
X121584999Y-87735000D01*
X123534999Y-78865000D02*
X125484999Y-78865000D01*
X123534999Y-78865000D02*
X120084999Y-78865000D01*
X123534999Y-87735000D02*
X125484999Y-87735000D01*
X127259420Y-78210000D02*
X127540580Y-78210000D01*
X127259420Y-77190000D02*
X127540580Y-77190000D01*
X123513333Y-74970000D02*
X121563333Y-74970000D01*
X123513333Y-74970000D02*
X125463333Y-74970000D01*
X123513333Y-64850000D02*
X125463333Y-64850000D01*
X123513333Y-64850000D02*
X120063333Y-64850000D01*
X140246920Y-46230000D02*
X140528080Y-46230000D01*
X140246920Y-47250000D02*
X140528080Y-47250000D01*
X134775000Y-60990000D02*
X130915000Y-60990000D01*
X134775000Y-47970000D02*
X130915000Y-47970000D01*
X138635000Y-47970000D02*
X138635000Y-48205000D01*
X130915000Y-60990000D02*
X130915000Y-60755000D01*
X134775000Y-60990000D02*
X138635000Y-60990000D01*
X138635000Y-60990000D02*
X138635000Y-60755000D01*
X130915000Y-48205000D02*
X129100000Y-48205000D01*
X134775000Y-47970000D02*
X138635000Y-47970000D01*
X130915000Y-47970000D02*
X130915000Y-48205000D01*
X127297753Y-63060000D02*
X127578913Y-63060000D01*
X127297753Y-64080000D02*
X127578913Y-64080000D01*
X120000000Y-47970000D02*
X116140000Y-47970000D01*
X123860000Y-47970000D02*
X123860000Y-48205000D01*
X116140000Y-47970000D02*
X116140000Y-48205000D01*
X116140000Y-48205000D02*
X114325000Y-48205000D01*
X120000000Y-60990000D02*
X116140000Y-60990000D01*
X123860000Y-60990000D02*
X123860000Y-60755000D01*
X120000000Y-47970000D02*
X123860000Y-47970000D01*
X116140000Y-60990000D02*
X116140000Y-60755000D01*
X120000000Y-60990000D02*
X123860000Y-60990000D01*
X181366666Y-73665000D02*
X179416666Y-73665000D01*
X181366666Y-64795000D02*
X177916666Y-64795000D01*
X181366666Y-73665000D02*
X183316666Y-73665000D01*
X181366666Y-64795000D02*
X183316666Y-64795000D01*
X125469420Y-47250000D02*
X125750580Y-47250000D01*
X125469420Y-46230000D02*
X125750580Y-46230000D01*
X138856086Y-63060000D02*
X139137246Y-63060000D01*
X138856086Y-64080000D02*
X139137246Y-64080000D01*
X169803333Y-64795000D02*
X166353333Y-64795000D01*
X169803333Y-64795000D02*
X171753333Y-64795000D01*
X169803333Y-73665000D02*
X167853333Y-73665000D01*
X169803333Y-73665000D02*
X171753333Y-73665000D01*
X150379420Y-77190000D02*
X150660580Y-77190000D01*
X150379420Y-78210000D02*
X150660580Y-78210000D01*
X111950000Y-87735000D02*
X113900000Y-87735000D01*
X111950000Y-78865000D02*
X113900000Y-78865000D01*
X111950000Y-78865000D02*
X108500000Y-78865000D01*
X111950000Y-87735000D02*
X110000000Y-87735000D01*
X164325000Y-60990000D02*
X160465000Y-60990000D01*
X164325000Y-47970000D02*
X160465000Y-47970000D01*
X160465000Y-47970000D02*
X160465000Y-48205000D01*
X164325000Y-60990000D02*
X168185000Y-60990000D01*
X160465000Y-60990000D02*
X160465000Y-60755000D01*
X168185000Y-47970000D02*
X168185000Y-48205000D01*
X160465000Y-48205000D02*
X158650000Y-48205000D01*
X164325000Y-47970000D02*
X168185000Y-47970000D01*
X168185000Y-60990000D02*
X168185000Y-60755000D01*
X158496000Y-78865000D02*
X155046000Y-78865000D01*
X158496000Y-78865000D02*
X160446000Y-78865000D01*
X158496000Y-87735000D02*
X160446000Y-87735000D01*
X158496000Y-87735000D02*
X156546000Y-87735000D01*
X146558000Y-87735000D02*
X148508000Y-87735000D01*
X146558000Y-78865000D02*
X143108000Y-78865000D01*
X146558000Y-78865000D02*
X148508000Y-78865000D01*
X146558000Y-87735000D02*
X144608000Y-87735000D01*
X185059420Y-78210000D02*
X185340580Y-78210000D01*
X185059420Y-77190000D02*
X185340580Y-77190000D01*
X181459999Y-78865000D02*
X178009999Y-78865000D01*
X181459999Y-87735000D02*
X179509999Y-87735000D01*
X181459999Y-87735000D02*
X183409999Y-87735000D01*
X181459999Y-78865000D02*
X183409999Y-78865000D01*
X193870000Y-63670000D02*
X193870000Y-89190000D01*
X188670000Y-65000000D02*
X188670000Y-63670000D01*
X188670000Y-66270000D02*
X191270000Y-66270000D01*
X191270000Y-63670000D02*
X193870000Y-63670000D01*
X188670000Y-63670000D02*
X190000000Y-63670000D01*
X188670000Y-66270000D02*
X188670000Y-89190000D01*
X191270000Y-66270000D02*
X191270000Y-63670000D01*
X188670000Y-89190000D02*
X193870000Y-89190000D01*
X146605000Y-73715000D02*
X144655000Y-73715000D01*
X146605000Y-64845000D02*
X148555000Y-64845000D01*
X146605000Y-64845000D02*
X143155000Y-64845000D01*
X146605000Y-73715000D02*
X148555000Y-73715000D01*
X185089420Y-63060000D02*
X185370580Y-63060000D01*
X185089420Y-64080000D02*
X185370580Y-64080000D01*
X111950000Y-64855000D02*
X108500000Y-64855000D01*
X111950000Y-64855000D02*
X113900000Y-64855000D01*
X111950000Y-73725000D02*
X110000000Y-73725000D01*
X111950000Y-73725000D02*
X113900000Y-73725000D01*
X150414419Y-63060000D02*
X150695579Y-63060000D01*
X150414419Y-64080000D02*
X150695579Y-64080000D01*
X173499420Y-78210000D02*
X173780580Y-78210000D01*
X173499420Y-77190000D02*
X173780580Y-77190000D01*
X158220000Y-64850000D02*
X160170000Y-64850000D01*
X158220000Y-64850000D02*
X154770000Y-64850000D01*
X158220000Y-74970000D02*
X156270000Y-74970000D01*
X158220000Y-74970000D02*
X160170000Y-74970000D01*
X115739420Y-63060000D02*
X116020580Y-63060000D01*
X115739420Y-64080000D02*
X116020580Y-64080000D01*
X161939420Y-78210000D02*
X162220580Y-78210000D01*
X161939420Y-77190000D02*
X162220580Y-77190000D01*
X175240000Y-60990000D02*
X175240000Y-60755000D01*
X175240000Y-48205000D02*
X173425000Y-48205000D01*
X179100000Y-47970000D02*
X182960000Y-47970000D01*
X179100000Y-60990000D02*
X182960000Y-60990000D01*
X179100000Y-60990000D02*
X175240000Y-60990000D01*
X182960000Y-60990000D02*
X182960000Y-60755000D01*
X182960000Y-47970000D02*
X182960000Y-48205000D01*
X175240000Y-47970000D02*
X175240000Y-48205000D01*
X179100000Y-47970000D02*
X175240000Y-47970000D01*
X188630000Y-133990000D02*
X188630000Y-108470000D01*
X193830000Y-108470000D02*
X188630000Y-108470000D01*
X191230000Y-131390000D02*
X191230000Y-133990000D01*
X193830000Y-133990000D02*
X192500000Y-133990000D01*
X191230000Y-133990000D02*
X188630000Y-133990000D01*
X193830000Y-132660000D02*
X193830000Y-133990000D01*
X193830000Y-131390000D02*
X193830000Y-108470000D01*
X193830000Y-131390000D02*
X191230000Y-131390000D01*
X115699420Y-77190000D02*
X115980580Y-77190000D01*
X115699420Y-78210000D02*
X115980580Y-78210000D01*
X138819420Y-78210000D02*
X139100580Y-78210000D01*
X138819420Y-77190000D02*
X139100580Y-77190000D01*
X145690000Y-47970000D02*
X145690000Y-48205000D01*
X145690000Y-60990000D02*
X145690000Y-60755000D01*
X145690000Y-48205000D02*
X143875000Y-48205000D01*
X149550000Y-47970000D02*
X145690000Y-47970000D01*
X149550000Y-60990000D02*
X145690000Y-60990000D01*
X149550000Y-47970000D02*
X153410000Y-47970000D01*
X149550000Y-60990000D02*
X153410000Y-60990000D01*
X153410000Y-60990000D02*
X153410000Y-60755000D01*
X153410000Y-47970000D02*
X153410000Y-48205000D01*
X169874995Y-78865000D02*
X171824995Y-78865000D01*
X169874995Y-87735000D02*
X171824995Y-87735000D01*
X169874995Y-78865000D02*
X166424995Y-78865000D01*
X169874995Y-87735000D02*
X167924995Y-87735000D01*
X161972752Y-64080000D02*
X162253912Y-64080000D01*
X161972752Y-63060000D02*
X162253912Y-63060000D01*
X155024420Y-47250000D02*
X155305580Y-47250000D01*
X155024420Y-46230000D02*
X155305580Y-46230000D01*
X135119998Y-87735000D02*
X133169998Y-87735000D01*
X135119998Y-87735000D02*
X137069998Y-87735000D01*
X135119998Y-78865000D02*
X131669998Y-78865000D01*
X135119998Y-78865000D02*
X137069998Y-78865000D01*
X135200000Y-136170000D02*
X136530000Y-136170000D01*
X111010000Y-136170000D02*
X111010000Y-141370000D01*
X136530000Y-136170000D02*
X136530000Y-137500000D01*
X133930000Y-136170000D02*
X133930000Y-138770000D01*
X136530000Y-141370000D02*
X111010000Y-141370000D01*
X133930000Y-138770000D02*
X136530000Y-138770000D01*
X136530000Y-138770000D02*
X136530000Y-141370000D01*
X133930000Y-136170000D02*
X111010000Y-136170000D01*
X135076666Y-73725000D02*
X137026666Y-73725000D01*
X135076666Y-64855000D02*
X137026666Y-64855000D01*
X135076666Y-64855000D02*
X131626666Y-64855000D01*
X135076666Y-73725000D02*
X133126666Y-73725000D01*
X169801920Y-46230000D02*
X170083080Y-46230000D01*
X169801920Y-47250000D02*
X170083080Y-47250000D01*
M02*
