M48
INCH,TZ
T1C0.0098
T2C0.0394
T3C0.1260
%
G90
G05
T1
X43083Y-34307
X43091Y-28783
X43100Y-33295
X43303Y-56303
X45049Y-27280
X45049Y-31795
X45087Y-35634
X45100Y-18100
X45291Y-30646
X45311Y-25070
X45413Y-23699
X45705Y-19197
X45717Y-28791
X45890Y-30583
X45949Y-25035
X47606Y-29272
X47657Y-34299
X48315Y-35742
X48346Y-24142
X48346Y-27783
X49134Y-18487
X49228Y-24327
X49610Y-32295
X49641Y-29274
X49756Y-18413
X49823Y-30566
X49846Y-25070
X50449Y-30583
X50496Y-25035
X50929Y-34075
X51228Y-23701
X51232Y-23197
X52146Y-45240
X52205Y-27780
X52449Y-28772
X52480Y-34295
X53445Y-27791
X53445Y-33287
X53449Y-19705
X54154Y-28280
X54171Y-33295
X54394Y-30590
X54417Y-25078
X54437Y-31795
X54594Y-49748
X54957Y-18491
X55000Y-30594
X55028Y-25020
X55575Y-18406
X56000Y-19200
X56000Y-28800
X56720Y-34299
X56726Y-32795
X56744Y-28776
X57047Y-23701
X57594Y-35024
X57622Y-31472
X58366Y-33795
X58370Y-35488
X58555Y-24193
X58622Y-48217
X58693Y-26772
X58906Y-28768
X58945Y-25066
X58945Y-30590
X59563Y-25016
X59575Y-30594
X59614Y-31807
X59614Y-33528
X59713Y-27929
X59878Y-34783
X60031Y-27921
X60122Y-31551
X60335Y-27921
X60339Y-32374
X60654Y-27531
X60657Y-32996
X60709Y-23699
X60768Y-18491
X61276Y-29276
X61402Y-18413
X61417Y-34295
X61681Y-33795
X62295Y-26756
X62567Y-33791
X62752Y-27780
X62850Y-23193
X62850Y-23693
X63110Y-33295
X63374Y-31795
X63504Y-25074
X63506Y-30591
X63539Y-19709
X64004Y-29634
X64110Y-30614
X64134Y-25028
X64933Y-20705
X65878Y-28756
X65906Y-32795
X65906Y-34295
X66591Y-18487
X67213Y-18398
X67854Y-32295
X68057Y-30591
X68059Y-25054
X68677Y-23701
X68681Y-25028
X68693Y-30594
X69524Y-30957
X70165Y-28756
X70213Y-34295
X70430Y-28255
X70430Y-32299
X70681Y-26252
X72398Y-18386
X72610Y-25046
X72618Y-30590
X73028Y-18390
X73209Y-30594
X73228Y-25028
T2
X44228Y-54134
X44228Y-55134
X45228Y-54134
X45228Y-55134
X46228Y-54134
X46228Y-55134
X47228Y-54134
X47228Y-55134
X48228Y-54134
X48228Y-55134
X49228Y-54134
X49228Y-55134
X50228Y-54134
X50228Y-55134
X51228Y-54134
X51228Y-55134
X52228Y-54134
X52228Y-55134
X53228Y-54134
X53228Y-55134
X74787Y-43228
X74787Y-44228
X74787Y-45228
X74787Y-46228
X74787Y-47228
X74787Y-48228
X74787Y-49228
X74787Y-50228
X74787Y-51228
X74787Y-52228
X74803Y-25591
X74803Y-26591
X74803Y-27591
X74803Y-28591
X74803Y-29591
X74803Y-30591
X74803Y-31591
X74803Y-32591
X74803Y-33591
X74803Y-34591
X75787Y-43228
X75787Y-44228
X75787Y-45228
X75787Y-46228
X75787Y-47228
X75787Y-48228
X75787Y-49228
X75787Y-50228
X75787Y-51228
X75787Y-52228
X75803Y-25591
X75803Y-26591
X75803Y-27591
X75803Y-28591
X75803Y-29591
X75803Y-30591
X75803Y-31591
X75803Y-32591
X75803Y-33591
X75803Y-34591
T3
X40711Y-22414
X40711Y-55534
X77326Y-22414
X77326Y-55534
T0
M30
