G04 #@! TF.GenerationSoftware,KiCad,Pcbnew,(6.0.5)*
G04 #@! TF.CreationDate,2022-08-31T18:01:14+02:00*
G04 #@! TF.ProjectId,B1,42312e6b-6963-4616-945f-706362585858,rev?*
G04 #@! TF.SameCoordinates,Original*
G04 #@! TF.FileFunction,Legend,Top*
G04 #@! TF.FilePolarity,Positive*
%FSLAX46Y46*%
G04 Gerber Fmt 4.6, Leading zero omitted, Abs format (unit mm)*
G04 Created by KiCad (PCBNEW (6.0.5)) date 2022-08-31 18:01:14*
%MOMM*%
%LPD*%
G01*
G04 APERTURE LIST*
%ADD10C,0.250000*%
%ADD11C,0.150000*%
%ADD12C,0.120000*%
G04 APERTURE END LIST*
D10*
X152070479Y-137626200D02*
X152737146Y-137626200D01*
X152183575Y-138626200D01*
X153505003Y-137959534D02*
X153421670Y-138626200D01*
X153314527Y-137578581D02*
X152987146Y-138292867D01*
X153606194Y-138292867D01*
X153945479Y-138626200D02*
X154070479Y-137626200D01*
X154010955Y-138102391D02*
X154582384Y-138102391D01*
X154516908Y-138626200D02*
X154641908Y-137626200D01*
X155576432Y-138530962D02*
X155522860Y-138578581D01*
X155374051Y-138626200D01*
X155278813Y-138626200D01*
X155141908Y-138578581D01*
X155058575Y-138483343D01*
X155022860Y-138388105D01*
X154999051Y-138197629D01*
X155016908Y-138054772D01*
X155088336Y-137864296D01*
X155147860Y-137769058D01*
X155255003Y-137673820D01*
X155403813Y-137626200D01*
X155499051Y-137626200D01*
X155635955Y-137673820D01*
X155677622Y-137721439D01*
X155975241Y-137626200D02*
X156546670Y-137626200D01*
X156135955Y-138626200D02*
X156260955Y-137626200D01*
X157308575Y-137626200D02*
X157118098Y-137626200D01*
X157016908Y-137673820D01*
X156963336Y-137721439D01*
X156850241Y-137864296D01*
X156778813Y-138054772D01*
X156731194Y-138435724D01*
X156766908Y-138530962D01*
X156808575Y-138578581D01*
X156897860Y-138626200D01*
X157088336Y-138626200D01*
X157189527Y-138578581D01*
X157243098Y-138530962D01*
X157302622Y-138435724D01*
X157332384Y-138197629D01*
X157296670Y-138102391D01*
X157255003Y-138054772D01*
X157165717Y-138007153D01*
X156975241Y-138007153D01*
X156874051Y-138054772D01*
X156820479Y-138102391D01*
X156760955Y-138197629D01*
X158308575Y-137626200D02*
X157832384Y-137626200D01*
X157725241Y-138102391D01*
X157778813Y-138054772D01*
X157880003Y-138007153D01*
X158118098Y-138007153D01*
X158207384Y-138054772D01*
X158249051Y-138102391D01*
X158284765Y-138197629D01*
X158255003Y-138435724D01*
X158195479Y-138530962D01*
X158141908Y-138578581D01*
X158040717Y-138626200D01*
X157802622Y-138626200D01*
X157713336Y-138578581D01*
X157671670Y-138530962D01*
X158725241Y-137721439D02*
X158778813Y-137673820D01*
X158880003Y-137626200D01*
X159118098Y-137626200D01*
X159207384Y-137673820D01*
X159249051Y-137721439D01*
X159284765Y-137816677D01*
X159272860Y-137911915D01*
X159207384Y-138054772D01*
X158564527Y-138626200D01*
X159183575Y-138626200D01*
X160165717Y-137626200D02*
X159975241Y-137626200D01*
X159874051Y-137673820D01*
X159820479Y-137721439D01*
X159707384Y-137864296D01*
X159635955Y-138054772D01*
X159588336Y-138435724D01*
X159624051Y-138530962D01*
X159665717Y-138578581D01*
X159755003Y-138626200D01*
X159945479Y-138626200D01*
X160046670Y-138578581D01*
X160100241Y-138530962D01*
X160159765Y-138435724D01*
X160189527Y-138197629D01*
X160153813Y-138102391D01*
X160112146Y-138054772D01*
X160022860Y-138007153D01*
X159832384Y-138007153D01*
X159731194Y-138054772D01*
X159677622Y-138102391D01*
X159618098Y-138197629D01*
X153677622Y-139712391D02*
X153814527Y-139760010D01*
X153856194Y-139807629D01*
X153891908Y-139902867D01*
X153874051Y-140045724D01*
X153814527Y-140140962D01*
X153760955Y-140188581D01*
X153659765Y-140236200D01*
X153278813Y-140236200D01*
X153403813Y-139236200D01*
X153737146Y-139236200D01*
X153826432Y-139283820D01*
X153868098Y-139331439D01*
X153903813Y-139426677D01*
X153891908Y-139521915D01*
X153832384Y-139617153D01*
X153778813Y-139664772D01*
X153677622Y-139712391D01*
X153344289Y-139712391D01*
X154421670Y-140236200D02*
X154332384Y-140188581D01*
X154290717Y-140140962D01*
X154255003Y-140045724D01*
X154290717Y-139760010D01*
X154350241Y-139664772D01*
X154403813Y-139617153D01*
X154505003Y-139569534D01*
X154647860Y-139569534D01*
X154737146Y-139617153D01*
X154778813Y-139664772D01*
X154814527Y-139760010D01*
X154778813Y-140045724D01*
X154719289Y-140140962D01*
X154665717Y-140188581D01*
X154564527Y-140236200D01*
X154421670Y-140236200D01*
X155612146Y-140236200D02*
X155677622Y-139712391D01*
X155641908Y-139617153D01*
X155552622Y-139569534D01*
X155362146Y-139569534D01*
X155260955Y-139617153D01*
X155618098Y-140188581D02*
X155516908Y-140236200D01*
X155278813Y-140236200D01*
X155189527Y-140188581D01*
X155153813Y-140093343D01*
X155165717Y-139998105D01*
X155225241Y-139902867D01*
X155326432Y-139855248D01*
X155564527Y-139855248D01*
X155665717Y-139807629D01*
X156088336Y-140236200D02*
X156171670Y-139569534D01*
X156147860Y-139760010D02*
X156207384Y-139664772D01*
X156260955Y-139617153D01*
X156362146Y-139569534D01*
X156457384Y-139569534D01*
X157135955Y-140236200D02*
X157260955Y-139236200D01*
X157141908Y-140188581D02*
X157040717Y-140236200D01*
X156850241Y-140236200D01*
X156760955Y-140188581D01*
X156719289Y-140140962D01*
X156683575Y-140045724D01*
X156719289Y-139760010D01*
X156778813Y-139664772D01*
X156832384Y-139617153D01*
X156933575Y-139569534D01*
X157124051Y-139569534D01*
X157213336Y-139617153D01*
X158897860Y-140236200D02*
X158326432Y-140236200D01*
X158612146Y-140236200D02*
X158737146Y-139236200D01*
X158624051Y-139379058D01*
X158516908Y-139474296D01*
X158415717Y-139521915D01*
X154005003Y-141179534D02*
X154159765Y-141846200D01*
X154481194Y-141179534D01*
X155094289Y-140846200D02*
X155189527Y-140846200D01*
X155278813Y-140893820D01*
X155320479Y-140941439D01*
X155356194Y-141036677D01*
X155380003Y-141227153D01*
X155350241Y-141465248D01*
X155278813Y-141655724D01*
X155219289Y-141750962D01*
X155165717Y-141798581D01*
X155064527Y-141846200D01*
X154969289Y-141846200D01*
X154880003Y-141798581D01*
X154838336Y-141750962D01*
X154802622Y-141655724D01*
X154778813Y-141465248D01*
X154808575Y-141227153D01*
X154880003Y-141036677D01*
X154939527Y-140941439D01*
X154993098Y-140893820D01*
X155094289Y-140846200D01*
X155743098Y-141750962D02*
X155784765Y-141798581D01*
X155731194Y-141846200D01*
X155689527Y-141798581D01*
X155743098Y-141750962D01*
X155731194Y-141846200D01*
X156731194Y-141846200D02*
X156159765Y-141846200D01*
X156445479Y-141846200D02*
X156570479Y-140846200D01*
X156457384Y-140989058D01*
X156350241Y-141084296D01*
X156249051Y-141131915D01*
X157171670Y-141750962D02*
X157213336Y-141798581D01*
X157159765Y-141846200D01*
X157118098Y-141798581D01*
X157171670Y-141750962D01*
X157159765Y-141846200D01*
X158159765Y-141846200D02*
X157588336Y-141846200D01*
X157874051Y-141846200D02*
X157999051Y-140846200D01*
X157885955Y-140989058D01*
X157778813Y-141084296D01*
X157677622Y-141131915D01*
D11*
X161412134Y-79147980D02*
X161412134Y-79957504D01*
X161459753Y-80052742D01*
X161507372Y-80100361D01*
X161602610Y-80147980D01*
X161793086Y-80147980D01*
X161888324Y-80100361D01*
X161935943Y-80052742D01*
X161983562Y-79957504D01*
X161983562Y-79147980D01*
X162983562Y-80147980D02*
X162412134Y-80147980D01*
X162697848Y-80147980D02*
X162697848Y-79147980D01*
X162602610Y-79290838D01*
X162507372Y-79386076D01*
X162412134Y-79433695D01*
X163935943Y-80147980D02*
X163364515Y-80147980D01*
X163650229Y-80147980D02*
X163650229Y-79147980D01*
X163554991Y-79290838D01*
X163459753Y-79386076D01*
X163364515Y-79433695D01*
X164793086Y-79481314D02*
X164793086Y-80147980D01*
X164554991Y-79100361D02*
X164316896Y-79814647D01*
X164935943Y-79814647D01*
X159864515Y-90947980D02*
X160531181Y-90947980D01*
X160102610Y-91947980D01*
X161340705Y-91281314D02*
X161340705Y-91947980D01*
X161102610Y-90900361D02*
X160864515Y-91614647D01*
X161483562Y-91614647D01*
X161864515Y-91947980D02*
X161864515Y-90947980D01*
X161864515Y-91424171D02*
X162435943Y-91424171D01*
X162435943Y-91947980D02*
X162435943Y-90947980D01*
X163483562Y-91852742D02*
X163435943Y-91900361D01*
X163293086Y-91947980D01*
X163197848Y-91947980D01*
X163054991Y-91900361D01*
X162959753Y-91805123D01*
X162912134Y-91709885D01*
X162864515Y-91519409D01*
X162864515Y-91376552D01*
X162912134Y-91186076D01*
X162959753Y-91090838D01*
X163054991Y-90995600D01*
X163197848Y-90947980D01*
X163293086Y-90947980D01*
X163435943Y-90995600D01*
X163483562Y-91043219D01*
X164435943Y-91947980D02*
X163864515Y-91947980D01*
X164150229Y-91947980D02*
X164150229Y-90947980D01*
X164054991Y-91090838D01*
X163959753Y-91186076D01*
X163864515Y-91233695D01*
X165340705Y-90947980D02*
X164864515Y-90947980D01*
X164816896Y-91424171D01*
X164864515Y-91376552D01*
X164959753Y-91328933D01*
X165197848Y-91328933D01*
X165293086Y-91376552D01*
X165340705Y-91424171D01*
X165388324Y-91519409D01*
X165388324Y-91757504D01*
X165340705Y-91852742D01*
X165293086Y-91900361D01*
X165197848Y-91947980D01*
X164959753Y-91947980D01*
X164864515Y-91900361D01*
X164816896Y-91852742D01*
X165721658Y-90947980D02*
X166340705Y-90947980D01*
X166007372Y-91328933D01*
X166150229Y-91328933D01*
X166245467Y-91376552D01*
X166293086Y-91424171D01*
X166340705Y-91519409D01*
X166340705Y-91757504D01*
X166293086Y-91852742D01*
X166245467Y-91900361D01*
X166150229Y-91947980D01*
X165864515Y-91947980D01*
X165769277Y-91900361D01*
X165721658Y-91852742D01*
X112272125Y-85050380D02*
X112272125Y-85859904D01*
X112319744Y-85955142D01*
X112367363Y-86002761D01*
X112462601Y-86050380D01*
X112653077Y-86050380D01*
X112748315Y-86002761D01*
X112795934Y-85955142D01*
X112843553Y-85859904D01*
X112843553Y-85050380D01*
X113843553Y-86050380D02*
X113272125Y-86050380D01*
X113557839Y-86050380D02*
X113557839Y-85050380D01*
X113462601Y-85193238D01*
X113367363Y-85288476D01*
X113272125Y-85336095D01*
X114795934Y-86050380D02*
X114224506Y-86050380D01*
X114510220Y-86050380D02*
X114510220Y-85050380D01*
X114414982Y-85193238D01*
X114319744Y-85288476D01*
X114224506Y-85336095D01*
X115748315Y-86050380D02*
X115176887Y-86050380D01*
X115462601Y-86050380D02*
X115462601Y-85050380D01*
X115367363Y-85193238D01*
X115272125Y-85288476D01*
X115176887Y-85336095D01*
X110724506Y-96806580D02*
X111391172Y-96806580D01*
X110962601Y-97806580D01*
X112200696Y-97139914D02*
X112200696Y-97806580D01*
X111962601Y-96758961D02*
X111724506Y-97473247D01*
X112343553Y-97473247D01*
X112724506Y-97806580D02*
X112724506Y-96806580D01*
X112724506Y-97282771D02*
X113295934Y-97282771D01*
X113295934Y-97806580D02*
X113295934Y-96806580D01*
X114343553Y-97711342D02*
X114295934Y-97758961D01*
X114153077Y-97806580D01*
X114057839Y-97806580D01*
X113914982Y-97758961D01*
X113819744Y-97663723D01*
X113772125Y-97568485D01*
X113724506Y-97378009D01*
X113724506Y-97235152D01*
X113772125Y-97044676D01*
X113819744Y-96949438D01*
X113914982Y-96854200D01*
X114057839Y-96806580D01*
X114153077Y-96806580D01*
X114295934Y-96854200D01*
X114343553Y-96901819D01*
X115295934Y-97806580D02*
X114724506Y-97806580D01*
X115010220Y-97806580D02*
X115010220Y-96806580D01*
X114914982Y-96949438D01*
X114819744Y-97044676D01*
X114724506Y-97092295D01*
X115772125Y-97806580D02*
X115962601Y-97806580D01*
X116057839Y-97758961D01*
X116105458Y-97711342D01*
X116200696Y-97568485D01*
X116248315Y-97378009D01*
X116248315Y-96997057D01*
X116200696Y-96901819D01*
X116153077Y-96854200D01*
X116057839Y-96806580D01*
X115867363Y-96806580D01*
X115772125Y-96854200D01*
X115724506Y-96901819D01*
X115676887Y-96997057D01*
X115676887Y-97235152D01*
X115724506Y-97330390D01*
X115772125Y-97378009D01*
X115867363Y-97425628D01*
X116057839Y-97425628D01*
X116153077Y-97378009D01*
X116200696Y-97330390D01*
X116248315Y-97235152D01*
X116581649Y-96806580D02*
X117200696Y-96806580D01*
X116867363Y-97187533D01*
X117010220Y-97187533D01*
X117105458Y-97235152D01*
X117153077Y-97282771D01*
X117200696Y-97378009D01*
X117200696Y-97616104D01*
X117153077Y-97711342D01*
X117105458Y-97758961D01*
X117010220Y-97806580D01*
X116724506Y-97806580D01*
X116629268Y-97758961D01*
X116581649Y-97711342D01*
X128782125Y-66354080D02*
X128782125Y-67163604D01*
X128829744Y-67258842D01*
X128877363Y-67306461D01*
X128972601Y-67354080D01*
X129163077Y-67354080D01*
X129258315Y-67306461D01*
X129305934Y-67258842D01*
X129353553Y-67163604D01*
X129353553Y-66354080D01*
X130353553Y-67354080D02*
X129782125Y-67354080D01*
X130067839Y-67354080D02*
X130067839Y-66354080D01*
X129972601Y-66496938D01*
X129877363Y-66592176D01*
X129782125Y-66639795D01*
X130972601Y-66354080D02*
X131067839Y-66354080D01*
X131163077Y-66401700D01*
X131210696Y-66449319D01*
X131258315Y-66544557D01*
X131305934Y-66735033D01*
X131305934Y-66973128D01*
X131258315Y-67163604D01*
X131210696Y-67258842D01*
X131163077Y-67306461D01*
X131067839Y-67354080D01*
X130972601Y-67354080D01*
X130877363Y-67306461D01*
X130829744Y-67258842D01*
X130782125Y-67163604D01*
X130734506Y-66973128D01*
X130734506Y-66735033D01*
X130782125Y-66544557D01*
X130829744Y-66449319D01*
X130877363Y-66401700D01*
X130972601Y-66354080D01*
X131639268Y-66354080D02*
X132305934Y-66354080D01*
X131877363Y-67354080D01*
X127217895Y-81316580D02*
X127884561Y-81316580D01*
X127455990Y-82316580D01*
X128694085Y-81649914D02*
X128694085Y-82316580D01*
X128455990Y-81268961D02*
X128217895Y-81983247D01*
X128836942Y-81983247D01*
X129217895Y-82316580D02*
X129217895Y-81316580D01*
X129217895Y-81792771D02*
X129789323Y-81792771D01*
X129789323Y-82316580D02*
X129789323Y-81316580D01*
X130836942Y-82221342D02*
X130789323Y-82268961D01*
X130646466Y-82316580D01*
X130551228Y-82316580D01*
X130408371Y-82268961D01*
X130313133Y-82173723D01*
X130265514Y-82078485D01*
X130217895Y-81888009D01*
X130217895Y-81745152D01*
X130265514Y-81554676D01*
X130313133Y-81459438D01*
X130408371Y-81364200D01*
X130551228Y-81316580D01*
X130646466Y-81316580D01*
X130789323Y-81364200D01*
X130836942Y-81411819D01*
X131694085Y-81316580D02*
X131503609Y-81316580D01*
X131408371Y-81364200D01*
X131360752Y-81411819D01*
X131265514Y-81554676D01*
X131217895Y-81745152D01*
X131217895Y-82126104D01*
X131265514Y-82221342D01*
X131313133Y-82268961D01*
X131408371Y-82316580D01*
X131598847Y-82316580D01*
X131694085Y-82268961D01*
X131741704Y-82221342D01*
X131789323Y-82126104D01*
X131789323Y-81888009D01*
X131741704Y-81792771D01*
X131694085Y-81745152D01*
X131598847Y-81697533D01*
X131408371Y-81697533D01*
X131313133Y-81745152D01*
X131265514Y-81792771D01*
X131217895Y-81888009D01*
X132360752Y-81745152D02*
X132265514Y-81697533D01*
X132217895Y-81649914D01*
X132170276Y-81554676D01*
X132170276Y-81507057D01*
X132217895Y-81411819D01*
X132265514Y-81364200D01*
X132360752Y-81316580D01*
X132551228Y-81316580D01*
X132646466Y-81364200D01*
X132694085Y-81411819D01*
X132741704Y-81507057D01*
X132741704Y-81554676D01*
X132694085Y-81649914D01*
X132646466Y-81697533D01*
X132551228Y-81745152D01*
X132360752Y-81745152D01*
X132265514Y-81792771D01*
X132217895Y-81840390D01*
X132170276Y-81935628D01*
X132170276Y-82126104D01*
X132217895Y-82221342D01*
X132265514Y-82268961D01*
X132360752Y-82316580D01*
X132551228Y-82316580D01*
X132646466Y-82268961D01*
X132694085Y-82221342D01*
X132741704Y-82126104D01*
X132741704Y-81935628D01*
X132694085Y-81840390D01*
X132646466Y-81792771D01*
X132551228Y-81745152D01*
X133313133Y-81745152D02*
X133217895Y-81697533D01*
X133170276Y-81649914D01*
X133122657Y-81554676D01*
X133122657Y-81507057D01*
X133170276Y-81411819D01*
X133217895Y-81364200D01*
X133313133Y-81316580D01*
X133503609Y-81316580D01*
X133598847Y-81364200D01*
X133646466Y-81411819D01*
X133694085Y-81507057D01*
X133694085Y-81554676D01*
X133646466Y-81649914D01*
X133598847Y-81697533D01*
X133503609Y-81745152D01*
X133313133Y-81745152D01*
X133217895Y-81792771D01*
X133170276Y-81840390D01*
X133122657Y-81935628D01*
X133122657Y-82126104D01*
X133170276Y-82221342D01*
X133217895Y-82268961D01*
X133313133Y-82316580D01*
X133503609Y-82316580D01*
X133598847Y-82268961D01*
X133646466Y-82221342D01*
X133694085Y-82126104D01*
X133694085Y-81935628D01*
X133646466Y-81840390D01*
X133598847Y-81792771D01*
X133503609Y-81745152D01*
X175772125Y-110455454D02*
X175772125Y-111264978D01*
X175819744Y-111360216D01*
X175867363Y-111407835D01*
X175962601Y-111455454D01*
X176153077Y-111455454D01*
X176248315Y-111407835D01*
X176295934Y-111360216D01*
X176343553Y-111264978D01*
X176343553Y-110455454D01*
X177343553Y-111455454D02*
X176772125Y-111455454D01*
X177057839Y-111455454D02*
X177057839Y-110455454D01*
X176962601Y-110598312D01*
X176867363Y-110693550D01*
X176772125Y-110741169D01*
X177724506Y-110550693D02*
X177772125Y-110503074D01*
X177867363Y-110455454D01*
X178105458Y-110455454D01*
X178200696Y-110503074D01*
X178248315Y-110550693D01*
X178295934Y-110645931D01*
X178295934Y-110741169D01*
X178248315Y-110884026D01*
X177676887Y-111455454D01*
X178295934Y-111455454D01*
X179200696Y-110455454D02*
X178724506Y-110455454D01*
X178676887Y-110931645D01*
X178724506Y-110884026D01*
X178819744Y-110836407D01*
X179057839Y-110836407D01*
X179153077Y-110884026D01*
X179200696Y-110931645D01*
X179248315Y-111026883D01*
X179248315Y-111264978D01*
X179200696Y-111360216D01*
X179153077Y-111407835D01*
X179057839Y-111455454D01*
X178819744Y-111455454D01*
X178724506Y-111407835D01*
X178676887Y-111360216D01*
X174700696Y-121015454D02*
X175367363Y-121015454D01*
X174938791Y-122015454D01*
X176176887Y-121348788D02*
X176176887Y-122015454D01*
X175938791Y-120967835D02*
X175700696Y-121682121D01*
X176319744Y-121682121D01*
X176700696Y-122015454D02*
X176700696Y-121015454D01*
X176700696Y-121491645D02*
X177272125Y-121491645D01*
X177272125Y-122015454D02*
X177272125Y-121015454D01*
X178319744Y-121920216D02*
X178272125Y-121967835D01*
X178129268Y-122015454D01*
X178034030Y-122015454D01*
X177891172Y-121967835D01*
X177795934Y-121872597D01*
X177748315Y-121777359D01*
X177700696Y-121586883D01*
X177700696Y-121444026D01*
X177748315Y-121253550D01*
X177795934Y-121158312D01*
X177891172Y-121063074D01*
X178034030Y-121015454D01*
X178129268Y-121015454D01*
X178272125Y-121063074D01*
X178319744Y-121110693D01*
X178653077Y-121015454D02*
X179319744Y-121015454D01*
X178891172Y-122015454D01*
X180129268Y-121348788D02*
X180129268Y-122015454D01*
X179891172Y-120967835D02*
X179653077Y-121682121D01*
X180272125Y-121682121D01*
X195663095Y-52550000D02*
X195567857Y-52502380D01*
X195425000Y-52502380D01*
X195282142Y-52550000D01*
X195186904Y-52645238D01*
X195139285Y-52740476D01*
X195091666Y-52930952D01*
X195091666Y-53073809D01*
X195139285Y-53264285D01*
X195186904Y-53359523D01*
X195282142Y-53454761D01*
X195425000Y-53502380D01*
X195520238Y-53502380D01*
X195663095Y-53454761D01*
X195710714Y-53407142D01*
X195710714Y-53073809D01*
X195520238Y-53073809D01*
X196139285Y-53502380D02*
X196139285Y-52502380D01*
X196710714Y-53502380D01*
X196710714Y-52502380D01*
X197186904Y-53502380D02*
X197186904Y-52502380D01*
X197425000Y-52502380D01*
X197567857Y-52550000D01*
X197663095Y-52645238D01*
X197710714Y-52740476D01*
X197758333Y-52930952D01*
X197758333Y-53073809D01*
X197710714Y-53264285D01*
X197663095Y-53359523D01*
X197567857Y-53454761D01*
X197425000Y-53502380D01*
X197186904Y-53502380D01*
X175721325Y-47728380D02*
X175721325Y-48537904D01*
X175768944Y-48633142D01*
X175816563Y-48680761D01*
X175911801Y-48728380D01*
X176102277Y-48728380D01*
X176197515Y-48680761D01*
X176245134Y-48633142D01*
X176292753Y-48537904D01*
X176292753Y-47728380D01*
X177292753Y-48728380D02*
X176721325Y-48728380D01*
X177007039Y-48728380D02*
X177007039Y-47728380D01*
X176911801Y-47871238D01*
X176816563Y-47966476D01*
X176721325Y-48014095D01*
X177911801Y-47728380D02*
X178007039Y-47728380D01*
X178102277Y-47776000D01*
X178149896Y-47823619D01*
X178197515Y-47918857D01*
X178245134Y-48109333D01*
X178245134Y-48347428D01*
X178197515Y-48537904D01*
X178149896Y-48633142D01*
X178102277Y-48680761D01*
X178007039Y-48728380D01*
X177911801Y-48728380D01*
X177816563Y-48680761D01*
X177768944Y-48633142D01*
X177721325Y-48537904D01*
X177673706Y-48347428D01*
X177673706Y-48109333D01*
X177721325Y-47918857D01*
X177768944Y-47823619D01*
X177816563Y-47776000D01*
X177911801Y-47728380D01*
X179149896Y-47728380D02*
X178673706Y-47728380D01*
X178626087Y-48204571D01*
X178673706Y-48156952D01*
X178768944Y-48109333D01*
X179007039Y-48109333D01*
X179102277Y-48156952D01*
X179149896Y-48204571D01*
X179197515Y-48299809D01*
X179197515Y-48537904D01*
X179149896Y-48633142D01*
X179102277Y-48680761D01*
X179007039Y-48728380D01*
X178768944Y-48728380D01*
X178673706Y-48680761D01*
X178626087Y-48633142D01*
X174173706Y-62428380D02*
X174840372Y-62428380D01*
X174411801Y-63428380D01*
X175649896Y-62761714D02*
X175649896Y-63428380D01*
X175411801Y-62380761D02*
X175173706Y-63095047D01*
X175792753Y-63095047D01*
X176173706Y-63428380D02*
X176173706Y-62428380D01*
X176173706Y-62904571D02*
X176745134Y-62904571D01*
X176745134Y-63428380D02*
X176745134Y-62428380D01*
X177792753Y-63333142D02*
X177745134Y-63380761D01*
X177602277Y-63428380D01*
X177507039Y-63428380D01*
X177364182Y-63380761D01*
X177268944Y-63285523D01*
X177221325Y-63190285D01*
X177173706Y-62999809D01*
X177173706Y-62856952D01*
X177221325Y-62666476D01*
X177268944Y-62571238D01*
X177364182Y-62476000D01*
X177507039Y-62428380D01*
X177602277Y-62428380D01*
X177745134Y-62476000D01*
X177792753Y-62523619D01*
X178173706Y-62523619D02*
X178221325Y-62476000D01*
X178316563Y-62428380D01*
X178554658Y-62428380D01*
X178649896Y-62476000D01*
X178697515Y-62523619D01*
X178745134Y-62618857D01*
X178745134Y-62714095D01*
X178697515Y-62856952D01*
X178126087Y-63428380D01*
X178745134Y-63428380D01*
X179602277Y-62761714D02*
X179602277Y-63428380D01*
X179364182Y-62380761D02*
X179126087Y-63095047D01*
X179745134Y-63095047D01*
X180554658Y-62761714D02*
X180554658Y-63428380D01*
X180316563Y-62380761D02*
X180078468Y-63095047D01*
X180697515Y-63095047D01*
X102663095Y-52550000D02*
X102567857Y-52502380D01*
X102425000Y-52502380D01*
X102282142Y-52550000D01*
X102186904Y-52645238D01*
X102139285Y-52740476D01*
X102091666Y-52930952D01*
X102091666Y-53073809D01*
X102139285Y-53264285D01*
X102186904Y-53359523D01*
X102282142Y-53454761D01*
X102425000Y-53502380D01*
X102520238Y-53502380D01*
X102663095Y-53454761D01*
X102710714Y-53407142D01*
X102710714Y-53073809D01*
X102520238Y-53073809D01*
X103139285Y-53502380D02*
X103139285Y-52502380D01*
X103710714Y-53502380D01*
X103710714Y-52502380D01*
X104186904Y-53502380D02*
X104186904Y-52502380D01*
X104425000Y-52502380D01*
X104567857Y-52550000D01*
X104663095Y-52645238D01*
X104710714Y-52740476D01*
X104758333Y-52930952D01*
X104758333Y-53073809D01*
X104710714Y-53264285D01*
X104663095Y-53359523D01*
X104567857Y-53454761D01*
X104425000Y-53502380D01*
X104186904Y-53502380D01*
X128782125Y-85050380D02*
X128782125Y-85859904D01*
X128829744Y-85955142D01*
X128877363Y-86002761D01*
X128972601Y-86050380D01*
X129163077Y-86050380D01*
X129258315Y-86002761D01*
X129305934Y-85955142D01*
X129353553Y-85859904D01*
X129353553Y-85050380D01*
X130353553Y-86050380D02*
X129782125Y-86050380D01*
X130067839Y-86050380D02*
X130067839Y-85050380D01*
X129972601Y-85193238D01*
X129877363Y-85288476D01*
X129782125Y-85336095D01*
X131305934Y-86050380D02*
X130734506Y-86050380D01*
X131020220Y-86050380D02*
X131020220Y-85050380D01*
X130924982Y-85193238D01*
X130829744Y-85288476D01*
X130734506Y-85336095D01*
X131686887Y-85145619D02*
X131734506Y-85098000D01*
X131829744Y-85050380D01*
X132067839Y-85050380D01*
X132163077Y-85098000D01*
X132210696Y-85145619D01*
X132258315Y-85240857D01*
X132258315Y-85336095D01*
X132210696Y-85478952D01*
X131639268Y-86050380D01*
X132258315Y-86050380D01*
X127234506Y-96806580D02*
X127901172Y-96806580D01*
X127472601Y-97806580D01*
X128710696Y-97139914D02*
X128710696Y-97806580D01*
X128472601Y-96758961D02*
X128234506Y-97473247D01*
X128853553Y-97473247D01*
X129234506Y-97806580D02*
X129234506Y-96806580D01*
X129234506Y-97282771D02*
X129805934Y-97282771D01*
X129805934Y-97806580D02*
X129805934Y-96806580D01*
X130853553Y-97711342D02*
X130805934Y-97758961D01*
X130663077Y-97806580D01*
X130567839Y-97806580D01*
X130424982Y-97758961D01*
X130329744Y-97663723D01*
X130282125Y-97568485D01*
X130234506Y-97378009D01*
X130234506Y-97235152D01*
X130282125Y-97044676D01*
X130329744Y-96949438D01*
X130424982Y-96854200D01*
X130567839Y-96806580D01*
X130663077Y-96806580D01*
X130805934Y-96854200D01*
X130853553Y-96901819D01*
X131805934Y-97806580D02*
X131234506Y-97806580D01*
X131520220Y-97806580D02*
X131520220Y-96806580D01*
X131424982Y-96949438D01*
X131329744Y-97044676D01*
X131234506Y-97092295D01*
X132282125Y-97806580D02*
X132472601Y-97806580D01*
X132567839Y-97758961D01*
X132615458Y-97711342D01*
X132710696Y-97568485D01*
X132758315Y-97378009D01*
X132758315Y-96997057D01*
X132710696Y-96901819D01*
X132663077Y-96854200D01*
X132567839Y-96806580D01*
X132377363Y-96806580D01*
X132282125Y-96854200D01*
X132234506Y-96901819D01*
X132186887Y-96997057D01*
X132186887Y-97235152D01*
X132234506Y-97330390D01*
X132282125Y-97378009D01*
X132377363Y-97425628D01*
X132567839Y-97425628D01*
X132663077Y-97378009D01*
X132710696Y-97330390D01*
X132758315Y-97235152D01*
X133091649Y-96806580D02*
X133710696Y-96806580D01*
X133377363Y-97187533D01*
X133520220Y-97187533D01*
X133615458Y-97235152D01*
X133663077Y-97282771D01*
X133710696Y-97378009D01*
X133710696Y-97616104D01*
X133663077Y-97711342D01*
X133615458Y-97758961D01*
X133520220Y-97806580D01*
X133234506Y-97806580D01*
X133139268Y-97758961D01*
X133091649Y-97711342D01*
X195016666Y-136902380D02*
X195350000Y-137902380D01*
X195683333Y-136902380D01*
X196588095Y-137807142D02*
X196540476Y-137854761D01*
X196397619Y-137902380D01*
X196302380Y-137902380D01*
X196159523Y-137854761D01*
X196064285Y-137759523D01*
X196016666Y-137664285D01*
X195969047Y-137473809D01*
X195969047Y-137330952D01*
X196016666Y-137140476D01*
X196064285Y-137045238D01*
X196159523Y-136950000D01*
X196302380Y-136902380D01*
X196397619Y-136902380D01*
X196540476Y-136950000D01*
X196588095Y-136997619D01*
X197588095Y-137807142D02*
X197540476Y-137854761D01*
X197397619Y-137902380D01*
X197302380Y-137902380D01*
X197159523Y-137854761D01*
X197064285Y-137759523D01*
X197016666Y-137664285D01*
X196969047Y-137473809D01*
X196969047Y-137330952D01*
X197016666Y-137140476D01*
X197064285Y-137045238D01*
X197159523Y-136950000D01*
X197302380Y-136902380D01*
X197397619Y-136902380D01*
X197540476Y-136950000D01*
X197588095Y-136997619D01*
X128782125Y-116511580D02*
X128782125Y-117321104D01*
X128829744Y-117416342D01*
X128877363Y-117463961D01*
X128972601Y-117511580D01*
X129163077Y-117511580D01*
X129258315Y-117463961D01*
X129305934Y-117416342D01*
X129353553Y-117321104D01*
X129353553Y-116511580D01*
X130353553Y-117511580D02*
X129782125Y-117511580D01*
X130067839Y-117511580D02*
X130067839Y-116511580D01*
X129972601Y-116654438D01*
X129877363Y-116749676D01*
X129782125Y-116797295D01*
X130734506Y-116606819D02*
X130782125Y-116559200D01*
X130877363Y-116511580D01*
X131115458Y-116511580D01*
X131210696Y-116559200D01*
X131258315Y-116606819D01*
X131305934Y-116702057D01*
X131305934Y-116797295D01*
X131258315Y-116940152D01*
X130686887Y-117511580D01*
X131305934Y-117511580D01*
X131686887Y-116606819D02*
X131734506Y-116559200D01*
X131829744Y-116511580D01*
X132067839Y-116511580D01*
X132163077Y-116559200D01*
X132210696Y-116606819D01*
X132258315Y-116702057D01*
X132258315Y-116797295D01*
X132210696Y-116940152D01*
X131639268Y-117511580D01*
X132258315Y-117511580D01*
X127234506Y-131211580D02*
X127901172Y-131211580D01*
X127472601Y-132211580D01*
X128710696Y-131544914D02*
X128710696Y-132211580D01*
X128472601Y-131163961D02*
X128234506Y-131878247D01*
X128853553Y-131878247D01*
X129234506Y-132211580D02*
X129234506Y-131211580D01*
X129234506Y-131687771D02*
X129805934Y-131687771D01*
X129805934Y-132211580D02*
X129805934Y-131211580D01*
X130853553Y-132116342D02*
X130805934Y-132163961D01*
X130663077Y-132211580D01*
X130567839Y-132211580D01*
X130424982Y-132163961D01*
X130329744Y-132068723D01*
X130282125Y-131973485D01*
X130234506Y-131783009D01*
X130234506Y-131640152D01*
X130282125Y-131449676D01*
X130329744Y-131354438D01*
X130424982Y-131259200D01*
X130567839Y-131211580D01*
X130663077Y-131211580D01*
X130805934Y-131259200D01*
X130853553Y-131306819D01*
X131186887Y-131211580D02*
X131805934Y-131211580D01*
X131472601Y-131592533D01*
X131615458Y-131592533D01*
X131710696Y-131640152D01*
X131758315Y-131687771D01*
X131805934Y-131783009D01*
X131805934Y-132021104D01*
X131758315Y-132116342D01*
X131710696Y-132163961D01*
X131615458Y-132211580D01*
X131329744Y-132211580D01*
X131234506Y-132163961D01*
X131186887Y-132116342D01*
X132139268Y-131211580D02*
X132805934Y-131211580D01*
X132377363Y-132211580D01*
X133091649Y-131211580D02*
X133758315Y-131211580D01*
X133329744Y-132211580D01*
X161328314Y-51703380D02*
X161328314Y-52512904D01*
X161375933Y-52608142D01*
X161423552Y-52655761D01*
X161518790Y-52703380D01*
X161709266Y-52703380D01*
X161804504Y-52655761D01*
X161852123Y-52608142D01*
X161899742Y-52512904D01*
X161899742Y-51703380D01*
X162899742Y-52703380D02*
X162328314Y-52703380D01*
X162614028Y-52703380D02*
X162614028Y-51703380D01*
X162518790Y-51846238D01*
X162423552Y-51941476D01*
X162328314Y-51989095D01*
X163518790Y-51703380D02*
X163614028Y-51703380D01*
X163709266Y-51751000D01*
X163756885Y-51798619D01*
X163804504Y-51893857D01*
X163852123Y-52084333D01*
X163852123Y-52322428D01*
X163804504Y-52512904D01*
X163756885Y-52608142D01*
X163709266Y-52655761D01*
X163614028Y-52703380D01*
X163518790Y-52703380D01*
X163423552Y-52655761D01*
X163375933Y-52608142D01*
X163328314Y-52512904D01*
X163280695Y-52322428D01*
X163280695Y-52084333D01*
X163328314Y-51893857D01*
X163375933Y-51798619D01*
X163423552Y-51751000D01*
X163518790Y-51703380D01*
X164709266Y-52036714D02*
X164709266Y-52703380D01*
X164471171Y-51655761D02*
X164233076Y-52370047D01*
X164852123Y-52370047D01*
X159875933Y-62496780D02*
X160542600Y-62496780D01*
X160114028Y-63496780D01*
X161352123Y-62830114D02*
X161352123Y-63496780D01*
X161114028Y-62449161D02*
X160875933Y-63163447D01*
X161494980Y-63163447D01*
X161875933Y-63496780D02*
X161875933Y-62496780D01*
X161875933Y-62972971D02*
X162447361Y-62972971D01*
X162447361Y-63496780D02*
X162447361Y-62496780D01*
X163494980Y-63401542D02*
X163447361Y-63449161D01*
X163304504Y-63496780D01*
X163209266Y-63496780D01*
X163066409Y-63449161D01*
X162971171Y-63353923D01*
X162923552Y-63258685D01*
X162875933Y-63068209D01*
X162875933Y-62925352D01*
X162923552Y-62734876D01*
X162971171Y-62639638D01*
X163066409Y-62544400D01*
X163209266Y-62496780D01*
X163304504Y-62496780D01*
X163447361Y-62544400D01*
X163494980Y-62592019D01*
X163780695Y-62496780D02*
X164352123Y-62496780D01*
X164066409Y-63496780D02*
X164066409Y-62496780D01*
X164590219Y-62496780D02*
X165209266Y-62496780D01*
X164875933Y-62877733D01*
X165018790Y-62877733D01*
X165114028Y-62925352D01*
X165161647Y-62972971D01*
X165209266Y-63068209D01*
X165209266Y-63306304D01*
X165161647Y-63401542D01*
X165114028Y-63449161D01*
X165018790Y-63496780D01*
X164733076Y-63496780D01*
X164637838Y-63449161D01*
X164590219Y-63401542D01*
X165590219Y-62592019D02*
X165637838Y-62544400D01*
X165733076Y-62496780D01*
X165971171Y-62496780D01*
X166066409Y-62544400D01*
X166114028Y-62592019D01*
X166161647Y-62687257D01*
X166161647Y-62782495D01*
X166114028Y-62925352D01*
X165542600Y-63496780D01*
X166161647Y-63496780D01*
X196431785Y-79909713D02*
X195431785Y-79909713D01*
X195431785Y-79671618D01*
X195479405Y-79528761D01*
X195574643Y-79433523D01*
X195669881Y-79385903D01*
X195860357Y-79338284D01*
X196003214Y-79338284D01*
X196193690Y-79385903D01*
X196288928Y-79433523D01*
X196384166Y-79528761D01*
X196431785Y-79671618D01*
X196431785Y-79909713D01*
X196146071Y-78957332D02*
X196146071Y-78481142D01*
X196431785Y-79052570D02*
X195431785Y-78719237D01*
X196431785Y-78385903D01*
X195431785Y-78195427D02*
X195431785Y-77623999D01*
X196431785Y-77909713D02*
X195431785Y-77909713D01*
X196146071Y-77338284D02*
X196146071Y-76862094D01*
X196431785Y-77433523D02*
X195431785Y-77100189D01*
X196431785Y-76766856D01*
X195907976Y-76100189D02*
X195955595Y-75957332D01*
X196003214Y-75909713D01*
X196098452Y-75862094D01*
X196241309Y-75862094D01*
X196336547Y-75909713D01*
X196384166Y-75957332D01*
X196431785Y-76052570D01*
X196431785Y-76433523D01*
X195431785Y-76433523D01*
X195431785Y-76100189D01*
X195479405Y-76004951D01*
X195527024Y-75957332D01*
X195622262Y-75909713D01*
X195717500Y-75909713D01*
X195812738Y-75957332D01*
X195860357Y-76004951D01*
X195907976Y-76100189D01*
X195907976Y-76433523D01*
X195431785Y-75433523D02*
X196241309Y-75433523D01*
X196336547Y-75385903D01*
X196384166Y-75338284D01*
X196431785Y-75243046D01*
X196431785Y-75052570D01*
X196384166Y-74957332D01*
X196336547Y-74909713D01*
X196241309Y-74862094D01*
X195431785Y-74862094D01*
X196384166Y-74433523D02*
X196431785Y-74290665D01*
X196431785Y-74052570D01*
X196384166Y-73957332D01*
X196336547Y-73909713D01*
X196241309Y-73862094D01*
X196146071Y-73862094D01*
X196050833Y-73909713D01*
X196003214Y-73957332D01*
X195955595Y-74052570D01*
X195907976Y-74243046D01*
X195860357Y-74338284D01*
X195812738Y-74385903D01*
X195717500Y-74433523D01*
X195622262Y-74433523D01*
X195527024Y-74385903D01*
X195479405Y-74338284D01*
X195431785Y-74243046D01*
X195431785Y-74004951D01*
X195479405Y-73862094D01*
X196431785Y-72909713D02*
X196431785Y-73481142D01*
X196431785Y-73195427D02*
X195431785Y-73195427D01*
X195574643Y-73290665D01*
X195669881Y-73385903D01*
X195717500Y-73481142D01*
X175772125Y-65160559D02*
X175772125Y-65970083D01*
X175819744Y-66065321D01*
X175867363Y-66112940D01*
X175962601Y-66160559D01*
X176153077Y-66160559D01*
X176248315Y-66112940D01*
X176295934Y-66065321D01*
X176343553Y-65970083D01*
X176343553Y-65160559D01*
X177343553Y-66160559D02*
X176772125Y-66160559D01*
X177057839Y-66160559D02*
X177057839Y-65160559D01*
X176962601Y-65303417D01*
X176867363Y-65398655D01*
X176772125Y-65446274D01*
X178295934Y-66160559D02*
X177724506Y-66160559D01*
X178010220Y-66160559D02*
X178010220Y-65160559D01*
X177914982Y-65303417D01*
X177819744Y-65398655D01*
X177724506Y-65446274D01*
X178914982Y-65160559D02*
X179010220Y-65160559D01*
X179105458Y-65208179D01*
X179153077Y-65255798D01*
X179200696Y-65351036D01*
X179248315Y-65541512D01*
X179248315Y-65779607D01*
X179200696Y-65970083D01*
X179153077Y-66065321D01*
X179105458Y-66112940D01*
X179010220Y-66160559D01*
X178914982Y-66160559D01*
X178819744Y-66112940D01*
X178772125Y-66065321D01*
X178724506Y-65970083D01*
X178676887Y-65779607D01*
X178676887Y-65541512D01*
X178724506Y-65351036D01*
X178772125Y-65255798D01*
X178819744Y-65208179D01*
X178914982Y-65160559D01*
X174700696Y-75720559D02*
X175367363Y-75720559D01*
X174938791Y-76720559D01*
X176176887Y-76053893D02*
X176176887Y-76720559D01*
X175938791Y-75672940D02*
X175700696Y-76387226D01*
X176319744Y-76387226D01*
X176700696Y-76720559D02*
X176700696Y-75720559D01*
X176700696Y-76196750D02*
X177272125Y-76196750D01*
X177272125Y-76720559D02*
X177272125Y-75720559D01*
X178319744Y-76625321D02*
X178272125Y-76672940D01*
X178129268Y-76720559D01*
X178034030Y-76720559D01*
X177891172Y-76672940D01*
X177795934Y-76577702D01*
X177748315Y-76482464D01*
X177700696Y-76291988D01*
X177700696Y-76149131D01*
X177748315Y-75958655D01*
X177795934Y-75863417D01*
X177891172Y-75768179D01*
X178034030Y-75720559D01*
X178129268Y-75720559D01*
X178272125Y-75768179D01*
X178319744Y-75815798D01*
X178938791Y-75720559D02*
X179034030Y-75720559D01*
X179129268Y-75768179D01*
X179176887Y-75815798D01*
X179224506Y-75911036D01*
X179272125Y-76101512D01*
X179272125Y-76339607D01*
X179224506Y-76530083D01*
X179176887Y-76625321D01*
X179129268Y-76672940D01*
X179034030Y-76720559D01*
X178938791Y-76720559D01*
X178843553Y-76672940D01*
X178795934Y-76625321D01*
X178748315Y-76530083D01*
X178700696Y-76339607D01*
X178700696Y-76101512D01*
X178748315Y-75911036D01*
X178795934Y-75815798D01*
X178843553Y-75768179D01*
X178938791Y-75720559D01*
X180129268Y-76053893D02*
X180129268Y-76720559D01*
X179891172Y-75672940D02*
X179653077Y-76387226D01*
X180272125Y-76387226D01*
X175721325Y-95416780D02*
X175721325Y-96226304D01*
X175768944Y-96321542D01*
X175816563Y-96369161D01*
X175911801Y-96416780D01*
X176102277Y-96416780D01*
X176197515Y-96369161D01*
X176245134Y-96321542D01*
X176292753Y-96226304D01*
X176292753Y-95416780D01*
X177292753Y-96416780D02*
X176721325Y-96416780D01*
X177007039Y-96416780D02*
X177007039Y-95416780D01*
X176911801Y-95559638D01*
X176816563Y-95654876D01*
X176721325Y-95702495D01*
X177673706Y-95512019D02*
X177721325Y-95464400D01*
X177816563Y-95416780D01*
X178054658Y-95416780D01*
X178149896Y-95464400D01*
X178197515Y-95512019D01*
X178245134Y-95607257D01*
X178245134Y-95702495D01*
X178197515Y-95845352D01*
X177626087Y-96416780D01*
X178245134Y-96416780D01*
X178864182Y-95416780D02*
X178959420Y-95416780D01*
X179054658Y-95464400D01*
X179102277Y-95512019D01*
X179149896Y-95607257D01*
X179197515Y-95797733D01*
X179197515Y-96035828D01*
X179149896Y-96226304D01*
X179102277Y-96321542D01*
X179054658Y-96369161D01*
X178959420Y-96416780D01*
X178864182Y-96416780D01*
X178768944Y-96369161D01*
X178721325Y-96321542D01*
X178673706Y-96226304D01*
X178626087Y-96035828D01*
X178626087Y-95797733D01*
X178673706Y-95607257D01*
X178721325Y-95512019D01*
X178768944Y-95464400D01*
X178864182Y-95416780D01*
X174649896Y-105976780D02*
X175316563Y-105976780D01*
X174887991Y-106976780D01*
X176126087Y-106310114D02*
X176126087Y-106976780D01*
X175887991Y-105929161D02*
X175649896Y-106643447D01*
X176268944Y-106643447D01*
X176649896Y-106976780D02*
X176649896Y-105976780D01*
X176649896Y-106452971D02*
X177221325Y-106452971D01*
X177221325Y-106976780D02*
X177221325Y-105976780D01*
X178268944Y-106881542D02*
X178221325Y-106929161D01*
X178078468Y-106976780D01*
X177983230Y-106976780D01*
X177840372Y-106929161D01*
X177745134Y-106833923D01*
X177697515Y-106738685D01*
X177649896Y-106548209D01*
X177649896Y-106405352D01*
X177697515Y-106214876D01*
X177745134Y-106119638D01*
X177840372Y-106024400D01*
X177983230Y-105976780D01*
X178078468Y-105976780D01*
X178221325Y-106024400D01*
X178268944Y-106072019D01*
X178602277Y-105976780D02*
X179268944Y-105976780D01*
X178840372Y-106976780D01*
X180078468Y-106310114D02*
X180078468Y-106976780D01*
X179840372Y-105929161D02*
X179602277Y-106643447D01*
X180221325Y-106643447D01*
X146230295Y-79236980D02*
X146230295Y-80046504D01*
X146277914Y-80141742D01*
X146325533Y-80189361D01*
X146420771Y-80236980D01*
X146611247Y-80236980D01*
X146706485Y-80189361D01*
X146754104Y-80141742D01*
X146801723Y-80046504D01*
X146801723Y-79236980D01*
X147801723Y-80236980D02*
X147230295Y-80236980D01*
X147516009Y-80236980D02*
X147516009Y-79236980D01*
X147420771Y-79379838D01*
X147325533Y-79475076D01*
X147230295Y-79522695D01*
X148754104Y-80236980D02*
X148182676Y-80236980D01*
X148468390Y-80236980D02*
X148468390Y-79236980D01*
X148373152Y-79379838D01*
X148277914Y-79475076D01*
X148182676Y-79522695D01*
X149087438Y-79236980D02*
X149706485Y-79236980D01*
X149373152Y-79617933D01*
X149516009Y-79617933D01*
X149611247Y-79665552D01*
X149658866Y-79713171D01*
X149706485Y-79808409D01*
X149706485Y-80046504D01*
X149658866Y-80141742D01*
X149611247Y-80189361D01*
X149516009Y-80236980D01*
X149230295Y-80236980D01*
X149135057Y-80189361D01*
X149087438Y-80141742D01*
X145158866Y-89796980D02*
X145825533Y-89796980D01*
X145396961Y-90796980D01*
X146635057Y-90130314D02*
X146635057Y-90796980D01*
X146396961Y-89749361D02*
X146158866Y-90463647D01*
X146777914Y-90463647D01*
X147158866Y-90796980D02*
X147158866Y-89796980D01*
X147158866Y-90273171D02*
X147730295Y-90273171D01*
X147730295Y-90796980D02*
X147730295Y-89796980D01*
X148777914Y-90701742D02*
X148730295Y-90749361D01*
X148587438Y-90796980D01*
X148492200Y-90796980D01*
X148349342Y-90749361D01*
X148254104Y-90654123D01*
X148206485Y-90558885D01*
X148158866Y-90368409D01*
X148158866Y-90225552D01*
X148206485Y-90035076D01*
X148254104Y-89939838D01*
X148349342Y-89844600D01*
X148492200Y-89796980D01*
X148587438Y-89796980D01*
X148730295Y-89844600D01*
X148777914Y-89892219D01*
X149158866Y-89892219D02*
X149206485Y-89844600D01*
X149301723Y-89796980D01*
X149539819Y-89796980D01*
X149635057Y-89844600D01*
X149682676Y-89892219D01*
X149730295Y-89987457D01*
X149730295Y-90082695D01*
X149682676Y-90225552D01*
X149111247Y-90796980D01*
X149730295Y-90796980D01*
X150063628Y-89796980D02*
X150730295Y-89796980D01*
X150301723Y-90796980D01*
X161462934Y-65160559D02*
X161462934Y-65970083D01*
X161510553Y-66065321D01*
X161558172Y-66112940D01*
X161653410Y-66160559D01*
X161843886Y-66160559D01*
X161939124Y-66112940D01*
X161986743Y-66065321D01*
X162034362Y-65970083D01*
X162034362Y-65160559D01*
X163034362Y-66160559D02*
X162462934Y-66160559D01*
X162748648Y-66160559D02*
X162748648Y-65160559D01*
X162653410Y-65303417D01*
X162558172Y-65398655D01*
X162462934Y-65446274D01*
X163653410Y-65160559D02*
X163748648Y-65160559D01*
X163843886Y-65208179D01*
X163891505Y-65255798D01*
X163939124Y-65351036D01*
X163986743Y-65541512D01*
X163986743Y-65779607D01*
X163939124Y-65970083D01*
X163891505Y-66065321D01*
X163843886Y-66112940D01*
X163748648Y-66160559D01*
X163653410Y-66160559D01*
X163558172Y-66112940D01*
X163510553Y-66065321D01*
X163462934Y-65970083D01*
X163415315Y-65779607D01*
X163415315Y-65541512D01*
X163462934Y-65351036D01*
X163510553Y-65255798D01*
X163558172Y-65208179D01*
X163653410Y-65160559D01*
X164462934Y-66160559D02*
X164653410Y-66160559D01*
X164748648Y-66112940D01*
X164796267Y-66065321D01*
X164891505Y-65922464D01*
X164939124Y-65731988D01*
X164939124Y-65351036D01*
X164891505Y-65255798D01*
X164843886Y-65208179D01*
X164748648Y-65160559D01*
X164558172Y-65160559D01*
X164462934Y-65208179D01*
X164415315Y-65255798D01*
X164367696Y-65351036D01*
X164367696Y-65589131D01*
X164415315Y-65684369D01*
X164462934Y-65731988D01*
X164558172Y-65779607D01*
X164748648Y-65779607D01*
X164843886Y-65731988D01*
X164891505Y-65684369D01*
X164939124Y-65589131D01*
X160391505Y-75720559D02*
X161058172Y-75720559D01*
X160629600Y-76720559D01*
X161867696Y-76053893D02*
X161867696Y-76720559D01*
X161629600Y-75672940D02*
X161391505Y-76387226D01*
X162010553Y-76387226D01*
X162391505Y-76720559D02*
X162391505Y-75720559D01*
X162391505Y-76196750D02*
X162962934Y-76196750D01*
X162962934Y-76720559D02*
X162962934Y-75720559D01*
X164010553Y-76625321D02*
X163962934Y-76672940D01*
X163820077Y-76720559D01*
X163724839Y-76720559D01*
X163581981Y-76672940D01*
X163486743Y-76577702D01*
X163439124Y-76482464D01*
X163391505Y-76291988D01*
X163391505Y-76149131D01*
X163439124Y-75958655D01*
X163486743Y-75863417D01*
X163581981Y-75768179D01*
X163724839Y-75720559D01*
X163820077Y-75720559D01*
X163962934Y-75768179D01*
X164010553Y-75815798D01*
X164343886Y-75720559D02*
X165010553Y-75720559D01*
X164581981Y-76720559D01*
X165820077Y-76053893D02*
X165820077Y-76720559D01*
X165581981Y-75672940D02*
X165343886Y-76387226D01*
X165962934Y-76387226D01*
X195964009Y-125671782D02*
X196011628Y-125719401D01*
X196059247Y-125862258D01*
X196059247Y-125957496D01*
X196011628Y-126100353D01*
X195916390Y-126195592D01*
X195821152Y-126243211D01*
X195630676Y-126290830D01*
X195487819Y-126290830D01*
X195297343Y-126243211D01*
X195202105Y-126195592D01*
X195106867Y-126100353D01*
X195059247Y-125957496D01*
X195059247Y-125862258D01*
X195106867Y-125719401D01*
X195154486Y-125671782D01*
X195059247Y-125052734D02*
X195059247Y-124862258D01*
X195106867Y-124767020D01*
X195202105Y-124671782D01*
X195392581Y-124624163D01*
X195725914Y-124624163D01*
X195916390Y-124671782D01*
X196011628Y-124767020D01*
X196059247Y-124862258D01*
X196059247Y-125052734D01*
X196011628Y-125147973D01*
X195916390Y-125243211D01*
X195725914Y-125290830D01*
X195392581Y-125290830D01*
X195202105Y-125243211D01*
X195106867Y-125147973D01*
X195059247Y-125052734D01*
X196059247Y-124195592D02*
X195059247Y-124195592D01*
X196059247Y-123624163D01*
X195059247Y-123624163D01*
X195059247Y-123290830D02*
X195059247Y-122719401D01*
X196059247Y-123005115D02*
X195059247Y-123005115D01*
X196059247Y-121814639D02*
X195583057Y-122147973D01*
X196059247Y-122386068D02*
X195059247Y-122386068D01*
X195059247Y-122005115D01*
X195106867Y-121909877D01*
X195154486Y-121862258D01*
X195249724Y-121814639D01*
X195392581Y-121814639D01*
X195487819Y-121862258D01*
X195535438Y-121909877D01*
X195583057Y-122005115D01*
X195583057Y-122386068D01*
X195059247Y-121195592D02*
X195059247Y-121005115D01*
X195106867Y-120909877D01*
X195202105Y-120814639D01*
X195392581Y-120767020D01*
X195725914Y-120767020D01*
X195916390Y-120814639D01*
X196011628Y-120909877D01*
X196059247Y-121005115D01*
X196059247Y-121195592D01*
X196011628Y-121290830D01*
X195916390Y-121386068D01*
X195725914Y-121433687D01*
X195392581Y-121433687D01*
X195202105Y-121386068D01*
X195106867Y-121290830D01*
X195059247Y-121195592D01*
X196059247Y-119862258D02*
X196059247Y-120338449D01*
X195059247Y-120338449D01*
X195535438Y-119195592D02*
X195583057Y-119052734D01*
X195630676Y-119005115D01*
X195725914Y-118957496D01*
X195868771Y-118957496D01*
X195964009Y-119005115D01*
X196011628Y-119052734D01*
X196059247Y-119147973D01*
X196059247Y-119528925D01*
X195059247Y-119528925D01*
X195059247Y-119195592D01*
X195106867Y-119100353D01*
X195154486Y-119052734D01*
X195249724Y-119005115D01*
X195344962Y-119005115D01*
X195440200Y-119052734D01*
X195487819Y-119100353D01*
X195535438Y-119195592D01*
X195535438Y-119528925D01*
X195059247Y-118528925D02*
X195868771Y-118528925D01*
X195964009Y-118481306D01*
X196011628Y-118433687D01*
X196059247Y-118338449D01*
X196059247Y-118147973D01*
X196011628Y-118052734D01*
X195964009Y-118005115D01*
X195868771Y-117957496D01*
X195059247Y-117957496D01*
X196011628Y-117528925D02*
X196059247Y-117386068D01*
X196059247Y-117147973D01*
X196011628Y-117052734D01*
X195964009Y-117005115D01*
X195868771Y-116957496D01*
X195773533Y-116957496D01*
X195678295Y-117005115D01*
X195630676Y-117052734D01*
X195583057Y-117147973D01*
X195535438Y-117338449D01*
X195487819Y-117433687D01*
X195440200Y-117481306D01*
X195344962Y-117528925D01*
X195249724Y-117528925D01*
X195154486Y-117481306D01*
X195106867Y-117433687D01*
X195059247Y-117338449D01*
X195059247Y-117100353D01*
X195106867Y-116957496D01*
X196059247Y-116005115D02*
X196059247Y-116576544D01*
X196059247Y-116290830D02*
X195059247Y-116290830D01*
X195202105Y-116386068D01*
X195297343Y-116481306D01*
X195344962Y-116576544D01*
X102016666Y-136902380D02*
X102350000Y-137902380D01*
X102683333Y-136902380D01*
X103588095Y-137807142D02*
X103540476Y-137854761D01*
X103397619Y-137902380D01*
X103302380Y-137902380D01*
X103159523Y-137854761D01*
X103064285Y-137759523D01*
X103016666Y-137664285D01*
X102969047Y-137473809D01*
X102969047Y-137330952D01*
X103016666Y-137140476D01*
X103064285Y-137045238D01*
X103159523Y-136950000D01*
X103302380Y-136902380D01*
X103397619Y-136902380D01*
X103540476Y-136950000D01*
X103588095Y-136997619D01*
X104588095Y-137807142D02*
X104540476Y-137854761D01*
X104397619Y-137902380D01*
X104302380Y-137902380D01*
X104159523Y-137854761D01*
X104064285Y-137759523D01*
X104016666Y-137664285D01*
X103969047Y-137473809D01*
X103969047Y-137330952D01*
X104016666Y-137140476D01*
X104064285Y-137045238D01*
X104159523Y-136950000D01*
X104302380Y-136902380D01*
X104397619Y-136902380D01*
X104540476Y-136950000D01*
X104588095Y-136997619D01*
X161462934Y-124804580D02*
X161462934Y-125614104D01*
X161510553Y-125709342D01*
X161558172Y-125756961D01*
X161653410Y-125804580D01*
X161843886Y-125804580D01*
X161939124Y-125756961D01*
X161986743Y-125709342D01*
X162034362Y-125614104D01*
X162034362Y-124804580D01*
X163034362Y-125804580D02*
X162462934Y-125804580D01*
X162748648Y-125804580D02*
X162748648Y-124804580D01*
X162653410Y-124947438D01*
X162558172Y-125042676D01*
X162462934Y-125090295D01*
X163415315Y-124899819D02*
X163462934Y-124852200D01*
X163558172Y-124804580D01*
X163796267Y-124804580D01*
X163891505Y-124852200D01*
X163939124Y-124899819D01*
X163986743Y-124995057D01*
X163986743Y-125090295D01*
X163939124Y-125233152D01*
X163367696Y-125804580D01*
X163986743Y-125804580D01*
X164320077Y-124804580D02*
X164986743Y-124804580D01*
X164558172Y-125804580D01*
X160391505Y-135364580D02*
X161058172Y-135364580D01*
X160629600Y-136364580D01*
X161867696Y-135697914D02*
X161867696Y-136364580D01*
X161629600Y-135316961D02*
X161391505Y-136031247D01*
X162010553Y-136031247D01*
X162391505Y-136364580D02*
X162391505Y-135364580D01*
X162391505Y-135840771D02*
X162962934Y-135840771D01*
X162962934Y-136364580D02*
X162962934Y-135364580D01*
X164010553Y-136269342D02*
X163962934Y-136316961D01*
X163820077Y-136364580D01*
X163724839Y-136364580D01*
X163581981Y-136316961D01*
X163486743Y-136221723D01*
X163439124Y-136126485D01*
X163391505Y-135936009D01*
X163391505Y-135793152D01*
X163439124Y-135602676D01*
X163486743Y-135507438D01*
X163581981Y-135412200D01*
X163724839Y-135364580D01*
X163820077Y-135364580D01*
X163962934Y-135412200D01*
X164010553Y-135459819D01*
X164629600Y-135364580D02*
X164724839Y-135364580D01*
X164820077Y-135412200D01*
X164867696Y-135459819D01*
X164915315Y-135555057D01*
X164962934Y-135745533D01*
X164962934Y-135983628D01*
X164915315Y-136174104D01*
X164867696Y-136269342D01*
X164820077Y-136316961D01*
X164724839Y-136364580D01*
X164629600Y-136364580D01*
X164534362Y-136316961D01*
X164486743Y-136269342D01*
X164439124Y-136174104D01*
X164391505Y-135983628D01*
X164391505Y-135745533D01*
X164439124Y-135555057D01*
X164486743Y-135459819D01*
X164534362Y-135412200D01*
X164629600Y-135364580D01*
X165534362Y-135793152D02*
X165439124Y-135745533D01*
X165391505Y-135697914D01*
X165343886Y-135602676D01*
X165343886Y-135555057D01*
X165391505Y-135459819D01*
X165439124Y-135412200D01*
X165534362Y-135364580D01*
X165724839Y-135364580D01*
X165820077Y-135412200D01*
X165867696Y-135459819D01*
X165915315Y-135555057D01*
X165915315Y-135602676D01*
X165867696Y-135697914D01*
X165820077Y-135745533D01*
X165724839Y-135793152D01*
X165534362Y-135793152D01*
X165439124Y-135840771D01*
X165391505Y-135888390D01*
X165343886Y-135983628D01*
X165343886Y-136174104D01*
X165391505Y-136269342D01*
X165439124Y-136316961D01*
X165534362Y-136364580D01*
X165724839Y-136364580D01*
X165820077Y-136316961D01*
X165867696Y-136269342D01*
X165915315Y-136174104D01*
X165915315Y-135983628D01*
X165867696Y-135888390D01*
X165820077Y-135840771D01*
X165724839Y-135793152D01*
X146171875Y-47828380D02*
X146171875Y-48637904D01*
X146219494Y-48733142D01*
X146267113Y-48780761D01*
X146362351Y-48828380D01*
X146552827Y-48828380D01*
X146648065Y-48780761D01*
X146695684Y-48733142D01*
X146743303Y-48637904D01*
X146743303Y-47828380D01*
X147743303Y-48828380D02*
X147171875Y-48828380D01*
X147457589Y-48828380D02*
X147457589Y-47828380D01*
X147362351Y-47971238D01*
X147267113Y-48066476D01*
X147171875Y-48114095D01*
X148362351Y-47828380D02*
X148457589Y-47828380D01*
X148552827Y-47876000D01*
X148600446Y-47923619D01*
X148648065Y-48018857D01*
X148695684Y-48209333D01*
X148695684Y-48447428D01*
X148648065Y-48637904D01*
X148600446Y-48733142D01*
X148552827Y-48780761D01*
X148457589Y-48828380D01*
X148362351Y-48828380D01*
X148267113Y-48780761D01*
X148219494Y-48733142D01*
X148171875Y-48637904D01*
X148124256Y-48447428D01*
X148124256Y-48209333D01*
X148171875Y-48018857D01*
X148219494Y-47923619D01*
X148267113Y-47876000D01*
X148362351Y-47828380D01*
X149029018Y-47828380D02*
X149648065Y-47828380D01*
X149314732Y-48209333D01*
X149457589Y-48209333D01*
X149552827Y-48256952D01*
X149600446Y-48304571D01*
X149648065Y-48399809D01*
X149648065Y-48637904D01*
X149600446Y-48733142D01*
X149552827Y-48780761D01*
X149457589Y-48828380D01*
X149171875Y-48828380D01*
X149076637Y-48780761D01*
X149029018Y-48733142D01*
X144719494Y-58621780D02*
X145386161Y-58621780D01*
X144957589Y-59621780D01*
X146195684Y-58955114D02*
X146195684Y-59621780D01*
X145957589Y-58574161D02*
X145719494Y-59288447D01*
X146338541Y-59288447D01*
X146719494Y-59621780D02*
X146719494Y-58621780D01*
X146719494Y-59097971D02*
X147290922Y-59097971D01*
X147290922Y-59621780D02*
X147290922Y-58621780D01*
X148338541Y-59526542D02*
X148290922Y-59574161D01*
X148148065Y-59621780D01*
X148052827Y-59621780D01*
X147909970Y-59574161D01*
X147814732Y-59478923D01*
X147767113Y-59383685D01*
X147719494Y-59193209D01*
X147719494Y-59050352D01*
X147767113Y-58859876D01*
X147814732Y-58764638D01*
X147909970Y-58669400D01*
X148052827Y-58621780D01*
X148148065Y-58621780D01*
X148290922Y-58669400D01*
X148338541Y-58717019D01*
X148624256Y-58621780D02*
X149195684Y-58621780D01*
X148909970Y-59621780D02*
X148909970Y-58621780D01*
X149433780Y-58621780D02*
X150052827Y-58621780D01*
X149719494Y-59002733D01*
X149862351Y-59002733D01*
X149957589Y-59050352D01*
X150005208Y-59097971D01*
X150052827Y-59193209D01*
X150052827Y-59431304D01*
X150005208Y-59526542D01*
X149957589Y-59574161D01*
X149862351Y-59621780D01*
X149576637Y-59621780D01*
X149481399Y-59574161D01*
X149433780Y-59526542D01*
X150433780Y-58717019D02*
X150481399Y-58669400D01*
X150576637Y-58621780D01*
X150814732Y-58621780D01*
X150909970Y-58669400D01*
X150957589Y-58717019D01*
X151005208Y-58812257D01*
X151005208Y-58907495D01*
X150957589Y-59050352D01*
X150386161Y-59621780D01*
X151005208Y-59621780D01*
X175721325Y-79236980D02*
X175721325Y-80046504D01*
X175768944Y-80141742D01*
X175816563Y-80189361D01*
X175911801Y-80236980D01*
X176102277Y-80236980D01*
X176197515Y-80189361D01*
X176245134Y-80141742D01*
X176292753Y-80046504D01*
X176292753Y-79236980D01*
X177292753Y-80236980D02*
X176721325Y-80236980D01*
X177007039Y-80236980D02*
X177007039Y-79236980D01*
X176911801Y-79379838D01*
X176816563Y-79475076D01*
X176721325Y-79522695D01*
X178245134Y-80236980D02*
X177673706Y-80236980D01*
X177959420Y-80236980D02*
X177959420Y-79236980D01*
X177864182Y-79379838D01*
X177768944Y-79475076D01*
X177673706Y-79522695D01*
X179149896Y-79236980D02*
X178673706Y-79236980D01*
X178626087Y-79713171D01*
X178673706Y-79665552D01*
X178768944Y-79617933D01*
X179007039Y-79617933D01*
X179102277Y-79665552D01*
X179149896Y-79713171D01*
X179197515Y-79808409D01*
X179197515Y-80046504D01*
X179149896Y-80141742D01*
X179102277Y-80189361D01*
X179007039Y-80236980D01*
X178768944Y-80236980D01*
X178673706Y-80189361D01*
X178626087Y-80141742D01*
X174649896Y-89796980D02*
X175316563Y-89796980D01*
X174887991Y-90796980D01*
X176126087Y-90130314D02*
X176126087Y-90796980D01*
X175887991Y-89749361D02*
X175649896Y-90463647D01*
X176268944Y-90463647D01*
X176649896Y-90796980D02*
X176649896Y-89796980D01*
X176649896Y-90273171D02*
X177221325Y-90273171D01*
X177221325Y-90796980D02*
X177221325Y-89796980D01*
X178268944Y-90701742D02*
X178221325Y-90749361D01*
X178078468Y-90796980D01*
X177983230Y-90796980D01*
X177840372Y-90749361D01*
X177745134Y-90654123D01*
X177697515Y-90558885D01*
X177649896Y-90368409D01*
X177649896Y-90225552D01*
X177697515Y-90035076D01*
X177745134Y-89939838D01*
X177840372Y-89844600D01*
X177983230Y-89796980D01*
X178078468Y-89796980D01*
X178221325Y-89844600D01*
X178268944Y-89892219D01*
X178602277Y-89796980D02*
X179268944Y-89796980D01*
X178840372Y-90796980D01*
X180078468Y-90130314D02*
X180078468Y-90796980D01*
X179840372Y-89749361D02*
X179602277Y-90463647D01*
X180221325Y-90463647D01*
X175721325Y-124893580D02*
X175721325Y-125703104D01*
X175768944Y-125798342D01*
X175816563Y-125845961D01*
X175911801Y-125893580D01*
X176102277Y-125893580D01*
X176197515Y-125845961D01*
X176245134Y-125798342D01*
X176292753Y-125703104D01*
X176292753Y-124893580D01*
X177292753Y-125893580D02*
X176721325Y-125893580D01*
X177007039Y-125893580D02*
X177007039Y-124893580D01*
X176911801Y-125036438D01*
X176816563Y-125131676D01*
X176721325Y-125179295D01*
X177673706Y-124988819D02*
X177721325Y-124941200D01*
X177816563Y-124893580D01*
X178054658Y-124893580D01*
X178149896Y-124941200D01*
X178197515Y-124988819D01*
X178245134Y-125084057D01*
X178245134Y-125179295D01*
X178197515Y-125322152D01*
X177626087Y-125893580D01*
X178245134Y-125893580D01*
X178816563Y-125322152D02*
X178721325Y-125274533D01*
X178673706Y-125226914D01*
X178626087Y-125131676D01*
X178626087Y-125084057D01*
X178673706Y-124988819D01*
X178721325Y-124941200D01*
X178816563Y-124893580D01*
X179007039Y-124893580D01*
X179102277Y-124941200D01*
X179149896Y-124988819D01*
X179197515Y-125084057D01*
X179197515Y-125131676D01*
X179149896Y-125226914D01*
X179102277Y-125274533D01*
X179007039Y-125322152D01*
X178816563Y-125322152D01*
X178721325Y-125369771D01*
X178673706Y-125417390D01*
X178626087Y-125512628D01*
X178626087Y-125703104D01*
X178673706Y-125798342D01*
X178721325Y-125845961D01*
X178816563Y-125893580D01*
X179007039Y-125893580D01*
X179102277Y-125845961D01*
X179149896Y-125798342D01*
X179197515Y-125703104D01*
X179197515Y-125512628D01*
X179149896Y-125417390D01*
X179102277Y-125369771D01*
X179007039Y-125322152D01*
X174173706Y-139593580D02*
X174840372Y-139593580D01*
X174411801Y-140593580D01*
X175649896Y-139926914D02*
X175649896Y-140593580D01*
X175411801Y-139545961D02*
X175173706Y-140260247D01*
X175792753Y-140260247D01*
X176173706Y-140593580D02*
X176173706Y-139593580D01*
X176173706Y-140069771D02*
X176745134Y-140069771D01*
X176745134Y-140593580D02*
X176745134Y-139593580D01*
X177792753Y-140498342D02*
X177745134Y-140545961D01*
X177602277Y-140593580D01*
X177507039Y-140593580D01*
X177364182Y-140545961D01*
X177268944Y-140450723D01*
X177221325Y-140355485D01*
X177173706Y-140165009D01*
X177173706Y-140022152D01*
X177221325Y-139831676D01*
X177268944Y-139736438D01*
X177364182Y-139641200D01*
X177507039Y-139593580D01*
X177602277Y-139593580D01*
X177745134Y-139641200D01*
X177792753Y-139688819D01*
X178126087Y-139593580D02*
X178745134Y-139593580D01*
X178411801Y-139974533D01*
X178554658Y-139974533D01*
X178649896Y-140022152D01*
X178697515Y-140069771D01*
X178745134Y-140165009D01*
X178745134Y-140403104D01*
X178697515Y-140498342D01*
X178649896Y-140545961D01*
X178554658Y-140593580D01*
X178268944Y-140593580D01*
X178173706Y-140545961D01*
X178126087Y-140498342D01*
X179078468Y-139593580D02*
X179745134Y-139593580D01*
X179316563Y-140593580D01*
X180030849Y-139593580D02*
X180697515Y-139593580D01*
X180268944Y-140593580D01*
X112272125Y-116511580D02*
X112272125Y-117321104D01*
X112319744Y-117416342D01*
X112367363Y-117463961D01*
X112462601Y-117511580D01*
X112653077Y-117511580D01*
X112748315Y-117463961D01*
X112795934Y-117416342D01*
X112843553Y-117321104D01*
X112843553Y-116511580D01*
X113843553Y-117511580D02*
X113272125Y-117511580D01*
X113557839Y-117511580D02*
X113557839Y-116511580D01*
X113462601Y-116654438D01*
X113367363Y-116749676D01*
X113272125Y-116797295D01*
X114224506Y-116606819D02*
X114272125Y-116559200D01*
X114367363Y-116511580D01*
X114605458Y-116511580D01*
X114700696Y-116559200D01*
X114748315Y-116606819D01*
X114795934Y-116702057D01*
X114795934Y-116797295D01*
X114748315Y-116940152D01*
X114176887Y-117511580D01*
X114795934Y-117511580D01*
X115748315Y-117511580D02*
X115176887Y-117511580D01*
X115462601Y-117511580D02*
X115462601Y-116511580D01*
X115367363Y-116654438D01*
X115272125Y-116749676D01*
X115176887Y-116797295D01*
X110724506Y-131211580D02*
X111391172Y-131211580D01*
X110962601Y-132211580D01*
X112200696Y-131544914D02*
X112200696Y-132211580D01*
X111962601Y-131163961D02*
X111724506Y-131878247D01*
X112343553Y-131878247D01*
X112724506Y-132211580D02*
X112724506Y-131211580D01*
X112724506Y-131687771D02*
X113295934Y-131687771D01*
X113295934Y-132211580D02*
X113295934Y-131211580D01*
X114343553Y-132116342D02*
X114295934Y-132163961D01*
X114153077Y-132211580D01*
X114057839Y-132211580D01*
X113914982Y-132163961D01*
X113819744Y-132068723D01*
X113772125Y-131973485D01*
X113724506Y-131783009D01*
X113724506Y-131640152D01*
X113772125Y-131449676D01*
X113819744Y-131354438D01*
X113914982Y-131259200D01*
X114057839Y-131211580D01*
X114153077Y-131211580D01*
X114295934Y-131259200D01*
X114343553Y-131306819D01*
X114676887Y-131211580D02*
X115295934Y-131211580D01*
X114962601Y-131592533D01*
X115105458Y-131592533D01*
X115200696Y-131640152D01*
X115248315Y-131687771D01*
X115295934Y-131783009D01*
X115295934Y-132021104D01*
X115248315Y-132116342D01*
X115200696Y-132163961D01*
X115105458Y-132211580D01*
X114819744Y-132211580D01*
X114724506Y-132163961D01*
X114676887Y-132116342D01*
X115629268Y-131211580D02*
X116295934Y-131211580D01*
X115867363Y-132211580D01*
X116581649Y-131211580D02*
X117248315Y-131211580D01*
X116819744Y-132211580D01*
X161412134Y-95327780D02*
X161412134Y-96137304D01*
X161459753Y-96232542D01*
X161507372Y-96280161D01*
X161602610Y-96327780D01*
X161793086Y-96327780D01*
X161888324Y-96280161D01*
X161935943Y-96232542D01*
X161983562Y-96137304D01*
X161983562Y-95327780D01*
X162983562Y-96327780D02*
X162412134Y-96327780D01*
X162697848Y-96327780D02*
X162697848Y-95327780D01*
X162602610Y-95470638D01*
X162507372Y-95565876D01*
X162412134Y-95613495D01*
X163935943Y-96327780D02*
X163364515Y-96327780D01*
X163650229Y-96327780D02*
X163650229Y-95327780D01*
X163554991Y-95470638D01*
X163459753Y-95565876D01*
X163364515Y-95613495D01*
X164412134Y-96327780D02*
X164602610Y-96327780D01*
X164697848Y-96280161D01*
X164745467Y-96232542D01*
X164840705Y-96089685D01*
X164888324Y-95899209D01*
X164888324Y-95518257D01*
X164840705Y-95423019D01*
X164793086Y-95375400D01*
X164697848Y-95327780D01*
X164507372Y-95327780D01*
X164412134Y-95375400D01*
X164364515Y-95423019D01*
X164316896Y-95518257D01*
X164316896Y-95756352D01*
X164364515Y-95851590D01*
X164412134Y-95899209D01*
X164507372Y-95946828D01*
X164697848Y-95946828D01*
X164793086Y-95899209D01*
X164840705Y-95851590D01*
X164888324Y-95756352D01*
X160340705Y-105887780D02*
X161007372Y-105887780D01*
X160578800Y-106887780D01*
X161816896Y-106221114D02*
X161816896Y-106887780D01*
X161578800Y-105840161D02*
X161340705Y-106554447D01*
X161959753Y-106554447D01*
X162340705Y-106887780D02*
X162340705Y-105887780D01*
X162340705Y-106363971D02*
X162912134Y-106363971D01*
X162912134Y-106887780D02*
X162912134Y-105887780D01*
X163959753Y-106792542D02*
X163912134Y-106840161D01*
X163769277Y-106887780D01*
X163674039Y-106887780D01*
X163531181Y-106840161D01*
X163435943Y-106744923D01*
X163388324Y-106649685D01*
X163340705Y-106459209D01*
X163340705Y-106316352D01*
X163388324Y-106125876D01*
X163435943Y-106030638D01*
X163531181Y-105935400D01*
X163674039Y-105887780D01*
X163769277Y-105887780D01*
X163912134Y-105935400D01*
X163959753Y-105983019D01*
X164293086Y-105887780D02*
X164959753Y-105887780D01*
X164531181Y-106887780D01*
X165769277Y-106221114D02*
X165769277Y-106887780D01*
X165531181Y-105840161D02*
X165293086Y-106554447D01*
X165912134Y-106554447D01*
X146230295Y-95416780D02*
X146230295Y-96226304D01*
X146277914Y-96321542D01*
X146325533Y-96369161D01*
X146420771Y-96416780D01*
X146611247Y-96416780D01*
X146706485Y-96369161D01*
X146754104Y-96321542D01*
X146801723Y-96226304D01*
X146801723Y-95416780D01*
X147801723Y-96416780D02*
X147230295Y-96416780D01*
X147516009Y-96416780D02*
X147516009Y-95416780D01*
X147420771Y-95559638D01*
X147325533Y-95654876D01*
X147230295Y-95702495D01*
X148754104Y-96416780D02*
X148182676Y-96416780D01*
X148468390Y-96416780D02*
X148468390Y-95416780D01*
X148373152Y-95559638D01*
X148277914Y-95654876D01*
X148182676Y-95702495D01*
X149325533Y-95845352D02*
X149230295Y-95797733D01*
X149182676Y-95750114D01*
X149135057Y-95654876D01*
X149135057Y-95607257D01*
X149182676Y-95512019D01*
X149230295Y-95464400D01*
X149325533Y-95416780D01*
X149516009Y-95416780D01*
X149611247Y-95464400D01*
X149658866Y-95512019D01*
X149706485Y-95607257D01*
X149706485Y-95654876D01*
X149658866Y-95750114D01*
X149611247Y-95797733D01*
X149516009Y-95845352D01*
X149325533Y-95845352D01*
X149230295Y-95892971D01*
X149182676Y-95940590D01*
X149135057Y-96035828D01*
X149135057Y-96226304D01*
X149182676Y-96321542D01*
X149230295Y-96369161D01*
X149325533Y-96416780D01*
X149516009Y-96416780D01*
X149611247Y-96369161D01*
X149658866Y-96321542D01*
X149706485Y-96226304D01*
X149706485Y-96035828D01*
X149658866Y-95940590D01*
X149611247Y-95892971D01*
X149516009Y-95845352D01*
X145158866Y-105976780D02*
X145825533Y-105976780D01*
X145396961Y-106976780D01*
X146635057Y-106310114D02*
X146635057Y-106976780D01*
X146396961Y-105929161D02*
X146158866Y-106643447D01*
X146777914Y-106643447D01*
X147158866Y-106976780D02*
X147158866Y-105976780D01*
X147158866Y-106452971D02*
X147730295Y-106452971D01*
X147730295Y-106976780D02*
X147730295Y-105976780D01*
X148777914Y-106881542D02*
X148730295Y-106929161D01*
X148587438Y-106976780D01*
X148492200Y-106976780D01*
X148349342Y-106929161D01*
X148254104Y-106833923D01*
X148206485Y-106738685D01*
X148158866Y-106548209D01*
X148158866Y-106405352D01*
X148206485Y-106214876D01*
X148254104Y-106119638D01*
X148349342Y-106024400D01*
X148492200Y-105976780D01*
X148587438Y-105976780D01*
X148730295Y-106024400D01*
X148777914Y-106072019D01*
X149111247Y-105976780D02*
X149777914Y-105976780D01*
X149349342Y-106976780D01*
X150587438Y-106310114D02*
X150587438Y-106976780D01*
X150349342Y-105929161D02*
X150111247Y-106643447D01*
X150730295Y-106643447D01*
X112272125Y-100759080D02*
X112272125Y-101568604D01*
X112319744Y-101663842D01*
X112367363Y-101711461D01*
X112462601Y-101759080D01*
X112653077Y-101759080D01*
X112748315Y-101711461D01*
X112795934Y-101663842D01*
X112843553Y-101568604D01*
X112843553Y-100759080D01*
X113843553Y-101759080D02*
X113272125Y-101759080D01*
X113557839Y-101759080D02*
X113557839Y-100759080D01*
X113462601Y-100901938D01*
X113367363Y-100997176D01*
X113272125Y-101044795D01*
X114795934Y-101759080D02*
X114224506Y-101759080D01*
X114510220Y-101759080D02*
X114510220Y-100759080D01*
X114414982Y-100901938D01*
X114319744Y-100997176D01*
X114224506Y-101044795D01*
X115653077Y-100759080D02*
X115462601Y-100759080D01*
X115367363Y-100806700D01*
X115319744Y-100854319D01*
X115224506Y-100997176D01*
X115176887Y-101187652D01*
X115176887Y-101568604D01*
X115224506Y-101663842D01*
X115272125Y-101711461D01*
X115367363Y-101759080D01*
X115557839Y-101759080D01*
X115653077Y-101711461D01*
X115700696Y-101663842D01*
X115748315Y-101568604D01*
X115748315Y-101330509D01*
X115700696Y-101235271D01*
X115653077Y-101187652D01*
X115557839Y-101140033D01*
X115367363Y-101140033D01*
X115272125Y-101187652D01*
X115224506Y-101235271D01*
X115176887Y-101330509D01*
X110724506Y-112559080D02*
X111391172Y-112559080D01*
X110962601Y-113559080D01*
X112200696Y-112892414D02*
X112200696Y-113559080D01*
X111962601Y-112511461D02*
X111724506Y-113225747D01*
X112343553Y-113225747D01*
X112724506Y-113559080D02*
X112724506Y-112559080D01*
X112724506Y-113035271D02*
X113295934Y-113035271D01*
X113295934Y-113559080D02*
X113295934Y-112559080D01*
X114343553Y-113463842D02*
X114295934Y-113511461D01*
X114153077Y-113559080D01*
X114057839Y-113559080D01*
X113914982Y-113511461D01*
X113819744Y-113416223D01*
X113772125Y-113320985D01*
X113724506Y-113130509D01*
X113724506Y-112987652D01*
X113772125Y-112797176D01*
X113819744Y-112701938D01*
X113914982Y-112606700D01*
X114057839Y-112559080D01*
X114153077Y-112559080D01*
X114295934Y-112606700D01*
X114343553Y-112654319D01*
X115295934Y-113559080D02*
X114724506Y-113559080D01*
X115010220Y-113559080D02*
X115010220Y-112559080D01*
X114914982Y-112701938D01*
X114819744Y-112797176D01*
X114724506Y-112844795D01*
X115772125Y-113559080D02*
X115962601Y-113559080D01*
X116057839Y-113511461D01*
X116105458Y-113463842D01*
X116200696Y-113320985D01*
X116248315Y-113130509D01*
X116248315Y-112749557D01*
X116200696Y-112654319D01*
X116153077Y-112606700D01*
X116057839Y-112559080D01*
X115867363Y-112559080D01*
X115772125Y-112606700D01*
X115724506Y-112654319D01*
X115676887Y-112749557D01*
X115676887Y-112987652D01*
X115724506Y-113082890D01*
X115772125Y-113130509D01*
X115867363Y-113178128D01*
X116057839Y-113178128D01*
X116153077Y-113130509D01*
X116200696Y-113082890D01*
X116248315Y-112987652D01*
X116581649Y-112559080D02*
X117200696Y-112559080D01*
X116867363Y-112940033D01*
X117010220Y-112940033D01*
X117105458Y-112987652D01*
X117153077Y-113035271D01*
X117200696Y-113130509D01*
X117200696Y-113368604D01*
X117153077Y-113463842D01*
X117105458Y-113511461D01*
X117010220Y-113559080D01*
X116724506Y-113559080D01*
X116629268Y-113511461D01*
X116581649Y-113463842D01*
X146281095Y-110455454D02*
X146281095Y-111264978D01*
X146328714Y-111360216D01*
X146376333Y-111407835D01*
X146471571Y-111455454D01*
X146662047Y-111455454D01*
X146757285Y-111407835D01*
X146804904Y-111360216D01*
X146852523Y-111264978D01*
X146852523Y-110455454D01*
X147852523Y-111455454D02*
X147281095Y-111455454D01*
X147566809Y-111455454D02*
X147566809Y-110455454D01*
X147471571Y-110598312D01*
X147376333Y-110693550D01*
X147281095Y-110741169D01*
X148233476Y-110550693D02*
X148281095Y-110503074D01*
X148376333Y-110455454D01*
X148614428Y-110455454D01*
X148709666Y-110503074D01*
X148757285Y-110550693D01*
X148804904Y-110645931D01*
X148804904Y-110741169D01*
X148757285Y-110884026D01*
X148185857Y-111455454D01*
X148804904Y-111455454D01*
X149138238Y-110455454D02*
X149757285Y-110455454D01*
X149423952Y-110836407D01*
X149566809Y-110836407D01*
X149662047Y-110884026D01*
X149709666Y-110931645D01*
X149757285Y-111026883D01*
X149757285Y-111264978D01*
X149709666Y-111360216D01*
X149662047Y-111407835D01*
X149566809Y-111455454D01*
X149281095Y-111455454D01*
X149185857Y-111407835D01*
X149138238Y-111360216D01*
X144828714Y-121015454D02*
X145495381Y-121015454D01*
X145066809Y-122015454D01*
X146304904Y-121348788D02*
X146304904Y-122015454D01*
X146066809Y-120967835D02*
X145828714Y-121682121D01*
X146447761Y-121682121D01*
X146828714Y-122015454D02*
X146828714Y-121015454D01*
X146828714Y-121491645D02*
X147400142Y-121491645D01*
X147400142Y-122015454D02*
X147400142Y-121015454D01*
X148447761Y-121920216D02*
X148400142Y-121967835D01*
X148257285Y-122015454D01*
X148162047Y-122015454D01*
X148019190Y-121967835D01*
X147923952Y-121872597D01*
X147876333Y-121777359D01*
X147828714Y-121586883D01*
X147828714Y-121444026D01*
X147876333Y-121253550D01*
X147923952Y-121158312D01*
X148019190Y-121063074D01*
X148162047Y-121015454D01*
X148257285Y-121015454D01*
X148400142Y-121063074D01*
X148447761Y-121110693D01*
X148733476Y-121015454D02*
X149304904Y-121015454D01*
X149019190Y-122015454D02*
X149019190Y-121015454D01*
X149543000Y-121015454D02*
X150209666Y-121015454D01*
X149781095Y-122015454D01*
X151019190Y-121348788D02*
X151019190Y-122015454D01*
X150781095Y-120967835D02*
X150543000Y-121682121D01*
X151162047Y-121682121D01*
X128731325Y-47677580D02*
X128731325Y-48487104D01*
X128778944Y-48582342D01*
X128826563Y-48629961D01*
X128921801Y-48677580D01*
X129112277Y-48677580D01*
X129207515Y-48629961D01*
X129255134Y-48582342D01*
X129302753Y-48487104D01*
X129302753Y-47677580D01*
X130302753Y-48677580D02*
X129731325Y-48677580D01*
X130017039Y-48677580D02*
X130017039Y-47677580D01*
X129921801Y-47820438D01*
X129826563Y-47915676D01*
X129731325Y-47963295D01*
X130921801Y-47677580D02*
X131017039Y-47677580D01*
X131112277Y-47725200D01*
X131159896Y-47772819D01*
X131207515Y-47868057D01*
X131255134Y-48058533D01*
X131255134Y-48296628D01*
X131207515Y-48487104D01*
X131159896Y-48582342D01*
X131112277Y-48629961D01*
X131017039Y-48677580D01*
X130921801Y-48677580D01*
X130826563Y-48629961D01*
X130778944Y-48582342D01*
X130731325Y-48487104D01*
X130683706Y-48296628D01*
X130683706Y-48058533D01*
X130731325Y-47868057D01*
X130778944Y-47772819D01*
X130826563Y-47725200D01*
X130921801Y-47677580D01*
X131636087Y-47772819D02*
X131683706Y-47725200D01*
X131778944Y-47677580D01*
X132017039Y-47677580D01*
X132112277Y-47725200D01*
X132159896Y-47772819D01*
X132207515Y-47868057D01*
X132207515Y-47963295D01*
X132159896Y-48106152D01*
X131588468Y-48677580D01*
X132207515Y-48677580D01*
X127183706Y-62377580D02*
X127850372Y-62377580D01*
X127421801Y-63377580D01*
X128659896Y-62710914D02*
X128659896Y-63377580D01*
X128421801Y-62329961D02*
X128183706Y-63044247D01*
X128802753Y-63044247D01*
X129183706Y-63377580D02*
X129183706Y-62377580D01*
X129183706Y-62853771D02*
X129755134Y-62853771D01*
X129755134Y-63377580D02*
X129755134Y-62377580D01*
X130802753Y-63282342D02*
X130755134Y-63329961D01*
X130612277Y-63377580D01*
X130517039Y-63377580D01*
X130374182Y-63329961D01*
X130278944Y-63234723D01*
X130231325Y-63139485D01*
X130183706Y-62949009D01*
X130183706Y-62806152D01*
X130231325Y-62615676D01*
X130278944Y-62520438D01*
X130374182Y-62425200D01*
X130517039Y-62377580D01*
X130612277Y-62377580D01*
X130755134Y-62425200D01*
X130802753Y-62472819D01*
X131183706Y-62472819D02*
X131231325Y-62425200D01*
X131326563Y-62377580D01*
X131564658Y-62377580D01*
X131659896Y-62425200D01*
X131707515Y-62472819D01*
X131755134Y-62568057D01*
X131755134Y-62663295D01*
X131707515Y-62806152D01*
X131136087Y-63377580D01*
X131755134Y-63377580D01*
X132612277Y-62710914D02*
X132612277Y-63377580D01*
X132374182Y-62329961D02*
X132136087Y-63044247D01*
X132755134Y-63044247D01*
X133564658Y-62710914D02*
X133564658Y-63377580D01*
X133326563Y-62329961D02*
X133088468Y-63044247D01*
X133707515Y-63044247D01*
X119306102Y-142849606D02*
X119639435Y-142849606D01*
X119782292Y-143373415D02*
X119306102Y-143373415D01*
X119306102Y-142373415D01*
X119782292Y-142373415D01*
X120210863Y-143373415D02*
X120210863Y-142373415D01*
X120782292Y-143373415D01*
X120782292Y-142373415D01*
X121210863Y-143087701D02*
X121687054Y-143087701D01*
X121115625Y-143373415D02*
X121448959Y-142373415D01*
X121782292Y-143373415D01*
X122448959Y-142849606D02*
X122591816Y-142897225D01*
X122639435Y-142944844D01*
X122687054Y-143040082D01*
X122687054Y-143182939D01*
X122639435Y-143278177D01*
X122591816Y-143325796D01*
X122496578Y-143373415D01*
X122115625Y-143373415D01*
X122115625Y-142373415D01*
X122448959Y-142373415D01*
X122544197Y-142421035D01*
X122591816Y-142468654D01*
X122639435Y-142563892D01*
X122639435Y-142659130D01*
X122591816Y-142754368D01*
X122544197Y-142801987D01*
X122448959Y-142849606D01*
X122115625Y-142849606D01*
X123591816Y-143373415D02*
X123115625Y-143373415D01*
X123115625Y-142373415D01*
X123925149Y-142849606D02*
X124258482Y-142849606D01*
X124401340Y-143373415D02*
X123925149Y-143373415D01*
X123925149Y-142373415D01*
X124401340Y-142373415D01*
X125163244Y-142849606D02*
X125306102Y-142897225D01*
X125353721Y-142944844D01*
X125401340Y-143040082D01*
X125401340Y-143182939D01*
X125353721Y-143278177D01*
X125306102Y-143325796D01*
X125210863Y-143373415D01*
X124829911Y-143373415D01*
X124829911Y-142373415D01*
X125163244Y-142373415D01*
X125258482Y-142421035D01*
X125306102Y-142468654D01*
X125353721Y-142563892D01*
X125353721Y-142659130D01*
X125306102Y-142754368D01*
X125258482Y-142801987D01*
X125163244Y-142849606D01*
X124829911Y-142849606D01*
X125829911Y-142373415D02*
X125829911Y-143182939D01*
X125877530Y-143278177D01*
X125925149Y-143325796D01*
X126020387Y-143373415D01*
X126210863Y-143373415D01*
X126306102Y-143325796D01*
X126353721Y-143278177D01*
X126401340Y-143182939D01*
X126401340Y-142373415D01*
X126829911Y-143325796D02*
X126972768Y-143373415D01*
X127210863Y-143373415D01*
X127306102Y-143325796D01*
X127353721Y-143278177D01*
X127401340Y-143182939D01*
X127401340Y-143087701D01*
X127353721Y-142992463D01*
X127306102Y-142944844D01*
X127210863Y-142897225D01*
X127020387Y-142849606D01*
X126925149Y-142801987D01*
X126877530Y-142754368D01*
X126829911Y-142659130D01*
X126829911Y-142563892D01*
X126877530Y-142468654D01*
X126925149Y-142421035D01*
X127020387Y-142373415D01*
X127258482Y-142373415D01*
X127401340Y-142421035D01*
X128353721Y-143373415D02*
X127782292Y-143373415D01*
X128068006Y-143373415D02*
X128068006Y-142373415D01*
X127972768Y-142516273D01*
X127877530Y-142611511D01*
X127782292Y-142659130D01*
X161462934Y-110366454D02*
X161462934Y-111175978D01*
X161510553Y-111271216D01*
X161558172Y-111318835D01*
X161653410Y-111366454D01*
X161843886Y-111366454D01*
X161939124Y-111318835D01*
X161986743Y-111271216D01*
X162034362Y-111175978D01*
X162034362Y-110366454D01*
X163034362Y-111366454D02*
X162462934Y-111366454D01*
X162748648Y-111366454D02*
X162748648Y-110366454D01*
X162653410Y-110509312D01*
X162558172Y-110604550D01*
X162462934Y-110652169D01*
X163415315Y-110461693D02*
X163462934Y-110414074D01*
X163558172Y-110366454D01*
X163796267Y-110366454D01*
X163891505Y-110414074D01*
X163939124Y-110461693D01*
X163986743Y-110556931D01*
X163986743Y-110652169D01*
X163939124Y-110795026D01*
X163367696Y-111366454D01*
X163986743Y-111366454D01*
X164843886Y-110699788D02*
X164843886Y-111366454D01*
X164605791Y-110318835D02*
X164367696Y-111033121D01*
X164986743Y-111033121D01*
X160391505Y-120926454D02*
X161058172Y-120926454D01*
X160629600Y-121926454D01*
X161867696Y-121259788D02*
X161867696Y-121926454D01*
X161629600Y-120878835D02*
X161391505Y-121593121D01*
X162010553Y-121593121D01*
X162391505Y-121926454D02*
X162391505Y-120926454D01*
X162391505Y-121402645D02*
X162962934Y-121402645D01*
X162962934Y-121926454D02*
X162962934Y-120926454D01*
X164010553Y-121831216D02*
X163962934Y-121878835D01*
X163820077Y-121926454D01*
X163724839Y-121926454D01*
X163581981Y-121878835D01*
X163486743Y-121783597D01*
X163439124Y-121688359D01*
X163391505Y-121497883D01*
X163391505Y-121355026D01*
X163439124Y-121164550D01*
X163486743Y-121069312D01*
X163581981Y-120974074D01*
X163724839Y-120926454D01*
X163820077Y-120926454D01*
X163962934Y-120974074D01*
X164010553Y-121021693D01*
X164629600Y-120926454D02*
X164724839Y-120926454D01*
X164820077Y-120974074D01*
X164867696Y-121021693D01*
X164915315Y-121116931D01*
X164962934Y-121307407D01*
X164962934Y-121545502D01*
X164915315Y-121735978D01*
X164867696Y-121831216D01*
X164820077Y-121878835D01*
X164724839Y-121926454D01*
X164629600Y-121926454D01*
X164534362Y-121878835D01*
X164486743Y-121831216D01*
X164439124Y-121735978D01*
X164391505Y-121545502D01*
X164391505Y-121307407D01*
X164439124Y-121116931D01*
X164486743Y-121021693D01*
X164534362Y-120974074D01*
X164629600Y-120926454D01*
X165581981Y-120926454D02*
X165677220Y-120926454D01*
X165772458Y-120974074D01*
X165820077Y-121021693D01*
X165867696Y-121116931D01*
X165915315Y-121307407D01*
X165915315Y-121545502D01*
X165867696Y-121735978D01*
X165820077Y-121831216D01*
X165772458Y-121878835D01*
X165677220Y-121926454D01*
X165581981Y-121926454D01*
X165486743Y-121878835D01*
X165439124Y-121831216D01*
X165391505Y-121735978D01*
X165343886Y-121545502D01*
X165343886Y-121307407D01*
X165391505Y-121116931D01*
X165439124Y-121021693D01*
X165486743Y-120974074D01*
X165581981Y-120926454D01*
X146171875Y-124893580D02*
X146171875Y-125703104D01*
X146219494Y-125798342D01*
X146267113Y-125845961D01*
X146362351Y-125893580D01*
X146552827Y-125893580D01*
X146648065Y-125845961D01*
X146695684Y-125798342D01*
X146743303Y-125703104D01*
X146743303Y-124893580D01*
X147743303Y-125893580D02*
X147171875Y-125893580D01*
X147457589Y-125893580D02*
X147457589Y-124893580D01*
X147362351Y-125036438D01*
X147267113Y-125131676D01*
X147171875Y-125179295D01*
X148124256Y-124988819D02*
X148171875Y-124941200D01*
X148267113Y-124893580D01*
X148505208Y-124893580D01*
X148600446Y-124941200D01*
X148648065Y-124988819D01*
X148695684Y-125084057D01*
X148695684Y-125179295D01*
X148648065Y-125322152D01*
X148076637Y-125893580D01*
X148695684Y-125893580D01*
X149552827Y-124893580D02*
X149362351Y-124893580D01*
X149267113Y-124941200D01*
X149219494Y-124988819D01*
X149124256Y-125131676D01*
X149076637Y-125322152D01*
X149076637Y-125703104D01*
X149124256Y-125798342D01*
X149171875Y-125845961D01*
X149267113Y-125893580D01*
X149457589Y-125893580D01*
X149552827Y-125845961D01*
X149600446Y-125798342D01*
X149648065Y-125703104D01*
X149648065Y-125465009D01*
X149600446Y-125369771D01*
X149552827Y-125322152D01*
X149457589Y-125274533D01*
X149267113Y-125274533D01*
X149171875Y-125322152D01*
X149124256Y-125369771D01*
X149076637Y-125465009D01*
X145100446Y-135453580D02*
X145767113Y-135453580D01*
X145338541Y-136453580D01*
X146576637Y-135786914D02*
X146576637Y-136453580D01*
X146338541Y-135405961D02*
X146100446Y-136120247D01*
X146719494Y-136120247D01*
X147100446Y-136453580D02*
X147100446Y-135453580D01*
X147100446Y-135929771D02*
X147671875Y-135929771D01*
X147671875Y-136453580D02*
X147671875Y-135453580D01*
X148719494Y-136358342D02*
X148671875Y-136405961D01*
X148529018Y-136453580D01*
X148433780Y-136453580D01*
X148290922Y-136405961D01*
X148195684Y-136310723D01*
X148148065Y-136215485D01*
X148100446Y-136025009D01*
X148100446Y-135882152D01*
X148148065Y-135691676D01*
X148195684Y-135596438D01*
X148290922Y-135501200D01*
X148433780Y-135453580D01*
X148529018Y-135453580D01*
X148671875Y-135501200D01*
X148719494Y-135548819D01*
X149338541Y-135453580D02*
X149433780Y-135453580D01*
X149529018Y-135501200D01*
X149576637Y-135548819D01*
X149624256Y-135644057D01*
X149671875Y-135834533D01*
X149671875Y-136072628D01*
X149624256Y-136263104D01*
X149576637Y-136358342D01*
X149529018Y-136405961D01*
X149433780Y-136453580D01*
X149338541Y-136453580D01*
X149243303Y-136405961D01*
X149195684Y-136358342D01*
X149148065Y-136263104D01*
X149100446Y-136072628D01*
X149100446Y-135834533D01*
X149148065Y-135644057D01*
X149195684Y-135548819D01*
X149243303Y-135501200D01*
X149338541Y-135453580D01*
X150290922Y-135453580D02*
X150386161Y-135453580D01*
X150481399Y-135501200D01*
X150529018Y-135548819D01*
X150576637Y-135644057D01*
X150624256Y-135834533D01*
X150624256Y-136072628D01*
X150576637Y-136263104D01*
X150529018Y-136358342D01*
X150481399Y-136405961D01*
X150386161Y-136453580D01*
X150290922Y-136453580D01*
X150195684Y-136405961D01*
X150148065Y-136358342D01*
X150100446Y-136263104D01*
X150052827Y-136072628D01*
X150052827Y-135834533D01*
X150100446Y-135644057D01*
X150148065Y-135548819D01*
X150195684Y-135501200D01*
X150290922Y-135453580D01*
X112272125Y-66354080D02*
X112272125Y-67163604D01*
X112319744Y-67258842D01*
X112367363Y-67306461D01*
X112462601Y-67354080D01*
X112653077Y-67354080D01*
X112748315Y-67306461D01*
X112795934Y-67258842D01*
X112843553Y-67163604D01*
X112843553Y-66354080D01*
X113843553Y-67354080D02*
X113272125Y-67354080D01*
X113557839Y-67354080D02*
X113557839Y-66354080D01*
X113462601Y-66496938D01*
X113367363Y-66592176D01*
X113272125Y-66639795D01*
X114462601Y-66354080D02*
X114557839Y-66354080D01*
X114653077Y-66401700D01*
X114700696Y-66449319D01*
X114748315Y-66544557D01*
X114795934Y-66735033D01*
X114795934Y-66973128D01*
X114748315Y-67163604D01*
X114700696Y-67258842D01*
X114653077Y-67306461D01*
X114557839Y-67354080D01*
X114462601Y-67354080D01*
X114367363Y-67306461D01*
X114319744Y-67258842D01*
X114272125Y-67163604D01*
X114224506Y-66973128D01*
X114224506Y-66735033D01*
X114272125Y-66544557D01*
X114319744Y-66449319D01*
X114367363Y-66401700D01*
X114462601Y-66354080D01*
X115653077Y-66354080D02*
X115462601Y-66354080D01*
X115367363Y-66401700D01*
X115319744Y-66449319D01*
X115224506Y-66592176D01*
X115176887Y-66782652D01*
X115176887Y-67163604D01*
X115224506Y-67258842D01*
X115272125Y-67306461D01*
X115367363Y-67354080D01*
X115557839Y-67354080D01*
X115653077Y-67306461D01*
X115700696Y-67258842D01*
X115748315Y-67163604D01*
X115748315Y-66925509D01*
X115700696Y-66830271D01*
X115653077Y-66782652D01*
X115557839Y-66735033D01*
X115367363Y-66735033D01*
X115272125Y-66782652D01*
X115224506Y-66830271D01*
X115176887Y-66925509D01*
X110707895Y-81316580D02*
X111374561Y-81316580D01*
X110945990Y-82316580D01*
X112184085Y-81649914D02*
X112184085Y-82316580D01*
X111945990Y-81268961D02*
X111707895Y-81983247D01*
X112326942Y-81983247D01*
X112707895Y-82316580D02*
X112707895Y-81316580D01*
X112707895Y-81792771D02*
X113279323Y-81792771D01*
X113279323Y-82316580D02*
X113279323Y-81316580D01*
X114326942Y-82221342D02*
X114279323Y-82268961D01*
X114136466Y-82316580D01*
X114041228Y-82316580D01*
X113898371Y-82268961D01*
X113803133Y-82173723D01*
X113755514Y-82078485D01*
X113707895Y-81888009D01*
X113707895Y-81745152D01*
X113755514Y-81554676D01*
X113803133Y-81459438D01*
X113898371Y-81364200D01*
X114041228Y-81316580D01*
X114136466Y-81316580D01*
X114279323Y-81364200D01*
X114326942Y-81411819D01*
X115184085Y-81316580D02*
X114993609Y-81316580D01*
X114898371Y-81364200D01*
X114850752Y-81411819D01*
X114755514Y-81554676D01*
X114707895Y-81745152D01*
X114707895Y-82126104D01*
X114755514Y-82221342D01*
X114803133Y-82268961D01*
X114898371Y-82316580D01*
X115088847Y-82316580D01*
X115184085Y-82268961D01*
X115231704Y-82221342D01*
X115279323Y-82126104D01*
X115279323Y-81888009D01*
X115231704Y-81792771D01*
X115184085Y-81745152D01*
X115088847Y-81697533D01*
X114898371Y-81697533D01*
X114803133Y-81745152D01*
X114755514Y-81792771D01*
X114707895Y-81888009D01*
X115850752Y-81745152D02*
X115755514Y-81697533D01*
X115707895Y-81649914D01*
X115660276Y-81554676D01*
X115660276Y-81507057D01*
X115707895Y-81411819D01*
X115755514Y-81364200D01*
X115850752Y-81316580D01*
X116041228Y-81316580D01*
X116136466Y-81364200D01*
X116184085Y-81411819D01*
X116231704Y-81507057D01*
X116231704Y-81554676D01*
X116184085Y-81649914D01*
X116136466Y-81697533D01*
X116041228Y-81745152D01*
X115850752Y-81745152D01*
X115755514Y-81792771D01*
X115707895Y-81840390D01*
X115660276Y-81935628D01*
X115660276Y-82126104D01*
X115707895Y-82221342D01*
X115755514Y-82268961D01*
X115850752Y-82316580D01*
X116041228Y-82316580D01*
X116136466Y-82268961D01*
X116184085Y-82221342D01*
X116231704Y-82126104D01*
X116231704Y-81935628D01*
X116184085Y-81840390D01*
X116136466Y-81792771D01*
X116041228Y-81745152D01*
X116803133Y-81745152D02*
X116707895Y-81697533D01*
X116660276Y-81649914D01*
X116612657Y-81554676D01*
X116612657Y-81507057D01*
X116660276Y-81411819D01*
X116707895Y-81364200D01*
X116803133Y-81316580D01*
X116993609Y-81316580D01*
X117088847Y-81364200D01*
X117136466Y-81411819D01*
X117184085Y-81507057D01*
X117184085Y-81554676D01*
X117136466Y-81649914D01*
X117088847Y-81697533D01*
X116993609Y-81745152D01*
X116803133Y-81745152D01*
X116707895Y-81792771D01*
X116660276Y-81840390D01*
X116612657Y-81935628D01*
X116612657Y-82126104D01*
X116660276Y-82221342D01*
X116707895Y-82268961D01*
X116803133Y-82316580D01*
X116993609Y-82316580D01*
X117088847Y-82268961D01*
X117136466Y-82221342D01*
X117184085Y-82126104D01*
X117184085Y-81935628D01*
X117136466Y-81840390D01*
X117088847Y-81792771D01*
X116993609Y-81745152D01*
X146281095Y-65160559D02*
X146281095Y-65970083D01*
X146328714Y-66065321D01*
X146376333Y-66112940D01*
X146471571Y-66160559D01*
X146662047Y-66160559D01*
X146757285Y-66112940D01*
X146804904Y-66065321D01*
X146852523Y-65970083D01*
X146852523Y-65160559D01*
X147852523Y-66160559D02*
X147281095Y-66160559D01*
X147566809Y-66160559D02*
X147566809Y-65160559D01*
X147471571Y-65303417D01*
X147376333Y-65398655D01*
X147281095Y-65446274D01*
X148471571Y-65160559D02*
X148566809Y-65160559D01*
X148662047Y-65208179D01*
X148709666Y-65255798D01*
X148757285Y-65351036D01*
X148804904Y-65541512D01*
X148804904Y-65779607D01*
X148757285Y-65970083D01*
X148709666Y-66065321D01*
X148662047Y-66112940D01*
X148566809Y-66160559D01*
X148471571Y-66160559D01*
X148376333Y-66112940D01*
X148328714Y-66065321D01*
X148281095Y-65970083D01*
X148233476Y-65779607D01*
X148233476Y-65541512D01*
X148281095Y-65351036D01*
X148328714Y-65255798D01*
X148376333Y-65208179D01*
X148471571Y-65160559D01*
X149376333Y-65589131D02*
X149281095Y-65541512D01*
X149233476Y-65493893D01*
X149185857Y-65398655D01*
X149185857Y-65351036D01*
X149233476Y-65255798D01*
X149281095Y-65208179D01*
X149376333Y-65160559D01*
X149566809Y-65160559D01*
X149662047Y-65208179D01*
X149709666Y-65255798D01*
X149757285Y-65351036D01*
X149757285Y-65398655D01*
X149709666Y-65493893D01*
X149662047Y-65541512D01*
X149566809Y-65589131D01*
X149376333Y-65589131D01*
X149281095Y-65636750D01*
X149233476Y-65684369D01*
X149185857Y-65779607D01*
X149185857Y-65970083D01*
X149233476Y-66065321D01*
X149281095Y-66112940D01*
X149376333Y-66160559D01*
X149566809Y-66160559D01*
X149662047Y-66112940D01*
X149709666Y-66065321D01*
X149757285Y-65970083D01*
X149757285Y-65779607D01*
X149709666Y-65684369D01*
X149662047Y-65636750D01*
X149566809Y-65589131D01*
X145209666Y-75720559D02*
X145876333Y-75720559D01*
X145447761Y-76720559D01*
X146685857Y-76053893D02*
X146685857Y-76720559D01*
X146447761Y-75672940D02*
X146209666Y-76387226D01*
X146828714Y-76387226D01*
X147209666Y-76720559D02*
X147209666Y-75720559D01*
X147209666Y-76196750D02*
X147781095Y-76196750D01*
X147781095Y-76720559D02*
X147781095Y-75720559D01*
X148828714Y-76625321D02*
X148781095Y-76672940D01*
X148638238Y-76720559D01*
X148543000Y-76720559D01*
X148400142Y-76672940D01*
X148304904Y-76577702D01*
X148257285Y-76482464D01*
X148209666Y-76291988D01*
X148209666Y-76149131D01*
X148257285Y-75958655D01*
X148304904Y-75863417D01*
X148400142Y-75768179D01*
X148543000Y-75720559D01*
X148638238Y-75720559D01*
X148781095Y-75768179D01*
X148828714Y-75815798D01*
X149162047Y-75720559D02*
X149781095Y-75720559D01*
X149447761Y-76101512D01*
X149590619Y-76101512D01*
X149685857Y-76149131D01*
X149733476Y-76196750D01*
X149781095Y-76291988D01*
X149781095Y-76530083D01*
X149733476Y-76625321D01*
X149685857Y-76672940D01*
X149590619Y-76720559D01*
X149304904Y-76720559D01*
X149209666Y-76672940D01*
X149162047Y-76625321D01*
X150162047Y-75815798D02*
X150209666Y-75768179D01*
X150304904Y-75720559D01*
X150543000Y-75720559D01*
X150638238Y-75768179D01*
X150685857Y-75815798D01*
X150733476Y-75911036D01*
X150733476Y-76006274D01*
X150685857Y-76149131D01*
X150114428Y-76720559D01*
X150733476Y-76720559D01*
X128782125Y-100759080D02*
X128782125Y-101568604D01*
X128829744Y-101663842D01*
X128877363Y-101711461D01*
X128972601Y-101759080D01*
X129163077Y-101759080D01*
X129258315Y-101711461D01*
X129305934Y-101663842D01*
X129353553Y-101568604D01*
X129353553Y-100759080D01*
X130353553Y-101759080D02*
X129782125Y-101759080D01*
X130067839Y-101759080D02*
X130067839Y-100759080D01*
X129972601Y-100901938D01*
X129877363Y-100997176D01*
X129782125Y-101044795D01*
X131305934Y-101759080D02*
X130734506Y-101759080D01*
X131020220Y-101759080D02*
X131020220Y-100759080D01*
X130924982Y-100901938D01*
X130829744Y-100997176D01*
X130734506Y-101044795D01*
X131639268Y-100759080D02*
X132305934Y-100759080D01*
X131877363Y-101759080D01*
X127234506Y-112559080D02*
X127901172Y-112559080D01*
X127472601Y-113559080D01*
X128710696Y-112892414D02*
X128710696Y-113559080D01*
X128472601Y-112511461D02*
X128234506Y-113225747D01*
X128853553Y-113225747D01*
X129234506Y-113559080D02*
X129234506Y-112559080D01*
X129234506Y-113035271D02*
X129805934Y-113035271D01*
X129805934Y-113559080D02*
X129805934Y-112559080D01*
X130853553Y-113463842D02*
X130805934Y-113511461D01*
X130663077Y-113559080D01*
X130567839Y-113559080D01*
X130424982Y-113511461D01*
X130329744Y-113416223D01*
X130282125Y-113320985D01*
X130234506Y-113130509D01*
X130234506Y-112987652D01*
X130282125Y-112797176D01*
X130329744Y-112701938D01*
X130424982Y-112606700D01*
X130567839Y-112559080D01*
X130663077Y-112559080D01*
X130805934Y-112606700D01*
X130853553Y-112654319D01*
X131805934Y-113559080D02*
X131234506Y-113559080D01*
X131520220Y-113559080D02*
X131520220Y-112559080D01*
X131424982Y-112701938D01*
X131329744Y-112797176D01*
X131234506Y-112844795D01*
X132282125Y-113559080D02*
X132472601Y-113559080D01*
X132567839Y-113511461D01*
X132615458Y-113463842D01*
X132710696Y-113320985D01*
X132758315Y-113130509D01*
X132758315Y-112749557D01*
X132710696Y-112654319D01*
X132663077Y-112606700D01*
X132567839Y-112559080D01*
X132377363Y-112559080D01*
X132282125Y-112606700D01*
X132234506Y-112654319D01*
X132186887Y-112749557D01*
X132186887Y-112987652D01*
X132234506Y-113082890D01*
X132282125Y-113130509D01*
X132377363Y-113178128D01*
X132567839Y-113178128D01*
X132663077Y-113130509D01*
X132710696Y-113082890D01*
X132758315Y-112987652D01*
X133091649Y-112559080D02*
X133710696Y-112559080D01*
X133377363Y-112940033D01*
X133520220Y-112940033D01*
X133615458Y-112987652D01*
X133663077Y-113035271D01*
X133710696Y-113130509D01*
X133710696Y-113368604D01*
X133663077Y-113463842D01*
X133615458Y-113511461D01*
X133520220Y-113559080D01*
X133234506Y-113559080D01*
X133139268Y-113511461D01*
X133091649Y-113463842D01*
X112221325Y-47677580D02*
X112221325Y-48487104D01*
X112268944Y-48582342D01*
X112316563Y-48629961D01*
X112411801Y-48677580D01*
X112602277Y-48677580D01*
X112697515Y-48629961D01*
X112745134Y-48582342D01*
X112792753Y-48487104D01*
X112792753Y-47677580D01*
X113792753Y-48677580D02*
X113221325Y-48677580D01*
X113507039Y-48677580D02*
X113507039Y-47677580D01*
X113411801Y-47820438D01*
X113316563Y-47915676D01*
X113221325Y-47963295D01*
X114411801Y-47677580D02*
X114507039Y-47677580D01*
X114602277Y-47725200D01*
X114649896Y-47772819D01*
X114697515Y-47868057D01*
X114745134Y-48058533D01*
X114745134Y-48296628D01*
X114697515Y-48487104D01*
X114649896Y-48582342D01*
X114602277Y-48629961D01*
X114507039Y-48677580D01*
X114411801Y-48677580D01*
X114316563Y-48629961D01*
X114268944Y-48582342D01*
X114221325Y-48487104D01*
X114173706Y-48296628D01*
X114173706Y-48058533D01*
X114221325Y-47868057D01*
X114268944Y-47772819D01*
X114316563Y-47725200D01*
X114411801Y-47677580D01*
X115697515Y-48677580D02*
X115126087Y-48677580D01*
X115411801Y-48677580D02*
X115411801Y-47677580D01*
X115316563Y-47820438D01*
X115221325Y-47915676D01*
X115126087Y-47963295D01*
X110673706Y-62377580D02*
X111340372Y-62377580D01*
X110911801Y-63377580D01*
X112149896Y-62710914D02*
X112149896Y-63377580D01*
X111911801Y-62329961D02*
X111673706Y-63044247D01*
X112292753Y-63044247D01*
X112673706Y-63377580D02*
X112673706Y-62377580D01*
X112673706Y-62853771D02*
X113245134Y-62853771D01*
X113245134Y-63377580D02*
X113245134Y-62377580D01*
X114292753Y-63282342D02*
X114245134Y-63329961D01*
X114102277Y-63377580D01*
X114007039Y-63377580D01*
X113864182Y-63329961D01*
X113768944Y-63234723D01*
X113721325Y-63139485D01*
X113673706Y-62949009D01*
X113673706Y-62806152D01*
X113721325Y-62615676D01*
X113768944Y-62520438D01*
X113864182Y-62425200D01*
X114007039Y-62377580D01*
X114102277Y-62377580D01*
X114245134Y-62425200D01*
X114292753Y-62472819D01*
X114673706Y-62472819D02*
X114721325Y-62425200D01*
X114816563Y-62377580D01*
X115054658Y-62377580D01*
X115149896Y-62425200D01*
X115197515Y-62472819D01*
X115245134Y-62568057D01*
X115245134Y-62663295D01*
X115197515Y-62806152D01*
X114626087Y-63377580D01*
X115245134Y-63377580D01*
X116102277Y-62710914D02*
X116102277Y-63377580D01*
X115864182Y-62329961D02*
X115626087Y-63044247D01*
X116245134Y-63044247D01*
X117054658Y-62710914D02*
X117054658Y-63377580D01*
X116816563Y-62329961D02*
X116578468Y-63044247D01*
X117197515Y-63044247D01*
D12*
X151472020Y-79859600D02*
X151753180Y-79859600D01*
X151472020Y-78839600D02*
X151753180Y-78839600D01*
X136257420Y-65911000D02*
X136538580Y-65911000D01*
X136257420Y-66931000D02*
X136538580Y-66931000D01*
X183323620Y-125478000D02*
X183604780Y-125478000D01*
X183323620Y-124458000D02*
X183604780Y-124458000D01*
X151459620Y-48338200D02*
X151740780Y-48338200D01*
X151459620Y-47318200D02*
X151740780Y-47318200D01*
X163126420Y-90655600D02*
X165076420Y-90655600D01*
X163126420Y-80535600D02*
X165076420Y-80535600D01*
X163126420Y-90655600D02*
X161176420Y-90655600D01*
X163126420Y-80535600D02*
X159676420Y-80535600D01*
X136282820Y-48338200D02*
X136563980Y-48338200D01*
X136282820Y-47318200D02*
X136563980Y-47318200D01*
X113986411Y-96514200D02*
X115936411Y-96514200D01*
X113986411Y-86394200D02*
X115936411Y-86394200D01*
X113986411Y-86394200D02*
X110536411Y-86394200D01*
X113986411Y-96514200D02*
X112036411Y-96514200D01*
X166762820Y-110974600D02*
X167043980Y-110974600D01*
X166762820Y-109954600D02*
X167043980Y-109954600D01*
X136282820Y-84199000D02*
X136563980Y-84199000D01*
X136282820Y-85219000D02*
X136563980Y-85219000D01*
X130496411Y-80761700D02*
X134356411Y-80761700D01*
X126636411Y-80761700D02*
X126636411Y-80526700D01*
X134356411Y-67741700D02*
X134356411Y-67976700D01*
X130496411Y-67741700D02*
X126636411Y-67741700D01*
X130496411Y-80761700D02*
X126636411Y-80761700D01*
X134356411Y-80761700D02*
X134356411Y-80526700D01*
X130496411Y-67741700D02*
X134356411Y-67741700D01*
X126636411Y-67976700D02*
X124821411Y-67976700D01*
X126636411Y-67741700D02*
X126636411Y-67976700D01*
X119747420Y-48338200D02*
X120028580Y-48338200D01*
X119747420Y-47318200D02*
X120028580Y-47318200D01*
X177486411Y-111848074D02*
X174036411Y-111848074D01*
X177486411Y-111848074D02*
X179436411Y-111848074D01*
X177486411Y-120718074D02*
X175536411Y-120718074D01*
X177486411Y-120718074D02*
X179436411Y-120718074D01*
X173575611Y-49116000D02*
X173575611Y-49351000D01*
X181295611Y-62136000D02*
X181295611Y-61901000D01*
X173575611Y-49351000D02*
X171760611Y-49351000D01*
X177435611Y-62136000D02*
X181295611Y-62136000D01*
X173575611Y-62136000D02*
X173575611Y-61901000D01*
X181295611Y-49116000D02*
X181295611Y-49351000D01*
X177435611Y-49116000D02*
X173575611Y-49116000D01*
X177435611Y-49116000D02*
X181295611Y-49116000D01*
X177435611Y-62136000D02*
X173575611Y-62136000D01*
X183323620Y-109878400D02*
X183604780Y-109878400D01*
X183323620Y-110898400D02*
X183604780Y-110898400D01*
X119722020Y-116892800D02*
X120003180Y-116892800D01*
X119722020Y-115872800D02*
X120003180Y-115872800D01*
X151472020Y-125554200D02*
X151753180Y-125554200D01*
X151472020Y-124534200D02*
X151753180Y-124534200D01*
X136257420Y-116892800D02*
X136538580Y-116892800D01*
X136257420Y-115872800D02*
X136538580Y-115872800D01*
X119722020Y-65911000D02*
X120003180Y-65911000D01*
X119722020Y-66931000D02*
X120003180Y-66931000D01*
X130496411Y-86394200D02*
X127046411Y-86394200D01*
X130496411Y-96514200D02*
X132446411Y-96514200D01*
X130496411Y-86394200D02*
X132446411Y-86394200D01*
X130496411Y-96514200D02*
X128546411Y-96514200D01*
X183323620Y-78763400D02*
X183604780Y-78763400D01*
X183323620Y-79783400D02*
X183604780Y-79783400D01*
X134356411Y-117899200D02*
X134356411Y-118134200D01*
X134356411Y-130919200D02*
X134356411Y-130684200D01*
X130496411Y-130919200D02*
X126636411Y-130919200D01*
X126636411Y-118134200D02*
X124821411Y-118134200D01*
X130496411Y-117899200D02*
X134356411Y-117899200D01*
X130496411Y-130919200D02*
X134356411Y-130919200D01*
X126636411Y-117899200D02*
X126636411Y-118134200D01*
X130496411Y-117899200D02*
X126636411Y-117899200D01*
X126636411Y-130919200D02*
X126636411Y-130684200D01*
X163042600Y-53096000D02*
X159592600Y-53096000D01*
X163042600Y-61966000D02*
X161092600Y-61966000D01*
X163042600Y-53096000D02*
X164992600Y-53096000D01*
X163042600Y-61966000D02*
X164992600Y-61966000D01*
X193870000Y-63670000D02*
X193870000Y-89190000D01*
X188670000Y-65000000D02*
X188670000Y-63670000D01*
X188670000Y-66270000D02*
X191270000Y-66270000D01*
X191270000Y-63670000D02*
X193870000Y-63670000D01*
X188670000Y-63670000D02*
X190000000Y-63670000D01*
X188670000Y-66270000D02*
X188670000Y-89190000D01*
X191270000Y-66270000D02*
X191270000Y-63670000D01*
X188670000Y-89190000D02*
X193870000Y-89190000D01*
X134962020Y-101348000D02*
X135243180Y-101348000D01*
X134962020Y-100328000D02*
X135243180Y-100328000D01*
X168515420Y-52906200D02*
X168796580Y-52906200D01*
X168515420Y-53926200D02*
X168796580Y-53926200D01*
X177486411Y-66553179D02*
X174036411Y-66553179D01*
X177486411Y-75423179D02*
X179436411Y-75423179D01*
X177486411Y-75423179D02*
X175536411Y-75423179D01*
X177486411Y-66553179D02*
X179436411Y-66553179D01*
X177435611Y-96809400D02*
X179385611Y-96809400D01*
X177435611Y-105679400D02*
X175485611Y-105679400D01*
X177435611Y-105679400D02*
X179385611Y-105679400D01*
X177435611Y-96809400D02*
X173985611Y-96809400D01*
X147944581Y-80629600D02*
X149894581Y-80629600D01*
X147944581Y-80629600D02*
X144494581Y-80629600D01*
X147944581Y-89499600D02*
X149894581Y-89499600D01*
X147944581Y-89499600D02*
X145994581Y-89499600D01*
X151485020Y-96014000D02*
X151766180Y-96014000D01*
X151485020Y-94994000D02*
X151766180Y-94994000D01*
X163177220Y-66553179D02*
X165127220Y-66553179D01*
X163177220Y-75423179D02*
X165127220Y-75423179D01*
X163177220Y-75423179D02*
X161227220Y-75423179D01*
X163177220Y-66553179D02*
X159727220Y-66553179D01*
X188630000Y-133990000D02*
X188630000Y-108470000D01*
X193830000Y-108470000D02*
X188630000Y-108470000D01*
X191230000Y-131390000D02*
X191230000Y-133990000D01*
X193830000Y-133990000D02*
X192500000Y-133990000D01*
X191230000Y-133990000D02*
X188630000Y-133990000D01*
X193830000Y-132660000D02*
X193830000Y-133990000D01*
X193830000Y-131390000D02*
X193830000Y-108470000D01*
X193830000Y-131390000D02*
X191230000Y-131390000D01*
X183323620Y-94917800D02*
X183604780Y-94917800D01*
X183323620Y-95937800D02*
X183604780Y-95937800D01*
X163177220Y-135067200D02*
X165127220Y-135067200D01*
X163177220Y-126197200D02*
X165127220Y-126197200D01*
X163177220Y-135067200D02*
X161227220Y-135067200D01*
X163177220Y-126197200D02*
X159727220Y-126197200D01*
X166762820Y-124534200D02*
X167043980Y-124534200D01*
X166762820Y-125554200D02*
X167043980Y-125554200D01*
X147886161Y-49221000D02*
X149836161Y-49221000D01*
X147886161Y-58091000D02*
X149836161Y-58091000D01*
X147886161Y-58091000D02*
X145936161Y-58091000D01*
X147886161Y-49221000D02*
X144436161Y-49221000D01*
X177435611Y-89499600D02*
X175485611Y-89499600D01*
X177435611Y-80629600D02*
X179385611Y-80629600D01*
X177435611Y-80629600D02*
X173985611Y-80629600D01*
X177435611Y-89499600D02*
X179385611Y-89499600D01*
X177435611Y-139301200D02*
X173575611Y-139301200D01*
X181295611Y-139301200D02*
X181295611Y-139066200D01*
X177435611Y-139301200D02*
X181295611Y-139301200D01*
X177435611Y-126281200D02*
X181295611Y-126281200D01*
X177435611Y-126281200D02*
X173575611Y-126281200D01*
X173575611Y-126516200D02*
X171760611Y-126516200D01*
X173575611Y-126281200D02*
X173575611Y-126516200D01*
X181295611Y-126281200D02*
X181295611Y-126516200D01*
X173575611Y-139301200D02*
X173575611Y-139066200D01*
X117846411Y-130919200D02*
X117846411Y-130684200D01*
X117846411Y-117899200D02*
X117846411Y-118134200D01*
X113986411Y-130919200D02*
X117846411Y-130919200D01*
X113986411Y-117899200D02*
X117846411Y-117899200D01*
X110126411Y-130919200D02*
X110126411Y-130684200D01*
X113986411Y-130919200D02*
X110126411Y-130919200D01*
X110126411Y-117899200D02*
X110126411Y-118134200D01*
X113986411Y-117899200D02*
X110126411Y-117899200D01*
X110126411Y-118134200D02*
X108311411Y-118134200D01*
X118452020Y-101373400D02*
X118733180Y-101373400D01*
X118452020Y-100353400D02*
X118733180Y-100353400D01*
X163126420Y-105590400D02*
X161176420Y-105590400D01*
X163126420Y-105590400D02*
X165076420Y-105590400D01*
X163126420Y-96720400D02*
X159676420Y-96720400D01*
X163126420Y-96720400D02*
X165076420Y-96720400D01*
X147944581Y-96809400D02*
X144494581Y-96809400D01*
X147944581Y-105679400D02*
X149894581Y-105679400D01*
X147944581Y-105679400D02*
X145994581Y-105679400D01*
X147944581Y-96809400D02*
X149894581Y-96809400D01*
X113986411Y-112266700D02*
X115936411Y-112266700D01*
X113986411Y-112266700D02*
X112036411Y-112266700D01*
X113986411Y-102146700D02*
X110536411Y-102146700D01*
X113986411Y-102146700D02*
X115936411Y-102146700D01*
X166762820Y-79859600D02*
X167043980Y-79859600D01*
X166762820Y-78839600D02*
X167043980Y-78839600D01*
X147995381Y-111848074D02*
X149945381Y-111848074D01*
X147995381Y-120718074D02*
X146045381Y-120718074D01*
X147995381Y-111848074D02*
X144545381Y-111848074D01*
X147995381Y-120718074D02*
X149945381Y-120718074D01*
X126585611Y-49065200D02*
X126585611Y-49300200D01*
X134305611Y-49065200D02*
X134305611Y-49300200D01*
X126585611Y-62085200D02*
X126585611Y-61850200D01*
X130445611Y-62085200D02*
X126585611Y-62085200D01*
X130445611Y-62085200D02*
X134305611Y-62085200D01*
X126585611Y-49300200D02*
X124770611Y-49300200D01*
X134305611Y-62085200D02*
X134305611Y-61850200D01*
X130445611Y-49065200D02*
X134305611Y-49065200D01*
X130445611Y-49065200D02*
X126585611Y-49065200D01*
X135200000Y-136170000D02*
X136530000Y-136170000D01*
X111010000Y-136170000D02*
X111010000Y-141370000D01*
X136530000Y-136170000D02*
X136530000Y-137500000D01*
X133930000Y-136170000D02*
X133930000Y-138770000D01*
X136530000Y-141370000D02*
X111010000Y-141370000D01*
X133930000Y-138770000D02*
X136530000Y-138770000D01*
X136530000Y-138770000D02*
X136530000Y-141370000D01*
X133930000Y-136170000D02*
X111010000Y-136170000D01*
X163177220Y-120629074D02*
X161227220Y-120629074D01*
X163177220Y-111759074D02*
X165127220Y-111759074D01*
X163177220Y-120629074D02*
X165127220Y-120629074D01*
X163177220Y-111759074D02*
X159727220Y-111759074D01*
X147886161Y-126286200D02*
X144436161Y-126286200D01*
X147886161Y-135156200D02*
X145936161Y-135156200D01*
X147886161Y-135156200D02*
X149836161Y-135156200D01*
X147886161Y-126286200D02*
X149836161Y-126286200D01*
X119747420Y-84199000D02*
X120028580Y-84199000D01*
X119747420Y-85219000D02*
X120028580Y-85219000D01*
X183323620Y-65559400D02*
X183604780Y-65559400D01*
X183323620Y-64539400D02*
X183604780Y-64539400D01*
X183323620Y-48262000D02*
X183604780Y-48262000D01*
X183323620Y-47242000D02*
X183604780Y-47242000D01*
X166762820Y-65635600D02*
X167043980Y-65635600D01*
X166762820Y-64615600D02*
X167043980Y-64615600D01*
X113986411Y-67741700D02*
X110126411Y-67741700D01*
X117846411Y-80761700D02*
X117846411Y-80526700D01*
X113986411Y-80761700D02*
X110126411Y-80761700D01*
X110126411Y-80761700D02*
X110126411Y-80526700D01*
X117846411Y-67741700D02*
X117846411Y-67976700D01*
X113986411Y-80761700D02*
X117846411Y-80761700D01*
X110126411Y-67741700D02*
X110126411Y-67976700D01*
X113986411Y-67741700D02*
X117846411Y-67741700D01*
X110126411Y-67976700D02*
X108311411Y-67976700D01*
X147995381Y-75423179D02*
X146045381Y-75423179D01*
X147995381Y-75423179D02*
X149945381Y-75423179D01*
X147995381Y-66553179D02*
X149945381Y-66553179D01*
X147995381Y-66553179D02*
X144545381Y-66553179D01*
X130496411Y-102146700D02*
X132446411Y-102146700D01*
X130496411Y-112266700D02*
X132446411Y-112266700D01*
X130496411Y-102146700D02*
X127046411Y-102146700D01*
X130496411Y-112266700D02*
X128546411Y-112266700D01*
X151485020Y-64615600D02*
X151766180Y-64615600D01*
X151485020Y-65635600D02*
X151766180Y-65635600D01*
X166762820Y-96014000D02*
X167043980Y-96014000D01*
X166762820Y-94994000D02*
X167043980Y-94994000D01*
X151485020Y-109954600D02*
X151766180Y-109954600D01*
X151485020Y-110974600D02*
X151766180Y-110974600D01*
X110075611Y-62085200D02*
X110075611Y-61850200D01*
X110075611Y-49065200D02*
X110075611Y-49300200D01*
X117795611Y-49065200D02*
X117795611Y-49300200D01*
X113935611Y-49065200D02*
X117795611Y-49065200D01*
X110075611Y-49300200D02*
X108260611Y-49300200D01*
X113935611Y-62085200D02*
X110075611Y-62085200D01*
X113935611Y-62085200D02*
X117795611Y-62085200D01*
X117795611Y-62085200D02*
X117795611Y-61850200D01*
X113935611Y-49065200D02*
X110075611Y-49065200D01*
M02*
