M48
INCH,TZ
T1C0.0079
T2C0.0394
T3C0.1260
%
G90
G05
T1
X42469Y-23132
X42469Y-30479
X43130Y-36760
X43270Y-24130
X43320Y-31480
X43320Y-34250
X43320Y-48730
X43330Y-51230
X43340Y-27980
X43633Y-37748
X43670Y-22130
X43670Y-29490
X43729Y-34756
X43880Y-21120
X43880Y-28480
X43902Y-43457
X43930Y-46730
X44100Y-20130
X44100Y-27479
X44130Y-40960
X44130Y-41460
X44160Y-42460
X44160Y-42957
X44160Y-43950
X44350Y-21120
X44350Y-28483
X44460Y-49230
X44463Y-43950
X44557Y-22132
X44561Y-29478
X44780Y-40480
X44801Y-23131
X44801Y-30478
X44801Y-35271
X44805Y-50731
X45056Y-37262
X45063Y-24133
X45063Y-31484
X45100Y-50730
X45150Y-40980
X45330Y-43460
X45340Y-49230
X45570Y-48730
X45650Y-34750
X45780Y-47230
X45851Y-37756
X46050Y-37260
X46100Y-47230
X46190Y-41460
X46380Y-39710
X46879Y-45827
X46880Y-26150
X46890Y-18830
X46900Y-33340
X47010Y-39710
X47490Y-26150
X47500Y-18840
X47510Y-33350
X47510Y-45810
X48974Y-23132
X48974Y-30479
X48975Y-36760
X49800Y-24130
X49825Y-34250
X49825Y-48730
X49840Y-31490
X49840Y-51230
X50137Y-36261
X50137Y-37761
X50157Y-34755
X50175Y-22130
X50175Y-29490
X50385Y-21120
X50385Y-28480
X50407Y-43457
X50490Y-46730
X50613Y-20133
X50613Y-27482
X50643Y-40963
X50663Y-41459
X50670Y-42460
X50670Y-43950
X50675Y-42957
X50855Y-21120
X50855Y-28483
X50895Y-49230
X50968Y-43950
X51062Y-22132
X51066Y-29478
X51306Y-23131
X51306Y-30478
X51306Y-35271
X51310Y-50731
X51322Y-40463
X51561Y-37262
X51568Y-24133
X51568Y-31484
X51605Y-50730
X51615Y-40960
X51835Y-43460
X51845Y-49230
X52017Y-52130
X52017Y-52691
X52062Y-48727
X52142Y-34747
X52285Y-47230
X52356Y-37756
X52555Y-37260
X52605Y-47230
X52633Y-41457
X52890Y-39710
X53390Y-18820
X53400Y-26160
X53400Y-33340
X53400Y-45820
X53500Y-39710
X54010Y-18810
X54010Y-26150
X54010Y-45820
X54020Y-33360
X54743Y-27200
X54743Y-47729
X54950Y-27950
X54950Y-50700
X55170Y-26450
X55170Y-50470
X55390Y-19880
X55400Y-28950
X55700Y-20130
X55700Y-27450
X56598Y-33989
X56606Y-41828
X56768Y-45289
X57520Y-22620
X57520Y-52960
X57530Y-38360
X57530Y-41360
X57532Y-32492
X57539Y-34993
X57549Y-29448
X57550Y-44780
X57550Y-47290
X57560Y-45780
X57886Y-51965
X57910Y-48247
X57918Y-28360
X58097Y-32489
X58100Y-52696
X58184Y-22124
X58191Y-20124
X58960Y-40360
X58970Y-45280
X58980Y-44780
X59370Y-18810
X59390Y-25640
X59390Y-31250
X59390Y-37610
X59390Y-43480
X59390Y-49230
X59844Y-27925
X59990Y-18820
X60000Y-31250
X60000Y-37610
X60000Y-43500
X60000Y-49230
X60010Y-25640
X60156Y-28455
X60446Y-52856
X60456Y-39360
X60681Y-41991
X60900Y-34477
X60907Y-19651
X61358Y-46243
X61526Y-39860
X61527Y-50423
X61543Y-45407
X61965Y-45750
X61979Y-27865
X62503Y-44234
X62507Y-51930
X63199Y-25286
X63480Y-24160
X63490Y-41320
X63510Y-35450
X63526Y-29445
X63527Y-26954
X63530Y-52930
X63532Y-27941
X63540Y-47250
X63840Y-51432
X63937Y-29442
X63937Y-33949
X64039Y-40806
X64149Y-23150
X64151Y-21650
X64315Y-34769
X64319Y-27939
X64331Y-41104
X64331Y-46746
X64351Y-40519
X64594Y-50441
X64930Y-32440
X65400Y-25630
X65400Y-49230
X65410Y-37610
X65410Y-43490
X65420Y-31240
X65798Y-29920
X65816Y-47248
X65823Y-51929
X66020Y-25640
X66020Y-31240
X66020Y-37610
X66020Y-43490
X66020Y-49230
X66090Y-21030
X66297Y-28163
X66301Y-48710
X66309Y-45740
X66594Y-53541
X66596Y-26910
X66597Y-32997
X66597Y-39585
X66597Y-45020
X66597Y-50189
X66700Y-21030
X66940Y-45277
X66943Y-51180
X67200Y-27600
X67200Y-35600
X67215Y-52435
X67499Y-32701
X67499Y-46280
X67733Y-26453
X67734Y-32955
X67734Y-39360
X67926Y-33486
X67931Y-27722
X68175Y-37183
X68183Y-40350
X68302Y-51034
X68310Y-22150
X68310Y-24150
X68310Y-54530
X68849Y-20150
X69130Y-31990
X69140Y-32500
X69150Y-34980
X69150Y-38360
X69150Y-39850
X69150Y-41350
X69160Y-27450
X69160Y-45780
X69170Y-28450
X69170Y-29440
X69170Y-47290
X69674Y-33735
X69674Y-54709
X69675Y-21148
X69866Y-46779
X69871Y-38857
X70087Y-54022
X70089Y-25079
X70089Y-39367
X70089Y-43113
X70248Y-46549
X70325Y-22924
X70325Y-52020
X70561Y-22146
X70580Y-40360
X71136Y-47971
X71540Y-28437
X71920Y-25620
X71920Y-31200
X71920Y-37580
X71930Y-18810
X71930Y-43450
X71930Y-49210
X72238Y-21151
X72530Y-37580
X72540Y-18800
X72540Y-25620
X72540Y-43450
X72550Y-31210
X72550Y-49210
X72896Y-23406
X72912Y-48229
X73624Y-24660
X73624Y-50516
X73789Y-28957
X75000Y-36600
X75321Y-42535
T2
X44228Y-54134
X44228Y-55134
X45228Y-54134
X45228Y-55134
X46228Y-54134
X46228Y-55134
X47228Y-54134
X47228Y-55134
X48228Y-54134
X48228Y-55134
X49228Y-54134
X49228Y-55134
X50228Y-54134
X50228Y-55134
X51228Y-54134
X51228Y-55134
X52228Y-54134
X52228Y-55134
X53228Y-54134
X53228Y-55134
X74787Y-43228
X74787Y-44228
X74787Y-45228
X74787Y-46228
X74787Y-47228
X74787Y-48228
X74787Y-49228
X74787Y-50228
X74787Y-51228
X74787Y-52228
X74803Y-25591
X74803Y-26591
X74803Y-27591
X74803Y-28591
X74803Y-29591
X74803Y-30591
X74803Y-31591
X74803Y-32591
X74803Y-33591
X74803Y-34591
X75787Y-43228
X75787Y-44228
X75787Y-45228
X75787Y-46228
X75787Y-47228
X75787Y-48228
X75787Y-49228
X75787Y-50228
X75787Y-51228
X75787Y-52228
X75803Y-25591
X75803Y-26591
X75803Y-27591
X75803Y-28591
X75803Y-29591
X75803Y-30591
X75803Y-31591
X75803Y-32591
X75803Y-33591
X75803Y-34591
T3
X40711Y-22414
X40711Y-55534
X77326Y-22414
X77326Y-55534
T0
M30
