G04 #@! TF.GenerationSoftware,KiCad,Pcbnew,(6.0.5)*
G04 #@! TF.CreationDate,2022-08-31T18:03:14+02:00*
G04 #@! TF.ProjectId,B2,42322e6b-6963-4616-945f-706362585858,rev?*
G04 #@! TF.SameCoordinates,Original*
G04 #@! TF.FileFunction,Copper,L4,Bot*
G04 #@! TF.FilePolarity,Positive*
%FSLAX46Y46*%
G04 Gerber Fmt 4.6, Leading zero omitted, Abs format (unit mm)*
G04 Created by KiCad (PCBNEW (6.0.5)) date 2022-08-31 18:03:14*
%MOMM*%
%LPD*%
G01*
G04 APERTURE LIST*
G04 #@! TA.AperFunction,ComponentPad*
%ADD10C,5.600000*%
G04 #@! TD*
G04 #@! TA.AperFunction,ComponentPad*
%ADD11R,1.700000X1.700000*%
G04 #@! TD*
G04 #@! TA.AperFunction,ComponentPad*
%ADD12O,1.700000X1.700000*%
G04 #@! TD*
G04 #@! TA.AperFunction,ViaPad*
%ADD13C,0.500000*%
G04 #@! TD*
G04 #@! TA.AperFunction,Conductor*
%ADD14C,0.127000*%
G04 #@! TD*
G04 #@! TA.AperFunction,Conductor*
%ADD15C,0.090000*%
G04 #@! TD*
G04 APERTURE END LIST*
D10*
X196406802Y-56930538D03*
X103406802Y-56930538D03*
X196406802Y-141055538D03*
D11*
X190000000Y-65000000D03*
D12*
X192540000Y-65000000D03*
X190000000Y-67540000D03*
X192540000Y-67540000D03*
X190000000Y-70080000D03*
X192540000Y-70080000D03*
X190000000Y-72620000D03*
X192540000Y-72620000D03*
X190000000Y-75160000D03*
X192540000Y-75160000D03*
X190000000Y-77700000D03*
X192540000Y-77700000D03*
X190000000Y-80240000D03*
X192540000Y-80240000D03*
X190000000Y-82780000D03*
X192540000Y-82780000D03*
X190000000Y-85320000D03*
X192540000Y-85320000D03*
X190000000Y-87860000D03*
X192540000Y-87860000D03*
D11*
X192500000Y-132660000D03*
D12*
X189960000Y-132660000D03*
X192500000Y-130120000D03*
X189960000Y-130120000D03*
X192500000Y-127580000D03*
X189960000Y-127580000D03*
X192500000Y-125040000D03*
X189960000Y-125040000D03*
X192500000Y-122500000D03*
X189960000Y-122500000D03*
X192500000Y-119960000D03*
X189960000Y-119960000D03*
X192500000Y-117420000D03*
X189960000Y-117420000D03*
X192500000Y-114880000D03*
X189960000Y-114880000D03*
X192500000Y-112340000D03*
X189960000Y-112340000D03*
X192500000Y-109800000D03*
X189960000Y-109800000D03*
D10*
X103406802Y-141055538D03*
D11*
X135200000Y-137500000D03*
D12*
X135200000Y-140040000D03*
X132660000Y-137500000D03*
X132660000Y-140040000D03*
X130120000Y-137500000D03*
X130120000Y-140040000D03*
X127580000Y-137500000D03*
X127580000Y-140040000D03*
X125040000Y-137500000D03*
X125040000Y-140040000D03*
X122500000Y-137500000D03*
X122500000Y-140040000D03*
X119960000Y-137500000D03*
X119960000Y-140040000D03*
X117420000Y-137500000D03*
X117420000Y-140040000D03*
X114880000Y-137500000D03*
X114880000Y-140040000D03*
X112340000Y-137500000D03*
X112340000Y-140040000D03*
D13*
X165608000Y-138176000D03*
X144190720Y-115034060D03*
X183484520Y-53723540D03*
X156281785Y-137541817D03*
X156276040Y-101244400D03*
X156278580Y-116146580D03*
X156278580Y-125036580D03*
X172045540Y-99184460D03*
X172044360Y-83705700D03*
X172041820Y-67190620D03*
X190754000Y-93218000D03*
X168715243Y-118310830D03*
X168733201Y-139255511D03*
X168715243Y-102690278D03*
X187004100Y-62636400D03*
X187004100Y-128310640D03*
X163370260Y-70965060D03*
X191315340Y-104086660D03*
X163360100Y-88313260D03*
X163576000Y-124460000D03*
X147111720Y-72034400D03*
X162814000Y-130810000D03*
X147030340Y-131991200D03*
X163576000Y-116586000D03*
X158750000Y-138176000D03*
X163068000Y-68580000D03*
X158767780Y-131902200D03*
X158757620Y-121927620D03*
X160782000Y-114300000D03*
X119075200Y-66421000D03*
X166141400Y-119989600D03*
X119126000Y-84683600D03*
X128701800Y-107848400D03*
X165608000Y-115570000D03*
X182867000Y-94996000D03*
X182702200Y-47777400D03*
X135610600Y-47802800D03*
X150850600Y-110439200D03*
X175666400Y-116281200D03*
X166116000Y-131318000D03*
X119072660Y-116400580D03*
X150799800Y-47777400D03*
X161358580Y-68463160D03*
X182676800Y-65074800D03*
X127347980Y-92102940D03*
X166141400Y-95529400D03*
X149758400Y-102514400D03*
X166128400Y-108458000D03*
X117805200Y-100863400D03*
X135636000Y-84683600D03*
X182676800Y-79248000D03*
X146126200Y-97434400D03*
X150850600Y-125044200D03*
X167868600Y-53416200D03*
X134340600Y-100863400D03*
X150850600Y-65125600D03*
X179895000Y-103335000D03*
X182702200Y-124993400D03*
X150850600Y-95529400D03*
X119100600Y-47828200D03*
X150850600Y-79375000D03*
X135636000Y-116382800D03*
X166116000Y-65100200D03*
X161371280Y-70970140D03*
X135636000Y-66446400D03*
X173487080Y-129626360D03*
X182702200Y-110363000D03*
X166166800Y-79349600D03*
X175668240Y-72261748D03*
X175666400Y-69723000D03*
X184251600Y-110363000D03*
X146174460Y-74797920D03*
X137185400Y-66421000D03*
X175691800Y-120116600D03*
X167690800Y-119989600D03*
X146126200Y-105054400D03*
X169418000Y-53416200D03*
X146131280Y-82529680D03*
X184279620Y-94996000D03*
X110058200Y-130124200D03*
X110827820Y-95879920D03*
X161391600Y-129540000D03*
X173507400Y-56261000D03*
X128701800Y-111633000D03*
X152400000Y-110490000D03*
X146177000Y-120116600D03*
X135890000Y-100863400D03*
X175641000Y-88849200D03*
X120650000Y-47853600D03*
X184277000Y-124993400D03*
X112166400Y-111633000D03*
X146100800Y-57454800D03*
X110083600Y-71069200D03*
X126593600Y-79984600D03*
X119405400Y-100863400D03*
X137185400Y-116382800D03*
X167690800Y-131318000D03*
X120624600Y-66421000D03*
X161290000Y-118110000D03*
X127347980Y-95912940D03*
X149783800Y-115011200D03*
X175691800Y-74777600D03*
X146149060Y-88882220D03*
X152425400Y-65125600D03*
X110032800Y-79959200D03*
X161264600Y-104952800D03*
X173507400Y-61341000D03*
X167690800Y-65125600D03*
X109905800Y-61290200D03*
X161356040Y-74790300D03*
X173507400Y-138506200D03*
X167690800Y-95529400D03*
X167690800Y-79349600D03*
X152400000Y-125044200D03*
X161239200Y-61366400D03*
X126492000Y-61290200D03*
X184277000Y-79273400D03*
X184251600Y-65074800D03*
X137210800Y-84734400D03*
X152400000Y-95529400D03*
X120675400Y-116357400D03*
X167640000Y-108458000D03*
X146100800Y-134518400D03*
X161315400Y-90043000D03*
X184251600Y-47752000D03*
X152400000Y-79375000D03*
X161290000Y-140716000D03*
X175638940Y-105875163D03*
X152374600Y-47802800D03*
X164922200Y-82397600D03*
X120675400Y-84709000D03*
X137185400Y-47777400D03*
X133809759Y-105309876D03*
X126593600Y-130124200D03*
X140131800Y-67183000D03*
X140131800Y-128193800D03*
X139573000Y-70993000D03*
X139573000Y-128778000D03*
X139047220Y-123127449D03*
X139047220Y-69088000D03*
X169155110Y-101145110D03*
X169164000Y-134874000D03*
X169153840Y-68351400D03*
X169155110Y-114349530D03*
X167126920Y-75996800D03*
X147788400Y-56196000D03*
X147804100Y-51116000D03*
X162938460Y-58801000D03*
X162943540Y-54991000D03*
X153162000Y-106172000D03*
X153162000Y-100076000D03*
X172466000Y-97028000D03*
X171958000Y-115570000D03*
X154178000Y-117348000D03*
X154178000Y-86360000D03*
X176971960Y-85686900D03*
X172869000Y-137236200D03*
X176974500Y-53715920D03*
X181715000Y-58801000D03*
X179895000Y-99525000D03*
X182077241Y-132178252D03*
X170500000Y-58780000D03*
X170500000Y-98232000D03*
X170500000Y-133430000D03*
X155448000Y-115570000D03*
X155333076Y-81927076D03*
X179961411Y-72258179D03*
X178816000Y-131572000D03*
X170953258Y-71564500D03*
X170980134Y-127082343D03*
X160525460Y-64226440D03*
X154686000Y-87571580D03*
X154686000Y-127000000D03*
X182085611Y-137236200D03*
X179224940Y-56250840D03*
X178026060Y-83793940D03*
X178026060Y-63700660D03*
X182118000Y-63246000D03*
X182085611Y-51181000D03*
X172544740Y-70413880D03*
X172532040Y-85054440D03*
X141478000Y-69723000D03*
X141478000Y-51130200D03*
X140716000Y-73533000D03*
X140690600Y-50495200D03*
X121412000Y-93980000D03*
X141478000Y-139446000D03*
X121435134Y-109751134D03*
X141452436Y-109088912D03*
X140995992Y-138812246D03*
X140970000Y-107442000D03*
X132123180Y-132410200D03*
X128244600Y-118694200D03*
X111582200Y-118694200D03*
X147574000Y-133847840D03*
X147566380Y-82522060D03*
X132123180Y-133835140D03*
X132983480Y-95899320D03*
X132803269Y-119964320D03*
X126554869Y-86995120D03*
X126554869Y-123774320D03*
X129457980Y-111633120D03*
X129272669Y-125044320D03*
X130326769Y-128856860D03*
X130357249Y-102776140D03*
X131101469Y-104038520D03*
X131076069Y-128854320D03*
X131685669Y-125044320D03*
X131660269Y-110388520D03*
X132441634Y-88257380D03*
X132238434Y-123766580D03*
X133489069Y-94640520D03*
X133616069Y-119964320D03*
X116461411Y-95899200D03*
X116281200Y-119964200D03*
X110032800Y-86995000D03*
X110032800Y-123774200D03*
X112928400Y-125044200D03*
X112935911Y-111633000D03*
X113741200Y-102819200D03*
X113804700Y-128856740D03*
X114681000Y-104089200D03*
X114554000Y-128854200D03*
X115138200Y-110388400D03*
X115163600Y-125044200D03*
X115951000Y-88265000D03*
X115747800Y-123774200D03*
X117094000Y-119964200D03*
X116967000Y-94640400D03*
X162399980Y-74782680D03*
X162399980Y-86230460D03*
X128633434Y-104046020D03*
X128557234Y-69804280D03*
X128557234Y-51137820D03*
X128684020Y-105305860D03*
X129171069Y-72346940D03*
X129171069Y-53644920D03*
X129696849Y-56215400D03*
X129707009Y-74874240D03*
X128714500Y-109111820D03*
X127977269Y-72339320D03*
X127977269Y-53644920D03*
X128033480Y-110381820D03*
X127443869Y-74904720D03*
X127443869Y-56210320D03*
X127398780Y-88277700D03*
X130316609Y-77414240D03*
X130316609Y-89588460D03*
X130316609Y-58752860D03*
X124393669Y-77417120D03*
X124393669Y-58755833D03*
X124395869Y-93370520D03*
X130982089Y-61297940D03*
X130982089Y-79969480D03*
X130964309Y-94645600D03*
X112014000Y-69796660D03*
X112014000Y-51130200D03*
X112090200Y-104038400D03*
X112090200Y-105308400D03*
X112649000Y-72346820D03*
X112649000Y-53644800D03*
X113174780Y-56215280D03*
X112166400Y-109110780D03*
X113184940Y-74874120D03*
X111511411Y-110381700D03*
X111455200Y-72339200D03*
X111455200Y-53644800D03*
X110921800Y-74904600D03*
X110920093Y-88288168D03*
X110921800Y-56210200D03*
X113794540Y-77414120D03*
X113794540Y-89588340D03*
X113794540Y-58752740D03*
X107871600Y-58755713D03*
X107871600Y-77417000D03*
X109550200Y-93370400D03*
X114442240Y-94645480D03*
X114460020Y-79969360D03*
X114460020Y-61297820D03*
X171430915Y-117553808D03*
X171429851Y-112409573D03*
X171429851Y-51175885D03*
X157480000Y-125730000D03*
X157426660Y-74788901D03*
X143758920Y-86332060D03*
X143779240Y-106243120D03*
X164084000Y-134366000D03*
X163451540Y-102918260D03*
X162172931Y-136500253D03*
X162659060Y-103647240D03*
X172466000Y-139642440D03*
X172466000Y-100076000D03*
X167894000Y-118364000D03*
X167894000Y-113030000D03*
X163068000Y-128270000D03*
X163068000Y-110998000D03*
X169633521Y-136182479D03*
X170027600Y-115003580D03*
D14*
X191220000Y-131400000D02*
X192500000Y-130120000D01*
X165608000Y-138176000D02*
X167894000Y-140462000D01*
X152615440Y-140045440D02*
X144147540Y-131577540D01*
X144147540Y-115077240D02*
X144190720Y-115034060D01*
X167894000Y-140462000D02*
X179818000Y-140462000D01*
X179818000Y-140462000D02*
X188880000Y-131400000D01*
X165608000Y-138176000D02*
X163738560Y-140045440D01*
X163738560Y-140045440D02*
X162905440Y-140045440D01*
X162905440Y-140045440D02*
X152615440Y-140045440D01*
X144147540Y-131577540D02*
X144147540Y-115077240D01*
X188880000Y-131400000D02*
X191220000Y-131400000D01*
X186601100Y-56840120D02*
X183484520Y-53723540D01*
X186601100Y-128612900D02*
X186601100Y-56840120D01*
X188108200Y-130120000D02*
X186601100Y-128612900D01*
X189960000Y-130120000D02*
X188108200Y-130120000D01*
X172044360Y-83705700D02*
X172044360Y-99185640D01*
X156276040Y-101244400D02*
X156278580Y-101246940D01*
X156278580Y-101246940D02*
X156278580Y-137538612D01*
X172044360Y-83705700D02*
X172044360Y-67193160D01*
X172044360Y-67193160D02*
X172041820Y-67190620D01*
X156278580Y-137538612D02*
X156281785Y-137541817D01*
X172044360Y-99185640D02*
X172045540Y-99184460D01*
X190754000Y-93218000D02*
X190754000Y-107950000D01*
X190754000Y-107950000D02*
X191262000Y-108458000D01*
X191262000Y-123738000D02*
X189960000Y-125040000D01*
X191262000Y-108458000D02*
X191262000Y-123738000D01*
X168715243Y-118310830D02*
X168715243Y-102690278D01*
X168715243Y-118310830D02*
X168715243Y-132782757D01*
X168715243Y-132782757D02*
X168715243Y-139237553D01*
X168715243Y-139237553D02*
X168733201Y-139255511D01*
X187004100Y-114464100D02*
X187004100Y-113852100D01*
X189960000Y-117420000D02*
X187004100Y-120375900D01*
X187004100Y-120375900D02*
X187004100Y-120964100D01*
X187004100Y-113852100D02*
X187004100Y-62636400D01*
X189960000Y-117420000D02*
X187004100Y-114464100D01*
X187004100Y-128310640D02*
X187004100Y-120964100D01*
X193802000Y-106573320D02*
X191315340Y-104086660D01*
X193802000Y-113578000D02*
X193802000Y-106573320D01*
X163360100Y-88313260D02*
X163370260Y-88303100D01*
X163370260Y-88303100D02*
X163370260Y-70965060D01*
X192500000Y-114880000D02*
X193802000Y-113578000D01*
X163576000Y-116586000D02*
X163576000Y-124460000D01*
X163576000Y-124460000D02*
X163576000Y-130048000D01*
X147111720Y-131909820D02*
X147030340Y-131991200D01*
X147111720Y-72034400D02*
X147111720Y-131909820D01*
X163576000Y-130048000D02*
X162814000Y-130810000D01*
X158750000Y-138176000D02*
X158750000Y-130317240D01*
X158750000Y-72865912D02*
X158750000Y-121920000D01*
X163035912Y-68580000D02*
X158750000Y-72865912D01*
X163068000Y-68580000D02*
X163035912Y-68580000D01*
X158750000Y-121920000D02*
X158757620Y-121927620D01*
X158750000Y-130317240D02*
X158757620Y-130309620D01*
X158757620Y-130309620D02*
X158757620Y-121927620D01*
X158757620Y-130309620D02*
X158757620Y-131892040D01*
X158757620Y-131892040D02*
X158767780Y-131902200D01*
X140131800Y-132568200D02*
X140131800Y-129401800D01*
X140131800Y-129401800D02*
X140131800Y-128193800D01*
X140131800Y-128193800D02*
X140131800Y-67183000D01*
X135200000Y-137500000D02*
X140131800Y-132568200D01*
X139573000Y-130027000D02*
X139573000Y-130587000D01*
X139573000Y-130027000D02*
X139573000Y-128778000D01*
X139573000Y-130587000D02*
X132660000Y-137500000D01*
X139573000Y-128778000D02*
X139573000Y-70993000D01*
X139047220Y-128574800D02*
X134711010Y-132911010D01*
X139047220Y-121231660D02*
X139047220Y-123127449D01*
X115601849Y-134238151D02*
X133383869Y-134238151D01*
X112340000Y-137500000D02*
X115601849Y-134238151D01*
X133383869Y-134238151D02*
X134711010Y-132911010D01*
X139047220Y-69088000D02*
X139047220Y-121231660D01*
X139047220Y-123127449D02*
X139047220Y-128574800D01*
X169155110Y-134865110D02*
X169164000Y-134874000D01*
X169155110Y-101145110D02*
X169155110Y-100544630D01*
X169155110Y-114349530D02*
X169155110Y-134865110D01*
X169155110Y-68352670D02*
X169153840Y-68351400D01*
X169155110Y-114349530D02*
X169155110Y-101145110D01*
X169155110Y-100544630D02*
X169155110Y-68352670D01*
X147804100Y-56180300D02*
X147788400Y-56196000D01*
X167126920Y-75996800D02*
X167177789Y-75945931D01*
X162943540Y-58795920D02*
X162938460Y-58801000D01*
X167177789Y-75945931D02*
X167177789Y-63040329D01*
X167177789Y-63040329D02*
X162938460Y-58801000D01*
X162943540Y-54991000D02*
X162943540Y-58795920D01*
X147804100Y-51116000D02*
X147804100Y-56180300D01*
X153162000Y-106172000D02*
X153162000Y-100076000D01*
X172466000Y-99506055D02*
X172466000Y-97028000D01*
X171958000Y-100014055D02*
X172466000Y-99506055D01*
X171958000Y-115570000D02*
X171958000Y-109728000D01*
X171958000Y-109728000D02*
X171958000Y-100014055D01*
X154178000Y-117348000D02*
X154178000Y-86360000D01*
X176971960Y-85686900D02*
X176971960Y-53718460D01*
X176971960Y-133133240D02*
X176971960Y-85686900D01*
X172869000Y-137236200D02*
X176971960Y-133133240D01*
X176971960Y-53718460D02*
X176974500Y-53715920D01*
X182077241Y-132178252D02*
X182077241Y-101707241D01*
X179895000Y-99525000D02*
X180364422Y-99055578D01*
X180364422Y-60151578D02*
X181715000Y-58801000D01*
X180364422Y-99055578D02*
X180364422Y-60151578D01*
X182077241Y-101707241D02*
X179895000Y-99525000D01*
X170500000Y-133430000D02*
X170500000Y-98232000D01*
X170500000Y-98232000D02*
X170500000Y-58780000D01*
X155448000Y-82042000D02*
X155333076Y-81927076D01*
X155448000Y-88646000D02*
X155448000Y-82042000D01*
X155448000Y-115570000D02*
X155448000Y-88646000D01*
X178816000Y-131572000D02*
X178816000Y-73403590D01*
X178816000Y-73403590D02*
X179961411Y-72258179D01*
X170942000Y-127044209D02*
X170942000Y-116201154D01*
X170980134Y-127082343D02*
X170942000Y-127044209D01*
X170942000Y-71575758D02*
X170953258Y-71564500D01*
X170942000Y-116201154D02*
X170942000Y-71575758D01*
X154686000Y-87571580D02*
X154686000Y-70065900D01*
X154668220Y-115806220D02*
X154668220Y-126982220D01*
X154668220Y-87589360D02*
X154686000Y-87571580D01*
X154668220Y-115806220D02*
X154668220Y-87589360D01*
X154668220Y-126982220D02*
X154686000Y-127000000D01*
X154686000Y-70065900D02*
X160525460Y-64226440D01*
X178026060Y-132615940D02*
X178026060Y-133176649D01*
X178026060Y-63700660D02*
X178026060Y-83793940D01*
X178026060Y-99992180D02*
X178026060Y-109507020D01*
X179224940Y-56278780D02*
X178026060Y-57477660D01*
X178026060Y-132615940D02*
X178026060Y-109507020D01*
X178026060Y-133176649D02*
X182085611Y-137236200D01*
X178026060Y-57477660D02*
X178026060Y-63700660D01*
X179224940Y-56250840D02*
X179224940Y-56278780D01*
X178026060Y-83793940D02*
X178026060Y-99992180D01*
X182118000Y-51213389D02*
X182085611Y-51181000D01*
X182118000Y-63246000D02*
X182118000Y-51213389D01*
X172544740Y-70413880D02*
X172544740Y-85041740D01*
X172544740Y-85041740D02*
X172532040Y-85054440D01*
X141478000Y-69723000D02*
X141478000Y-51130200D01*
X140716000Y-50520600D02*
X140690600Y-50495200D01*
X140716000Y-73533000D02*
X140716000Y-50520600D01*
X141478000Y-109114476D02*
X141452436Y-109088912D01*
X121412000Y-109728000D02*
X121435134Y-109751134D01*
X141478000Y-139446000D02*
X141478000Y-109114476D01*
X121412000Y-93980000D02*
X121412000Y-109728000D01*
X140995992Y-138812246D02*
X140970000Y-138786254D01*
X140970000Y-135636000D02*
X140970000Y-107442000D01*
X140970000Y-138786254D02*
X140970000Y-135636000D01*
X128219200Y-118719600D02*
X128244600Y-118694200D01*
X128219200Y-128541780D02*
X128219200Y-118719600D01*
X132087620Y-132410200D02*
X128219200Y-128541780D01*
X132123180Y-132410200D02*
X132087620Y-132410200D01*
X132110480Y-133847840D02*
X116761260Y-133847840D01*
X147574000Y-133847840D02*
X147574000Y-82529680D01*
X147574000Y-82529680D02*
X147566380Y-82522060D01*
X132123180Y-133835140D02*
X132110480Y-133847840D01*
X111582200Y-128668780D02*
X111582200Y-118694200D01*
X116761260Y-133847840D02*
X111582200Y-128668780D01*
X132803269Y-96079531D02*
X132983480Y-95899320D01*
X132803269Y-119964320D02*
X132803269Y-96079531D01*
X126554869Y-123774320D02*
X126554869Y-86995120D01*
X129272669Y-125044320D02*
X129272669Y-111818431D01*
X129272669Y-111818431D02*
X129457980Y-111633120D01*
X130326769Y-102806620D02*
X130357249Y-102776140D01*
X130326769Y-128856860D02*
X130326769Y-102806620D01*
X131076069Y-104063920D02*
X131101469Y-104038520D01*
X131076069Y-128854320D02*
X131076069Y-104063920D01*
X131685669Y-125044320D02*
X131685669Y-110413920D01*
X131685669Y-110413920D02*
X131660269Y-110388520D01*
X132238434Y-123766580D02*
X132238434Y-88460580D01*
X132238434Y-88460580D02*
X132441634Y-88257380D01*
X133287589Y-96620000D02*
X133489069Y-96418520D01*
X133489069Y-96418520D02*
X133489069Y-94640520D01*
X133616069Y-119964320D02*
X133287589Y-119635840D01*
X133287589Y-119635840D02*
X133287589Y-96620000D01*
X116281200Y-96079411D02*
X116461411Y-95899200D01*
X116281200Y-119964200D02*
X116281200Y-96079411D01*
X110032800Y-123774200D02*
X110032800Y-86995000D01*
X112935911Y-111633000D02*
X112935911Y-124858889D01*
X112935911Y-124858889D02*
X112750600Y-125044200D01*
X113804700Y-128856740D02*
X113804700Y-102806500D01*
X114554000Y-128854200D02*
X114554000Y-104063800D01*
X114554000Y-104063800D02*
X114579400Y-104038400D01*
X115163600Y-125044200D02*
X115163600Y-110413800D01*
X115163600Y-110413800D02*
X115138200Y-110388400D01*
X115747800Y-123774200D02*
X115747800Y-88468200D01*
X115747800Y-88468200D02*
X115951000Y-88265000D01*
X116765520Y-96619880D02*
X116967000Y-96418400D01*
X116967000Y-96418400D02*
X116967000Y-94640400D01*
X117094000Y-119964200D02*
X116765520Y-119635720D01*
X116765520Y-119635720D02*
X116765520Y-96619880D01*
X162399980Y-86230460D02*
X162399980Y-74782680D01*
X128557234Y-69804280D02*
X128557234Y-103969820D01*
X128557234Y-51137820D02*
X128557234Y-69804280D01*
X128557234Y-103969820D02*
X128633434Y-104046020D01*
X129171069Y-72346940D02*
X129171069Y-104978320D01*
X129171069Y-53644920D02*
X129171069Y-72346940D01*
X129171069Y-104978320D02*
X128847569Y-105301820D01*
X129707009Y-74874240D02*
X129657109Y-74924140D01*
X129696849Y-74864080D02*
X129707009Y-74874240D01*
X129657109Y-74924140D02*
X129657109Y-108248940D01*
X129696849Y-56215400D02*
X129696849Y-74864080D01*
X129657109Y-108248940D02*
X128794229Y-109111820D01*
X127977269Y-110325609D02*
X128033480Y-110381820D01*
X127977269Y-72339320D02*
X127977269Y-110325609D01*
X127977269Y-53644920D02*
X127977269Y-72339320D01*
X127443869Y-56210320D02*
X127443869Y-74904720D01*
X127443869Y-74904720D02*
X127443869Y-88130420D01*
X130316609Y-77414240D02*
X130316609Y-89588460D01*
X130316609Y-58752860D02*
X130316609Y-77414240D01*
X124393669Y-58755833D02*
X124393669Y-77417120D01*
X124393669Y-77417120D02*
X124393669Y-93368320D01*
X124393669Y-93368320D02*
X124395869Y-93370520D01*
X130982089Y-79969480D02*
X130982089Y-94627820D01*
X130982089Y-94627820D02*
X130964309Y-94645600D01*
X130982089Y-61297940D02*
X130982089Y-79969480D01*
X112014000Y-51130200D02*
X112014000Y-103962200D01*
X112014000Y-103962200D02*
X112090200Y-104038400D01*
X112649000Y-53644800D02*
X112649000Y-72346820D01*
X112649000Y-72346820D02*
X112649000Y-104978200D01*
X112649000Y-104978200D02*
X112325500Y-105301700D01*
X113174780Y-56215280D02*
X113174780Y-74863960D01*
X113184940Y-74874120D02*
X113135040Y-74924020D01*
X113174780Y-74863960D02*
X113184940Y-74874120D01*
X113135040Y-108248820D02*
X112272160Y-109111700D01*
X113135040Y-74924020D02*
X113135040Y-108248820D01*
X111455200Y-53644800D02*
X111455200Y-72339200D01*
X111455200Y-72339200D02*
X111455200Y-110325489D01*
X111455200Y-110325489D02*
X111511411Y-110381700D01*
X110921800Y-56210200D02*
X110921800Y-74904600D01*
X110920093Y-88288168D02*
X110921800Y-88130300D01*
X110921800Y-88130300D02*
X110921800Y-74904600D01*
X113794540Y-77414120D02*
X113794540Y-89588340D01*
X113794540Y-58752740D02*
X113794540Y-77414120D01*
D15*
X107871600Y-91593700D02*
X107871600Y-77417000D01*
X107871600Y-58755713D02*
X107871600Y-77417000D01*
X109648300Y-93370400D02*
X107871600Y-91593700D01*
D14*
X114460020Y-61297820D02*
X114460020Y-79969360D01*
X114460020Y-79969360D02*
X114460020Y-94627700D01*
X114460020Y-94627700D02*
X114442240Y-94645480D01*
X171429851Y-69870149D02*
X171429851Y-51175885D01*
X171430915Y-117553808D02*
X171429851Y-117465937D01*
X171429851Y-117465937D02*
X171429851Y-112409573D01*
X171429851Y-112409573D02*
X171429851Y-69870149D01*
X157426660Y-115877340D02*
X157426660Y-125676660D01*
X157426660Y-125676660D02*
X157480000Y-125730000D01*
D15*
X157426660Y-74788901D02*
X157426660Y-74876660D01*
D14*
X157426660Y-115877340D02*
X157426660Y-74876660D01*
X143779240Y-106243120D02*
X143764000Y-106227880D01*
X143764000Y-86337140D02*
X143758920Y-86332060D01*
X143764000Y-106227880D02*
X143764000Y-86337140D01*
X164061140Y-134343140D02*
X164084000Y-134366000D01*
X164061140Y-103527860D02*
X164061140Y-127485140D01*
X163451540Y-102918260D02*
X164061140Y-103527860D01*
X164061140Y-127485140D02*
X164061140Y-134343140D01*
X162153600Y-136480922D02*
X162153600Y-104152700D01*
X162172931Y-136500253D02*
X162153600Y-136480922D01*
X162153600Y-104152700D02*
X162659060Y-103647240D01*
X172466000Y-131318000D02*
X172466000Y-139642440D01*
X172466000Y-100076000D02*
X172466000Y-131318000D01*
X167894000Y-118364000D02*
X167894000Y-113030000D01*
X163068000Y-128270000D02*
X163068000Y-110998000D01*
X170027600Y-115003580D02*
X170027600Y-135788400D01*
X170027600Y-135788400D02*
X169633521Y-136182479D01*
M02*
