%TF.GenerationSoftware,KiCad,Pcbnew,(6.0.5)*%
%TF.CreationDate,2022-09-09T10:51:32+02:00*%
%TF.ProjectId,B2,42322e6b-6963-4616-945f-706362585858,rev?*%
%TF.SameCoordinates,Original*%
%TF.FileFunction,Copper,L1,Top*%
%TF.FilePolarity,Positive*%
%FSLAX46Y46*%
G04 Gerber Fmt 4.6, Leading zero omitted, Abs format (unit mm)*
G04 Created by KiCad (PCBNEW (6.0.5)) date 2022-09-09 10:51:32*
%MOMM*%
%LPD*%
G01*
G04 APERTURE LIST*
G04 Aperture macros list*
%AMRoundRect*
0 Rectangle with rounded corners*
0 $1 Rounding radius*
0 $2 $3 $4 $5 $6 $7 $8 $9 X,Y pos of 4 corners*
0 Add a 4 corners polygon primitive as box body*
4,1,4,$2,$3,$4,$5,$6,$7,$8,$9,$2,$3,0*
0 Add four circle primitives for the rounded corners*
1,1,$1+$1,$2,$3*
1,1,$1+$1,$4,$5*
1,1,$1+$1,$6,$7*
1,1,$1+$1,$8,$9*
0 Add four rect primitives between the rounded corners*
20,1,$1+$1,$2,$3,$4,$5,0*
20,1,$1+$1,$4,$5,$6,$7,0*
20,1,$1+$1,$6,$7,$8,$9,0*
20,1,$1+$1,$8,$9,$2,$3,0*%
G04 Aperture macros list end*
%TA.AperFunction,SMDPad,CuDef*%
%ADD10RoundRect,0.225000X-0.225000X-0.250000X0.225000X-0.250000X0.225000X0.250000X-0.225000X0.250000X0*%
%TD*%
%TA.AperFunction,SMDPad,CuDef*%
%ADD11RoundRect,0.150000X-0.825000X-0.150000X0.825000X-0.150000X0.825000X0.150000X-0.825000X0.150000X0*%
%TD*%
%TA.AperFunction,SMDPad,CuDef*%
%ADD12RoundRect,0.150000X-0.875000X-0.150000X0.875000X-0.150000X0.875000X0.150000X-0.875000X0.150000X0*%
%TD*%
%TA.AperFunction,ComponentPad*%
%ADD13C,5.600000*%
%TD*%
%TA.AperFunction,ComponentPad*%
%ADD14R,1.700000X1.700000*%
%TD*%
%TA.AperFunction,ComponentPad*%
%ADD15O,1.700000X1.700000*%
%TD*%
%TA.AperFunction,ViaPad*%
%ADD16C,0.500000*%
%TD*%
%TA.AperFunction,Conductor*%
%ADD17C,0.090000*%
%TD*%
%TA.AperFunction,Conductor*%
%ADD18C,0.127000*%
%TD*%
%TA.AperFunction,Conductor*%
%ADD19C,0.254000*%
%TD*%
%TA.AperFunction,Conductor*%
%ADD20C,0.400000*%
%TD*%
G04 APERTURE END LIST*
D10*
%TO.P,C304,1*%
%TO.N,VCC*%
X150837600Y-79349600D03*
%TO.P,C304,2*%
%TO.N,GND*%
X152387600Y-79349600D03*
%TD*%
%TO.P,C312,1*%
%TO.N,VCC*%
X135623000Y-66421000D03*
%TO.P,C312,2*%
%TO.N,GND*%
X137173000Y-66421000D03*
%TD*%
%TO.P,C319,1*%
%TO.N,VCC*%
X182689200Y-124968000D03*
%TO.P,C319,2*%
%TO.N,GND*%
X184239200Y-124968000D03*
%TD*%
D11*
%TO.P,U212,1,Ea*%
%TO.N,GND*%
X160651420Y-81150600D03*
%TO.P,U212,2,S1*%
X160651420Y-82420600D03*
%TO.P,U212,3,I3a*%
X160651420Y-83690600D03*
%TO.P,U212,4,I2a*%
X160651420Y-84960600D03*
%TO.P,U212,5,I1a*%
%TO.N,/timerb/TBTOGGLE*%
X160651420Y-86230600D03*
%TO.P,U212,6,I0a*%
%TO.N,TBPULSE*%
X160651420Y-87500600D03*
%TO.P,U212,7,Za*%
%TO.N,TBOUT*%
X160651420Y-88770600D03*
%TO.P,U212,8,GND*%
%TO.N,GND*%
X160651420Y-90040600D03*
%TO.P,U212,9,Zb*%
%TO.N,unconnected-(U212-Pad9)*%
X165601420Y-90040600D03*
%TO.P,U212,10,I0b*%
%TO.N,GND*%
X165601420Y-88770600D03*
%TO.P,U212,11,I1b*%
X165601420Y-87500600D03*
%TO.P,U212,12,I2b*%
X165601420Y-86230600D03*
%TO.P,U212,13,I3b*%
X165601420Y-84960600D03*
%TO.P,U212,14,S0*%
%TO.N,/TBOUTMODE*%
X165601420Y-83690600D03*
%TO.P,U212,15,Eb*%
%TO.N,GND*%
X165601420Y-82420600D03*
%TO.P,U212,16,VCC*%
%TO.N,VCC*%
X165601420Y-81150600D03*
%TD*%
D10*
%TO.P,C999,1*%
%TO.N,VCC*%
X166128400Y-108458000D03*
%TO.P,C999,2*%
%TO.N,GND*%
X167678400Y-108458000D03*
%TD*%
%TO.P,C310,1*%
%TO.N,VCC*%
X135648400Y-47828200D03*
%TO.P,C310,2*%
%TO.N,GND*%
X137198400Y-47828200D03*
%TD*%
D11*
%TO.P,U214,1,B*%
%TO.N,/timerb/timer16/TBHI5*%
X111511411Y-87009200D03*
%TO.P,U214,2,QB*%
%TO.N,/timerb/timer16/TB13*%
X111511411Y-88279200D03*
%TO.P,U214,3,QA*%
%TO.N,/timerb/timer16/TB12*%
X111511411Y-89549200D03*
%TO.P,U214,4,DOWN*%
%TO.N,Net-(U214-Pad4)*%
X111511411Y-90819200D03*
%TO.P,U214,5,UP*%
%TO.N,VCC*%
X111511411Y-92089200D03*
%TO.P,U214,6,QC*%
%TO.N,/timerb/timer16/TB14*%
X111511411Y-93359200D03*
%TO.P,U214,7,QD*%
%TO.N,/timerb/timer16/TB15*%
X111511411Y-94629200D03*
%TO.P,U214,8,GND*%
%TO.N,GND*%
X111511411Y-95899200D03*
%TO.P,U214,9,D*%
%TO.N,/timerb/timer16/TBHI7*%
X116461411Y-95899200D03*
%TO.P,U214,10,C*%
%TO.N,/timerb/timer16/TBHI6*%
X116461411Y-94629200D03*
%TO.P,U214,11,~{LOAD}*%
%TO.N,/timerb/~{TBLOAD}*%
X116461411Y-93359200D03*
%TO.P,U214,12,~{CO}*%
%TO.N,unconnected-(U214-Pad12)*%
X116461411Y-92089200D03*
%TO.P,U214,13,~{BO}*%
%TO.N,unconnected-(U214-Pad13)*%
X116461411Y-90819200D03*
%TO.P,U214,14,CLR*%
%TO.N,GND*%
X116461411Y-89549200D03*
%TO.P,U214,15,A*%
%TO.N,/timerb/timer16/TBHI4*%
X116461411Y-88279200D03*
%TO.P,U214,16,VCC*%
%TO.N,VCC*%
X116461411Y-87009200D03*
%TD*%
D10*
%TO.P,C329,1*%
%TO.N,VCC*%
X166128400Y-119989600D03*
%TO.P,C329,2*%
%TO.N,GND*%
X167678400Y-119989600D03*
%TD*%
%TO.P,C316,1*%
%TO.N,VCC*%
X135648400Y-84709000D03*
%TO.P,C316,2*%
%TO.N,GND*%
X137198400Y-84709000D03*
%TD*%
D12*
%TO.P,U207,1,G*%
%TO.N,/timerb/timer16/TBCOMPCASCADE*%
X125846411Y-68536700D03*
%TO.P,U207,2,P0*%
%TO.N,/timerb/timer16/TB1*%
X125846411Y-69806700D03*
%TO.P,U207,3,R0*%
%TO.N,GND*%
X125846411Y-71076700D03*
%TO.P,U207,4,P1*%
%TO.N,/timerb/timer16/TB3*%
X125846411Y-72346700D03*
%TO.P,U207,5,R1*%
%TO.N,GND*%
X125846411Y-73616700D03*
%TO.P,U207,6,P2*%
%TO.N,/timerb/timer16/TB5*%
X125846411Y-74886700D03*
%TO.P,U207,7,R2*%
%TO.N,GND*%
X125846411Y-76156700D03*
%TO.P,U207,8,P3*%
%TO.N,/timerb/timer16/TB6*%
X125846411Y-77426700D03*
%TO.P,U207,9,R3*%
%TO.N,GND*%
X125846411Y-78696700D03*
%TO.P,U207,10,GND*%
X125846411Y-79966700D03*
%TO.P,U207,11,P4*%
%TO.N,/timerb/timer16/TB7*%
X135146411Y-79966700D03*
%TO.P,U207,12,R4*%
%TO.N,GND*%
X135146411Y-78696700D03*
%TO.P,U207,13,P5*%
%TO.N,/timerb/timer16/TB4*%
X135146411Y-77426700D03*
%TO.P,U207,14,R5*%
%TO.N,GND*%
X135146411Y-76156700D03*
%TO.P,U207,15,P6*%
%TO.N,/timerb/timer16/TB2*%
X135146411Y-74886700D03*
%TO.P,U207,16,R6*%
%TO.N,GND*%
X135146411Y-73616700D03*
%TO.P,U207,17,P7*%
%TO.N,/timerb/timer16/TB0*%
X135146411Y-72346700D03*
%TO.P,U207,18,R7*%
%TO.N,GND*%
X135146411Y-71076700D03*
%TO.P,U207,19,P=R*%
%TO.N,/timerb/timer16/~{TIMER_UNDERFLOW}*%
X135146411Y-69806700D03*
%TO.P,U207,20,VCC*%
%TO.N,VCC*%
X135146411Y-68536700D03*
%TD*%
D10*
%TO.P,C317,1*%
%TO.N,VCC*%
X119113000Y-47828200D03*
%TO.P,C317,2*%
%TO.N,GND*%
X120663000Y-47828200D03*
%TD*%
D11*
%TO.P,U223,1,~{R}*%
%TO.N,Net-(U223-Pad1)*%
X175011411Y-112473074D03*
%TO.P,U223,2,D*%
%TO.N,DZ0*%
X175011411Y-113743074D03*
%TO.P,U223,3,C*%
%TO.N,Net-(U223-Pad11)*%
X175011411Y-115013074D03*
%TO.P,U223,4,~{S}*%
%TO.N,VCC*%
X175011411Y-116283074D03*
%TO.P,U223,5,Q*%
%TO.N,/cregb/rTBSTART*%
X175011411Y-117553074D03*
%TO.P,U223,6,~{Q}*%
%TO.N,unconnected-(U223-Pad6)*%
X175011411Y-118823074D03*
%TO.P,U223,7,GND*%
%TO.N,GND*%
X175011411Y-120093074D03*
%TO.P,U223,8,~{Q}*%
%TO.N,unconnected-(U223-Pad8)*%
X179961411Y-120093074D03*
%TO.P,U223,9,Q*%
%TO.N,Net-(U222-Pad12)*%
X179961411Y-118823074D03*
%TO.P,U223,10,~{S}*%
%TO.N,VCC*%
X179961411Y-117553074D03*
%TO.P,U223,11,C*%
%TO.N,Net-(U223-Pad11)*%
X179961411Y-116283074D03*
%TO.P,U223,12,D*%
%TO.N,DZ4*%
X179961411Y-115013074D03*
%TO.P,U223,13,~{R}*%
%TO.N,/~{PHI2}*%
X179961411Y-113743074D03*
%TO.P,U223,14,VCC*%
%TO.N,VCC*%
X179961411Y-112473074D03*
%TD*%
D13*
%TO.P,GND102,GND*%
%TO.N,GND*%
X196406802Y-56930538D03*
%TD*%
D12*
%TO.P,U205,1,1OE*%
%TO.N,/cregb/~{OE14}*%
X172785611Y-49911000D03*
%TO.P,U205,2,1A0*%
%TO.N,/cregb/rTBSTART*%
X172785611Y-51181000D03*
%TO.P,U205,3,2Y0*%
%TO.N,D1*%
X172785611Y-52451000D03*
%TO.P,U205,4,1A1*%
%TO.N,/TBOUTMODE*%
X172785611Y-53721000D03*
%TO.P,U205,5,2Y1*%
%TO.N,D3*%
X172785611Y-54991000D03*
%TO.P,U205,6,1A2*%
%TO.N,GND*%
X172785611Y-56261000D03*
%TO.P,U205,7,2Y2*%
%TO.N,D5*%
X172785611Y-57531000D03*
%TO.P,U205,8,1A3*%
%TO.N,/TBINMODE1*%
X172785611Y-58801000D03*
%TO.P,U205,9,2Y3*%
%TO.N,D7*%
X172785611Y-60071000D03*
%TO.P,U205,10,GND*%
%TO.N,GND*%
X172785611Y-61341000D03*
%TO.P,U205,11,2A3*%
%TO.N,ALARM*%
X182085611Y-61341000D03*
%TO.P,U205,12,1Y3*%
%TO.N,D6*%
X182085611Y-60071000D03*
%TO.P,U205,13,2A2*%
%TO.N,/TBINMODE0*%
X182085611Y-58801000D03*
%TO.P,U205,14,1Y2*%
%TO.N,D4*%
X182085611Y-57531000D03*
%TO.P,U205,15,2A1*%
%TO.N,/cregb/TBRUNMODE*%
X182085611Y-56261000D03*
%TO.P,U205,16,1Y1*%
%TO.N,D2*%
X182085611Y-54991000D03*
%TO.P,U205,17,2A0*%
%TO.N,PB7ON*%
X182085611Y-53721000D03*
%TO.P,U205,18,1Y0*%
%TO.N,D0*%
X182085611Y-52451000D03*
%TO.P,U205,19,2OE*%
%TO.N,/cregb/~{OE14}*%
X182085611Y-51181000D03*
%TO.P,U205,20,VCC*%
%TO.N,VCC*%
X182085611Y-49911000D03*
%TD*%
D10*
%TO.P,C324,1*%
%TO.N,VCC*%
X182689200Y-110388400D03*
%TO.P,C324,2*%
%TO.N,GND*%
X184239200Y-110388400D03*
%TD*%
%TO.P,C305,1*%
%TO.N,VCC*%
X119087600Y-116382800D03*
%TO.P,C305,2*%
%TO.N,GND*%
X120637600Y-116382800D03*
%TD*%
D13*
%TO.P,GND101,GND*%
%TO.N,GND*%
X103406802Y-56930538D03*
%TD*%
D10*
%TO.P,C325,1*%
%TO.N,VCC*%
X150837600Y-125044200D03*
%TO.P,C325,2*%
%TO.N,GND*%
X152387600Y-125044200D03*
%TD*%
%TO.P,C315,1*%
%TO.N,VCC*%
X135623000Y-116382800D03*
%TO.P,C315,2*%
%TO.N,GND*%
X137173000Y-116382800D03*
%TD*%
%TO.P,C318,1*%
%TO.N,VCC*%
X119087600Y-66421000D03*
%TO.P,C318,2*%
%TO.N,GND*%
X120637600Y-66421000D03*
%TD*%
D11*
%TO.P,U215,1,B*%
%TO.N,/timerb/timer16/TBLO5*%
X128021411Y-87009200D03*
%TO.P,U215,2,QB*%
%TO.N,/timerb/timer16/TB5*%
X128021411Y-88279200D03*
%TO.P,U215,3,QA*%
%TO.N,/timerb/timer16/TB4*%
X128021411Y-89549200D03*
%TO.P,U215,4,DOWN*%
%TO.N,Net-(U215-Pad4)*%
X128021411Y-90819200D03*
%TO.P,U215,5,UP*%
%TO.N,VCC*%
X128021411Y-92089200D03*
%TO.P,U215,6,QC*%
%TO.N,/timerb/timer16/TB6*%
X128021411Y-93359200D03*
%TO.P,U215,7,QD*%
%TO.N,/timerb/timer16/TB7*%
X128021411Y-94629200D03*
%TO.P,U215,8,GND*%
%TO.N,GND*%
X128021411Y-95899200D03*
%TO.P,U215,9,D*%
%TO.N,/timerb/timer16/TBLO7*%
X132971411Y-95899200D03*
%TO.P,U215,10,C*%
%TO.N,/timerb/timer16/TBLO6*%
X132971411Y-94629200D03*
%TO.P,U215,11,~{LOAD}*%
%TO.N,/timerb/~{TBLOAD}*%
X132971411Y-93359200D03*
%TO.P,U215,12,~{CO}*%
%TO.N,unconnected-(U215-Pad12)*%
X132971411Y-92089200D03*
%TO.P,U215,13,~{BO}*%
%TO.N,Net-(U215-Pad13)*%
X132971411Y-90819200D03*
%TO.P,U215,14,CLR*%
%TO.N,GND*%
X132971411Y-89549200D03*
%TO.P,U215,15,A*%
%TO.N,/timerb/timer16/TBLO4*%
X132971411Y-88279200D03*
%TO.P,U215,16,VCC*%
%TO.N,VCC*%
X132971411Y-87009200D03*
%TD*%
D10*
%TO.P,C302,1*%
%TO.N,VCC*%
X182689200Y-79273400D03*
%TO.P,C302,2*%
%TO.N,GND*%
X184239200Y-79273400D03*
%TD*%
D13*
%TO.P,VCC102,VCC*%
%TO.N,VCC*%
X196406802Y-141055538D03*
%TD*%
D12*
%TO.P,U225,1,~{E}*%
%TO.N,/timerb/~{WETBLO}*%
X125846411Y-118694200D03*
%TO.P,U225,2,Q0*%
%TO.N,/timerb/timer16/TBLO7*%
X125846411Y-119964200D03*
%TO.P,U225,3,D0*%
%TO.N,/resetData/DO7*%
X125846411Y-121234200D03*
%TO.P,U225,4,D1*%
%TO.N,/resetData/DO5*%
X125846411Y-122504200D03*
%TO.P,U225,5,Q1*%
%TO.N,/timerb/timer16/TBLO5*%
X125846411Y-123774200D03*
%TO.P,U225,6,Q2*%
%TO.N,/timerb/timer16/TBLO3*%
X125846411Y-125044200D03*
%TO.P,U225,7,D2*%
%TO.N,/resetData/DO3*%
X125846411Y-126314200D03*
%TO.P,U225,8,D3*%
%TO.N,/resetData/DO1*%
X125846411Y-127584200D03*
%TO.P,U225,9,Q3*%
%TO.N,/timerb/timer16/TBLO1*%
X125846411Y-128854200D03*
%TO.P,U225,10,GND*%
%TO.N,GND*%
X125846411Y-130124200D03*
%TO.P,U225,11,CP*%
%TO.N,/~{PHI2}*%
X135146411Y-130124200D03*
%TO.P,U225,12,Q4*%
%TO.N,/timerb/timer16/TBLO0*%
X135146411Y-128854200D03*
%TO.P,U225,13,D4*%
%TO.N,/resetData/DO0*%
X135146411Y-127584200D03*
%TO.P,U225,14,D5*%
%TO.N,/resetData/DO2*%
X135146411Y-126314200D03*
%TO.P,U225,15,Q5*%
%TO.N,/timerb/timer16/TBLO2*%
X135146411Y-125044200D03*
%TO.P,U225,16,Q6*%
%TO.N,/timerb/timer16/TBLO4*%
X135146411Y-123774200D03*
%TO.P,U225,17,D6*%
%TO.N,/resetData/DO4*%
X135146411Y-122504200D03*
%TO.P,U225,18,D7*%
%TO.N,/resetData/DO6*%
X135146411Y-121234200D03*
%TO.P,U225,19,Q7*%
%TO.N,/timerb/timer16/TBLO6*%
X135146411Y-119964200D03*
%TO.P,U225,20,VCC*%
%TO.N,VCC*%
X135146411Y-118694200D03*
%TD*%
D11*
%TO.P,U204,1*%
%TO.N,/resetData/RES*%
X160567600Y-53721000D03*
%TO.P,U204,2*%
%TO.N,D4*%
X160567600Y-54991000D03*
%TO.P,U204,3*%
%TO.N,/resetData/DO4*%
X160567600Y-56261000D03*
%TO.P,U204,4*%
%TO.N,D6*%
X160567600Y-57531000D03*
%TO.P,U204,5*%
%TO.N,/resetData/RES*%
X160567600Y-58801000D03*
%TO.P,U204,6*%
%TO.N,/resetData/DO6*%
X160567600Y-60071000D03*
%TO.P,U204,7,GND*%
%TO.N,GND*%
X160567600Y-61341000D03*
%TO.P,U204,8*%
%TO.N,/resetData/DO7*%
X165517600Y-61341000D03*
%TO.P,U204,9*%
%TO.N,D7*%
X165517600Y-60071000D03*
%TO.P,U204,10*%
%TO.N,/resetData/RES*%
X165517600Y-58801000D03*
%TO.P,U204,11*%
%TO.N,/resetData/DO5*%
X165517600Y-57531000D03*
%TO.P,U204,12*%
%TO.N,D5*%
X165517600Y-56261000D03*
%TO.P,U204,13*%
%TO.N,/resetData/RES*%
X165517600Y-54991000D03*
%TO.P,U204,14,VCC*%
%TO.N,VCC*%
X165517600Y-53721000D03*
%TD*%
D14*
%TO.P,DATABUS2,1,Pin_1*%
%TO.N,D7*%
X190000000Y-65000000D03*
D15*
%TO.P,DATABUS2,2,Pin_2*%
%TO.N,D6*%
X192540000Y-65000000D03*
%TO.P,DATABUS2,3,Pin_3*%
%TO.N,D5*%
X190000000Y-67540000D03*
%TO.P,DATABUS2,4,Pin_4*%
%TO.N,D4*%
X192540000Y-67540000D03*
%TO.P,DATABUS2,5,Pin_5*%
%TO.N,D3*%
X190000000Y-70080000D03*
%TO.P,DATABUS2,6,Pin_6*%
%TO.N,D2*%
X192540000Y-70080000D03*
%TO.P,DATABUS2,7,Pin_7*%
%TO.N,D1*%
X190000000Y-72620000D03*
%TO.P,DATABUS2,8,Pin_8*%
%TO.N,D0*%
X192540000Y-72620000D03*
%TO.P,DATABUS2,9,Pin_9*%
%TO.N,VCC*%
X190000000Y-75160000D03*
%TO.P,DATABUS2,10,Pin_10*%
%TO.N,GND*%
X192540000Y-75160000D03*
%TO.P,DATABUS2,11,Pin_11*%
%TO.N,VCC*%
X190000000Y-77700000D03*
%TO.P,DATABUS2,12,Pin_12*%
%TO.N,GND*%
X192540000Y-77700000D03*
%TO.P,DATABUS2,13,Pin_13*%
%TO.N,DZ0*%
X190000000Y-80240000D03*
%TO.P,DATABUS2,14,Pin_14*%
%TO.N,DZ4*%
X192540000Y-80240000D03*
%TO.P,DATABUS2,15,Pin_15*%
%TO.N,DZ7*%
X190000000Y-82780000D03*
%TO.P,DATABUS2,16,Pin_16*%
%TO.N,DZ3*%
X192540000Y-82780000D03*
%TO.P,DATABUS2,17,Pin_17*%
%TO.N,DZ1*%
X190000000Y-85320000D03*
%TO.P,DATABUS2,18,Pin_18*%
%TO.N,DZ5*%
X192540000Y-85320000D03*
%TO.P,DATABUS2,19,Pin_19*%
%TO.N,DZ6*%
X190000000Y-87860000D03*
%TO.P,DATABUS2,20,Pin_20*%
%TO.N,DZ2*%
X192540000Y-87860000D03*
%TD*%
D10*
%TO.P,C321,1*%
%TO.N,VCC*%
X134327600Y-100838000D03*
%TO.P,C321,2*%
%TO.N,GND*%
X135877600Y-100838000D03*
%TD*%
%TO.P,C303,1*%
%TO.N,VCC*%
X167881000Y-53416200D03*
%TO.P,C303,2*%
%TO.N,GND*%
X169431000Y-53416200D03*
%TD*%
D11*
%TO.P,U210,1*%
%TO.N,PHI2*%
X175011411Y-67178179D03*
%TO.P,U210,2*%
%TO.N,/~{PHI2}*%
X175011411Y-68448179D03*
%TO.P,U210,3*%
%TO.N,VCC*%
X175011411Y-69718179D03*
%TO.P,U210,4*%
%TO.N,unconnected-(U210-Pad4)*%
X175011411Y-70988179D03*
%TO.P,U210,5*%
%TO.N,VCC*%
X175011411Y-72258179D03*
%TO.P,U210,6*%
%TO.N,unconnected-(U210-Pad6)*%
X175011411Y-73528179D03*
%TO.P,U210,7,GND*%
%TO.N,GND*%
X175011411Y-74798179D03*
%TO.P,U210,8*%
%TO.N,/resetData/RES*%
X179961411Y-74798179D03*
%TO.P,U210,9*%
%TO.N,~{RES}*%
X179961411Y-73528179D03*
%TO.P,U210,10*%
%TO.N,/cregb/WE14*%
X179961411Y-72258179D03*
%TO.P,U210,11*%
%TO.N,/cregb/~{WE14}*%
X179961411Y-70988179D03*
%TO.P,U210,12*%
%TO.N,/timerb/TBPULSESET*%
X179961411Y-69718179D03*
%TO.P,U210,13*%
%TO.N,/cregb/TBUNDERFLOW*%
X179961411Y-68448179D03*
%TO.P,U210,14,VCC*%
%TO.N,VCC*%
X179961411Y-67178179D03*
%TD*%
%TO.P,U222,1,~{R}*%
%TO.N,VCC*%
X160702220Y-110490000D03*
%TO.P,U222,2,D*%
%TO.N,/cregb/rTBSTART*%
X160702220Y-111760000D03*
%TO.P,U222,3,C*%
%TO.N,/~{PHI2}*%
X160702220Y-113030000D03*
%TO.P,U222,4,~{S}*%
%TO.N,VCC*%
X160702220Y-114300000D03*
%TO.P,U222,5,Q*%
%TO.N,/timerb/TBSTART*%
X160702220Y-115570000D03*
%TO.P,U222,6,~{Q}*%
%TO.N,/cregb/~{TBSTART}*%
X160702220Y-116840000D03*
%TO.P,U222,7,GND*%
%TO.N,GND*%
X160702220Y-118110000D03*
%TO.P,U222,8,~{Q}*%
%TO.N,unconnected-(U222-Pad8)*%
X165652220Y-118110000D03*
%TO.P,U222,9,Q*%
%TO.N,/TBLOAD*%
X165652220Y-116840000D03*
%TO.P,U222,10,~{S}*%
%TO.N,VCC*%
X165652220Y-115570000D03*
%TO.P,U222,11,C*%
%TO.N,PHI2*%
X165652220Y-114300000D03*
%TO.P,U222,12,D*%
%TO.N,Net-(U222-Pad12)*%
X165652220Y-113030000D03*
%TO.P,U222,13,~{R}*%
%TO.N,VCC*%
X165652220Y-111760000D03*
%TO.P,U222,14,VCC*%
X165652220Y-110490000D03*
%TD*%
%TO.P,U211,1*%
%TO.N,/timerb/TBSTART*%
X145469581Y-81254600D03*
%TO.P,U211,2*%
%TO.N,GND*%
X145469581Y-82524600D03*
%TO.P,U211,3*%
%TO.N,/timerb/timer16/~{TIMER_UNDERFLOW}*%
X145469581Y-83794600D03*
%TO.P,U211,4*%
%TO.N,GND*%
X145469581Y-85064600D03*
%TO.P,U211,5*%
%TO.N,Net-(U211-Pad5)*%
X145469581Y-86334600D03*
%TO.P,U211,6*%
%TO.N,/cregb/TBUNDERFLOW*%
X145469581Y-87604600D03*
%TO.P,U211,7,GND*%
%TO.N,GND*%
X145469581Y-88874600D03*
%TO.P,U211,8*%
%TO.N,Net-(U211-Pad8)*%
X150419581Y-88874600D03*
%TO.P,U211,9*%
%TO.N,/cregb/TBUNDERFLOW*%
X150419581Y-87604600D03*
%TO.P,U211,10*%
%TO.N,/TBLOAD*%
X150419581Y-86334600D03*
%TO.P,U211,11*%
%TO.N,Net-(U211-Pad11)*%
X150419581Y-85064600D03*
%TO.P,U211,12*%
X150419581Y-83794600D03*
%TO.P,U211,13*%
%TO.N,/timerb/~{WETBHI}*%
X150419581Y-82524600D03*
%TO.P,U211,14,VCC*%
%TO.N,VCC*%
X150419581Y-81254600D03*
%TD*%
D10*
%TO.P,C314,1*%
%TO.N,VCC*%
X150850600Y-95504000D03*
%TO.P,C314,2*%
%TO.N,GND*%
X152400600Y-95504000D03*
%TD*%
D11*
%TO.P,U209,1,~{R}*%
%TO.N,/~{PHI2}*%
X160702220Y-67178179D03*
%TO.P,U209,2,D*%
%TO.N,VCC*%
X160702220Y-68448179D03*
%TO.P,U209,3,C*%
%TO.N,/timerb/TBSTART*%
X160702220Y-69718179D03*
%TO.P,U209,4,~{S}*%
%TO.N,VCC*%
X160702220Y-70988179D03*
%TO.P,U209,5,Q*%
%TO.N,unconnected-(U209-Pad5)*%
X160702220Y-72258179D03*
%TO.P,U209,6,~{Q}*%
%TO.N,/timerb/TBTOGGLESET*%
X160702220Y-73528179D03*
%TO.P,U209,7,GND*%
%TO.N,GND*%
X160702220Y-74798179D03*
%TO.P,U209,8,~{Q}*%
%TO.N,/timerb/~{TBTOGGLE}*%
X165652220Y-74798179D03*
%TO.P,U209,9,Q*%
%TO.N,/timerb/TBTOGGLE*%
X165652220Y-73528179D03*
%TO.P,U209,10,~{S}*%
%TO.N,/timerb/TBTOGGLESET*%
X165652220Y-72258179D03*
%TO.P,U209,11,C*%
%TO.N,TBPULSE*%
X165652220Y-70988179D03*
%TO.P,U209,12,D*%
%TO.N,/timerb/~{TBTOGGLE}*%
X165652220Y-69718179D03*
%TO.P,U209,13,~{R}*%
%TO.N,~{RES}*%
X165652220Y-68448179D03*
%TO.P,U209,14,VCC*%
%TO.N,VCC*%
X165652220Y-67178179D03*
%TD*%
D10*
%TO.P,C307,1*%
%TO.N,VCC*%
X182867000Y-94996000D03*
%TO.P,C307,2*%
%TO.N,GND*%
X184417000Y-94996000D03*
%TD*%
D14*
%TO.P,CONTROLBUS2,1,Pin_1*%
%TO.N,TASTART*%
X192500000Y-132660000D03*
D15*
%TO.P,CONTROLBUS2,2,Pin_2*%
%TO.N,PB6ON*%
X189960000Y-132660000D03*
%TO.P,CONTROLBUS2,3,Pin_3*%
%TO.N,CNT*%
X192500000Y-130120000D03*
%TO.P,CONTROLBUS2,4,Pin_4*%
%TO.N,PB7ON*%
X189960000Y-130120000D03*
%TO.P,CONTROLBUS2,5,Pin_5*%
%TO.N,SP*%
X192500000Y-127580000D03*
%TO.P,CONTROLBUS2,6,Pin_6*%
%TO.N,TAOUT*%
X189960000Y-127580000D03*
%TO.P,CONTROLBUS2,7,Pin_7*%
%TO.N,PHI2*%
X192500000Y-125040000D03*
%TO.P,CONTROLBUS2,8,Pin_8*%
%TO.N,TBOUT*%
X189960000Y-125040000D03*
%TO.P,CONTROLBUS2,9,Pin_9*%
%TO.N,~{FLAG}*%
X192500000Y-122500000D03*
%TO.P,CONTROLBUS2,10,Pin_10*%
%TO.N,SPMODE*%
X189960000Y-122500000D03*
%TO.P,CONTROLBUS2,11,Pin_11*%
%TO.N,TOD*%
X192500000Y-119960000D03*
%TO.P,CONTROLBUS2,12,Pin_12*%
%TO.N,TODIN*%
X189960000Y-119960000D03*
%TO.P,CONTROLBUS2,13,Pin_13*%
%TO.N,TAPULSE*%
X192500000Y-117420000D03*
%TO.P,CONTROLBUS2,14,Pin_14*%
%TO.N,ALARM*%
X189960000Y-117420000D03*
%TO.P,CONTROLBUS2,15,Pin_15*%
%TO.N,TBPULSE*%
X192500000Y-114880000D03*
%TO.P,CONTROLBUS2,16,Pin_16*%
%TO.N,ENABLE_NAND*%
X189960000Y-114880000D03*
%TO.P,CONTROLBUS2,17,Pin_17*%
%TO.N,TODIRQ*%
X192500000Y-112340000D03*
%TO.P,CONTROLBUS2,18,Pin_18*%
%TO.N,TARUNMODE*%
X189960000Y-112340000D03*
%TO.P,CONTROLBUS2,19,Pin_19*%
%TO.N,~{IRQ}*%
X192500000Y-109800000D03*
%TO.P,CONTROLBUS2,20,Pin_20*%
%TO.N,~{RES}*%
X189960000Y-109800000D03*
%TD*%
D13*
%TO.P,VCC101,VCC*%
%TO.N,VCC*%
X103406802Y-141055538D03*
%TD*%
D10*
%TO.P,C309,1*%
%TO.N,VCC*%
X150805000Y-47700000D03*
%TO.P,C309,2*%
%TO.N,GND*%
X152355000Y-47700000D03*
%TD*%
D11*
%TO.P,U229,1*%
%TO.N,/cregb/WE14*%
X160702220Y-133096000D03*
%TO.P,U229,2*%
%TO.N,/~{PHI2}*%
X160702220Y-134366000D03*
%TO.P,U229,3*%
%TO.N,Net-(U223-Pad11)*%
X160702220Y-135636000D03*
%TO.P,U229,4*%
%TO.N,Net-(U217-Pad9)*%
X160702220Y-136906000D03*
%TO.P,U229,5*%
%TO.N,~{RES}*%
X160702220Y-138176000D03*
%TO.P,U229,6*%
%TO.N,/timerb/~{TBLOAD}*%
X160702220Y-139446000D03*
%TO.P,U229,7,GND*%
%TO.N,GND*%
X160702220Y-140716000D03*
%TO.P,U229,8*%
%TO.N,Net-(U218-Pad3)*%
X165652220Y-140716000D03*
%TO.P,U229,9*%
%TO.N,TAPULSE*%
X165652220Y-139446000D03*
%TO.P,U229,10*%
%TO.N,CNT*%
X165652220Y-138176000D03*
%TO.P,U229,11*%
%TO.N,/timerb/TBCOUNT*%
X165652220Y-136906000D03*
%TO.P,U229,12*%
%TO.N,PHI2*%
X165652220Y-135636000D03*
%TO.P,U229,13*%
%TO.N,Net-(U217-Pad5)*%
X165652220Y-134366000D03*
%TO.P,U229,14,VCC*%
%TO.N,VCC*%
X165652220Y-133096000D03*
%TD*%
D10*
%TO.P,C313,1*%
%TO.N,VCC*%
X166128400Y-131318000D03*
%TO.P,C313,2*%
%TO.N,GND*%
X167678400Y-131318000D03*
%TD*%
D11*
%TO.P,U203,1*%
%TO.N,D0*%
X145411161Y-49846000D03*
%TO.P,U203,2*%
%TO.N,/resetData/RES*%
X145411161Y-51116000D03*
%TO.P,U203,3*%
%TO.N,/resetData/DO0*%
X145411161Y-52386000D03*
%TO.P,U203,4*%
%TO.N,D2*%
X145411161Y-53656000D03*
%TO.P,U203,5*%
%TO.N,/resetData/RES*%
X145411161Y-54926000D03*
%TO.P,U203,6*%
%TO.N,/resetData/DO2*%
X145411161Y-56196000D03*
%TO.P,U203,7,GND*%
%TO.N,GND*%
X145411161Y-57466000D03*
%TO.P,U203,8*%
%TO.N,/resetData/DO3*%
X150361161Y-57466000D03*
%TO.P,U203,9*%
%TO.N,/resetData/RES*%
X150361161Y-56196000D03*
%TO.P,U203,10*%
%TO.N,D3*%
X150361161Y-54926000D03*
%TO.P,U203,11*%
%TO.N,/resetData/DO1*%
X150361161Y-53656000D03*
%TO.P,U203,12*%
%TO.N,D1*%
X150361161Y-52386000D03*
%TO.P,U203,13*%
%TO.N,/resetData/RES*%
X150361161Y-51116000D03*
%TO.P,U203,14,VCC*%
%TO.N,VCC*%
X150361161Y-49846000D03*
%TD*%
%TO.P,U213,1,~{R}*%
%TO.N,VCC*%
X174960611Y-81254600D03*
%TO.P,U213,2,D*%
%TO.N,GND*%
X174960611Y-82524600D03*
%TO.P,U213,3,C*%
%TO.N,PHI2*%
X174960611Y-83794600D03*
%TO.P,U213,4,~{S}*%
%TO.N,/timerb/TBPULSESET*%
X174960611Y-85064600D03*
%TO.P,U213,5,Q*%
%TO.N,TBPULSE*%
X174960611Y-86334600D03*
%TO.P,U213,6,~{Q}*%
%TO.N,unconnected-(U213-Pad6)*%
X174960611Y-87604600D03*
%TO.P,U213,7,GND*%
%TO.N,GND*%
X174960611Y-88874600D03*
%TO.P,U213,8,~{Q}*%
%TO.N,unconnected-(U213-Pad8)*%
X179910611Y-88874600D03*
%TO.P,U213,9,Q*%
%TO.N,Net-(U208-Pad9)*%
X179910611Y-87604600D03*
%TO.P,U213,10,~{S}*%
%TO.N,VCC*%
X179910611Y-86334600D03*
%TO.P,U213,11,C*%
%TO.N,PHI2*%
X179910611Y-85064600D03*
%TO.P,U213,12,D*%
%TO.N,/cregb/TBRUNMODE*%
X179910611Y-83794600D03*
%TO.P,U213,13,~{R}*%
%TO.N,VCC*%
X179910611Y-82524600D03*
%TO.P,U213,14,VCC*%
X179910611Y-81254600D03*
%TD*%
D12*
%TO.P,U228,1,~{E}*%
%TO.N,/cregb/~{WE14}*%
X172785611Y-127076200D03*
%TO.P,U228,2,Q0*%
%TO.N,unconnected-(U228-Pad2)*%
X172785611Y-128346200D03*
%TO.P,U228,3,D0*%
%TO.N,VCC*%
X172785611Y-129616200D03*
%TO.P,U228,4,D1*%
X172785611Y-130886200D03*
%TO.P,U228,5,Q1*%
%TO.N,unconnected-(U228-Pad5)*%
X172785611Y-132156200D03*
%TO.P,U228,6,Q2*%
%TO.N,/TBINMODE1*%
X172785611Y-133426200D03*
%TO.P,U228,7,D2*%
%TO.N,DZ6*%
X172785611Y-134696200D03*
%TO.P,U228,8,D3*%
%TO.N,DZ2*%
X172785611Y-135966200D03*
%TO.P,U228,9,Q3*%
%TO.N,/TBOUTMODE*%
X172785611Y-137236200D03*
%TO.P,U228,10,GND*%
%TO.N,GND*%
X172785611Y-138506200D03*
%TO.P,U228,11,CP*%
%TO.N,/~{PHI2}*%
X182085611Y-138506200D03*
%TO.P,U228,12,Q4*%
%TO.N,/cregb/TBRUNMODE*%
X182085611Y-137236200D03*
%TO.P,U228,13,D4*%
%TO.N,DZ3*%
X182085611Y-135966200D03*
%TO.P,U228,14,D5*%
%TO.N,DZ1*%
X182085611Y-134696200D03*
%TO.P,U228,15,Q5*%
%TO.N,PB7ON*%
X182085611Y-133426200D03*
%TO.P,U228,16,Q6*%
%TO.N,/TBINMODE0*%
X182085611Y-132156200D03*
%TO.P,U228,17,D6*%
%TO.N,DZ5*%
X182085611Y-130886200D03*
%TO.P,U228,18,D7*%
%TO.N,DZ7*%
X182085611Y-129616200D03*
%TO.P,U228,19,Q7*%
%TO.N,ALARM*%
X182085611Y-128346200D03*
%TO.P,U228,20,VCC*%
%TO.N,VCC*%
X182085611Y-127076200D03*
%TD*%
%TO.P,U224,1,~{E}*%
%TO.N,/timerb/~{WETBHI}*%
X109336411Y-118694200D03*
%TO.P,U224,2,Q0*%
%TO.N,/timerb/timer16/TBHI7*%
X109336411Y-119964200D03*
%TO.P,U224,3,D0*%
%TO.N,/resetData/DO7*%
X109336411Y-121234200D03*
%TO.P,U224,4,D1*%
%TO.N,/resetData/DO5*%
X109336411Y-122504200D03*
%TO.P,U224,5,Q1*%
%TO.N,/timerb/timer16/TBHI5*%
X109336411Y-123774200D03*
%TO.P,U224,6,Q2*%
%TO.N,/timerb/timer16/TBHI3*%
X109336411Y-125044200D03*
%TO.P,U224,7,D2*%
%TO.N,/resetData/DO3*%
X109336411Y-126314200D03*
%TO.P,U224,8,D3*%
%TO.N,/resetData/DO1*%
X109336411Y-127584200D03*
%TO.P,U224,9,Q3*%
%TO.N,/timerb/timer16/TBHI1*%
X109336411Y-128854200D03*
%TO.P,U224,10,GND*%
%TO.N,GND*%
X109336411Y-130124200D03*
%TO.P,U224,11,CP*%
%TO.N,/~{PHI2}*%
X118636411Y-130124200D03*
%TO.P,U224,12,Q4*%
%TO.N,/timerb/timer16/TBHI0*%
X118636411Y-128854200D03*
%TO.P,U224,13,D4*%
%TO.N,/resetData/DO0*%
X118636411Y-127584200D03*
%TO.P,U224,14,D5*%
%TO.N,/resetData/DO2*%
X118636411Y-126314200D03*
%TO.P,U224,15,Q5*%
%TO.N,/timerb/timer16/TBHI2*%
X118636411Y-125044200D03*
%TO.P,U224,16,Q6*%
%TO.N,/timerb/timer16/TBHI4*%
X118636411Y-123774200D03*
%TO.P,U224,17,D6*%
%TO.N,/resetData/DO4*%
X118636411Y-122504200D03*
%TO.P,U224,18,D7*%
%TO.N,/resetData/DO6*%
X118636411Y-121234200D03*
%TO.P,U224,19,Q7*%
%TO.N,/timerb/timer16/TBHI6*%
X118636411Y-119964200D03*
%TO.P,U224,20,VCC*%
%TO.N,VCC*%
X118636411Y-118694200D03*
%TD*%
D10*
%TO.P,C328,1*%
%TO.N,VCC*%
X117817600Y-100863400D03*
%TO.P,C328,2*%
%TO.N,GND*%
X119367600Y-100863400D03*
%TD*%
D11*
%TO.P,U217,1,~{R}*%
%TO.N,Net-(U216-Pad9)*%
X160651420Y-97345400D03*
%TO.P,U217,2,D*%
X160651420Y-98615400D03*
%TO.P,U217,3,C*%
%TO.N,PHI2*%
X160651420Y-99885400D03*
%TO.P,U217,4,~{S}*%
%TO.N,VCC*%
X160651420Y-101155400D03*
%TO.P,U217,5,Q*%
%TO.N,Net-(U217-Pad5)*%
X160651420Y-102425400D03*
%TO.P,U217,6,~{Q}*%
%TO.N,unconnected-(U217-Pad6)*%
X160651420Y-103695400D03*
%TO.P,U217,7,GND*%
%TO.N,GND*%
X160651420Y-104965400D03*
%TO.P,U217,8,~{Q}*%
%TO.N,unconnected-(U217-Pad8)*%
X165601420Y-104965400D03*
%TO.P,U217,9,Q*%
%TO.N,Net-(U217-Pad9)*%
X165601420Y-103695400D03*
%TO.P,U217,10,~{S}*%
%TO.N,VCC*%
X165601420Y-102425400D03*
%TO.P,U217,11,C*%
%TO.N,/~{PHI2}*%
X165601420Y-101155400D03*
%TO.P,U217,12,D*%
%TO.N,VCC*%
X165601420Y-99885400D03*
%TO.P,U217,13,~{R}*%
%TO.N,Net-(U211-Pad8)*%
X165601420Y-98615400D03*
%TO.P,U217,14,VCC*%
%TO.N,VCC*%
X165601420Y-97345400D03*
%TD*%
%TO.P,U218,1,Ea*%
%TO.N,/cregb/~{TBSTART}*%
X174945000Y-96985000D03*
%TO.P,U218,2,S1*%
%TO.N,/TBINMODE1*%
X174945000Y-98255000D03*
%TO.P,U218,3,I3a*%
%TO.N,Net-(U218-Pad3)*%
X174945000Y-99525000D03*
%TO.P,U218,4,I2a*%
%TO.N,TAPULSE*%
X174945000Y-100795000D03*
%TO.P,U218,5,I1a*%
%TO.N,/timerb/timerbMux/CNTSYNC*%
X174945000Y-102065000D03*
%TO.P,U218,6,I0a*%
%TO.N,VCC*%
X174945000Y-103335000D03*
%TO.P,U218,7,Za*%
%TO.N,/timerb/timerbMux/OUTPUT*%
X174945000Y-104605000D03*
%TO.P,U218,8,GND*%
%TO.N,GND*%
X174945000Y-105875000D03*
%TO.P,U218,9,Zb*%
%TO.N,unconnected-(U218-Pad9)*%
X179895000Y-105875000D03*
%TO.P,U218,10,I0b*%
%TO.N,VCC*%
X179895000Y-104605000D03*
%TO.P,U218,11,I1b*%
X179895000Y-103335000D03*
%TO.P,U218,12,I2b*%
X179895000Y-102065000D03*
%TO.P,U218,13,I3b*%
X179895000Y-100795000D03*
%TO.P,U218,14,S0*%
%TO.N,/TBINMODE0*%
X179895000Y-99525000D03*
%TO.P,U218,15,Eb*%
%TO.N,VCC*%
X179895000Y-98255000D03*
%TO.P,U218,16,VCC*%
X179895000Y-96985000D03*
%TD*%
%TO.P,U216,1,~{R}*%
%TO.N,VCC*%
X145469581Y-97434400D03*
%TO.P,U216,2,D*%
%TO.N,Net-(U216-Pad2)*%
X145469581Y-98704400D03*
%TO.P,U216,3,C*%
%TO.N,PHI2*%
X145469581Y-99974400D03*
%TO.P,U216,4,~{S}*%
%TO.N,VCC*%
X145469581Y-101244400D03*
%TO.P,U216,5,Q*%
%TO.N,/timerb/timerbMux/CNTSYNC*%
X145469581Y-102514400D03*
%TO.P,U216,6,~{Q}*%
%TO.N,unconnected-(U216-Pad6)*%
X145469581Y-103784400D03*
%TO.P,U216,7,GND*%
%TO.N,GND*%
X145469581Y-105054400D03*
%TO.P,U216,8,~{Q}*%
%TO.N,Net-(U211-Pad5)*%
X150419581Y-105054400D03*
%TO.P,U216,9,Q*%
%TO.N,Net-(U216-Pad9)*%
X150419581Y-103784400D03*
%TO.P,U216,10,~{S}*%
%TO.N,VCC*%
X150419581Y-102514400D03*
%TO.P,U216,11,C*%
%TO.N,PHI2*%
X150419581Y-101244400D03*
%TO.P,U216,12,D*%
%TO.N,/timerb/timerbMux/OUTPUT*%
X150419581Y-99974400D03*
%TO.P,U216,13,~{R}*%
%TO.N,Net-(U211-Pad8)*%
X150419581Y-98704400D03*
%TO.P,U216,14,VCC*%
%TO.N,VCC*%
X150419581Y-97434400D03*
%TD*%
%TO.P,U219,1,B*%
%TO.N,/timerb/timer16/TBHI1*%
X111511411Y-102761700D03*
%TO.P,U219,2,QB*%
%TO.N,/timerb/timer16/TB9*%
X111511411Y-104031700D03*
%TO.P,U219,3,QA*%
%TO.N,/timerb/timer16/TB8*%
X111511411Y-105301700D03*
%TO.P,U219,4,DOWN*%
%TO.N,Net-(U215-Pad13)*%
X111511411Y-106571700D03*
%TO.P,U219,5,UP*%
%TO.N,VCC*%
X111511411Y-107841700D03*
%TO.P,U219,6,QC*%
%TO.N,/timerb/timer16/TB10*%
X111511411Y-109111700D03*
%TO.P,U219,7,QD*%
%TO.N,/timerb/timer16/TB11*%
X111511411Y-110381700D03*
%TO.P,U219,8,GND*%
%TO.N,GND*%
X111511411Y-111651700D03*
%TO.P,U219,9,D*%
%TO.N,/timerb/timer16/TBHI3*%
X116461411Y-111651700D03*
%TO.P,U219,10,C*%
%TO.N,/timerb/timer16/TBHI2*%
X116461411Y-110381700D03*
%TO.P,U219,11,~{LOAD}*%
%TO.N,/timerb/~{TBLOAD}*%
X116461411Y-109111700D03*
%TO.P,U219,12,~{CO}*%
%TO.N,unconnected-(U219-Pad12)*%
X116461411Y-107841700D03*
%TO.P,U219,13,~{BO}*%
%TO.N,Net-(U214-Pad4)*%
X116461411Y-106571700D03*
%TO.P,U219,14,CLR*%
%TO.N,GND*%
X116461411Y-105301700D03*
%TO.P,U219,15,A*%
%TO.N,/timerb/timer16/TBHI0*%
X116461411Y-104031700D03*
%TO.P,U219,16,VCC*%
%TO.N,VCC*%
X116461411Y-102761700D03*
%TD*%
D10*
%TO.P,C311,1*%
%TO.N,VCC*%
X166128400Y-79349600D03*
%TO.P,C311,2*%
%TO.N,GND*%
X167678400Y-79349600D03*
%TD*%
D11*
%TO.P,U221,1,~{R}*%
%TO.N,Net-(U221-Pad1)*%
X145520381Y-112473074D03*
%TO.P,U221,2,D*%
%TO.N,VCC*%
X145520381Y-113743074D03*
%TO.P,U221,3,C*%
%TO.N,CNT*%
X145520381Y-115013074D03*
%TO.P,U221,4,~{S}*%
%TO.N,VCC*%
X145520381Y-116283074D03*
%TO.P,U221,5,Q*%
%TO.N,unconnected-(U221-Pad5)*%
X145520381Y-117553074D03*
%TO.P,U221,6,~{Q}*%
%TO.N,Net-(U221-Pad1)*%
X145520381Y-118823074D03*
%TO.P,U221,7,GND*%
%TO.N,GND*%
X145520381Y-120093074D03*
%TO.P,U221,8,~{Q}*%
%TO.N,unconnected-(U221-Pad8)*%
X150470381Y-120093074D03*
%TO.P,U221,9,Q*%
%TO.N,Net-(U216-Pad2)*%
X150470381Y-118823074D03*
%TO.P,U221,10,~{S}*%
%TO.N,Net-(U221-Pad1)*%
X150470381Y-117553074D03*
%TO.P,U221,11,C*%
%TO.N,PHI2*%
X150470381Y-116283074D03*
%TO.P,U221,12,D*%
%TO.N,GND*%
X150470381Y-115013074D03*
%TO.P,U221,13,~{R}*%
%TO.N,VCC*%
X150470381Y-113743074D03*
%TO.P,U221,14,VCC*%
X150470381Y-112473074D03*
%TD*%
D12*
%TO.P,U202,1,1OE*%
%TO.N,/timerb/~{OETBLO}*%
X125795611Y-49860200D03*
%TO.P,U202,2,1A0*%
%TO.N,/timerb/timer16/TB1*%
X125795611Y-51130200D03*
%TO.P,U202,3,2Y0*%
%TO.N,D0*%
X125795611Y-52400200D03*
%TO.P,U202,4,1A1*%
%TO.N,/timerb/timer16/TB3*%
X125795611Y-53670200D03*
%TO.P,U202,5,2Y1*%
%TO.N,D2*%
X125795611Y-54940200D03*
%TO.P,U202,6,1A2*%
%TO.N,/timerb/timer16/TB5*%
X125795611Y-56210200D03*
%TO.P,U202,7,2Y2*%
%TO.N,D4*%
X125795611Y-57480200D03*
%TO.P,U202,8,1A3*%
%TO.N,/timerb/timer16/TB6*%
X125795611Y-58750200D03*
%TO.P,U202,9,2Y3*%
%TO.N,D7*%
X125795611Y-60020200D03*
%TO.P,U202,10,GND*%
%TO.N,GND*%
X125795611Y-61290200D03*
%TO.P,U202,11,2A3*%
%TO.N,/timerb/timer16/TB7*%
X135095611Y-61290200D03*
%TO.P,U202,12,1Y3*%
%TO.N,D6*%
X135095611Y-60020200D03*
%TO.P,U202,13,2A2*%
%TO.N,/timerb/timer16/TB4*%
X135095611Y-58750200D03*
%TO.P,U202,14,1Y2*%
%TO.N,D5*%
X135095611Y-57480200D03*
%TO.P,U202,15,2A1*%
%TO.N,/timerb/timer16/TB2*%
X135095611Y-56210200D03*
%TO.P,U202,16,1Y1*%
%TO.N,D3*%
X135095611Y-54940200D03*
%TO.P,U202,17,2A0*%
%TO.N,/timerb/timer16/TB0*%
X135095611Y-53670200D03*
%TO.P,U202,18,1Y0*%
%TO.N,D1*%
X135095611Y-52400200D03*
%TO.P,U202,19,2OE*%
%TO.N,/timerb/~{OETBLO}*%
X135095611Y-51130200D03*
%TO.P,U202,20,VCC*%
%TO.N,VCC*%
X135095611Y-49860200D03*
%TD*%
D14*
%TO.P,ENABLEBUS2,1,Pin_1*%
%TO.N,~{EN6}*%
X135200000Y-137500000D03*
D15*
%TO.P,ENABLEBUS2,2,Pin_2*%
%TO.N,~{EN5}*%
X135200000Y-140040000D03*
%TO.P,ENABLEBUS2,3,Pin_3*%
%TO.N,~{EN7}*%
X132660000Y-137500000D03*
%TO.P,ENABLEBUS2,4,Pin_4*%
%TO.N,~{EN4}*%
X132660000Y-140040000D03*
%TO.P,ENABLEBUS2,5,Pin_5*%
%TO.N,~{EN14}*%
X130120000Y-137500000D03*
%TO.P,ENABLEBUS2,6,Pin_6*%
%TO.N,VCC*%
X130120000Y-140040000D03*
%TO.P,ENABLEBUS2,7,Pin_7*%
%TO.N,~{EN13}*%
X127580000Y-137500000D03*
%TO.P,ENABLEBUS2,8,Pin_8*%
%TO.N,VCC*%
X127580000Y-140040000D03*
%TO.P,ENABLEBUS2,9,Pin_9*%
%TO.N,~{EN12}*%
X125040000Y-137500000D03*
%TO.P,ENABLEBUS2,10,Pin_10*%
%TO.N,VCC*%
X125040000Y-140040000D03*
%TO.P,ENABLEBUS2,11,Pin_11*%
%TO.N,~{EN11}*%
X122500000Y-137500000D03*
%TO.P,ENABLEBUS2,12,Pin_12*%
%TO.N,VCC*%
X122500000Y-140040000D03*
%TO.P,ENABLEBUS2,13,Pin_13*%
%TO.N,~{EN10}*%
X119960000Y-137500000D03*
%TO.P,ENABLEBUS2,14,Pin_14*%
%TO.N,GND*%
X119960000Y-140040000D03*
%TO.P,ENABLEBUS2,15,Pin_15*%
%TO.N,~{EN9}*%
X117420000Y-137500000D03*
%TO.P,ENABLEBUS2,16,Pin_16*%
%TO.N,GND*%
X117420000Y-140040000D03*
%TO.P,ENABLEBUS2,17,Pin_17*%
%TO.N,~{EN8}*%
X114880000Y-137500000D03*
%TO.P,ENABLEBUS2,18,Pin_18*%
%TO.N,GND*%
X114880000Y-140040000D03*
%TO.P,ENABLEBUS2,19,Pin_19*%
%TO.N,~{EN15}*%
X112340000Y-137500000D03*
%TO.P,ENABLEBUS2,20,Pin_20*%
%TO.N,GND*%
X112340000Y-140040000D03*
%TD*%
D11*
%TO.P,U227,1*%
%TO.N,~{RES}*%
X160702220Y-121909074D03*
%TO.P,U227,2*%
%TO.N,~{EN15}*%
X160702220Y-123179074D03*
%TO.P,U227,3*%
%TO.N,Net-(U227-Pad13)*%
X160702220Y-124449074D03*
%TO.P,U227,4*%
%TO.N,Net-(U208-Pad8)*%
X160702220Y-125719074D03*
%TO.P,U227,5*%
%TO.N,/cregb/TBUNDERFLOW*%
X160702220Y-126989074D03*
%TO.P,U227,6*%
%TO.N,Net-(U223-Pad1)*%
X160702220Y-128259074D03*
%TO.P,U227,7,GND*%
%TO.N,GND*%
X160702220Y-129529074D03*
%TO.P,U227,8*%
%TO.N,unconnected-(U227-Pad8)*%
X165652220Y-129529074D03*
%TO.P,U227,9*%
%TO.N,VCC*%
X165652220Y-128259074D03*
%TO.P,U227,10*%
X165652220Y-126989074D03*
%TO.P,U227,11*%
%TO.N,/cregb/~{WE14}*%
X165652220Y-125719074D03*
%TO.P,U227,12*%
%TO.N,ENABLE_NAND*%
X165652220Y-124449074D03*
%TO.P,U227,13*%
%TO.N,Net-(U227-Pad13)*%
X165652220Y-123179074D03*
%TO.P,U227,14,VCC*%
%TO.N,VCC*%
X165652220Y-121909074D03*
%TD*%
%TO.P,U226,1*%
%TO.N,~{RES}*%
X145411161Y-126911200D03*
%TO.P,U226,2*%
%TO.N,~{EN6}*%
X145411161Y-128181200D03*
%TO.P,U226,3*%
%TO.N,Net-(U226-Pad3)*%
X145411161Y-129451200D03*
%TO.P,U226,4*%
X145411161Y-130721200D03*
%TO.P,U226,5*%
%TO.N,ENABLE_NAND*%
X145411161Y-131991200D03*
%TO.P,U226,6*%
%TO.N,/timerb/~{WETBLO}*%
X145411161Y-133261200D03*
%TO.P,U226,7,GND*%
%TO.N,GND*%
X145411161Y-134531200D03*
%TO.P,U226,8*%
%TO.N,/timerb/~{WETBHI}*%
X150361161Y-134531200D03*
%TO.P,U226,9*%
%TO.N,ENABLE_NAND*%
X150361161Y-133261200D03*
%TO.P,U226,10*%
%TO.N,Net-(U226-Pad10)*%
X150361161Y-131991200D03*
%TO.P,U226,11*%
X150361161Y-130721200D03*
%TO.P,U226,12*%
%TO.N,~{EN7}*%
X150361161Y-129451200D03*
%TO.P,U226,13*%
%TO.N,~{RES}*%
X150361161Y-128181200D03*
%TO.P,U226,14,VCC*%
%TO.N,VCC*%
X150361161Y-126911200D03*
%TD*%
D10*
%TO.P,C322,1*%
%TO.N,VCC*%
X119113000Y-84709000D03*
%TO.P,C322,2*%
%TO.N,GND*%
X120663000Y-84709000D03*
%TD*%
%TO.P,C308,1*%
%TO.N,VCC*%
X182689200Y-65049400D03*
%TO.P,C308,2*%
%TO.N,GND*%
X184239200Y-65049400D03*
%TD*%
%TO.P,C323,1*%
%TO.N,VCC*%
X182689200Y-47752000D03*
%TO.P,C323,2*%
%TO.N,GND*%
X184239200Y-47752000D03*
%TD*%
%TO.P,C320,1*%
%TO.N,VCC*%
X166128400Y-65125600D03*
%TO.P,C320,2*%
%TO.N,GND*%
X167678400Y-65125600D03*
%TD*%
D12*
%TO.P,U206,1,G*%
%TO.N,GND*%
X109336411Y-68536700D03*
%TO.P,U206,2,P0*%
%TO.N,/timerb/timer16/TB9*%
X109336411Y-69806700D03*
%TO.P,U206,3,R0*%
%TO.N,GND*%
X109336411Y-71076700D03*
%TO.P,U206,4,P1*%
%TO.N,/timerb/timer16/TB11*%
X109336411Y-72346700D03*
%TO.P,U206,5,R1*%
%TO.N,GND*%
X109336411Y-73616700D03*
%TO.P,U206,6,P2*%
%TO.N,/timerb/timer16/TB13*%
X109336411Y-74886700D03*
%TO.P,U206,7,R2*%
%TO.N,GND*%
X109336411Y-76156700D03*
%TO.P,U206,8,P3*%
%TO.N,/timerb/timer16/TB14*%
X109336411Y-77426700D03*
%TO.P,U206,9,R3*%
%TO.N,GND*%
X109336411Y-78696700D03*
%TO.P,U206,10,GND*%
X109336411Y-79966700D03*
%TO.P,U206,11,P4*%
%TO.N,/timerb/timer16/TB15*%
X118636411Y-79966700D03*
%TO.P,U206,12,R4*%
%TO.N,GND*%
X118636411Y-78696700D03*
%TO.P,U206,13,P5*%
%TO.N,/timerb/timer16/TB12*%
X118636411Y-77426700D03*
%TO.P,U206,14,R5*%
%TO.N,GND*%
X118636411Y-76156700D03*
%TO.P,U206,15,P6*%
%TO.N,/timerb/timer16/TB10*%
X118636411Y-74886700D03*
%TO.P,U206,16,R6*%
%TO.N,GND*%
X118636411Y-73616700D03*
%TO.P,U206,17,P7*%
%TO.N,/timerb/timer16/TB8*%
X118636411Y-72346700D03*
%TO.P,U206,18,R7*%
%TO.N,GND*%
X118636411Y-71076700D03*
%TO.P,U206,19,P=R*%
%TO.N,/timerb/timer16/TBCOMPCASCADE*%
X118636411Y-69806700D03*
%TO.P,U206,20,VCC*%
%TO.N,VCC*%
X118636411Y-68536700D03*
%TD*%
D11*
%TO.P,U208,1*%
%TO.N,~{EN6}*%
X145520381Y-67178179D03*
%TO.P,U208,2*%
%TO.N,ENABLE_NAND*%
X145520381Y-68448179D03*
%TO.P,U208,3*%
%TO.N,/timerb/~{OETBLO}*%
X145520381Y-69718179D03*
%TO.P,U208,4*%
%TO.N,~{EN7}*%
X145520381Y-70988179D03*
%TO.P,U208,5*%
%TO.N,ENABLE_NAND*%
X145520381Y-72258179D03*
%TO.P,U208,6*%
%TO.N,/timerb/~{OETBHI}*%
X145520381Y-73528179D03*
%TO.P,U208,7,GND*%
%TO.N,GND*%
X145520381Y-74798179D03*
%TO.P,U208,8*%
%TO.N,Net-(U208-Pad8)*%
X150470381Y-74798179D03*
%TO.P,U208,9*%
%TO.N,Net-(U208-Pad9)*%
X150470381Y-73528179D03*
%TO.P,U208,10*%
%TO.N,/cregb/TBRUNMODE*%
X150470381Y-72258179D03*
%TO.P,U208,11*%
%TO.N,/cregb/~{OE14}*%
X150470381Y-70988179D03*
%TO.P,U208,12*%
%TO.N,~{EN15}*%
X150470381Y-69718179D03*
%TO.P,U208,13*%
%TO.N,ENABLE_NAND*%
X150470381Y-68448179D03*
%TO.P,U208,14,VCC*%
%TO.N,VCC*%
X150470381Y-67178179D03*
%TD*%
%TO.P,U220,1,B*%
%TO.N,/timerb/timer16/TBLO1*%
X128021411Y-102761700D03*
%TO.P,U220,2,QB*%
%TO.N,/timerb/timer16/TB1*%
X128021411Y-104031700D03*
%TO.P,U220,3,QA*%
%TO.N,/timerb/timer16/TB0*%
X128021411Y-105301700D03*
%TO.P,U220,4,DOWN*%
%TO.N,/timerb/TBCOUNT*%
X128021411Y-106571700D03*
%TO.P,U220,5,UP*%
%TO.N,VCC*%
X128021411Y-107841700D03*
%TO.P,U220,6,QC*%
%TO.N,/timerb/timer16/TB2*%
X128021411Y-109111700D03*
%TO.P,U220,7,QD*%
%TO.N,/timerb/timer16/TB3*%
X128021411Y-110381700D03*
%TO.P,U220,8,GND*%
%TO.N,GND*%
X128021411Y-111651700D03*
%TO.P,U220,9,D*%
%TO.N,/timerb/timer16/TBLO3*%
X132971411Y-111651700D03*
%TO.P,U220,10,C*%
%TO.N,/timerb/timer16/TBLO2*%
X132971411Y-110381700D03*
%TO.P,U220,11,~{LOAD}*%
%TO.N,/timerb/~{TBLOAD}*%
X132971411Y-109111700D03*
%TO.P,U220,12,~{CO}*%
%TO.N,unconnected-(U220-Pad12)*%
X132971411Y-107841700D03*
%TO.P,U220,13,~{BO}*%
%TO.N,Net-(U215-Pad4)*%
X132971411Y-106571700D03*
%TO.P,U220,14,CLR*%
%TO.N,GND*%
X132971411Y-105301700D03*
%TO.P,U220,15,A*%
%TO.N,/timerb/timer16/TBLO0*%
X132971411Y-104031700D03*
%TO.P,U220,16,VCC*%
%TO.N,VCC*%
X132971411Y-102761700D03*
%TD*%
D10*
%TO.P,C327,1*%
%TO.N,VCC*%
X150850600Y-65125600D03*
%TO.P,C327,2*%
%TO.N,GND*%
X152400600Y-65125600D03*
%TD*%
%TO.P,C306,1*%
%TO.N,VCC*%
X166128400Y-95504000D03*
%TO.P,C306,2*%
%TO.N,GND*%
X167678400Y-95504000D03*
%TD*%
%TO.P,C326,1*%
%TO.N,VCC*%
X150850600Y-110464600D03*
%TO.P,C326,2*%
%TO.N,GND*%
X152400600Y-110464600D03*
%TD*%
D12*
%TO.P,U201,1,1OE*%
%TO.N,/timerb/~{OETBHI}*%
X109285611Y-49860200D03*
%TO.P,U201,2,1A0*%
%TO.N,/timerb/timer16/TB9*%
X109285611Y-51130200D03*
%TO.P,U201,3,2Y0*%
%TO.N,D0*%
X109285611Y-52400200D03*
%TO.P,U201,4,1A1*%
%TO.N,/timerb/timer16/TB11*%
X109285611Y-53670200D03*
%TO.P,U201,5,2Y1*%
%TO.N,D2*%
X109285611Y-54940200D03*
%TO.P,U201,6,1A2*%
%TO.N,/timerb/timer16/TB13*%
X109285611Y-56210200D03*
%TO.P,U201,7,2Y2*%
%TO.N,D4*%
X109285611Y-57480200D03*
%TO.P,U201,8,1A3*%
%TO.N,/timerb/timer16/TB14*%
X109285611Y-58750200D03*
%TO.P,U201,9,2Y3*%
%TO.N,D7*%
X109285611Y-60020200D03*
%TO.P,U201,10,GND*%
%TO.N,GND*%
X109285611Y-61290200D03*
%TO.P,U201,11,2A3*%
%TO.N,/timerb/timer16/TB15*%
X118585611Y-61290200D03*
%TO.P,U201,12,1Y3*%
%TO.N,D6*%
X118585611Y-60020200D03*
%TO.P,U201,13,2A2*%
%TO.N,/timerb/timer16/TB12*%
X118585611Y-58750200D03*
%TO.P,U201,14,1Y2*%
%TO.N,D5*%
X118585611Y-57480200D03*
%TO.P,U201,15,2A1*%
%TO.N,/timerb/timer16/TB10*%
X118585611Y-56210200D03*
%TO.P,U201,16,1Y1*%
%TO.N,D3*%
X118585611Y-54940200D03*
%TO.P,U201,17,2A0*%
%TO.N,/timerb/timer16/TB8*%
X118585611Y-53670200D03*
%TO.P,U201,18,1Y0*%
%TO.N,D1*%
X118585611Y-52400200D03*
%TO.P,U201,19,2OE*%
%TO.N,/timerb/~{OETBHI}*%
X118585611Y-51130200D03*
%TO.P,U201,20,VCC*%
%TO.N,VCC*%
X118585611Y-49860200D03*
%TD*%
D16*
%TO.N,/cregb/WE14*%
X179280000Y-72250000D03*
%TO.N,/TBINMODE0*%
X181370000Y-58800000D03*
%TO.N,/TBOUTMODE*%
X173500000Y-137250000D03*
%TO.N,CNT*%
X165608000Y-138176000D03*
X144190720Y-115034060D03*
%TO.N,PB7ON*%
X183484520Y-53723540D03*
%TO.N,PHI2*%
X156281785Y-137541817D03*
X156276040Y-101244400D03*
X156278580Y-116146580D03*
X156278580Y-125036580D03*
X172045540Y-99184460D03*
X172044360Y-83705700D03*
X172041820Y-67190620D03*
%TO.N,TBOUT*%
X190318283Y-93395360D03*
%TO.N,TAPULSE*%
X168715243Y-118310830D03*
X168733201Y-139255511D03*
X168715243Y-102690278D03*
%TO.N,ALARM*%
X187004100Y-62636400D03*
X187004100Y-128310640D03*
%TO.N,TBPULSE*%
X163370260Y-70965060D03*
X191315340Y-104086660D03*
X163360100Y-88313260D03*
%TO.N,ENABLE_NAND*%
X163576000Y-124460000D03*
X147111720Y-72034400D03*
X162814000Y-130810000D03*
X147030340Y-131991200D03*
X163576000Y-116586000D03*
%TO.N,~{RES}*%
X158750000Y-138176000D03*
X163068000Y-68580000D03*
X158767780Y-131902200D03*
X158757620Y-121927620D03*
%TO.N,VCC*%
X160782000Y-114300000D03*
X119075200Y-66421000D03*
X166141400Y-119989600D03*
X119126000Y-84683600D03*
X128701800Y-107848400D03*
X165608000Y-115570000D03*
X182867000Y-94996000D03*
X182702200Y-47777400D03*
X135610600Y-47802800D03*
X150850600Y-110439200D03*
X175666400Y-116281200D03*
X166116000Y-131318000D03*
X119072660Y-116400580D03*
X150799800Y-47777400D03*
X161358580Y-68463160D03*
X182676800Y-65074800D03*
X127347980Y-92102940D03*
X166141400Y-95529400D03*
X149758400Y-102514400D03*
X166128400Y-108458000D03*
X117805200Y-100863400D03*
X135636000Y-84683600D03*
X182676800Y-79248000D03*
X146126200Y-97434400D03*
X150850600Y-125044200D03*
X167868600Y-53416200D03*
X134340600Y-100863400D03*
X150850600Y-65125600D03*
X179895000Y-103335000D03*
X182702200Y-124993400D03*
X150850600Y-95529400D03*
X119100600Y-47828200D03*
X150850600Y-79375000D03*
X135636000Y-116382800D03*
X166116000Y-65100200D03*
X161371280Y-70970140D03*
X135636000Y-66446400D03*
X173487080Y-129626360D03*
X182702200Y-110363000D03*
X166166800Y-79349600D03*
X175668240Y-72261748D03*
X175666400Y-69723000D03*
%TO.N,GND*%
X184251600Y-110363000D03*
X146174460Y-74797920D03*
X137185400Y-66421000D03*
X175691800Y-120116600D03*
X167690800Y-119989600D03*
X146126200Y-105054400D03*
X169418000Y-53416200D03*
X146131280Y-82529680D03*
X184279620Y-94996000D03*
X110058200Y-130124200D03*
X110827820Y-95879920D03*
X161391600Y-129540000D03*
X173507400Y-56261000D03*
X128701800Y-111633000D03*
X152400000Y-110490000D03*
X146177000Y-120116600D03*
X135890000Y-100863400D03*
X175641000Y-88849200D03*
X120650000Y-47853600D03*
X184277000Y-124993400D03*
X112166400Y-111633000D03*
X146100800Y-57454800D03*
X110083600Y-71069200D03*
X126593600Y-79984600D03*
X119405400Y-100863400D03*
X137185400Y-116382800D03*
X167690800Y-131318000D03*
X120624600Y-66421000D03*
X161290000Y-118110000D03*
X127347980Y-95912940D03*
X149783800Y-115011200D03*
X175691800Y-74777600D03*
X146149060Y-88882220D03*
X152425400Y-65125600D03*
X110032800Y-79959200D03*
X161264600Y-104952800D03*
X173507400Y-61341000D03*
X167690800Y-65125600D03*
X109905800Y-61290200D03*
X161356040Y-74790300D03*
X173507400Y-138506200D03*
X167690800Y-95529400D03*
X167690800Y-79349600D03*
X152400000Y-125044200D03*
X161239200Y-61366400D03*
X126492000Y-61290200D03*
X184277000Y-79273400D03*
X184251600Y-65074800D03*
X137210800Y-84734400D03*
X152400000Y-95529400D03*
X120675400Y-116357400D03*
X167640000Y-108458000D03*
X146100800Y-134518400D03*
X161315400Y-90043000D03*
X184251600Y-47752000D03*
X152400000Y-79375000D03*
X161290000Y-140716000D03*
X175638940Y-105875163D03*
X152374600Y-47802800D03*
X164922200Y-82397600D03*
X120675400Y-84709000D03*
X137185400Y-47777400D03*
X133809759Y-105309876D03*
X126593600Y-130124200D03*
%TO.N,~{EN6}*%
X140131800Y-67183000D03*
X140131800Y-128193800D03*
%TO.N,~{EN7}*%
X139573000Y-70993000D03*
X139573000Y-128778000D03*
%TO.N,~{EN15}*%
X139047220Y-123127449D03*
X139047220Y-69088000D03*
%TO.N,/~{PHI2}*%
X169155110Y-101145110D03*
X169164000Y-134874000D03*
X169153840Y-68351400D03*
X169155110Y-114349530D03*
%TO.N,/resetData/RES*%
X167126920Y-75996800D03*
X147788400Y-56196000D03*
X147804100Y-51116000D03*
X162938460Y-58801000D03*
X162943540Y-54991000D03*
%TO.N,/timerb/timerbMux/OUTPUT*%
X153162000Y-106172000D03*
X153162000Y-100076000D03*
%TO.N,/cregb/~{TBSTART}*%
X172466000Y-97028000D03*
X171958000Y-115570000D03*
%TO.N,/TBLOAD*%
X154178000Y-117348000D03*
X154178000Y-86360000D03*
%TO.N,/TBOUTMODE*%
X176971960Y-85686900D03*
X176974500Y-53715920D03*
%TO.N,/TBINMODE0*%
X179895000Y-99525000D03*
X182077241Y-132178252D03*
%TO.N,/TBINMODE1*%
X170500000Y-58780000D03*
X170500000Y-98232000D03*
X170500000Y-133430000D03*
%TO.N,/timerb/TBSTART*%
X155448000Y-115570000D03*
X155333076Y-81927076D03*
%TO.N,/cregb/WE14*%
X178816000Y-131572000D03*
%TO.N,/cregb/~{WE14}*%
X170953258Y-71564500D03*
X170980134Y-127082343D03*
%TO.N,/cregb/TBUNDERFLOW*%
X160525460Y-64226440D03*
X154686000Y-87571580D03*
X154686000Y-127000000D03*
%TO.N,/cregb/TBRUNMODE*%
X182085611Y-137236200D03*
X179224940Y-56250840D03*
X178026060Y-83793940D03*
X178026060Y-63700660D03*
%TO.N,/cregb/~{OE14}*%
X182118000Y-63246000D03*
X182085611Y-51181000D03*
%TO.N,/timerb/TBPULSESET*%
X172544740Y-70413880D03*
X172532040Y-85054440D03*
%TO.N,/timerb/~{OETBLO}*%
X141478000Y-69723000D03*
X141478000Y-51130200D03*
%TO.N,/timerb/~{OETBHI}*%
X140716000Y-73533000D03*
X140690600Y-50495200D03*
%TO.N,/timerb/~{TBLOAD}*%
X121412000Y-93980000D03*
X141478000Y-139446000D03*
X121435134Y-109751134D03*
X141452436Y-109088912D03*
%TO.N,/timerb/TBCOUNT*%
X140995992Y-138812246D03*
X140970000Y-107442000D03*
%TO.N,/timerb/~{WETBLO}*%
X132123180Y-132410200D03*
X128244600Y-118694200D03*
%TO.N,/timerb/~{WETBHI}*%
X111582200Y-118694200D03*
X147574000Y-133847840D03*
X147566380Y-82522060D03*
X132123180Y-133835140D03*
%TO.N,/timerb/timer16/TBLO7*%
X132983480Y-95899320D03*
X132803269Y-119964320D03*
%TO.N,/timerb/timer16/TBLO5*%
X126554869Y-86995120D03*
X126554869Y-123774320D03*
%TO.N,/timerb/timer16/TBLO3*%
X129457980Y-111633120D03*
X129272669Y-125044320D03*
%TO.N,/timerb/timer16/TBLO1*%
X130326769Y-128856860D03*
X130357249Y-102776140D03*
%TO.N,/timerb/timer16/TBLO0*%
X131101469Y-104038520D03*
X131076069Y-128854320D03*
%TO.N,/timerb/timer16/TBLO2*%
X131685669Y-125044320D03*
X131660269Y-110388520D03*
%TO.N,/timerb/timer16/TBLO4*%
X132441634Y-88257380D03*
X132238434Y-123766580D03*
%TO.N,/timerb/timer16/TBLO6*%
X133489069Y-94640520D03*
X133616069Y-119964320D03*
%TO.N,/timerb/timer16/TBHI7*%
X116461411Y-95899200D03*
X116281200Y-119964200D03*
%TO.N,/timerb/timer16/TBHI5*%
X110032800Y-86995000D03*
X110032800Y-123774200D03*
%TO.N,/timerb/timer16/TBHI3*%
X112928400Y-125044200D03*
X112935911Y-111633000D03*
%TO.N,/timerb/timer16/TBHI1*%
X113741200Y-102819200D03*
X113804700Y-128856740D03*
%TO.N,/timerb/timer16/TBHI0*%
X114681000Y-104089200D03*
X114554000Y-128854200D03*
%TO.N,/timerb/timer16/TBHI2*%
X115138200Y-110388400D03*
X115163600Y-125044200D03*
%TO.N,/timerb/timer16/TBHI4*%
X115951000Y-88265000D03*
X115747800Y-123774200D03*
%TO.N,/timerb/timer16/TBHI6*%
X117094000Y-119964200D03*
X116967000Y-94640400D03*
%TO.N,/timerb/TBTOGGLE*%
X162399980Y-74782680D03*
X162399980Y-86230460D03*
%TO.N,/timerb/timer16/TB1*%
X128633434Y-104046020D03*
X128557234Y-69804280D03*
X128557234Y-51137820D03*
%TO.N,/timerb/timer16/TB0*%
X128684020Y-105305860D03*
X129171069Y-72346940D03*
X129171069Y-53644920D03*
%TO.N,/timerb/timer16/TB2*%
X129696849Y-56215400D03*
X129707009Y-74874240D03*
X128714500Y-109111820D03*
%TO.N,/timerb/timer16/TB3*%
X127977269Y-72339320D03*
X127977269Y-53644920D03*
X128033480Y-110381820D03*
%TO.N,/timerb/timer16/TB5*%
X127443869Y-74904720D03*
X127443869Y-56210320D03*
X127398780Y-88277700D03*
%TO.N,/timerb/timer16/TB4*%
X130316609Y-77414240D03*
X130316609Y-89588460D03*
X130316609Y-58752860D03*
%TO.N,/timerb/timer16/TB6*%
X124393669Y-77417120D03*
X124393669Y-58755833D03*
X124395869Y-93370520D03*
%TO.N,/timerb/timer16/TB7*%
X130982089Y-61297940D03*
X130982089Y-79969480D03*
X130964309Y-94645600D03*
%TO.N,/timerb/timer16/TB9*%
X112014000Y-69796660D03*
X112014000Y-51130200D03*
X112090200Y-104038400D03*
%TO.N,/timerb/timer16/TB8*%
X112090200Y-105308400D03*
X112649000Y-72346820D03*
X112649000Y-53644800D03*
%TO.N,/timerb/timer16/TB10*%
X113174780Y-56215280D03*
X112166400Y-109110780D03*
X113184940Y-74874120D03*
%TO.N,/timerb/timer16/TB11*%
X111511411Y-110381700D03*
X111455200Y-72339200D03*
X111455200Y-53644800D03*
%TO.N,/timerb/timer16/TB13*%
X110921800Y-74904600D03*
X110920093Y-88288168D03*
X110921800Y-56210200D03*
%TO.N,/timerb/timer16/TB12*%
X113794540Y-77414120D03*
X113794540Y-89588340D03*
X113794540Y-58752740D03*
%TO.N,/timerb/timer16/TB14*%
X107871600Y-58755713D03*
X107871600Y-77417000D03*
X109550200Y-93370400D03*
%TO.N,/timerb/timer16/TB15*%
X114442240Y-94645480D03*
X114460020Y-79969360D03*
X114460020Y-61297820D03*
%TO.N,/cregb/rTBSTART*%
X171430915Y-117553808D03*
X171429851Y-112409573D03*
X171429851Y-51175885D03*
%TO.N,Net-(U208-Pad8)*%
X157480000Y-125730000D03*
X157426660Y-74788901D03*
%TO.N,Net-(U211-Pad5)*%
X143758920Y-86332060D03*
X143779240Y-106243120D03*
%TO.N,Net-(U217-Pad5)*%
X164084000Y-134366000D03*
X163451540Y-102918260D03*
%TO.N,Net-(U217-Pad9)*%
X162172931Y-136500253D03*
X162659060Y-103647240D03*
%TO.N,Net-(U218-Pad3)*%
X172466000Y-139642440D03*
X172466000Y-100076000D03*
%TO.N,Net-(U222-Pad12)*%
X167894000Y-118364000D03*
X167894000Y-113030000D03*
%TO.N,Net-(U223-Pad1)*%
X163068000Y-128270000D03*
X163068000Y-110998000D03*
%TO.N,Net-(U223-Pad11)*%
X169633521Y-136182479D03*
X170027600Y-115003580D03*
%TD*%
D17*
%TO.N,/resetData/DO1*%
X149446000Y-53656000D02*
X150361161Y-53656000D01*
X148793819Y-53003819D02*
X149446000Y-53656000D01*
X148223819Y-53003819D02*
X148793819Y-53003819D01*
X148223819Y-53003819D02*
X142484203Y-53003819D01*
X148711020Y-53003819D02*
X148223819Y-53003819D01*
X108308140Y-127584200D02*
X109336411Y-127584200D01*
X106130480Y-125406540D02*
X108308140Y-127584200D01*
X106130480Y-58923476D02*
X106130480Y-125406540D01*
X106938540Y-58115416D02*
X106130480Y-58923476D01*
X108330000Y-53225680D02*
X107911800Y-53225680D01*
X106938540Y-54198940D02*
X106938540Y-58115416D01*
X142264262Y-53223760D02*
X108331920Y-53223760D01*
X108331920Y-53223760D02*
X108330000Y-53225680D01*
X107911800Y-53225680D02*
X106938540Y-54198940D01*
X142484203Y-53003819D02*
X142264262Y-53223760D01*
%TO.N,/resetData/DO0*%
X142834000Y-52386000D02*
X145411161Y-52386000D01*
X107996782Y-53034240D02*
X142185760Y-53034240D01*
X107994502Y-53031960D02*
X107996782Y-53034240D01*
X107837498Y-53031960D02*
X107994502Y-53031960D01*
X106749020Y-58036914D02*
X106749020Y-54120438D01*
X106749020Y-54120438D02*
X107837498Y-53031960D01*
X105940960Y-58844974D02*
X106749020Y-58036914D01*
X105940960Y-125996800D02*
X105940960Y-58844974D01*
X116890800Y-128219200D02*
X108163360Y-128219200D01*
X142185760Y-53034240D02*
X142834000Y-52386000D01*
X108163360Y-128219200D02*
X105940960Y-125996800D01*
X117525800Y-127584200D02*
X116890800Y-128219200D01*
X118636411Y-127584200D02*
X117525800Y-127584200D01*
%TO.N,/resetData/DO2*%
X144410200Y-56196000D02*
X145411161Y-56196000D01*
X143789400Y-55575200D02*
X144410200Y-56196000D01*
X129283460Y-55575200D02*
X143789400Y-55575200D01*
X128038860Y-56819800D02*
X129283460Y-55575200D01*
X120929400Y-56819800D02*
X128038860Y-56819800D01*
X119684800Y-55575200D02*
X120929400Y-56819800D01*
X108229400Y-55575200D02*
X119684800Y-55575200D01*
X106320000Y-125118540D02*
X106320000Y-59001978D01*
X116814600Y-126974600D02*
X108176060Y-126974600D01*
X108176060Y-126974600D02*
X106320000Y-125118540D01*
X117475000Y-126314200D02*
X116814600Y-126974600D01*
X118636411Y-126314200D02*
X117475000Y-126314200D01*
X106320000Y-59001978D02*
X107128060Y-58193918D01*
X107128060Y-58193918D02*
X107128060Y-56676540D01*
X107128060Y-56676540D02*
X108229400Y-55575200D01*
%TO.N,/resetData/DO3*%
X106515940Y-59074060D02*
X106515940Y-124491520D01*
X108338620Y-126314200D02*
X109336411Y-126314200D01*
X107475760Y-58114240D02*
X106515940Y-59074060D01*
X107714240Y-58114240D02*
X107475760Y-58114240D01*
X106515940Y-124491520D02*
X108338620Y-126314200D01*
X107714240Y-58114240D02*
X107465760Y-58114240D01*
X133340000Y-58114240D02*
X107714240Y-58114240D01*
%TO.N,/resetData/DO4*%
X106705460Y-121691460D02*
X106705460Y-59164540D01*
X108178600Y-123164600D02*
X106705460Y-121691460D01*
X116865400Y-123164600D02*
X108178600Y-123164600D01*
X117525800Y-122504200D02*
X116865400Y-123164600D01*
X107566240Y-58303760D02*
X157113640Y-58303760D01*
X118636411Y-122504200D02*
X117525800Y-122504200D01*
X106705460Y-59164540D02*
X107566240Y-58303760D01*
X157113640Y-58303760D02*
X157313700Y-58103700D01*
D18*
%TO.N,/resetData/DO5*%
X106913480Y-121203480D02*
X106913480Y-60776520D01*
X108214200Y-122504200D02*
X106913480Y-121203480D01*
X109336411Y-122504200D02*
X108214200Y-122504200D01*
X106913480Y-60776520D02*
X108476780Y-59213220D01*
X108476780Y-59213220D02*
X109133220Y-59213220D01*
X135370000Y-59213220D02*
X109133220Y-59213220D01*
X157126780Y-59213220D02*
X135370000Y-59213220D01*
X157520000Y-58820000D02*
X157126780Y-59213220D01*
X158200000Y-58140000D02*
X157520000Y-58820000D01*
X162510000Y-56910000D02*
X159430000Y-56910000D01*
X159430000Y-56910000D02*
X158200000Y-58140000D01*
X163900000Y-56910000D02*
X162510000Y-56910000D01*
X164370000Y-57380000D02*
X163900000Y-56910000D01*
X164521000Y-57531000D02*
X164370000Y-57380000D01*
X165517600Y-57531000D02*
X164521000Y-57531000D01*
%TO.N,D6*%
X133930000Y-60030000D02*
X135085811Y-60030000D01*
X120170000Y-59550000D02*
X133450000Y-59550000D01*
X133450000Y-59550000D02*
X133930000Y-60030000D01*
X119699800Y-60020200D02*
X120170000Y-59550000D01*
X118585611Y-60020200D02*
X119699800Y-60020200D01*
X135085811Y-60030000D02*
X135095611Y-60020200D01*
%TO.N,/resetData/DO6*%
X108419652Y-62350000D02*
X108960000Y-62350000D01*
X107140000Y-63629653D02*
X108419652Y-62350000D01*
X107140000Y-120820106D02*
X107140000Y-63629653D01*
X108189094Y-121869200D02*
X107140000Y-120820106D01*
X116840000Y-121869200D02*
X108189094Y-121869200D01*
X117475000Y-121234200D02*
X116840000Y-121869200D01*
X118636411Y-121234200D02*
X117475000Y-121234200D01*
X129560000Y-62350000D02*
X108960000Y-62350000D01*
%TO.N,/resetData/DO7*%
X107370000Y-120729758D02*
X107570121Y-120929879D01*
X107370000Y-63720000D02*
X107370000Y-120729758D01*
X163363480Y-62576520D02*
X108513480Y-62576520D01*
X165517600Y-61341000D02*
X164599000Y-61341000D01*
X164599000Y-61341000D02*
X163363480Y-62576520D01*
X108513480Y-62576520D02*
X107370000Y-63720000D01*
X107874442Y-121234200D02*
X107570121Y-120929879D01*
%TO.N,/cregb/WE14*%
X179288179Y-72258179D02*
X179280000Y-72250000D01*
X179961411Y-72258179D02*
X179288179Y-72258179D01*
%TO.N,/TBINMODE0*%
X181371000Y-58801000D02*
X181370000Y-58800000D01*
X182085611Y-58801000D02*
X181371000Y-58801000D01*
%TO.N,/TBOUTMODE*%
X173486200Y-137236200D02*
X173500000Y-137250000D01*
X172785611Y-137236200D02*
X173486200Y-137236200D01*
D17*
%TO.N,/resetData/DO4*%
X157313700Y-58103700D02*
X157101720Y-58315680D01*
X159156400Y-56261000D02*
X157313700Y-58103700D01*
%TO.N,D5*%
X135105411Y-57490000D02*
X135095611Y-57480200D01*
X154823960Y-56885040D02*
X136854960Y-56885040D01*
X156057600Y-55651400D02*
X154823960Y-56885040D01*
X162026600Y-55651400D02*
X156057600Y-55651400D01*
X136854960Y-56885040D02*
X136250000Y-57490000D01*
X162636200Y-56261000D02*
X162026600Y-55651400D01*
X165517600Y-56261000D02*
X162636200Y-56261000D01*
X136250000Y-57490000D02*
X135105411Y-57490000D01*
%TO.N,/resetData/DO3*%
X148675760Y-58114240D02*
X133340000Y-58114240D01*
X149324000Y-57466000D02*
X149000000Y-57790000D01*
X150361161Y-57466000D02*
X149324000Y-57466000D01*
X149000000Y-57790000D02*
X148675760Y-58114240D01*
%TO.N,D5*%
X118585811Y-57480000D02*
X118585611Y-57480200D01*
X119690000Y-57480000D02*
X118585811Y-57480000D01*
X120134720Y-57924720D02*
X119690000Y-57480000D01*
X133565280Y-57924720D02*
X120134720Y-57924720D01*
X135095611Y-57480200D02*
X134009800Y-57480200D01*
X134009800Y-57480200D02*
X133565280Y-57924720D01*
D18*
%TO.N,/resetData/DO6*%
X158070000Y-61430000D02*
X157150000Y-62350000D01*
X159429000Y-60071000D02*
X158070000Y-61430000D01*
X160567600Y-60071000D02*
X159429000Y-60071000D01*
X157150000Y-62350000D02*
X129560000Y-62350000D01*
D17*
%TO.N,D1*%
X124310200Y-52400200D02*
X118585611Y-52400200D01*
X126995280Y-52844720D02*
X124754720Y-52844720D01*
X127439800Y-52400200D02*
X126995280Y-52844720D01*
X124754720Y-52844720D02*
X124310200Y-52400200D01*
X135095611Y-52400200D02*
X127439800Y-52400200D01*
D18*
%TO.N,DZ4*%
X191268860Y-81511140D02*
X192540000Y-80240000D01*
X187810000Y-89342004D02*
X187810000Y-82552680D01*
X194460916Y-112433449D02*
X194460916Y-95992920D01*
X188851540Y-81511140D02*
X191268860Y-81511140D01*
X194460916Y-95992920D02*
X187810000Y-89342004D01*
X193186185Y-113708180D02*
X194460916Y-112433449D01*
X188493400Y-113708180D02*
X193186185Y-113708180D01*
X187188506Y-115013074D02*
X188493400Y-113708180D01*
X179961411Y-115013074D02*
X187188506Y-115013074D01*
X187810000Y-82552680D02*
X188851540Y-81511140D01*
%TO.N,DZ0*%
X188797919Y-80240000D02*
X190000000Y-80240000D01*
X187580000Y-81457919D02*
X188797919Y-80240000D01*
X187580000Y-89432338D02*
X187580000Y-81457919D01*
X194234396Y-96086734D02*
X187580000Y-89432338D01*
X194234396Y-109908684D02*
X194234396Y-96086734D01*
X176015046Y-113743074D02*
X176550320Y-113207800D01*
X176550320Y-113207800D02*
X185542200Y-113207800D01*
X175011411Y-113743074D02*
X176015046Y-113743074D01*
X185542200Y-113207800D02*
X187710000Y-111040000D01*
X187710000Y-111040000D02*
X193103080Y-111040000D01*
X193103080Y-111040000D02*
X194234396Y-109908684D01*
%TO.N,DZ7*%
X194687436Y-95899106D02*
X188040000Y-89251670D01*
X188040000Y-84740000D02*
X190000000Y-82780000D01*
X194687436Y-127122564D02*
X194687436Y-95899106D01*
X193080000Y-128730000D02*
X194687436Y-127122564D01*
X187880000Y-128730000D02*
X193080000Y-128730000D01*
X186993800Y-129616200D02*
X187880000Y-128730000D01*
X188040000Y-89251670D02*
X188040000Y-84740000D01*
X182085611Y-129616200D02*
X186993800Y-129616200D01*
%TO.N,DZ6*%
X178130200Y-134696200D02*
X172785611Y-134696200D01*
X191840366Y-136639300D02*
X180073300Y-136639300D01*
X190000000Y-89930334D02*
X195593489Y-95523823D01*
X190000000Y-87860000D02*
X190000000Y-89930334D01*
X195593489Y-95523823D02*
X195593489Y-132886177D01*
X195593489Y-132886177D02*
X191840366Y-136639300D01*
X180073300Y-136639300D02*
X178130200Y-134696200D01*
%TO.N,DZ3*%
X193893440Y-84133440D02*
X192540000Y-82780000D01*
X193893440Y-85930740D02*
X193893440Y-84133440D01*
X189303660Y-86542880D02*
X193281300Y-86542880D01*
X195366978Y-132792354D02*
X195366978Y-95617646D01*
X188774240Y-87072300D02*
X189303660Y-86542880D01*
X192193132Y-135966200D02*
X195366978Y-132792354D01*
X188774240Y-89024908D02*
X188774240Y-87072300D01*
X182085611Y-135966200D02*
X192193132Y-135966200D01*
X195366978Y-95617646D02*
X188774240Y-89024908D01*
X193281300Y-86542880D02*
X193893440Y-85930740D01*
%TO.N,DZ1*%
X193142798Y-134696200D02*
X182085611Y-134696200D01*
X195140467Y-95711469D02*
X195140467Y-132698531D01*
X188547720Y-89118722D02*
X195140467Y-95711469D01*
X188547720Y-86772280D02*
X188547720Y-89118722D01*
X190000000Y-85320000D02*
X188547720Y-86772280D01*
X195140467Y-132698531D02*
X193142798Y-134696200D01*
%TO.N,DZ2*%
X192540000Y-92150000D02*
X192540000Y-87860000D01*
X195820000Y-95430000D02*
X192540000Y-92150000D01*
X195820000Y-132980000D02*
X195820000Y-95430000D01*
X190926260Y-137873740D02*
X195820000Y-132980000D01*
X175938180Y-137873740D02*
X190926260Y-137873740D01*
X174030640Y-135966200D02*
X175938180Y-137873740D01*
X172785611Y-135966200D02*
X174030640Y-135966200D01*
%TO.N,DZ5*%
X191260980Y-84040980D02*
X192540000Y-85320000D01*
X189769020Y-84040980D02*
X191260980Y-84040980D01*
X188320000Y-85490000D02*
X189769020Y-84040980D01*
X188320000Y-89211336D02*
X188320000Y-85490000D01*
X194913956Y-95805292D02*
X188320000Y-89211336D01*
X194913956Y-127216392D02*
X194913956Y-95805292D01*
X193173828Y-128956520D02*
X194913956Y-127216392D01*
X188973480Y-128956520D02*
X193173828Y-128956520D01*
X187015860Y-130914140D02*
X188973480Y-128956520D01*
%TO.N,TBPULSE*%
X177157380Y-87035640D02*
X184542634Y-87035640D01*
X176456340Y-86334600D02*
X177157380Y-87035640D01*
%TO.N,~{RES}*%
X191757915Y-108002085D02*
X189960000Y-109800000D01*
%TO.N,TBPULSE*%
X174960611Y-86334600D02*
X176456340Y-86334600D01*
%TO.N,~{RES}*%
X191757915Y-93930587D02*
X191757915Y-108002085D01*
X187353490Y-89526162D02*
X191757915Y-93930587D01*
X187353490Y-76609490D02*
X187353490Y-89526162D01*
X184272179Y-73528179D02*
X187353490Y-76609490D01*
X179961411Y-73528179D02*
X184272179Y-73528179D01*
%TO.N,TBPULSE*%
X184542634Y-87035640D02*
X191315340Y-93808346D01*
X191315340Y-93808346D02*
X191315340Y-104086660D01*
%TO.N,TBOUT*%
X189206203Y-92283280D02*
X190318283Y-93395360D01*
X164721540Y-92283280D02*
X189206203Y-92283280D01*
X161208860Y-88770600D02*
X164721540Y-92283280D01*
X160651420Y-88770600D02*
X161208860Y-88770600D01*
%TO.N,DZ5*%
X182113551Y-130914140D02*
X187015860Y-130914140D01*
%TO.N,D0*%
X184341000Y-52451000D02*
X182085611Y-52451000D01*
X194880000Y-70270800D02*
X194880000Y-62990000D01*
X192540000Y-72620000D02*
X194884600Y-70275400D01*
%TO.N,D1*%
X193294000Y-71374000D02*
X191246000Y-71374000D01*
X191246000Y-71374000D02*
X190000000Y-72620000D01*
X194653489Y-70014511D02*
X193294000Y-71374000D01*
X194653489Y-63102445D02*
X194653489Y-70014511D01*
X178562000Y-53086000D02*
X184637044Y-53086000D01*
X172785611Y-52451000D02*
X177927000Y-52451000D01*
%TO.N,D0*%
X194880000Y-62990000D02*
X184341000Y-52451000D01*
%TO.N,D2*%
X186221696Y-54991000D02*
X182085611Y-54991000D01*
X194426979Y-63196283D02*
X186221696Y-54991000D01*
%TO.N,D1*%
X184637044Y-53086000D02*
X194653489Y-63102445D01*
%TO.N,D5*%
X193747445Y-65840555D02*
X193294000Y-66294000D01*
%TO.N,D1*%
X177927000Y-52451000D02*
X178562000Y-53086000D01*
%TO.N,D5*%
X193747446Y-63497446D02*
X193747445Y-65840555D01*
X188416000Y-58166000D02*
X193747446Y-63497446D01*
X174498000Y-58166000D02*
X188416000Y-58166000D01*
%TO.N,D4*%
X188121000Y-57531000D02*
X182085611Y-57531000D01*
X193973956Y-66106044D02*
X193973957Y-63383957D01*
%TO.N,D3*%
X191246000Y-68834000D02*
X190000000Y-70080000D01*
X193294000Y-68834000D02*
X191246000Y-68834000D01*
%TO.N,D0*%
X194884600Y-70275400D02*
X194880000Y-70270800D01*
%TO.N,D3*%
X194200467Y-67927533D02*
X193294000Y-68834000D01*
X194200468Y-63290120D02*
X194200467Y-67927533D01*
X186558401Y-55648053D02*
X194200468Y-63290120D01*
X178838053Y-55648053D02*
X186558401Y-55648053D01*
X178181000Y-54991000D02*
X178838053Y-55648053D01*
X172785611Y-54991000D02*
X178181000Y-54991000D01*
%TO.N,D5*%
X172785611Y-57531000D02*
X173863000Y-57531000D01*
X191246000Y-66294000D02*
X190000000Y-67540000D01*
%TO.N,D4*%
X193973957Y-63383957D02*
X188121000Y-57531000D01*
X192540000Y-67540000D02*
X193973956Y-66106044D01*
%TO.N,D2*%
X194426978Y-68193022D02*
X194426979Y-63196283D01*
%TO.N,D5*%
X173863000Y-57531000D02*
X174498000Y-58166000D01*
X193294000Y-66294000D02*
X191246000Y-66294000D01*
%TO.N,D2*%
X192540000Y-70080000D02*
X194426978Y-68193022D01*
%TO.N,CNT*%
X144190720Y-115034060D02*
X145499395Y-115034060D01*
X165652220Y-138176000D02*
X165608000Y-138176000D01*
X145499395Y-115034060D02*
X145520381Y-115013074D01*
%TO.N,PB7ON*%
X189960000Y-130120000D02*
X186653800Y-133426200D01*
X183484520Y-53723540D02*
X182088151Y-53723540D01*
X182088151Y-53723540D02*
X182085611Y-53721000D01*
X186653800Y-133426200D02*
X182085611Y-133426200D01*
%TO.N,PHI2*%
X161336998Y-137519523D02*
X156304079Y-137519523D01*
X174960611Y-83794600D02*
X172133260Y-83794600D01*
X162814000Y-136906000D02*
X162200477Y-137519523D01*
X164084000Y-135636000D02*
X162814000Y-136906000D01*
X145469581Y-99974400D02*
X147312380Y-99974400D01*
X162200477Y-137519523D02*
X161336998Y-137519523D01*
X179628800Y-123698000D02*
X191158000Y-123698000D01*
X172133260Y-83794600D02*
X172044360Y-83705700D01*
X150419581Y-101244400D02*
X156276040Y-101244400D01*
X178221611Y-125105189D02*
X156347189Y-125105189D01*
X163390580Y-99184460D02*
X172045540Y-99184460D01*
X165652220Y-135636000D02*
X164084000Y-135636000D01*
X156301440Y-101244400D02*
X157660440Y-99885400D01*
X156276040Y-101244400D02*
X156301440Y-101244400D01*
X172041820Y-67190620D02*
X174998970Y-67190620D01*
X148582380Y-101244400D02*
X150419581Y-101244400D01*
X150470381Y-116283074D02*
X150562945Y-116190510D01*
X156304079Y-137519523D02*
X156281785Y-137541817D01*
X161685490Y-116190510D02*
X163576000Y-114300000D01*
X163576000Y-114300000D02*
X165652220Y-114300000D01*
X160651420Y-99885400D02*
X162689640Y-99885400D01*
X150562945Y-116190510D02*
X161685490Y-116190510D01*
X191158000Y-123698000D02*
X192500000Y-125040000D01*
X179095400Y-124231400D02*
X178841400Y-124485400D01*
X157660440Y-99885400D02*
X160651420Y-99885400D01*
X147312380Y-99974400D02*
X148582380Y-101244400D01*
X179095400Y-124231400D02*
X179628800Y-123698000D01*
X174998970Y-67190620D02*
X175011411Y-67178179D01*
X162689640Y-99885400D02*
X163390580Y-99184460D01*
X174960611Y-83794600D02*
X176614600Y-83794600D01*
X177884600Y-85064600D02*
X179910611Y-85064600D01*
X176614600Y-83794600D02*
X177884600Y-85064600D01*
X178841400Y-124485400D02*
X178221611Y-125105189D01*
X156278580Y-125036580D02*
X156332333Y-125036580D01*
%TO.N,TAPULSE*%
X168715243Y-102690278D02*
X168835722Y-102690278D01*
X182057760Y-118303760D02*
X182372000Y-118618000D01*
X168733201Y-139255511D02*
X168542712Y-139446000D01*
X182050690Y-118310830D02*
X168715243Y-118310830D01*
X191302000Y-118618000D02*
X192500000Y-117420000D01*
X170731000Y-100795000D02*
X174945000Y-100795000D01*
X168542712Y-139446000D02*
X165652220Y-139446000D01*
X182372000Y-118618000D02*
X191302000Y-118618000D01*
X182057760Y-118303760D02*
X182050690Y-118310830D01*
X168835722Y-102690278D02*
X170731000Y-100795000D01*
%TO.N,ALARM*%
X185536840Y-61330840D02*
X182095771Y-61330840D01*
X186842400Y-62636400D02*
X185536840Y-61330840D01*
X182095771Y-61330840D02*
X182085611Y-61341000D01*
X186968540Y-128346200D02*
X182085611Y-128346200D01*
X187004100Y-62636400D02*
X186842400Y-62636400D01*
X187004100Y-128310640D02*
X186968540Y-128346200D01*
%TO.N,TBPULSE*%
X163360100Y-88348820D02*
X164475160Y-89463880D01*
X163334420Y-88313260D02*
X162521760Y-87500600D01*
X163360100Y-88313260D02*
X163334420Y-88313260D01*
X170258740Y-89463880D02*
X173388020Y-86334600D01*
X164475160Y-89463880D02*
X170258740Y-89463880D01*
X173388020Y-86334600D02*
X174960611Y-86334600D01*
X162521760Y-87500600D02*
X160651420Y-87500600D01*
X165652220Y-70988179D02*
X163393379Y-70988179D01*
X163360100Y-88313260D02*
X163360100Y-88348820D01*
X163393379Y-70988179D02*
X163370260Y-70965060D01*
%TO.N,ENABLE_NAND*%
X189960000Y-114880000D02*
X187955501Y-116884499D01*
X187955501Y-116884499D02*
X179566875Y-116884499D01*
X178131775Y-116884499D02*
X177074918Y-115827642D01*
X150361161Y-133261200D02*
X158584800Y-133261200D01*
X158584800Y-133261200D02*
X161036000Y-130810000D01*
X148854160Y-70291960D02*
X152049480Y-70291960D01*
X147030340Y-131991200D02*
X147317560Y-131991200D01*
X152417780Y-69923660D02*
X152417780Y-68811140D01*
X177074918Y-115827642D02*
X176796798Y-115549522D01*
X173248478Y-115549522D02*
X172720000Y-116078000D01*
X145520381Y-72258179D02*
X146887941Y-72258179D01*
X161036000Y-130810000D02*
X162814000Y-130810000D01*
X147111720Y-72034400D02*
X148854160Y-70291960D01*
X163576000Y-124460000D02*
X165641294Y-124460000D01*
X145520381Y-68448179D02*
X150470381Y-68448179D01*
X166722056Y-116246791D02*
X163915209Y-116246791D01*
X148587560Y-133261200D02*
X150361161Y-133261200D01*
X152417780Y-68811140D02*
X152054819Y-68448179D01*
X172720000Y-116078000D02*
X172551209Y-116246791D01*
X152049480Y-70291960D02*
X152417780Y-69923660D01*
X146887941Y-72258179D02*
X147111720Y-72034400D01*
X152054819Y-68448179D02*
X150470381Y-68448179D01*
X163915209Y-116246791D02*
X163576000Y-116586000D01*
X174772478Y-115549522D02*
X173248478Y-115549522D01*
X147317560Y-131991200D02*
X148587560Y-133261200D01*
X179566875Y-116884499D02*
X178131775Y-116884499D01*
X165641294Y-124460000D02*
X165652220Y-124449074D01*
X176796798Y-115549522D02*
X174772478Y-115549522D01*
X145411161Y-131991200D02*
X147030340Y-131991200D01*
X172551209Y-116246791D02*
X166722056Y-116246791D01*
%TO.N,~{RES}*%
X167089079Y-68448179D02*
X165652220Y-68448179D01*
X145411161Y-126911200D02*
X147231200Y-126911200D01*
X163068000Y-68580000D02*
X163199821Y-68448179D01*
X147231200Y-126911200D02*
X148501200Y-128181200D01*
X148501200Y-128181200D02*
X150361161Y-128181200D01*
X178938179Y-73528179D02*
X178369234Y-72959234D01*
X178369234Y-72959234D02*
X171600134Y-72959234D01*
X163199821Y-68448179D02*
X165652220Y-68448179D01*
X179961411Y-73528179D02*
X178938179Y-73528179D01*
X158776166Y-121909074D02*
X158757620Y-121927620D01*
X171600134Y-72959234D02*
X167089079Y-68448179D01*
X160702220Y-121909074D02*
X158776166Y-121909074D01*
X160702220Y-138176000D02*
X158750000Y-138176000D01*
X157850840Y-131902200D02*
X158767780Y-131902200D01*
X150361161Y-128181200D02*
X154129840Y-128181200D01*
X154129840Y-128181200D02*
X157850840Y-131902200D01*
D19*
%TO.N,VCC*%
X119087600Y-68364400D02*
X119087600Y-66421000D01*
D18*
X181610000Y-98806000D02*
X181610000Y-100076000D01*
X147289520Y-101244400D02*
X148559520Y-102514400D01*
X176806194Y-116283074D02*
X175011411Y-116283074D01*
D19*
X179895000Y-104605000D02*
X179895000Y-100795000D01*
D18*
X165652220Y-115570000D02*
X165608000Y-115570000D01*
X162974120Y-101155400D02*
X162974120Y-101206400D01*
X181610000Y-85770000D02*
X181045400Y-86334600D01*
D19*
X166128400Y-67033158D02*
X166128400Y-65125600D01*
D18*
X145520381Y-113743074D02*
X147876926Y-113743074D01*
X113926620Y-91462860D02*
X125757940Y-91462860D01*
D19*
X182702200Y-127025400D02*
X182702200Y-124993400D01*
D18*
X180891000Y-100795000D02*
X179895000Y-100795000D01*
X161798000Y-110490000D02*
X160702220Y-110490000D01*
X163068000Y-111760000D02*
X161798000Y-110490000D01*
X181610000Y-100076000D02*
X180891000Y-100795000D01*
X125757940Y-91462860D02*
X126384280Y-92089200D01*
X162974120Y-101155400D02*
X164244120Y-99885400D01*
D19*
X165517600Y-53721000D02*
X167563800Y-53721000D01*
D18*
X165652220Y-110490000D02*
X166116000Y-110490000D01*
X169407074Y-128259074D02*
X165652220Y-128259074D01*
X181059000Y-98255000D02*
X181610000Y-98806000D01*
X146606926Y-116283074D02*
X147876926Y-115013074D01*
X159512000Y-114300000D02*
X158955074Y-113743074D01*
D19*
X166141400Y-97332600D02*
X166141400Y-95529400D01*
X117456300Y-102761700D02*
X117817600Y-102400400D01*
D20*
X166128400Y-110477600D02*
X166128400Y-108458000D01*
D18*
X160782000Y-114300000D02*
X159512000Y-114300000D01*
X174960611Y-81254600D02*
X179910611Y-81254600D01*
X159766000Y-110490000D02*
X160702220Y-110490000D01*
D19*
X165991400Y-81150600D02*
X166166800Y-80975200D01*
D18*
X160651420Y-101155400D02*
X162974120Y-101155400D01*
D19*
X118756200Y-87009200D02*
X119126000Y-86639400D01*
D18*
X150419581Y-102514400D02*
X156745600Y-102514400D01*
X164244120Y-99885400D02*
X165601420Y-99885400D01*
X172785611Y-129616200D02*
X172785611Y-130886200D01*
D19*
X179961411Y-67178179D02*
X182326021Y-67178179D01*
X166128400Y-121808948D02*
X166128400Y-119989600D01*
D18*
X148559520Y-102514400D02*
X150419581Y-102514400D01*
X164193120Y-102425400D02*
X165601420Y-102425400D01*
X158955074Y-113743074D02*
X158955074Y-111300926D01*
X165652220Y-111760000D02*
X163068000Y-111760000D01*
D19*
X181399000Y-96985000D02*
X182880000Y-95504000D01*
X182689200Y-80531000D02*
X182689200Y-79273400D01*
D18*
X165652220Y-126989074D02*
X165652220Y-128259074D01*
X145469581Y-101244400D02*
X147289520Y-101244400D01*
D19*
X182702200Y-49606200D02*
X182702200Y-47777400D01*
X150850600Y-67122558D02*
X150850600Y-65125600D01*
X150850600Y-126898400D02*
X150850600Y-125044200D01*
X135623000Y-118579600D02*
X135623000Y-116382800D01*
X182880000Y-95504000D02*
X182880000Y-95009000D01*
X181965600Y-81254600D02*
X182689200Y-80531000D01*
D18*
X113300280Y-92089200D02*
X113926620Y-91462860D01*
X126384280Y-92089200D02*
X128021411Y-92089200D01*
D19*
X166128400Y-133083000D02*
X166128400Y-131318000D01*
X135648400Y-86652400D02*
X135648400Y-84709000D01*
X135291600Y-87009200D02*
X135648400Y-86652400D01*
X150850600Y-112420400D02*
X150850600Y-110464600D01*
D18*
X158104600Y-101155400D02*
X160651420Y-101155400D01*
D19*
X135331200Y-49911000D02*
X135648400Y-49593800D01*
D18*
X181610000Y-83510000D02*
X181610000Y-85770000D01*
D19*
X150837600Y-81165400D02*
X150837600Y-79349600D01*
X180896926Y-112473074D02*
X182689200Y-110680800D01*
X119126000Y-86639400D02*
X119126000Y-84683600D01*
X150850600Y-97383600D02*
X150850600Y-95529400D01*
X150825200Y-49758600D02*
X150825200Y-47828200D01*
X119113000Y-49619200D02*
X119113000Y-47828200D01*
D18*
X111511411Y-107841700D02*
X112921700Y-107841700D01*
X179910611Y-82524600D02*
X180624600Y-82524600D01*
X160702220Y-114300000D02*
X160782000Y-114300000D01*
D19*
X116461411Y-87009200D02*
X118756200Y-87009200D01*
X134340600Y-102260400D02*
X134340600Y-100863400D01*
X133864700Y-102736300D02*
X134340600Y-102260400D01*
D18*
X178076194Y-117553074D02*
X176806194Y-116283074D01*
D19*
X135636000Y-68503800D02*
X135636000Y-66446400D01*
X179961411Y-112473074D02*
X180896926Y-112473074D01*
X179910611Y-81254600D02*
X181965600Y-81254600D01*
D18*
X113531428Y-108451428D02*
X125482572Y-108451428D01*
D19*
X132971411Y-87009200D02*
X135291600Y-87009200D01*
D18*
X126092300Y-107841700D02*
X128021411Y-107841700D01*
X166116000Y-110490000D02*
X166128400Y-110477600D01*
D19*
X135648400Y-49593800D02*
X135648400Y-47828200D01*
D18*
X156745600Y-102514400D02*
X158104600Y-101155400D01*
X179895000Y-98255000D02*
X181059000Y-98255000D01*
D19*
X182676800Y-66827400D02*
X182676800Y-65074800D01*
X119072660Y-118686580D02*
X119072660Y-116400580D01*
D18*
X145520381Y-116283074D02*
X146606926Y-116283074D01*
X180624600Y-82524600D02*
X181610000Y-83510000D01*
D19*
X174945000Y-103335000D02*
X179895000Y-103335000D01*
D18*
X170764200Y-129616200D02*
X169407074Y-128259074D01*
D19*
X167563800Y-53721000D02*
X167868600Y-53416200D01*
X179895000Y-96985000D02*
X181399000Y-96985000D01*
X166166800Y-80975200D02*
X166166800Y-79349600D01*
D18*
X179961411Y-117553074D02*
X178076194Y-117553074D01*
X125482572Y-108451428D02*
X126092300Y-107841700D01*
X158955074Y-111300926D02*
X159766000Y-110490000D01*
X162974120Y-101206400D02*
X164193120Y-102425400D01*
X150470381Y-113743074D02*
X158955074Y-113743074D01*
D19*
X182689200Y-110680800D02*
X182689200Y-110388400D01*
D18*
X181045400Y-86334600D02*
X179910611Y-86334600D01*
X112921700Y-107841700D02*
X113531428Y-108451428D01*
X179910611Y-81254600D02*
X179910611Y-82524600D01*
D19*
X117817600Y-102400400D02*
X117817600Y-100863400D01*
X182326021Y-67178179D02*
X182676800Y-66827400D01*
D18*
X172785611Y-129616200D02*
X170764200Y-129616200D01*
X111511411Y-92089200D02*
X113300280Y-92089200D01*
D19*
X182880000Y-95009000D02*
X182867000Y-94996000D01*
D18*
X147876926Y-115013074D02*
X147876926Y-113743074D01*
D19*
X118821200Y-49911000D02*
X119113000Y-49619200D01*
D18*
X147876926Y-113743074D02*
X150470381Y-113743074D01*
%TO.N,GND*%
X160702220Y-140716000D02*
X161290000Y-140716000D01*
X147050760Y-83017360D02*
X147050760Y-84800440D01*
X160651420Y-83690600D02*
X160651420Y-84960600D01*
X136961880Y-76144120D02*
X136961880Y-73621900D01*
X165705420Y-82524600D02*
X165601420Y-82420600D01*
X165601420Y-82420600D02*
X160651420Y-82420600D01*
X116461411Y-105301700D02*
X125621700Y-105301700D01*
X116461411Y-89549200D02*
X118227880Y-89549200D01*
X126238000Y-105918000D02*
X131064000Y-105918000D01*
X136961880Y-71683880D02*
X136429750Y-71151750D01*
X118636411Y-76156700D02*
X125846411Y-76156700D01*
X165601420Y-84960600D02*
X165601420Y-86230600D01*
X109336411Y-78696700D02*
X118636411Y-78696700D01*
X135146411Y-78696700D02*
X136382880Y-78696700D01*
X125846411Y-76156700D02*
X135146411Y-76156700D01*
X125621700Y-105301700D02*
X126238000Y-105918000D01*
X165601420Y-86230600D02*
X165601420Y-87500600D01*
X167678400Y-108458000D02*
X167640000Y-108458000D01*
X118636411Y-71076700D02*
X125846411Y-71076700D01*
X160651420Y-81150600D02*
X160651420Y-82420600D01*
X160702220Y-118110000D02*
X161290000Y-118110000D01*
D19*
X174945000Y-105875000D02*
X175638777Y-105875000D01*
D18*
X108302940Y-71076700D02*
X109336411Y-71076700D01*
X131178300Y-88935560D02*
X131791940Y-89549200D01*
X110083600Y-71069200D02*
X118628911Y-71069200D01*
X107922060Y-69014340D02*
X107922060Y-70695820D01*
X118227880Y-89549200D02*
X118841520Y-88935560D01*
X136382880Y-78696700D02*
X136961880Y-78117700D01*
X136354700Y-71076700D02*
X136429750Y-71151750D01*
X136961880Y-73621900D02*
X136961880Y-71683880D01*
X132971411Y-89549200D02*
X134394980Y-89549200D01*
X147050760Y-84800440D02*
X146786600Y-85064600D01*
X125846411Y-78696700D02*
X135146411Y-78696700D01*
X131791940Y-89549200D02*
X132971411Y-89549200D01*
X136961880Y-78117700D02*
X136961880Y-76144120D01*
X165601420Y-87500600D02*
X165601420Y-88770600D01*
X145469581Y-82524600D02*
X146558000Y-82524600D01*
X125846411Y-71076700D02*
X135146411Y-71076700D01*
X125846411Y-73616700D02*
X135146411Y-73616700D01*
X107922060Y-70695820D02*
X108302940Y-71076700D01*
D19*
X133809759Y-105309876D02*
X132980651Y-105310940D01*
D18*
X135146411Y-76156700D02*
X136949300Y-76156700D01*
X146558000Y-82524600D02*
X147050760Y-83017360D01*
X135146411Y-73616700D02*
X136956680Y-73616700D01*
X160651420Y-82420600D02*
X160651420Y-83690600D01*
X109336411Y-68536700D02*
X108399700Y-68536700D01*
X118841520Y-88935560D02*
X131178300Y-88935560D01*
X131064000Y-105918000D02*
X131680300Y-105301700D01*
X134394980Y-89549200D02*
X138879580Y-85064600D01*
X174960611Y-82524600D02*
X165705420Y-82524600D01*
D19*
X184417000Y-94996000D02*
X184279620Y-94996000D01*
X175638777Y-105875000D02*
X175638940Y-105875163D01*
D18*
X135146411Y-71076700D02*
X136354700Y-71076700D01*
X109336411Y-76156700D02*
X118636411Y-76156700D01*
X160651420Y-84960600D02*
X165601420Y-84960600D01*
X131680300Y-105301700D02*
X132971411Y-105301700D01*
X109336411Y-73616700D02*
X118636411Y-73616700D01*
X136949300Y-76156700D02*
X136961880Y-76144120D01*
X146786600Y-85064600D02*
X145469581Y-85064600D01*
X108399700Y-68536700D02*
X107922060Y-69014340D01*
X138879580Y-85064600D02*
X145469581Y-85064600D01*
X118628911Y-71069200D02*
X118636411Y-71076700D01*
X118636411Y-78696700D02*
X125846411Y-78696700D01*
X136956680Y-73616700D02*
X136961880Y-73621900D01*
X118636411Y-73616700D02*
X125846411Y-73616700D01*
%TO.N,D0*%
X110972600Y-51841400D02*
X124180600Y-51841400D01*
D17*
X125795611Y-52400200D02*
X126873000Y-52400200D01*
X144133800Y-49846000D02*
X145411161Y-49846000D01*
D18*
X109336411Y-52451000D02*
X110363000Y-52451000D01*
X179081920Y-50557920D02*
X180975000Y-52451000D01*
D17*
X126873000Y-52400200D02*
X127457200Y-51816000D01*
X142163800Y-51816000D02*
X144133800Y-49846000D01*
D18*
X147128720Y-50557920D02*
X179081920Y-50557920D01*
X146416800Y-49846000D02*
X147128720Y-50557920D01*
X110363000Y-52451000D02*
X110972600Y-51841400D01*
X124180600Y-51841400D02*
X124739400Y-52400200D01*
D17*
X127457200Y-51816000D02*
X142163800Y-51816000D01*
D18*
X180975000Y-52451000D02*
X182085611Y-52451000D01*
X124739400Y-52400200D02*
X125795611Y-52400200D01*
X145411161Y-49846000D02*
X146416800Y-49846000D01*
%TO.N,D1*%
X171653200Y-52451000D02*
X172785611Y-52451000D01*
X150948760Y-52168160D02*
X171370360Y-52168160D01*
X142925800Y-51765200D02*
X148564600Y-51765200D01*
X148564600Y-51765200D02*
X149185400Y-52386000D01*
X171370360Y-52168160D02*
X171653200Y-52451000D01*
X150901400Y-52120800D02*
X150948760Y-52168160D01*
X142290800Y-52400200D02*
X142636240Y-52054760D01*
X135095611Y-52400200D02*
X142290800Y-52400200D01*
X150636200Y-52386000D02*
X150901400Y-52120800D01*
X149185400Y-52386000D02*
X150361161Y-52386000D01*
X142636240Y-52054760D02*
X142925800Y-51765200D01*
%TO.N,D2*%
X177792321Y-53078321D02*
X179705000Y-54991000D01*
X179705000Y-54991000D02*
X182085611Y-54991000D01*
X126669800Y-54940200D02*
X127326164Y-54283836D01*
X156210000Y-52578000D02*
X170180000Y-52578000D01*
X124790200Y-54940200D02*
X125795611Y-54940200D01*
X170180000Y-52578000D02*
X170680321Y-53078321D01*
X125795611Y-54940200D02*
X126669800Y-54940200D01*
X110159800Y-54940200D02*
X110790972Y-54309028D01*
X154474826Y-54313174D02*
X156210000Y-52578000D01*
X109285611Y-54940200D02*
X110159800Y-54940200D01*
X146620000Y-53656000D02*
X147277174Y-54313174D01*
X143956000Y-53656000D02*
X145411161Y-53656000D01*
X147277174Y-54313174D02*
X154474826Y-54313174D01*
X110790972Y-54309028D02*
X124159028Y-54309028D01*
X145411161Y-53656000D02*
X146620000Y-53656000D01*
X143328164Y-54283836D02*
X143956000Y-53656000D01*
X127326164Y-54283836D02*
X143328164Y-54283836D01*
X170680321Y-53078321D02*
X177792321Y-53078321D01*
X124159028Y-54309028D02*
X124790200Y-54940200D01*
%TO.N,D3*%
X134035800Y-54991000D02*
X143433800Y-54991000D01*
X119583200Y-54940200D02*
X120269000Y-55626000D01*
X147153400Y-54926000D02*
X150361161Y-54926000D01*
X120269000Y-55626000D02*
X126969520Y-55626000D01*
X144145000Y-54279800D02*
X146507200Y-54279800D01*
X154624000Y-54926000D02*
X156438600Y-53111400D01*
X143433800Y-54991000D02*
X144145000Y-54279800D01*
X118585611Y-54940200D02*
X119583200Y-54940200D01*
X150361161Y-54926000D02*
X154624000Y-54926000D01*
X126969520Y-55626000D02*
X127655320Y-54940200D01*
X146507200Y-54279800D02*
X147153400Y-54926000D01*
X163576000Y-54432200D02*
X171196000Y-54432200D01*
X127655320Y-54940200D02*
X135095611Y-54940200D01*
X171754800Y-54991000D02*
X172785611Y-54991000D01*
X156438600Y-53111400D02*
X162255200Y-53111400D01*
X171196000Y-54432200D02*
X171754800Y-54991000D01*
X162255200Y-53111400D02*
X163576000Y-54432200D01*
%TO.N,D4*%
X109285611Y-57480200D02*
X110388400Y-57480200D01*
D17*
X156438600Y-54991000D02*
X160567600Y-54991000D01*
X125846411Y-57531000D02*
X133406240Y-57531000D01*
D18*
X179628800Y-57531000D02*
X177673000Y-55575200D01*
X162052000Y-54991000D02*
X160567600Y-54991000D01*
D17*
X134241720Y-56695520D02*
X154734080Y-56695520D01*
D18*
X111023400Y-56845200D02*
X119735600Y-56845200D01*
X120370600Y-57480200D02*
X125795611Y-57480200D01*
D17*
X154734080Y-56695520D02*
X156438600Y-54991000D01*
D18*
X162636200Y-55575200D02*
X162052000Y-54991000D01*
X177673000Y-55575200D02*
X162636200Y-55575200D01*
D17*
X133406240Y-57531000D02*
X134241720Y-56695520D01*
D18*
X182085611Y-57531000D02*
X179628800Y-57531000D01*
X110388400Y-57480200D02*
X111023400Y-56845200D01*
X119735600Y-56845200D02*
X120370600Y-57480200D01*
%TO.N,D5*%
X171500800Y-57531000D02*
X170230800Y-56261000D01*
X165517600Y-56261000D02*
X170230800Y-56261000D01*
X172785611Y-57531000D02*
X171500800Y-57531000D01*
%TO.N,D6*%
X162280600Y-58191400D02*
X161620200Y-57531000D01*
X179578000Y-60071000D02*
X178993800Y-59486800D01*
X159461200Y-57531000D02*
X160567600Y-57531000D01*
X187611000Y-60071000D02*
X192540000Y-65000000D01*
X161620200Y-57531000D02*
X160567600Y-57531000D01*
X167538400Y-58191400D02*
X162280600Y-58191400D01*
X135095611Y-60020200D02*
X156972000Y-60020200D01*
X182085611Y-60071000D02*
X187611000Y-60071000D01*
X178993800Y-59486800D02*
X168833800Y-59486800D01*
X156972000Y-60020200D02*
X159461200Y-57531000D01*
X168833800Y-59486800D02*
X167538400Y-58191400D01*
X182085611Y-60071000D02*
X179578000Y-60071000D01*
%TO.N,D7*%
X172785611Y-60071000D02*
X173863000Y-60071000D01*
X165441400Y-59994800D02*
X164338000Y-59994800D01*
X133375400Y-60020200D02*
X125795611Y-60020200D01*
X163779200Y-59436000D02*
X159359600Y-59436000D01*
X134035800Y-60680600D02*
X133375400Y-60020200D01*
X174498000Y-60706000D02*
X185706000Y-60706000D01*
X120421400Y-60020200D02*
X125795611Y-60020200D01*
X185706000Y-60706000D02*
X190000000Y-65000000D01*
X173863000Y-60071000D02*
X174498000Y-60706000D01*
X110998000Y-60680600D02*
X119761000Y-60680600D01*
X109285611Y-60020200D02*
X110337600Y-60020200D01*
X165517600Y-60071000D02*
X172785611Y-60071000D01*
X159359600Y-59436000D02*
X158115000Y-60680600D01*
X110337600Y-60020200D02*
X110998000Y-60680600D01*
X119761000Y-60680600D02*
X120421400Y-60020200D01*
X158115000Y-60680600D02*
X134035800Y-60680600D01*
X164338000Y-59994800D02*
X163779200Y-59436000D01*
%TO.N,~{EN6}*%
X140136621Y-67178179D02*
X140131800Y-67183000D01*
X140144400Y-128181200D02*
X140131800Y-128193800D01*
X145520381Y-67178179D02*
X140136621Y-67178179D01*
X145411161Y-128181200D02*
X140144400Y-128181200D01*
%TO.N,~{EN7}*%
X139573000Y-70993000D02*
X145515560Y-70993000D01*
X150361161Y-129451200D02*
X148211640Y-129451200D01*
X147538440Y-128778000D02*
X139573000Y-128778000D01*
X148211640Y-129451200D02*
X147538440Y-128778000D01*
%TO.N,~{EN15}*%
X149588479Y-69718179D02*
X148958300Y-69088000D01*
X148958300Y-69088000D02*
X139047220Y-69088000D01*
X139098845Y-123179074D02*
X139047220Y-123127449D01*
X160702220Y-123179074D02*
X139098845Y-123179074D01*
%TO.N,/~{PHI2}*%
X169153840Y-68343780D02*
X168620440Y-67810380D01*
X168102471Y-133812471D02*
X162351529Y-133812471D01*
X171764960Y-136591040D02*
X170881040Y-136591040D01*
X148666200Y-133944360D02*
X159344360Y-133944360D01*
X169144820Y-101155400D02*
X169155110Y-101145110D01*
X165601420Y-101155400D02*
X169144820Y-101155400D01*
X179961411Y-113743074D02*
X179004626Y-113743074D01*
X163068000Y-113030000D02*
X163698565Y-113660565D01*
X159344360Y-133944360D02*
X159766000Y-134366000D01*
X179004626Y-113743074D02*
X178384200Y-114363500D01*
X147347940Y-132626100D02*
X148666200Y-133944360D01*
X133177280Y-131196080D02*
X134249160Y-130124200D01*
X170881040Y-136591040D02*
X169164000Y-134874000D01*
X162351529Y-133812471D02*
X161798000Y-134366000D01*
X169153840Y-68351400D02*
X174914632Y-68351400D01*
X178384200Y-114363500D02*
X169169080Y-114363500D01*
X168466145Y-113660565D02*
X169155110Y-114349530D01*
X171764960Y-136591040D02*
X174119540Y-136591040D01*
X169164000Y-134874000D02*
X168102471Y-133812471D01*
X118636411Y-130124200D02*
X119708291Y-131196080D01*
X174119540Y-136591040D02*
X176034700Y-138506200D01*
X176034700Y-138506200D02*
X182085611Y-138506200D01*
X174914632Y-68351400D02*
X175011411Y-68448179D01*
X160702220Y-113030000D02*
X163068000Y-113030000D01*
X159766000Y-134366000D02*
X160702220Y-134366000D01*
X163596320Y-67810380D02*
X162964119Y-67178179D01*
X168620440Y-67810380D02*
X163596320Y-67810380D01*
X119708291Y-131196080D02*
X133177280Y-131196080D01*
X136072880Y-130124200D02*
X138574780Y-132626100D01*
X169153840Y-68351400D02*
X169153840Y-68343780D01*
X162964119Y-67178179D02*
X160702220Y-67178179D01*
X163698565Y-113660565D02*
X168466145Y-113660565D01*
X134249160Y-130124200D02*
X135146411Y-130124200D01*
X138574780Y-132626100D02*
X147347940Y-132626100D01*
X169169080Y-114363500D02*
X169155110Y-114349530D01*
X161798000Y-134366000D02*
X160702220Y-134366000D01*
%TO.N,/resetData/RES*%
X145411161Y-54926000D02*
X146518400Y-54926000D01*
X156784720Y-53654280D02*
X160567600Y-53654280D01*
X160567600Y-58801000D02*
X162938460Y-58801000D01*
X177655220Y-75996800D02*
X167126920Y-75996800D01*
X154243000Y-56196000D02*
X156784720Y-53654280D01*
X145411161Y-51116000D02*
X147804100Y-51116000D01*
X162938460Y-58801000D02*
X165517600Y-58801000D01*
X147788400Y-56196000D02*
X150361161Y-56196000D01*
X161673540Y-53721000D02*
X162943540Y-54991000D01*
X162943540Y-54991000D02*
X165517600Y-54991000D01*
X147804100Y-51116000D02*
X150361161Y-51116000D01*
X178853841Y-74798179D02*
X177655220Y-75996800D01*
X146518400Y-54926000D02*
X147788400Y-56196000D01*
X150361161Y-56196000D02*
X154243000Y-56196000D01*
X179961411Y-74798179D02*
X178853841Y-74798179D01*
X160567600Y-53721000D02*
X161673540Y-53721000D01*
D17*
%TO.N,/resetData/DO0*%
X133426200Y-128219200D02*
X134061200Y-127584200D01*
X119811800Y-127584200D02*
X120446800Y-128219200D01*
X120446800Y-128219200D02*
X133426200Y-128219200D01*
X134061200Y-127584200D02*
X135146411Y-127584200D01*
X118636411Y-127584200D02*
X119811800Y-127584200D01*
%TO.N,/resetData/DO1*%
X120370600Y-127584200D02*
X125846411Y-127584200D01*
X109336411Y-127584200D02*
X116865400Y-127584200D01*
X116865400Y-127584200D02*
X117475000Y-126974600D01*
X119761000Y-126974600D02*
X120370600Y-127584200D01*
X117475000Y-126974600D02*
X119761000Y-126974600D01*
%TO.N,/resetData/DO2*%
X134061200Y-126314200D02*
X135146411Y-126314200D01*
X120345200Y-126949200D02*
X133426200Y-126949200D01*
X118636411Y-126314200D02*
X119710200Y-126314200D01*
X119710200Y-126314200D02*
X120345200Y-126949200D01*
X133426200Y-126949200D02*
X134061200Y-126314200D01*
%TO.N,/resetData/DO3*%
X120294400Y-126314200D02*
X125846411Y-126314200D01*
X109336411Y-126314200D02*
X116814600Y-126314200D01*
X117424200Y-125704600D02*
X119684800Y-125704600D01*
X119684800Y-125704600D02*
X120294400Y-126314200D01*
X116814600Y-126314200D02*
X117424200Y-125704600D01*
%TO.N,/resetData/DO4*%
X120345200Y-123139200D02*
X133426200Y-123139200D01*
X134061200Y-122504200D02*
X135146411Y-122504200D01*
X119710200Y-122504200D02*
X120345200Y-123139200D01*
X133426200Y-123139200D02*
X134061200Y-122504200D01*
X160567600Y-56261000D02*
X159156400Y-56261000D01*
X118636411Y-122504200D02*
X119710200Y-122504200D01*
D18*
%TO.N,/resetData/DO5*%
X120396000Y-122504200D02*
X125846411Y-122504200D01*
X117500400Y-121869200D02*
X119761000Y-121869200D01*
X119761000Y-121869200D02*
X120396000Y-122504200D01*
X116865400Y-122504200D02*
X117500400Y-121869200D01*
X109336411Y-122504200D02*
X116865400Y-122504200D01*
%TO.N,/resetData/DO6*%
X119735600Y-121234200D02*
X120396000Y-121894600D01*
X118636411Y-121234200D02*
X119735600Y-121234200D01*
X133400800Y-121894600D02*
X134061200Y-121234200D01*
X120396000Y-121894600D02*
X133400800Y-121894600D01*
X134061200Y-121234200D02*
X135146411Y-121234200D01*
%TO.N,/resetData/DO7*%
X109336411Y-121234200D02*
X107874442Y-121234200D01*
X125846411Y-121234200D02*
X124790200Y-121234200D01*
X124790200Y-121234200D02*
X124167014Y-120611014D01*
X111544986Y-120611014D02*
X110921800Y-121234200D01*
X124167014Y-120611014D02*
X111544986Y-120611014D01*
X110921800Y-121234200D02*
X109336411Y-121234200D01*
%TO.N,/timerb/timerbMux/OUTPUT*%
X174945000Y-104605000D02*
X173779000Y-104605000D01*
X150521181Y-100076000D02*
X150419581Y-99974400D01*
X172212000Y-106172000D02*
X153162000Y-106172000D01*
X173779000Y-104605000D02*
X172212000Y-106172000D01*
X153162000Y-100076000D02*
X150521181Y-100076000D01*
%TO.N,/timerb/timerbMux/CNTSYNC*%
X147472400Y-102514400D02*
X148082000Y-103124000D01*
X145469581Y-102514400D02*
X147472400Y-102514400D01*
X158618469Y-104262469D02*
X170819531Y-104262469D01*
X148082000Y-103124000D02*
X157480000Y-103124000D01*
X157480000Y-103124000D02*
X158618469Y-104262469D01*
X173017000Y-102065000D02*
X174945000Y-102065000D01*
X170819531Y-104262469D02*
X173017000Y-102065000D01*
%TO.N,/cregb/~{TBSTART}*%
X163729877Y-114908123D02*
X168903659Y-114908123D01*
X174902000Y-97028000D02*
X174945000Y-96985000D01*
X172466000Y-97028000D02*
X174902000Y-97028000D01*
X161798000Y-116840000D02*
X163729877Y-114908123D01*
X171884232Y-115496232D02*
X171958000Y-115570000D01*
X168903659Y-114908123D02*
X169491768Y-115496232D01*
X160702220Y-116840000D02*
X161798000Y-116840000D01*
X169491768Y-115496232D02*
X171884232Y-115496232D01*
%TO.N,/TBLOAD*%
X164030247Y-117401753D02*
X161462287Y-117401753D01*
X164846000Y-116840000D02*
X164592000Y-116840000D01*
X164338000Y-117094000D02*
X164030247Y-117401753D01*
X165652220Y-116840000D02*
X164846000Y-116840000D01*
X154178000Y-86360000D02*
X150444981Y-86360000D01*
X154231753Y-117401753D02*
X154178000Y-117348000D01*
X161462287Y-117401753D02*
X154231753Y-117401753D01*
X150444981Y-86360000D02*
X150419581Y-86334600D01*
X164592000Y-116840000D02*
X164338000Y-117094000D01*
%TO.N,/TBOUTMODE*%
X176974500Y-53715920D02*
X172790691Y-53715920D01*
X170174920Y-85689440D02*
X176969420Y-85689440D01*
X172790691Y-53715920D02*
X172785611Y-53721000D01*
X176969420Y-85689440D02*
X176971960Y-85686900D01*
X168176080Y-83690600D02*
X170174920Y-85689440D01*
X165601420Y-83690600D02*
X168176080Y-83690600D01*
%TO.N,/TBINMODE0*%
X182085611Y-132156200D02*
X182085611Y-132169882D01*
X182085611Y-132169882D02*
X182077241Y-132178252D01*
%TO.N,/TBINMODE1*%
X170523000Y-98255000D02*
X170500000Y-98232000D01*
X172785611Y-58801000D02*
X170521000Y-58801000D01*
X170521000Y-58801000D02*
X170500000Y-58780000D01*
X174945000Y-98255000D02*
X170523000Y-98255000D01*
X170503800Y-133426200D02*
X170500000Y-133430000D01*
X172785611Y-133426200D02*
X170503800Y-133426200D01*
%TO.N,/timerb/TBSTART*%
X159897821Y-69718179D02*
X160702220Y-69718179D01*
X158496000Y-71120000D02*
X159897821Y-69718179D01*
X147652091Y-80439909D02*
X147652091Y-79169909D01*
X147652091Y-79169909D02*
X147652091Y-73835909D01*
X146786600Y-81254600D02*
X147459076Y-81927076D01*
X147459076Y-81927076D02*
X155333076Y-81927076D01*
X146837400Y-81254600D02*
X147652091Y-80439909D01*
X148590000Y-72898000D02*
X156718000Y-72898000D01*
X156718000Y-72898000D02*
X158496000Y-71120000D01*
X147652091Y-73835909D02*
X148590000Y-72898000D01*
X160702220Y-115570000D02*
X155448000Y-115570000D01*
X145469581Y-81254600D02*
X146786600Y-81254600D01*
X145469581Y-81254600D02*
X146837400Y-81254600D01*
%TO.N,/cregb/WE14*%
X170180000Y-131572000D02*
X169799000Y-131191000D01*
X168910000Y-130302000D02*
X169799000Y-131191000D01*
X161544000Y-133096000D02*
X164338000Y-130302000D01*
X160702220Y-133096000D02*
X161544000Y-133096000D01*
X164338000Y-130302000D02*
X168910000Y-130302000D01*
X178816000Y-131572000D02*
X170180000Y-131572000D01*
%TO.N,/cregb/~{WE14}*%
X169616865Y-125719074D02*
X170980134Y-127082343D01*
X178356260Y-71564500D02*
X178932581Y-70988179D01*
X165652220Y-125719074D02*
X169616865Y-125719074D01*
X178932581Y-70988179D02*
X179961411Y-70988179D01*
X170986277Y-127076200D02*
X170980134Y-127082343D01*
X170953258Y-71564500D02*
X178356260Y-71564500D01*
X172785611Y-127076200D02*
X170986277Y-127076200D01*
%TO.N,/cregb/TBUNDERFLOW*%
X160691294Y-127000000D02*
X160702220Y-126989074D01*
X150452601Y-87571580D02*
X150419581Y-87604600D01*
X178737519Y-68448179D02*
X179961411Y-68448179D01*
X160525460Y-64226440D02*
X160660080Y-64091820D01*
X145469581Y-87604600D02*
X150419581Y-87604600D01*
X160660080Y-64091820D02*
X174381160Y-64091820D01*
X154686000Y-87571580D02*
X150452601Y-87571580D01*
X154686000Y-127000000D02*
X160691294Y-127000000D01*
X174381160Y-64091820D02*
X178737519Y-68448179D01*
%TO.N,/cregb/TBRUNMODE*%
X160065720Y-63708280D02*
X161244280Y-63708280D01*
X182085611Y-56261000D02*
X179235100Y-56261000D01*
X179910611Y-83794600D02*
X178026720Y-83794600D01*
X151515821Y-72258179D02*
X160065720Y-63708280D01*
X161244280Y-63708280D02*
X178018440Y-63708280D01*
X178026720Y-83794600D02*
X178026060Y-83793940D01*
X179235100Y-56261000D02*
X179224940Y-56250840D01*
X150470381Y-72258179D02*
X151515821Y-72258179D01*
X178018440Y-63708280D02*
X178026060Y-63700660D01*
%TO.N,/cregb/~{OE14}*%
X160020000Y-63246000D02*
X162814000Y-63246000D01*
X179959000Y-49911000D02*
X172785611Y-49911000D01*
X181229000Y-51181000D02*
X179959000Y-49911000D01*
X153924000Y-69342000D02*
X160020000Y-63246000D01*
X152277821Y-70988179D02*
X153924000Y-69342000D01*
X162814000Y-63246000D02*
X182118000Y-63246000D01*
X150470381Y-70988179D02*
X152277821Y-70988179D01*
X182085611Y-51181000D02*
X181229000Y-51181000D01*
%TO.N,/timerb/TBPULSESET*%
X179961411Y-69718179D02*
X178320441Y-69718179D01*
X178320441Y-69718179D02*
X177624740Y-70413880D01*
X172532040Y-85054440D02*
X174950451Y-85054440D01*
X174950451Y-85054440D02*
X174960611Y-85064600D01*
X177624740Y-70413880D02*
X172544740Y-70413880D01*
%TO.N,/timerb/~{OETBLO}*%
X141482821Y-69718179D02*
X141478000Y-69723000D01*
X129971800Y-49860200D02*
X131241800Y-51130200D01*
X141478000Y-51130200D02*
X135095611Y-51130200D01*
X125795611Y-49860200D02*
X129971800Y-49860200D01*
X145520381Y-69718179D02*
X141482821Y-69718179D01*
X131241800Y-51130200D02*
X135095611Y-51130200D01*
%TO.N,/timerb/~{OETBHI}*%
X109285611Y-49860200D02*
X113411000Y-49860200D01*
X113411000Y-49860200D02*
X114681000Y-51130200D01*
X140690600Y-50495200D02*
X131394200Y-50495200D01*
X140720821Y-73528179D02*
X140716000Y-73533000D01*
X145520381Y-73528179D02*
X140720821Y-73528179D01*
X124485400Y-48920400D02*
X122275600Y-51130200D01*
X131394200Y-50495200D02*
X129819400Y-48920400D01*
X122275600Y-51130200D02*
X118585611Y-51130200D01*
X114681000Y-51130200D02*
X118585611Y-51130200D01*
X129819400Y-48920400D02*
X124485400Y-48920400D01*
%TO.N,/timerb/~{TBLOAD}*%
X131938800Y-93359200D02*
X132971411Y-93359200D01*
X116461411Y-93359200D02*
X117743200Y-93359200D01*
X141429648Y-109111700D02*
X132971411Y-109111700D01*
X131680300Y-109111700D02*
X132971411Y-109111700D01*
X117493700Y-109111700D02*
X118133134Y-109751134D01*
X118364000Y-93980000D02*
X131318000Y-93980000D01*
X118133134Y-109751134D02*
X121435134Y-109751134D01*
X117743200Y-93359200D02*
X118364000Y-93980000D01*
X160702220Y-139446000D02*
X141478000Y-139446000D01*
X121435134Y-109751134D02*
X131040866Y-109751134D01*
X116461411Y-109111700D02*
X117493700Y-109111700D01*
X131040866Y-109751134D02*
X131680300Y-109111700D01*
X131318000Y-93980000D02*
X131938800Y-93359200D01*
X141452436Y-109088912D02*
X141429648Y-109111700D01*
%TO.N,/timerb/TBCOUNT*%
X163576000Y-138176000D02*
X162957572Y-138794428D01*
X162957572Y-138794428D02*
X161573426Y-138794428D01*
X164846000Y-136906000D02*
X163576000Y-138176000D01*
X140970000Y-107442000D02*
X140745134Y-107217134D01*
X141013810Y-138794428D02*
X140995992Y-138812246D01*
X129823134Y-107217134D02*
X129177700Y-106571700D01*
X161573426Y-138794428D02*
X141013810Y-138794428D01*
X129177700Y-106571700D02*
X128021411Y-106571700D01*
X165652220Y-136906000D02*
X164846000Y-136906000D01*
X140745134Y-107217134D02*
X129823134Y-107217134D01*
%TO.N,/timerb/~{WETBLO}*%
X128244600Y-118694200D02*
X125846411Y-118694200D01*
X132999480Y-133286500D02*
X145385861Y-133286500D01*
X132123180Y-132410200D02*
X132999480Y-133286500D01*
%TO.N,/timerb/~{WETBHI}*%
X147574000Y-133847840D02*
X148257360Y-134531200D01*
X150417041Y-82522060D02*
X150419581Y-82524600D01*
X147566380Y-82522060D02*
X150417041Y-82522060D01*
X148257360Y-134531200D02*
X150361161Y-134531200D01*
X132123180Y-133835140D02*
X132135880Y-133847840D01*
X132135880Y-133847840D02*
X147574000Y-133847840D01*
X111582200Y-118694200D02*
X109336411Y-118694200D01*
%TO.N,/timerb/timer16/TBLO7*%
X125858480Y-119964320D02*
X132803269Y-119964320D01*
%TO.N,/timerb/timer16/TBLO5*%
X126554869Y-86995120D02*
X128019280Y-86995120D01*
%TO.N,/timerb/timer16/TBLO3*%
X125858480Y-125044320D02*
X129272669Y-125044320D01*
X129457980Y-111633120D02*
X132964780Y-111633120D01*
%TO.N,/timerb/timer16/TBLO1*%
X130324229Y-128854320D02*
X130326769Y-128856860D01*
X125858480Y-128854320D02*
X130324229Y-128854320D01*
X130357249Y-102776140D02*
X128047800Y-102776140D01*
%TO.N,/timerb/timer16/TBLO0*%
X135158480Y-128854320D02*
X131076069Y-128854320D01*
X131101469Y-104038520D02*
X132976780Y-104038520D01*
%TO.N,/timerb/timer16/TBLO2*%
X131667089Y-110381700D02*
X131660269Y-110388520D01*
X132971411Y-110381700D02*
X131667089Y-110381700D01*
X135158480Y-125044320D02*
X131685669Y-125044320D01*
%TO.N,/timerb/timer16/TBLO4*%
X135127045Y-123766580D02*
X132238434Y-123766580D01*
%TO.N,/timerb/timer16/TBLO6*%
X135158480Y-119964320D02*
X133616069Y-119964320D01*
%TO.N,/timerb/timer16/TBHI7*%
X109336411Y-119964200D02*
X116281200Y-119964200D01*
%TO.N,/timerb/timer16/TBHI5*%
X110032800Y-86995000D02*
X111497211Y-86995000D01*
%TO.N,/timerb/timer16/TBHI3*%
X109336411Y-125044200D02*
X112750600Y-125044200D01*
X112935911Y-111633000D02*
X116442711Y-111633000D01*
%TO.N,/timerb/timer16/TBHI1*%
X109336411Y-128854200D02*
X113802160Y-128854200D01*
X113683700Y-102761700D02*
X113741200Y-102819200D01*
X113802160Y-128854200D02*
X113804700Y-128856740D01*
X111511411Y-102761700D02*
X113683700Y-102761700D01*
D17*
%TO.N,/timerb/timer16/TBHI0*%
X114579400Y-104038400D02*
X116454711Y-104038400D01*
D18*
X118636411Y-128854200D02*
X114554000Y-128854200D01*
%TO.N,/timerb/timer16/TBHI2*%
X115138200Y-110388400D02*
X116454711Y-110388400D01*
X118636411Y-125044200D02*
X115163600Y-125044200D01*
%TO.N,/timerb/timer16/TBHI4*%
X118636411Y-123774200D02*
X115747800Y-123774200D01*
%TO.N,/timerb/timer16/TBHI6*%
X118636411Y-119964200D02*
X117094000Y-119964200D01*
%TO.N,/timerb/timer16/~{TIMER_UNDERFLOW}*%
X138455400Y-77749400D02*
X138455400Y-70764400D01*
X137497700Y-69806700D02*
X135146411Y-69806700D01*
X144500600Y-83794600D02*
X138455400Y-77749400D01*
X145469581Y-83794600D02*
X144500600Y-83794600D01*
X138455400Y-70764400D02*
X137497700Y-69806700D01*
%TO.N,/timerb/TBTOGGLESET*%
X163789101Y-72258179D02*
X165652220Y-72258179D01*
X162519101Y-73528179D02*
X163789101Y-72258179D01*
X160702220Y-73528179D02*
X162519101Y-73528179D01*
%TO.N,/timerb/~{TBTOGGLE}*%
X167487600Y-70459600D02*
X167487600Y-74007980D01*
X166697401Y-74798179D02*
X165652220Y-74798179D01*
X167487600Y-74007980D02*
X166697401Y-74798179D01*
X165652220Y-69718179D02*
X166746179Y-69718179D01*
X166746179Y-69718179D02*
X167487600Y-70459600D01*
%TO.N,/timerb/TBTOGGLE*%
X160651420Y-86230600D02*
X162399840Y-86230600D01*
X162399980Y-74782680D02*
X162399980Y-74693780D01*
X162399980Y-74693780D02*
X163565581Y-73528179D01*
X163565581Y-73528179D02*
X165652220Y-73528179D01*
X162399840Y-86230600D02*
X162399980Y-86230460D01*
%TO.N,/timerb/timer16/TB1*%
X125828845Y-51137820D02*
X128557234Y-51137820D01*
X128547194Y-69814320D02*
X128557234Y-69804280D01*
X125879645Y-69814320D02*
X128547194Y-69814320D01*
%TO.N,/timerb/timer16/TB0*%
X135158480Y-72346820D02*
X129171189Y-72346820D01*
X129171189Y-72346820D02*
X129171069Y-72346940D01*
X129196469Y-53670320D02*
X129171069Y-53644920D01*
X135107680Y-53670320D02*
X129196469Y-53670320D01*
%TO.N,/timerb/timer16/TB2*%
X129707009Y-74874240D02*
X135145900Y-74874240D01*
X129701929Y-56210320D02*
X129696849Y-56215400D01*
X135107680Y-56210320D02*
X129701929Y-56210320D01*
%TO.N,/timerb/timer16/TB3*%
X127951869Y-53670320D02*
X127977269Y-53644920D01*
X125807680Y-53670320D02*
X127951869Y-53670320D01*
X127977269Y-72339320D02*
X125865980Y-72339320D01*
%TO.N,/timerb/timer16/TB5*%
X127443869Y-74904720D02*
X125876380Y-74904720D01*
X125807680Y-56210320D02*
X127443869Y-56210320D01*
%TO.N,/timerb/timer16/TB4*%
X135107680Y-58750320D02*
X130319149Y-58750320D01*
X130329189Y-77426820D02*
X130316609Y-77414240D01*
X130319149Y-58750320D02*
X130316609Y-58752860D01*
X135158480Y-77426820D02*
X130329189Y-77426820D01*
X130316609Y-89588460D02*
X128072620Y-89588460D01*
%TO.N,/timerb/timer16/TB6*%
X124403369Y-77426820D02*
X124393669Y-77417120D01*
X125858480Y-77426820D02*
X124403369Y-77426820D01*
X124399182Y-58750320D02*
X124393669Y-58755833D01*
X128021411Y-93359200D02*
X124407189Y-93359200D01*
X124407189Y-93359200D02*
X124395869Y-93370520D01*
X125807680Y-58750320D02*
X124399182Y-58750320D01*
%TO.N,/timerb/timer16/TB7*%
X130989709Y-61290320D02*
X130982089Y-61297940D01*
X130984749Y-79966820D02*
X130982089Y-79969480D01*
X135107680Y-61290320D02*
X130989709Y-61290320D01*
X130964309Y-94645600D02*
X128049760Y-94645600D01*
X135158480Y-79966820D02*
X130984749Y-79966820D01*
D17*
%TO.N,/timerb/timer16/TB9*%
X112003960Y-69806700D02*
X112014000Y-69796660D01*
D18*
X109285611Y-51130200D02*
X112014000Y-51130200D01*
D17*
X109336411Y-69806700D02*
X112003960Y-69806700D01*
D18*
%TO.N,/timerb/timer16/TB8*%
X118585611Y-53670200D02*
X112674400Y-53670200D01*
X112649120Y-72346700D02*
X112649000Y-72346820D01*
X112674400Y-53670200D02*
X112649000Y-53644800D01*
X118636411Y-72346700D02*
X112649120Y-72346700D01*
%TO.N,/timerb/timer16/TB10*%
X113184940Y-74874120D02*
X118623831Y-74874120D01*
X113179860Y-56210200D02*
X113174780Y-56215280D01*
X118585611Y-56210200D02*
X113179860Y-56210200D01*
%TO.N,/timerb/timer16/TB11*%
X111429800Y-53670200D02*
X111455200Y-53644800D01*
X109285611Y-53670200D02*
X111429800Y-53670200D01*
X111455200Y-72339200D02*
X109343911Y-72339200D01*
%TO.N,/timerb/timer16/TB13*%
X110921800Y-74904600D02*
X109354311Y-74904600D01*
X109285611Y-56210200D02*
X110921800Y-56210200D01*
%TO.N,/timerb/timer16/TB12*%
X118585611Y-58750200D02*
X113797080Y-58750200D01*
X113807120Y-77426700D02*
X113794540Y-77414120D01*
X118636411Y-77426700D02*
X113807120Y-77426700D01*
X113797080Y-58750200D02*
X113794540Y-58752740D01*
X113794540Y-89588340D02*
X111550551Y-89588340D01*
D17*
%TO.N,/timerb/timer16/TB14*%
X107877113Y-58750200D02*
X107871600Y-58755713D01*
X107881300Y-77426700D02*
X107871600Y-77417000D01*
X109336411Y-77426700D02*
X107881300Y-77426700D01*
X109648300Y-93370400D02*
X111500211Y-93370400D01*
X109285611Y-58750200D02*
X107877113Y-58750200D01*
D18*
%TO.N,/timerb/timer16/TB15*%
X114442240Y-94645480D02*
X111527691Y-94645480D01*
X118636411Y-79966700D02*
X114462680Y-79966700D01*
X114462680Y-79966700D02*
X114460020Y-79969360D01*
X114467640Y-61290200D02*
X114460020Y-61297820D01*
X118585611Y-61290200D02*
X114467640Y-61290200D01*
D17*
%TO.N,/timerb/timer16/TBCOMPCASCADE*%
X121328300Y-69806700D02*
X122598300Y-68536700D01*
X118636411Y-69806700D02*
X121328300Y-69806700D01*
X122598300Y-68536700D02*
X125846411Y-68536700D01*
D18*
%TO.N,/cregb/rTBSTART*%
X161544000Y-111760000D02*
X162208650Y-112424650D01*
X171431649Y-117553074D02*
X171430915Y-117553808D01*
X171429851Y-51175885D02*
X172780496Y-51175885D01*
X175011411Y-117553074D02*
X171431649Y-117553074D01*
X162208650Y-112424650D02*
X171414774Y-112424650D01*
X160702220Y-111760000D02*
X161544000Y-111760000D01*
X171414774Y-112424650D02*
X171429851Y-112409573D01*
%TO.N,Net-(U208-Pad9)*%
X158242000Y-74676000D02*
X158242000Y-86868000D01*
X150470381Y-73528179D02*
X157094179Y-73528179D01*
X159506535Y-88132535D02*
X161792535Y-88132535D01*
X158242000Y-86868000D02*
X159506535Y-88132535D01*
X165190000Y-91530000D02*
X174850000Y-91530000D01*
X178775400Y-87604600D02*
X179910611Y-87604600D01*
X161792535Y-88132535D02*
X165190000Y-91530000D01*
X157094179Y-73528179D02*
X158242000Y-74676000D01*
X174850000Y-91530000D02*
X178775400Y-87604600D01*
%TO.N,Net-(U211-Pad11)*%
X150419581Y-83794600D02*
X150419581Y-85064600D01*
%TO.N,Net-(U208-Pad8)*%
X160691294Y-125730000D02*
X160702220Y-125719074D01*
X157425519Y-74787760D02*
X157426660Y-74788901D01*
X150480800Y-74787760D02*
X157425519Y-74787760D01*
X150470381Y-74798179D02*
X150480800Y-74787760D01*
X157480000Y-125730000D02*
X160691294Y-125730000D01*
%TO.N,Net-(U211-Pad5)*%
X145467041Y-86332060D02*
X145469581Y-86334600D01*
X143758920Y-86332060D02*
X145467041Y-86332060D01*
X149128480Y-105054400D02*
X147939760Y-106243120D01*
X150419581Y-105054400D02*
X149128480Y-105054400D01*
X147939760Y-106243120D02*
X143779240Y-106243120D01*
%TO.N,Net-(U215-Pad13)*%
X113544700Y-106571700D02*
X114194889Y-105921511D01*
X114960400Y-93240860D02*
X115415060Y-92786200D01*
X131989600Y-90819200D02*
X132971411Y-90819200D01*
X130022600Y-92786200D02*
X131989600Y-90819200D01*
X111511411Y-106571700D02*
X113544700Y-106571700D01*
X114194889Y-105921511D02*
X114194889Y-95964711D01*
X114960400Y-95199200D02*
X114960400Y-93240860D01*
X114194889Y-95964711D02*
X114960400Y-95199200D01*
X115415060Y-92786200D02*
X130022600Y-92786200D01*
%TO.N,Net-(U216-Pad9)*%
X143532860Y-102758240D02*
X143926560Y-103151940D01*
X147416520Y-103151940D02*
X148048980Y-103784400D01*
X160651420Y-97345400D02*
X160651420Y-98615400D01*
X144233900Y-99336860D02*
X143532860Y-100037900D01*
X143532860Y-100037900D02*
X143532860Y-102758240D01*
X160651420Y-98615400D02*
X155514140Y-98615400D01*
X154792680Y-99336860D02*
X144233900Y-99336860D01*
X143926560Y-103151940D02*
X147416520Y-103151940D01*
X148048980Y-103784400D02*
X150419581Y-103784400D01*
X155514140Y-98615400D02*
X154792680Y-99336860D01*
%TO.N,Net-(U211-Pad8)*%
X162313620Y-96471740D02*
X164457280Y-98615400D01*
X149473920Y-88874600D02*
X148742400Y-89606120D01*
X149385020Y-98704400D02*
X150419581Y-98704400D01*
X153319480Y-98704400D02*
X154256740Y-98704400D01*
X150419581Y-98704400D02*
X153319480Y-98704400D01*
X148742400Y-98061780D02*
X149385020Y-98704400D01*
X156489400Y-96471740D02*
X162313620Y-96471740D01*
X154256740Y-98704400D02*
X156489400Y-96471740D01*
X164457280Y-98615400D02*
X165601420Y-98615400D01*
X148742400Y-89606120D02*
X148742400Y-98061780D01*
X150419581Y-88874600D02*
X149473920Y-88874600D01*
D17*
%TO.N,Net-(U214-Pad4)*%
X110552000Y-90819200D02*
X109016800Y-92354400D01*
X114909600Y-107137200D02*
X115475100Y-106571700D01*
X109016800Y-106070400D02*
X110083600Y-107137200D01*
X110083600Y-107137200D02*
X114909600Y-107137200D01*
X109016800Y-92354400D02*
X109016800Y-106070400D01*
X115475100Y-106571700D02*
X116461411Y-106571700D01*
X111511411Y-90819200D02*
X110552000Y-90819200D01*
%TO.N,Net-(U215-Pad4)*%
X129068600Y-90819200D02*
X128021411Y-90819200D01*
X132971411Y-106571700D02*
X133940900Y-106571700D01*
X133940900Y-106571700D02*
X135128000Y-105384600D01*
X135128000Y-105384600D02*
X135128000Y-90957400D01*
X129641600Y-90246200D02*
X129068600Y-90819200D01*
X135128000Y-90957400D02*
X134416800Y-90246200D01*
X134416800Y-90246200D02*
X129641600Y-90246200D01*
D18*
%TO.N,Net-(U216-Pad2)*%
X149637146Y-118823074D02*
X149042120Y-119418100D01*
X144312640Y-98704400D02*
X145469581Y-98704400D01*
X150470381Y-118823074D02*
X149637146Y-118823074D01*
X143151860Y-99865180D02*
X144312640Y-98704400D01*
X149042120Y-119418100D02*
X144409160Y-119418100D01*
X143151860Y-118160800D02*
X143151860Y-99865180D01*
X144409160Y-119418100D02*
X143151860Y-118160800D01*
%TO.N,Net-(U217-Pad5)*%
X162958680Y-102425400D02*
X163451540Y-102918260D01*
X164084000Y-134366000D02*
X165652220Y-134366000D01*
X160651420Y-102425400D02*
X162958680Y-102425400D01*
%TO.N,Net-(U217-Pad9)*%
X165553260Y-103647240D02*
X165601420Y-103695400D01*
X162659060Y-103647240D02*
X165553260Y-103647240D01*
X160702220Y-136906000D02*
X161767184Y-136906000D01*
X161767184Y-136906000D02*
X162172931Y-136500253D01*
%TO.N,Net-(U218-Pad3)*%
X172466000Y-139642440D02*
X171392440Y-140716000D01*
X173017000Y-99525000D02*
X172466000Y-100076000D01*
X174945000Y-99525000D02*
X173017000Y-99525000D01*
X171392440Y-140716000D02*
X165652220Y-140716000D01*
%TO.N,Net-(U221-Pad1)*%
X144549526Y-112473074D02*
X143479520Y-113543080D01*
X150470381Y-117553074D02*
X149517766Y-117553074D01*
X144372934Y-118823074D02*
X145520381Y-118823074D01*
X145520381Y-112473074D02*
X144549526Y-112473074D01*
X143479520Y-113543080D02*
X143479520Y-117929660D01*
X148247766Y-118823074D02*
X145520381Y-118823074D01*
X143479520Y-117929660D02*
X144372934Y-118823074D01*
X149517766Y-117553074D02*
X148247766Y-118823074D01*
%TO.N,Net-(U222-Pad12)*%
X168948395Y-119418395D02*
X167894000Y-118364000D01*
X179118926Y-118823074D02*
X178523605Y-119418395D01*
X178523605Y-119418395D02*
X168948395Y-119418395D01*
X179961411Y-118823074D02*
X179118926Y-118823074D01*
X167894000Y-113030000D02*
X165652220Y-113030000D01*
%TO.N,Net-(U223-Pad1)*%
X163123020Y-111053020D02*
X163068000Y-110998000D01*
X173941074Y-112473074D02*
X172521020Y-111053020D01*
X163057074Y-128259074D02*
X163068000Y-128270000D01*
X160702220Y-128259074D02*
X163057074Y-128259074D01*
X172521020Y-111053020D02*
X163123020Y-111053020D01*
X175011411Y-112473074D02*
X173941074Y-112473074D01*
%TO.N,Net-(U223-Pad11)*%
X164996885Y-135039518D02*
X168490560Y-135039518D01*
X175011411Y-115013074D02*
X170037094Y-115013074D01*
X175011411Y-115013074D02*
X176884934Y-115013074D01*
X178154934Y-116283074D02*
X179961411Y-116283074D01*
X176884934Y-115013074D02*
X178154934Y-116283074D01*
X161798000Y-135636000D02*
X162052000Y-135382000D01*
X168490560Y-135039518D02*
X169633521Y-136182479D01*
X170037094Y-115013074D02*
X170027600Y-115003580D01*
X162052000Y-135382000D02*
X162394482Y-135039518D01*
X160702220Y-135636000D02*
X161798000Y-135636000D01*
X162394482Y-135039518D02*
X164996885Y-135039518D01*
%TO.N,Net-(U226-Pad3)*%
X145411161Y-129451200D02*
X145411161Y-130721200D01*
%TO.N,Net-(U226-Pad10)*%
X150361161Y-130721200D02*
X150361161Y-131991200D01*
%TO.N,Net-(U227-Pad13)*%
X163988246Y-123179074D02*
X162718246Y-124449074D01*
X162718246Y-124449074D02*
X160702220Y-124449074D01*
X165652220Y-123179074D02*
X163988246Y-123179074D01*
%TD*%
M02*
